<svg xmlns="http://www.w3.org/2000/svg" viewBox="0 0 72.57 67.76"><defs><style>.cls-1{fill:#087750;}</style></defs><title>Icon</title><g id="Layer_2" data-name="Layer 2"><g id="Layer_1-2" data-name="Layer 1"><path class="cls-1" d="M57.71,48.61V0A10,10,0,0,0,50.58,2.8a9,9,0,0,0-2.94,6.74V23.81H10.07V0S5.45-.55,1.71,4.19C1.34,4.74,0,6.24,0,10.07V67.76A10,10,0,0,0,7.13,65a8.92,8.92,0,0,0,2.94-6.68V33.37H29.43v-.09H47.64v25A8.92,8.92,0,0,0,50.58,65a10,10,0,0,0,7.13,2.78H72.57C57.71,61,57.71,48.61,57.71,48.61Z"/></g></g></svg>