<svg xmlns="http://www.w3.org/2000/svg" viewBox="0 0 735.82 153.05"><defs><style>.cls-1{fill:#087750;}</style></defs><title>Logo_1</title><g id="Layer_2" data-name="Layer 2"><g id="Layer_1-2" data-name="Layer 1"><path class="cls-1" d="M227.52,102.1a49.07,49.07,0,0,0-15-36.06,51.13,51.13,0,0,0-72.12,0,49,49,0,0,0-14.89,36.06,50.84,50.84,0,0,0,51.05,51,48.92,48.92,0,0,0,36-14.89A49.23,49.23,0,0,0,227.52,102.1Zm-30,21.07a28.65,28.65,0,0,1-21,8.7,29.1,29.1,0,0,1-21.17-8.7,29.86,29.86,0,0,1,0-42.14,28.8,28.8,0,0,1,21.17-8.8,30,30,0,0,1,29.77,29.87A28.41,28.41,0,0,1,197.54,123.17Z"/><path class="cls-1" d="M307.65,57.76a19.67,19.67,0,0,0,1.05-6.6H282.6a48.77,48.77,0,0,0-32.18,11.42,21.34,21.34,0,0,0-3.88-5.24,20.42,20.42,0,0,0-14.89-6.18v59.27s0,27.59-31.24,42.62h31.24c8.18,0,14.47-3.78,18.77-11.43a20.15,20.15,0,0,0,2.3-9.64V102.1A28.43,28.43,0,0,1,261.53,81a28.73,28.73,0,0,1,21.07-8.7h4.93a20.52,20.52,0,0,0,15-6.18A23.06,23.06,0,0,0,307.65,57.76Z"/><path class="cls-1" d="M386.84,130.51h-1.36a29.16,29.16,0,0,1-21.18-8.7,28.75,28.75,0,0,1-8.7-21.07V72.32h32.32c.72,0,1.39,0,2.05-.06h19.81c.94-12.64,11.69-21.1,11.69-21.1h-7.15v0H355.6v-30a20.42,20.42,0,0,0-6.18-14.88,20.2,20.2,0,0,0-15-6.29V52l-.21.05.21-.87H313.09c-1.82,19-14.27,21.09-15.63,21.15h37V102.1c0,16.67,6.81,30.19,20.44,40.78a48.94,48.94,0,0,0,30.61,10.17h25.26a20.73,20.73,0,0,0-.94-6.29C405.4,136,397.74,130.51,386.84,130.51Z"/><path class="cls-1" d="M414.88,37.08v7.13a20.49,20.49,0,0,0,15-6.19,20.46,20.46,0,0,0,6.18-14.88V16a20.85,20.85,0,0,0-15,6.18A20.42,20.42,0,0,0,414.88,37.08Z"/><path class="cls-1" d="M414.88,72.23v80.82a21.12,21.12,0,0,0,21.17-21.18V51.16a20.81,20.81,0,0,0-15,6.18A20.42,20.42,0,0,0,414.88,72.23Z"/><path class="cls-1" d="M570.42,23.14V16a20.87,20.87,0,0,0-15,6.18,20.42,20.42,0,0,0-6.18,14.89v7.13a20.49,20.49,0,0,0,15-6.19A20.46,20.46,0,0,0,570.42,23.14Z"/><path class="cls-1" d="M570.42,131.87V51.16a20.83,20.83,0,0,0-15,6.18,20.42,20.42,0,0,0-6.18,14.89v80.82a21.12,21.12,0,0,0,21.17-21.18Z"/><path class="cls-1" d="M605.27,91.51a9.59,9.59,0,1,1,0-19.18h5.14s16.38.39,27.12.39c7.37-14.32,26.65-22.54,26.65-22.54l-53.77,1h-5.14a29.88,29.88,0,0,0-21.81,9,29.54,29.54,0,0,0-8.91,21.7,29.73,29.73,0,0,0,7.55,20.23,30.67,30.67,0,0,0,13.52,9,29.76,29.76,0,0,0,9.65,1.57,9.65,9.65,0,0,1,0,19.29h-9.65c-.46,0-.92,0-1.37.06-3.94.06-10.84.14-19.7.14,0,14.53-12.22,20.87-12.22,20.87h42.94a30.8,30.8,0,0,0,30.82-30.72,29.35,29.35,0,0,0-7.66-20.23A29.1,29.1,0,0,0,605.27,91.51Z"/><path class="cls-1" d="M297.46,72.31h0Z"/><path class="cls-1" d="M121.39,110.43V2.31a20.49,20.49,0,0,0-15,6.18,20.49,20.49,0,0,0-6.19,15V55.24h-79V2.31S11.46,1,3.59,11.59C2.81,12.82,0,16.14,0,24.67V153.05a20.49,20.49,0,0,0,15-6.19A20.42,20.42,0,0,0,21.17,132V76.52H61.9v-.21h38.31V132a21.13,21.13,0,0,0,21.18,21.07h31.25C121.39,138,121.39,110.43,121.39,110.43Z"/><path class="cls-1" d="M533.53,51.16v0c-6.85.37-12.57,4.23-17.24,11.48L492.7,107.12,469,62.67c-4.93-7.64-11-11.51-18.24-11.51H438.49l6.44,12,47.77,89.88,50.51-95.23c3.39-6.39,4.85-6.66,4.85-6.66Z"/><path class="cls-1" d="M709.16,132.25a23.58,23.58,0,0,0-3.19-.36,50.54,50.54,0,0,0-7.58,0H684.88A29.72,29.72,0,0,1,655.1,102.1,28.72,28.72,0,0,1,663.81,81a28.39,28.39,0,0,1,21.07-8.8A28.71,28.71,0,0,1,706,80.93a29.67,29.67,0,0,1,6.81,10.58H681.42a21.12,21.12,0,0,0-21.07,21.07h74.42a48.26,48.26,0,0,0,1.05-10.48,50,50,0,0,0-1.05-10.59A50.75,50.75,0,0,0,720.94,66a50.95,50.95,0,0,0-87,36.06,50.82,50.82,0,0,0,51,51h50.94C731.16,138.29,718.66,133.6,709.16,132.25Z"/></g></g></svg>