<svg xmlns="http://www.w3.org/2000/svg" viewBox="0 0 395.06 189.51"><defs><style>.cls-1{fill:#cede23;}.cls-2{fill:#b8e30d;}.cls-3{fill:#4e522b;}.cls-4{fill:#59752b;}.cls-5{fill:#788e3c;}.cls-6{fill:#869e47;}.cls-7{fill:#b9c82d;}.cls-8{fill:#9eb134;}</style></defs><title>Bottom</title><g id="Layer_2" data-name="Layer 2"><g id="BACKGROUND_2" data-name="BACKGROUND 2"><path class="cls-1" d="M89.57,69.27s-12.88-25.55,2-48.41C91.6,20.86,103.59,44.36,89.57,69.27Z"/><path class="cls-2" d="M91.73,21.13C91,36.57,89.82,46.86,89.52,64.31c.5,1.19,0,5,0,5C102.72,45.91,93,23.78,91.73,21.13Z"/><path class="cls-3" d="M89.57,69.27s-.58-35.91,2-48.41Z"/><path class="cls-4" d="M105.49,175.82a1.51,1.51,0,0,1-1.5-1.5c0-.77-.44-77.8-26-131.84a1.5,1.5,0,1,1,2.71-1.28C106.55,95.85,107,173.54,107,174.32a1.49,1.49,0,0,1-1.49,1.5Z"/><path class="cls-5" d="M90.55,145.44s-41.74,3.32-64.91-38.84C11.32,74.81,0,66.21,0,66.21S92.17,80.71,90.55,145.44Z"/><path class="cls-6" d="M90.55,145.4c1.44-58.59-74-76-88.24-78.77,25.52,16.85,44.46,44,68.59,65.1C76.53,136.73,83.77,141.14,90.55,145.4Z"/><path class="cls-4" d="M88.54,145.42a1,1,0,0,1-.44-.1c-.18-.08-17.94-8.88-39-34.17A235.37,235.37,0,0,0,7,71.49a1,1,0,0,1-.27-1.39,1,1,0,0,1,1.39-.26c.22.14,21.45,14.8,42.49,40,20.82,25,38.19,33.57,38.36,33.65a1,1,0,0,1-.43,1.9Z"/><path class="cls-4" d="M78.85,138.36a.51.51,0,0,1-.45-.29,35.54,35.54,0,0,1-.13-25.64.5.5,0,0,1,.94.35,34.54,34.54,0,0,0,.1,24.87.5.5,0,0,1-.24.66A.42.42,0,0,1,78.85,138.36Z"/><path class="cls-4" d="M69,130.62a.58.58,0,0,1-.18,0c-.13-.05-13-5.12-21.69-3.7a.5.5,0,1,1-.16-1c9-1.48,21.68,3.54,22.22,3.75a.5.5,0,0,1-.19,1Z"/><path class="cls-4" d="M53.74,115.54a.5.5,0,0,1-.48-.37c0-.12-2.93-11.63,3.49-21.84a.5.5,0,1,1,.84.54c-6.18,9.83-3.39,20.93-3.36,21a.51.51,0,0,1-.36.61A.32.32,0,0,1,53.74,115.54Z"/><path class="cls-4" d="M46,106.19a.42.42,0,0,1-.24-.07c-.14-.07-13.4-7.56-18.2-4.93a.49.49,0,0,1-.68-.2.49.49,0,0,1,.2-.67c5.29-2.9,18.61,4.61,19.17,4.93a.52.52,0,0,1,.19.69A.51.51,0,0,1,46,106.19Z"/><path class="cls-4" d="M32.68,92.47a.49.49,0,0,1-.48-.38c-.08-.32-1.9-7.94.11-13.77a.5.5,0,0,1,.63-.31.49.49,0,0,1,.31.64c-1.91,5.55-.1,13.13-.08,13.21a.51.51,0,0,1-.37.6Z"/><path class="cls-4" d="M23.7,84.12l-.15,0c-.05,0-5-1.53-8.22-.43a.51.51,0,0,1-.64-.31.5.5,0,0,1,.31-.63c3.51-1.21,8.63.35,8.85.41a.51.51,0,0,1,.33.63A.51.51,0,0,1,23.7,84.12Z"/><path class="cls-4" d="M105.05,159.22a1,1,0,0,1-.72-.31c-.1-.11-10.35-10.77-22.48-17.34a1,1,0,0,1,1-1.76c12.41,6.72,22.87,17.61,23,17.72a1,1,0,0,1,0,1.41A1,1,0,0,1,105.05,159.22Z"/><path class="cls-7" d="M106.52,121.26s-6.64-29.41,21-50.25c21.19-13.46,26.17-22.41,26.17-22.41S152.83,115.8,106.52,121.26Z"/><path class="cls-8" d="M153.74,48.6a16.83,16.83,0,0,1-1.24,1.77c-1,5.06-5.33,12.12-8.75,16.91C129.66,87,115.35,100,107.06,121.19,152.84,115.26,153.74,48.6,153.74,48.6Z"/><path class="cls-4" d="M107.53,120.71a1,1,0,0,1-.28,0,1,1,0,0,1-.69-1.23c.16-.56,4-13.76,20-31.44a168.82,168.82,0,0,0,23.93-34,1,1,0,0,1,1.34-.45,1,1,0,0,1,.46,1.34A172.41,172.41,0,0,1,128,89.34c-15.62,17.33-19.47,30.51-19.51,30.64A1,1,0,0,1,107.53,120.71Z"/><path class="cls-4" d="M110.73,112.65a.48.48,0,0,1-.42-.23.49.49,0,0,1,.14-.69A25.26,25.26,0,0,1,128.83,109a.49.49,0,0,1,.37.6.48.48,0,0,1-.59.37,24.75,24.75,0,0,0-17.61,2.6A.56.56,0,0,1,110.73,112.65Z"/><path class="cls-4" d="M115.23,104.8h-.12a.51.51,0,0,1-.36-.61c0-.09,2.31-9.75.42-15.76a.5.5,0,0,1,.32-.63.51.51,0,0,1,.63.33c2,6.28-.3,15.89-.4,16.3A.5.5,0,0,1,115.23,104.8Z"/><path class="cls-4" d="M140.06,92.66a.45.45,0,0,1-.2,0c-7.6-3.38-15.17-.28-15.24-.25a.5.5,0,1,1-.39-.92,21.71,21.71,0,0,1,16,.26.49.49,0,0,1,.26.66A.52.52,0,0,1,140.06,92.66Z"/><path class="cls-4" d="M130.3,85.91a.58.58,0,0,1-.19,0,.5.5,0,0,1-.28-.65c1.12-2.84,3.6-10.77,1.67-13.34a.51.51,0,0,1,.1-.7.5.5,0,0,1,.7.1c2.65,3.54-1.37,13.87-1.54,14.31A.51.51,0,0,1,130.3,85.91Z"/><path class="cls-4" d="M138.71,75a.5.5,0,0,1-.18-1c.22-.09,5.5-2.18,9.91-1.33a.48.48,0,0,1,.39.58.5.5,0,0,1-.58.4c-4.12-.8-9.3,1.26-9.35,1.28A.41.41,0,0,1,138.71,75Z"/><path class="cls-4" d="M143.75,67.78h-.08a.49.49,0,0,1-.41-.57s.56-3.7-.53-5.82a.51.51,0,0,1,.22-.68.5.5,0,0,1,.67.22c1.24,2.42.65,6.27.62,6.44A.5.5,0,0,1,143.75,67.78Z"/><path class="cls-4" d="M103.83,137.4h-.14a1,1,0,0,1-.85-1.13c.11-.72,2.6-17.71,6.68-23.38a1,1,0,0,1,1.4-.22,1,1,0,0,1,.23,1.39c-3.81,5.28-6.3,22.33-6.33,22.5A1,1,0,0,1,103.83,137.4Z"/><path class="cls-7" d="M93,104.53S86.71,78.06,56,72.16c-22.51-2.5-30.09-7.79-30.09-7.79S53.3,118.47,93,104.53Z"/><path class="cls-8" d="M25.92,64.37a14.69,14.69,0,0,0,1.7.95c2.82,3.7,9.13,7.7,13.8,10.23,19.24,10.41,36,15.22,51.11,29.14C53.08,118,25.92,64.37,25.92,64.37Z"/><path class="cls-4" d="M91.56,104.67a1,1,0,0,1-.74-.33c-.08-.09-8.47-9.24-27.93-17.07A154.76,154.76,0,0,1,29.57,69a1,1,0,1,1,1.22-1.58,152.4,152.4,0,0,0,32.85,18c19.94,8,28.32,17.21,28.67,17.6a1,1,0,0,1-.75,1.66Z"/><path class="cls-4" d="M70.34,104.29a.5.5,0,0,1-.39-.18.51.51,0,0,1,.07-.71,22.91,22.91,0,0,1,16-5.08.5.5,0,0,1-.13,1,22.23,22.23,0,0,0-15.26,4.86A.45.45,0,0,1,70.34,104.29Z"/><path class="cls-4" d="M79.21,94.74a.5.5,0,0,1-.39-.18c-.24-.29-5.91-7.18-6.8-13.07a.5.5,0,0,1,1-.15c.85,5.61,6.53,12.52,6.58,12.58a.51.51,0,0,1-.06.71A.5.5,0,0,1,79.21,94.74Z"/><path class="cls-4" d="M54.27,94.75a.5.5,0,0,1-.32-.11.51.51,0,0,1-.06-.71,19.71,19.71,0,0,1,12.93-6.58.49.49,0,0,1,.53.47.51.51,0,0,1-.47.53c-.08,0-7.43.5-12.22,6.23A.52.52,0,0,1,54.27,94.75Z"/><path class="cls-4" d="M59.51,85.41a.5.5,0,0,1-.34-.13c-.31-.28-7.68-7.08-6.93-11a.49.49,0,0,1,.58-.39.5.5,0,0,1,.4.58c-.54,2.82,4.6,8.25,6.63,10.1a.5.5,0,0,1,0,.71A.49.49,0,0,1,59.51,85.41Z"/><path class="cls-4" d="M40.05,82.69a.5.5,0,0,1-.3-.9C43,79.35,48.12,79,48.34,78.94a.5.5,0,1,1,.07,1s-5,.39-8.06,2.65A.45.45,0,0,1,40.05,82.69Z"/><path class="cls-4" d="M41.42,76.05a.48.48,0,0,1-.41-.21c-.09-.12-2.11-3-2.06-5.49a.52.52,0,0,1,.51-.49.49.49,0,0,1,.49.51c0,2.14,1.86,4.87,1.88,4.89a.51.51,0,0,1-.13.7A.47.47,0,0,1,41.42,76.05Z"/><path class="cls-4" d="M101.18,116.74a1,1,0,0,1-.83-.44c-.09-.13-8.86-12.93-14-15.69a1,1,0,1,1,.94-1.76c5.58,3,14.35,15.78,14.72,16.33a1,1,0,0,1-.26,1.39A1,1,0,0,1,101.18,116.74Z"/><path class="cls-7" d="M108.53,160.13S112,123,152.53,109c30.1-7.73,39.38-16.37,39.38-16.37S165.15,171.42,108.53,160.13Z"/><path class="cls-4" d="M110.31,159.69a1,1,0,0,1-.83-1.56c.4-.59,10-14.61,35.43-29.31a209,209,0,0,0,41.23-30.91,1,1,0,1,1,1.43,1.4,212.24,212.24,0,0,1-41.66,31.24c-25,14.45-34.67,28.55-34.77,28.7A1,1,0,0,1,110.31,159.69Z"/><path class="cls-4" d="M139.17,155.26a.55.55,0,0,1-.25-.07,30.69,30.69,0,0,0-21.82-3.69.5.5,0,0,1-.26-1,31.77,31.77,0,0,1,22.59,3.8.5.5,0,0,1,.17.68A.5.5,0,0,1,139.17,155.26Z"/><path class="cls-4" d="M125.28,144a.5.5,0,0,1-.26-.08.5.5,0,0,1-.17-.69c.07-.1,6.47-10.61,6.54-18.45a.5.5,0,0,1,.5-.5h0a.5.5,0,0,1,.49.5c-.07,8.12-6.41,18.54-6.69,19A.49.49,0,0,1,125.28,144Z"/><path class="cls-4" d="M159.15,139.2a.5.5,0,0,1-.34-.13c-7.67-6.91-17.83-6.15-17.93-6.15a.5.5,0,0,1-.09-1c.44,0,10.69-.81,18.69,6.4a.5.5,0,0,1,0,.71A.49.49,0,0,1,159.15,139.2Z"/><path class="cls-4" d="M150.23,127.52a.45.45,0,0,1-.31-.11.49.49,0,0,1-.07-.7c.09-.11,8.66-10.59,7.09-15.19a.5.5,0,0,1,.31-.63.51.51,0,0,1,.64.31c1.75,5.12-6.9,15.69-7.27,16.14A.5.5,0,0,1,150.23,127.52Z"/><path class="cls-4" d="M176.14,120.08a.44.44,0,0,1-.24-.07c-4.57-2.51-11.49-2.08-11.56-2.07a.48.48,0,0,1-.53-.47.5.5,0,0,1,.46-.53c.3,0,7.29-.46,12.12,2.2a.49.49,0,0,1,.19.68A.51.51,0,0,1,176.14,120.08Z"/><path class="cls-4" d="M173,111.32a.46.46,0,0,1-.22-.06.49.49,0,0,1-.22-.67s2.1-4.17,1.62-7.13a.5.5,0,0,1,1-.16c.54,3.28-1.62,7.56-1.71,7.74A.5.5,0,0,1,173,111.32Z"/><path class="cls-4" d="M105.52,171.05a.84.84,0,0,1-.27,0,1,1,0,0,1-.69-1.24c.16-.53,3.85-13,10.85-18.16a1,1,0,1,1,1.19,1.61c-6.46,4.73-10.08,17-10.12,17.11A1,1,0,0,1,105.52,171.05Z"/><path class="cls-4" d="M97.75,103a1.07,1.07,0,0,1-.25,0,1,1,0,0,1-.71-1.22c2.07-7.84,5.91-23.69,5.6-27.63a1,1,0,0,1,2-.16c.41,5.27-5.42,27.36-5.67,28.3A1,1,0,0,1,97.75,103Z"/><path class="cls-5" d="M100.07,93.27S81.29,72.08,111.32,32.51c6.63-7.81,11.6-12.66,11.6-12.66S108.12,89.31,100.07,93.27Z"/><path class="cls-3" d="M100.07,93.27h0c8.05-4,22.85-73.42,22.85-73.42s-1,.94-2.61,2.66C118.15,46.53,109.65,71.27,100.07,93.27Z"/><path class="cls-4" d="M103.86,84.77a.54.54,0,0,1-.34-.12,23.82,23.82,0,0,1-7.08-14.14.5.5,0,0,1,1-.11,23.14,23.14,0,0,0,6.75,13.5.5.5,0,0,1,0,.7A.48.48,0,0,1,103.86,84.77Z"/><path class="cls-4" d="M110.48,68.12a.47.47,0,0,1-.35-.15c-.29-.3-7.1-7.32-7.46-13.16a.5.5,0,0,1,.47-.53.48.48,0,0,1,.53.47c.34,5.47,7.1,12.45,7.17,12.52a.5.5,0,0,1,0,.71A.46.46,0,0,1,110.48,68.12Z"/><path class="cls-4" d="M115.82,48.85a.51.51,0,0,1-.41-.2c-.16-.22-3.93-5.37-3.25-11a.52.52,0,0,1,.56-.44.5.5,0,0,1,.43.56c-.63,5.25,3,10.25,3.07,10.3a.5.5,0,0,1-.11.7A.53.53,0,0,1,115.82,48.85Z"/><path class="cls-4" d="M92,81.23a1,1,0,0,1-.84-.45c-.53-.82-13-20-14.2-25.12a1,1,0,0,1,2-.47c.93,3.84,9.52,17.7,13.93,24.5A1,1,0,0,1,92,81.23Z"/><path class="cls-7" d="M87.07,72.67s11.23-26-29.63-54.23c-8.73-5.36-15-8.42-15-8.42S78.18,71.42,87.07,72.67Z"/><path class="cls-3" d="M87.07,72.67h0C78.18,71.42,42.47,10,42.47,10s1.21.6,3.31,1.72C55.32,33.9,71.1,54.75,87.07,72.67Z"/><path class="cls-4" d="M80.66,65.8a.47.47,0,0,1-.25-.07.49.49,0,0,1-.18-.68,23.15,23.15,0,0,0,2.21-14.94.5.5,0,1,1,1-.2,23.67,23.67,0,0,1-2.33,15.64A.5.5,0,0,1,80.66,65.8Z"/><path class="cls-4" d="M69.18,52A.42.42,0,0,1,69,52a.5.5,0,0,1-.23-.67c0-.08,4.29-8.83,2.91-14.13a.5.5,0,0,1,.36-.61.49.49,0,0,1,.61.36c1.47,5.65-2.8,14.45-3,14.82A.5.5,0,0,1,69.18,52Z"/><path class="cls-4" d="M58.1,35.39l-.16,0a.49.49,0,0,1-.31-.63c0-.06,1.94-5.95-.3-10.74a.49.49,0,0,1,.24-.66.5.5,0,0,1,.67.24c2.4,5.15.42,11.22.34,11.48A.5.5,0,0,1,58.1,35.39Z"/><path class="cls-1" d="M320.47,75.66s-6.6-27.85-32.72-35.74C287.75,39.92,293.7,65.62,320.47,75.66Z"/><path class="cls-2" d="M287.82,40.21c10.52,11.33,18,18.46,29.49,31.62.39,1.23,3.16,3.83,3.16,3.83C295.36,66.25,288.57,43.05,287.82,40.21Z"/><path class="cls-3" d="M320.47,75.66S297.8,47.81,287.75,39.92Z"/><path class="cls-4" d="M375.91,167.79a1.51,1.51,0,0,1-1.15-.53c-.5-.6-50.18-60.33-65.55-118.82a1.51,1.51,0,0,1,2.91-.77c15.19,57.84,64.45,117.07,64.94,117.66a1.49,1.49,0,0,1-1.15,2.46Z"/><path class="cls-5" d="M368.76,134.57s34.07-24.32,24.66-71.51C383.91,29.53,387,15.65,387,15.65S325.84,86.09,368.76,134.57Z"/><path class="cls-6" d="M368.74,134.54c-38.84-43.91,7.68-105.79,16.8-117.08-8.68,29.32-5.71,62.27-10.58,94C373.88,118.89,371.17,126.92,368.74,134.54Z"/><path class="cls-4" d="M369.64,133.5a1,1,0,0,1-.41-.09,1,1,0,0,1-.5-1.32c.08-.17,7.83-18,7.69-50.45a237.13,237.13,0,0,1,6.73-58,1,1,0,1,1,1.93.53,235,235,0,0,0-6.66,57.44c.14,32.93-7.79,51.1-7.87,51.28A1,1,0,0,1,369.64,133.5Z"/><path class="cls-4" d="M372.82,121.74a.49.49,0,0,1-.48-.37,34.51,34.51,0,0,0-15.93-19.09.5.5,0,1,1,.49-.87,35.58,35.58,0,0,1,16.41,19.7.51.51,0,0,1-.36.62Z"/><path class="cls-4" d="M375.41,109.44a.46.46,0,0,1-.23-.06.5.5,0,0,1-.21-.67c.28-.51,6.77-12.53,14.59-17.18a.5.5,0,0,1,.51.86c-7.58,4.51-14.15,16.67-14.22,16.79A.48.48,0,0,1,375.41,109.44Z"/><path class="cls-4" d="M377.35,88.12a.49.49,0,0,1-.45-.29c0-.1-5.07-10.39-16.13-13.94a.5.5,0,0,1,.3-1c11.48,3.68,16.68,14.35,16.73,14.46a.5.5,0,0,1-.24.67A.5.5,0,0,1,377.35,88.12Z"/><path class="cls-4" d="M377.27,76l-.17,0a.5.5,0,0,1-.29-.65c.22-.61,5.57-14.93,11.49-16.12a.5.5,0,0,1,.58.39.49.49,0,0,1-.39.59c-5.37,1.08-10.69,15.35-10.75,15.49A.5.5,0,0,1,377.27,76Z"/><path class="cls-4" d="M378.61,56.91a.48.48,0,0,1-.44-.28c0-.07-3.53-7-8.57-10.05a.51.51,0,0,1-.18-.69.49.49,0,0,1,.69-.17c5.29,3.17,8.81,10.17,8.95,10.47a.5.5,0,0,1-.22.67A.59.59,0,0,1,378.61,56.91Z"/><path class="cls-4" d="M380.11,44.73a.45.45,0,0,1-.27-.08.5.5,0,0,1-.15-.69c.12-.19,3-4.68,6.5-6a.5.5,0,0,1,.65.29.5.5,0,0,1-.29.64c-3.16,1.22-6,5.58-6,5.62A.49.49,0,0,1,380.11,44.73Z"/><path class="cls-4" d="M365.88,154.69h-.06a1,1,0,0,1-.94-1.06c0-.15,1-15.21,6.18-28.34a1,1,0,0,1,1.3-.56,1,1,0,0,1,.56,1.29c-5.06,12.84-6,27.59-6,27.74A1,1,0,0,1,365.88,154.69Z"/><path class="cls-7" d="M341,126.35s-13.85-26.78-48.46-24.9c-24.88,3.35-34.45-.3-34.45-.3S302,152,341,126.35Z"/><path class="cls-8" d="M258.06,101.15a17.14,17.14,0,0,0,2.09.56c4,3.22,11.87,5.84,17.57,7.3,23.5,6,42.77,6.72,62.79,17.63C301.66,151.58,258.06,101.15,258.06,101.15Z"/><path class="cls-4" d="M339.2,126.81a1,1,0,0,1-.56-.17c-.12-.07-11.6-7.68-34.66-10.89A171.58,171.58,0,0,1,263.25,105a1,1,0,0,1-.51-1.32,1,1,0,0,1,1.32-.52,168.63,168.63,0,0,0,40.2,10.61c23.57,3.28,35,10.89,35.5,11.22a1,1,0,0,1-.56,1.82Z"/><path class="cls-4" d="M316.4,132.13a.49.49,0,0,1-.3-.1.51.51,0,0,1-.1-.7,25.31,25.31,0,0,1,15.83-9.74.5.5,0,0,1,.12,1,24.77,24.77,0,0,0-15.15,9.35A.51.51,0,0,1,316.4,132.13Z"/><path class="cls-4" d="M323.38,119.48a.5.5,0,0,1-.29-.09c-.34-.25-8.28-6.14-10.8-12.22a.49.49,0,0,1,.27-.65.5.5,0,0,1,.65.27c2.42,5.82,10.39,11.73,10.47,11.79a.5.5,0,0,1-.3.9Z"/><path class="cls-4" d="M296.57,126.18a.54.54,0,0,1-.22-.05.5.5,0,0,1-.23-.67,21.78,21.78,0,0,1,12.11-10.52.5.5,0,0,1,.29,1c-.08,0-7.87,2.54-11.5,10A.5.5,0,0,1,296.57,126.18Z"/><path class="cls-4" d="M299.7,114.73a.53.53,0,0,1-.24-.06c-.41-.22-10.14-5.54-10.39-10a.49.49,0,0,1,.47-.52.47.47,0,0,1,.53.47c.18,3.2,7.18,7.68,9.87,9.13a.51.51,0,0,1,.2.68A.5.5,0,0,1,299.7,114.73Z"/><path class="cls-4" d="M278,117a.45.45,0,0,1-.31-.11.5.5,0,0,1-.08-.7c2.83-3.48,8.22-5.29,8.45-5.36a.5.5,0,0,1,.63.32.51.51,0,0,1-.32.63c-.05,0-5.34,1.79-8,5A.5.5,0,0,1,278,117Z"/><path class="cls-4" d="M277.72,109.51a.49.49,0,0,1-.32-.12c-.13-.11-3.06-2.68-3.67-5.32a.5.5,0,0,1,1-.23c.53,2.34,3.31,4.77,3.34,4.79a.51.51,0,0,1,.05.71A.52.52,0,0,1,277.72,109.51Z"/><path class="cls-4" d="M352.77,137.21a1,1,0,0,1-.66-.25c-.13-.12-13-11.56-19.32-13.15a1,1,0,0,1-.73-1.21,1,1,0,0,1,1.22-.73c6.77,1.71,19.62,13.11,20.16,13.59a1,1,0,0,1,.08,1.41A1,1,0,0,1,352.77,137.21Z"/><path class="cls-7" d="M340.55,104.85S328.31,80.55,348,56.26c15.61-16.4,18-25.33,18-25.33S379.9,90,340.55,104.85Z"/><path class="cls-8" d="M366,30.93a16,16,0,0,1-.69,1.83c.22,4.64-2,11.76-4,16.7-8,20.36-17.73,34.8-20.35,55.2C379.78,89.48,366,30.93,366,30.93Z"/><path class="cls-4" d="M341.09,104.27h0a1,1,0,0,1-1-1c0-.52.52-12.95,10.61-31.92a152.19,152.19,0,0,0,13.52-35,1,1,0,0,1,2,.42,154.77,154.77,0,0,1-13.71,35.48c-9.85,18.52-10.37,30.92-10.38,31A1,1,0,0,1,341.09,104.27Z"/><path class="cls-4" d="M342.24,96.45a.49.49,0,0,1-.36-.84,22.85,22.85,0,0,1,15.52-6.42.5.5,0,0,1,.51.49.49.49,0,0,1-.49.51,22.3,22.3,0,0,0-14.81,6.1A.49.49,0,0,1,342.24,96.45Z"/><path class="cls-4" d="M344.47,88.6a.51.51,0,0,1-.5-.5c0-.09-.1-9-3.06-13.86a.5.5,0,0,1,.85-.53c3.11,5.08,3.21,14,3.21,14.38a.5.5,0,0,1-.49.51Z"/><path class="cls-4" d="M349.82,75.75a.48.48,0,0,1-.4-.2.5.5,0,0,1,.1-.7,19.62,19.62,0,0,1,14.13-3.29.5.5,0,0,1,.4.58.49.49,0,0,1-.58.4,18.92,18.92,0,0,0-13.35,3.11A.57.57,0,0,1,349.82,75.75Z"/><path class="cls-4" d="M353.54,68.78h-.07a.5.5,0,0,1-.43-.56c.36-2.72.8-10.18-1.43-12a.49.49,0,0,1-.07-.7.49.49,0,0,1,.7-.07c3.12,2.53,1.85,12.48,1.79,12.9A.5.5,0,0,1,353.54,68.78Z"/><path class="cls-4" d="M358.53,57.42a.49.49,0,0,1-.4-.21.51.51,0,0,1,.11-.7c.18-.12,4.35-3.12,8.41-3.34a.48.48,0,0,1,.53.47.51.51,0,0,1-.48.53c-3.75.2-7.83,3.12-7.87,3.15A.49.49,0,0,1,358.53,57.42Z"/><path class="cls-4" d="M361.36,50a.49.49,0,0,1-.5-.45s-.31-3.35-1.72-5a.5.5,0,1,1,.75-.65c1.63,1.85,1.95,5.37,2,5.52a.5.5,0,0,1-.46.54Z"/><path class="cls-4" d="M341.5,119.69a1,1,0,0,1-1-.9c-.07-.66-1.6-16.09.75-22a1,1,0,0,1,1.86.74c-2.17,5.43-.64,20.87-.62,21a1,1,0,0,1-.9,1.09Z"/><path class="cls-7" d="M364.45,157.39s-26.55-26.23-66.57-10.78c-28,13.46-40.68,12.82-40.68,12.82S328.39,202.48,364.45,157.39Z"/><path class="cls-4" d="M278.05,162.22c-8.16,0-13.13-.47-13.24-.49a1,1,0,0,1-.89-1.09,1,1,0,0,1,1.09-.9,209.58,209.58,0,0,0,51.45-2.88c29-5.15,45.3-.58,46-.39a1,1,0,0,1-.56,1.93c-.16-.05-16.63-4.63-45.07.42A224.11,224.11,0,0,1,278.05,162.22Z"/><path class="cls-4" d="M337.55,173.5a.5.5,0,0,1-.17,0,.51.51,0,0,1-.31-.64,31.77,31.77,0,0,1,14.85-17.45.51.51,0,0,1,.66.25.49.49,0,0,1-.24.66A30.71,30.71,0,0,0,338,173.17.51.51,0,0,1,337.55,173.5Z"/><path class="cls-4" d="M340.93,155.94a.44.44,0,0,1-.16,0c-.49-.16-12-4-17.33-10.22a.49.49,0,0,1,.05-.7.51.51,0,0,1,.71.05c5.1,6,16.77,9.88,16.88,9.92a.5.5,0,0,1-.15,1Z"/><path class="cls-4" d="M311.92,174.08h-.07a.5.5,0,0,1-.42-.57c1.48-10.66,9.82-16.68,10.18-16.93a.5.5,0,0,1,.69.12.51.51,0,0,1-.11.7c-.09.06-8.35,6-9.77,16.25A.51.51,0,0,1,311.92,174.08Z"/><path class="cls-4" d="M311.23,159.41h-.09c-.57-.11-14-2.64-15.95-7.68a.48.48,0,0,1,.28-.64.51.51,0,0,1,.65.28c1.75,4.53,15.06,7,15.2,7a.5.5,0,0,1-.09,1Z"/><path class="cls-4" d="M286.61,170.39l-.18,0a.5.5,0,0,1-.29-.65c2-5.15,7.61-9.31,7.85-9.48a.5.5,0,1,1,.59.8c-.05,0-5.63,4.17-7.51,9A.48.48,0,0,1,286.61,170.39Z"/><path class="cls-4" d="M283.36,161.67a.43.43,0,0,1-.19,0c-.19-.08-4.59-2-6.3-4.82a.5.5,0,0,1,.17-.68.49.49,0,0,1,.69.17c1.54,2.57,5.79,4.39,5.83,4.41a.5.5,0,0,1-.2,1Z"/><path class="cls-4" d="M373.14,164.05a1,1,0,0,1-.56-.17c-.1-.07-10.77-7.11-18.75-6.58a1,1,0,0,1-.13-2c8.69-.57,19.54,6.61,20,6.91a1,1,0,0,1-.55,1.84Z"/><path class="cls-4" d="M335.27,107a1,1,0,0,1-.58-.18c-.79-.56-19.47-13.71-22.54-18a1,1,0,1,1,1.62-1.16c2.3,3.21,15.45,12.87,22.08,17.53a1,1,0,0,1-.58,1.81Z"/><path class="cls-5" d="M327.89,100.79s.72-28.31-47.73-39.26c-10.1-1.71-17-2.22-17-2.22S319.18,102.93,327.89,100.79Z"/><path class="cls-3" d="M327.89,100.79h0c-8.71,2.14-64.76-41.48-64.76-41.48s1.35.1,3.71.36C284,76.66,306.38,90.11,327.89,100.79Z"/><path class="cls-4" d="M319.19,96.83h-.07a.51.51,0,0,1-.42-.57,23.14,23.14,0,0,0-3.53-14.68.5.5,0,0,1,.14-.69.51.51,0,0,1,.7.14,23.75,23.75,0,0,1,3.68,15.38A.5.5,0,0,1,319.19,96.83Z"/><path class="cls-4" d="M303.4,88.36h0a.5.5,0,0,1-.47-.54c0-.09.69-9.8-2.57-14.2a.5.5,0,1,1,.8-.59c3.48,4.7,2.8,14.45,2.77,14.87A.5.5,0,0,1,303.4,88.36Z"/><path class="cls-4" d="M286.91,77a.5.5,0,0,1-.5-.47c0-.06-.42-6.24-4.28-9.85a.5.5,0,1,1,.68-.73c4.16,3.88,4.59,10.25,4.6,10.52a.49.49,0,0,1-.47.53Z"/><path class="cls-4" d="M325.68,86.6a1,1,0,0,1-1-.88c-1-8-3.36-24.18-5.11-27.72a1,1,0,0,1,.45-1.34,1,1,0,0,1,1.34.45c2.34,4.73,5.18,27.4,5.3,28.37a1,1,0,0,1-.87,1.11Z"/><path class="cls-7" d="M324.57,76.65S299.24,64,312.33,16.07c3.23-9.72,6-16.07,6-16.07S330.56,70,324.57,76.65Z"/><path class="cls-3" d="M324.57,76.65h0C330.56,70,318.36,0,318.36,0s-.54,1.24-1.43,3.45C323.91,26.54,325.25,52.65,324.57,76.65Z"/><path class="cls-4" d="M324.73,67.39a.51.51,0,0,1-.17,0,23.74,23.74,0,0,1-11.85-10.48.5.5,0,0,1,.21-.68.5.5,0,0,1,.67.21,23.08,23.08,0,0,0,11.31,10,.51.51,0,0,1-.17,1Z"/><path class="cls-4" d="M324.66,49.46a.45.45,0,0,1-.2,0c-.38-.17-9.31-4.15-11.83-9.42a.5.5,0,0,1,.24-.67.5.5,0,0,1,.66.24c2.36,4.94,11.24,8.9,11.33,8.94a.5.5,0,0,1-.2,1Z"/><path class="cls-4" d="M322.41,29.59a.48.48,0,0,1-.26-.07c-.23-.14-5.65-3.51-7.13-9a.5.5,0,0,1,.35-.61.52.52,0,0,1,.62.35c1.37,5.12,6.63,8.38,6.68,8.41a.51.51,0,0,1,.17.69A.5.5,0,0,1,322.41,29.59Z"/><path class="cls-5" d="M185,149.72s-39.33-16.31-40.79-65.22c1.76-35.4-4.52-48.43-4.52-48.43S216.48,91.86,185,149.72Z"/><path class="cls-6" d="M185.54,148.74c-3.46-8-9.15-14.15-12.68-22.05-12.55-28.6-14-65.43-32.76-89.75-.23-.58-.37-.87-.37-.87S215.6,91.24,185.54,148.74Z"/><path class="cls-4" d="M184.07,148.29a1,1,0,0,1-.78-.37c-.51-.63-12.52-15.77-19.91-48.45-7.31-32.32-19.61-55.17-19.74-55.4a1,1,0,0,1,.4-1.36,1,1,0,0,1,1.36.41A241.69,241.69,0,0,1,165.33,99c7.29,32.22,19.4,47.48,19.52,47.63a1,1,0,0,1-.78,1.63Z"/><path class="cls-4" d="M178,137.94h0a.5.5,0,0,1-.48-.52,36.16,36.16,0,0,1,11.76-23.27.5.5,0,0,1,.66.75,35,35,0,0,0-11.42,22.56A.5.5,0,0,1,178,137.94Z"/><path class="cls-4" d="M172.58,126.35a.5.5,0,0,1-.37-.17c-.1-.11-9.39-10.66-17.93-13.39a.5.5,0,0,1,.31-1c8.8,2.81,18,13.24,18.37,13.68a.49.49,0,0,1-.05.7A.46.46,0,0,1,172.58,126.35Z"/><path class="cls-4" d="M165.79,105.66l-.11,0a.49.49,0,0,1-.38-.59c0-.12,2.73-11.88,13.26-18.15a.5.5,0,0,1,.52.86c-10.17,6-12.78,17.39-12.8,17.5A.5.5,0,0,1,165.79,105.66Z"/><path class="cls-4" d="M163.08,93.59a.49.49,0,0,1-.41-.22c-.09-.13-8.6-13.05-14.2-12.9A.49.49,0,0,1,148,80a.5.5,0,0,1,.49-.52h.12c6.12,0,14.58,12.8,14.94,13.35a.5.5,0,0,1-.14.69A.48.48,0,0,1,163.08,93.59Z"/><path class="cls-4" d="M157.4,75h-.12a.5.5,0,0,1-.37-.6c.08-.33,2-8.07,6.48-12.42a.51.51,0,0,1,.71,0,.5.5,0,0,1,0,.71c-4.31,4.15-6.18,11.85-6.19,11.93A.5.5,0,0,1,157.4,75Z"/><path class="cls-4" d="M153.13,63.3a.49.49,0,0,1-.34-.14s-3.85-3.72-7.26-4.2a.5.5,0,0,1,.14-1c3.73.53,7.65,4.31,7.81,4.47a.5.5,0,0,1,0,.71A.51.51,0,0,1,153.13,63.3Z"/><path class="cls-4" d="M189.93,153.54a1,1,0,0,1-.45-.1c-.22-.11-5.5-2.83-9.73-11.09a1,1,0,1,1,1.78-.91c3.94,7.68,8.8,10.18,8.85,10.21a1,1,0,0,1,.44,1.34A1,1,0,0,1,189.93,153.54Z"/><path class="cls-7" d="M224.68,99.1s28.81.69,31.57-39.49C256.25,59.61,223.87,60.94,224.68,99.1Z"/><path class="cls-1" d="M224.68,99.1C223.9,62.29,254,59.75,256.13,59.62,246,73,235.2,85.57,225.55,99.08,225,99.11,224.68,99.1,224.68,99.1Z"/><path class="cls-3" d="M252.75,62.86s-20.7,32.61-28.07,36.24Z"/><path class="cls-4" d="M180.79,173.36a1.5,1.5,0,0,1-1.35-2.15c1.3-2.71,32-66.51,52.78-80.74a1.5,1.5,0,1,1,1.7,2.48c-20.09,13.77-51.46,78.9-51.78,79.56A1.48,1.48,0,0,1,180.79,173.36Z"/><path class="cls-8" d="M207.67,132.53s21.61-28.57,61.75-19.41c28.46,8.93,40.4,6.58,40.4,6.58S248.13,170.39,207.67,132.53Z"/><path class="cls-7" d="M273.42,125.6c-20.87,2.6-41.51.86-62.59,4.28a4.14,4.14,0,0,0-1.55.76c5.7-6.22,26.36-25.23,60.14-17.52,28.46,8.93,40.4,6.58,40.4,6.58s-.45.38-1.29,1a85.64,85.64,0,0,1-25.8,2.85C280,123.77,276.11,125.41,273.42,125.6Z"/><path class="cls-4" d="M209.85,133.26a1,1,0,0,1-.41-1.91c.62-.28,15.53-6.9,43.74-6A200.88,200.88,0,0,0,302.44,121a1,1,0,1,1,.48,1.94,202.48,202.48,0,0,1-49.8,4.39c-27.7-.89-42.71,5.73-42.86,5.8A1,1,0,0,1,209.85,133.26Z"/><path class="cls-4" d="M235.37,144.16a.5.5,0,0,1-.44-.27,29.39,29.39,0,0,0-15.91-14,.5.5,0,1,1,.29-1,30.49,30.49,0,0,1,16.51,14.54.49.49,0,0,1-.22.67A.46.46,0,0,1,235.37,144.16Z"/><path class="cls-4" d="M229.75,127.94a.5.5,0,0,1-.45-.27.5.5,0,0,1,.22-.67c.11-.06,10.65-5.38,14.67-11.74a.5.5,0,1,1,.85.53c-4.17,6.6-14.63,11.88-15.07,12.1A.44.44,0,0,1,229.75,127.94Z"/><path class="cls-4" d="M259.79,141.18a.51.51,0,0,1-.48-.36c-2.76-9.51-11.41-14-11.5-14.08a.51.51,0,0,1-.22-.68.5.5,0,0,1,.67-.21c.37.18,9.13,4.75,12,14.69a.49.49,0,0,1-.34.62Z"/><path class="cls-4" d="M258.44,127.14a.5.5,0,0,1-.48-.34.5.5,0,0,1,.31-.63c.13,0,12.42-4.25,13.46-8.78a.5.5,0,1,1,1,.23c-1.16,5.07-13.58,9.32-14.1,9.5Z"/><path class="cls-4" d="M283.33,134.19a.51.51,0,0,1-.43-.26c-2.45-4.36-8.31-7.51-8.37-7.54a.5.5,0,0,1-.21-.68.5.5,0,0,1,.68-.2c.25.13,6.17,3.31,8.77,7.93a.5.5,0,0,1-.19.68A.55.55,0,0,1,283.33,134.19Z"/><path class="cls-4" d="M285.21,125.46a.48.48,0,0,1-.42-.25.49.49,0,0,1,.16-.68s3.82-2.34,4.92-5a.5.5,0,0,1,.93.38c-1.23,2.95-5.16,5.35-5.33,5.45A.5.5,0,0,1,285.21,125.46Z"/><path class="cls-4" d="M198.18,138.82a1,1,0,0,1-.84-.45,1,1,0,0,1,.29-1.39c.49-.31,11.87-7.68,18.62-7.68h.09a1,1,0,0,1,0,2h-.08c-6.15,0-17.4,7.29-17.51,7.36A1,1,0,0,1,198.18,138.82Z"/><path class="cls-6" d="M201.53,123.28s-18.25-23.94-1.78-54.36c13.65-21,14.44-31.22,14.44-31.22S241.3,99.07,201.53,123.28Z"/><path class="cls-4" d="M201.8,122.45a1,1,0,0,1-1-.84c-.09-.57-2.07-14.16,5-36.83a169,169,0,0,0,7.6-40.8,1,1,0,0,1,1-1,1,1,0,0,1,1,1,171.5,171.5,0,0,1-7.69,41.35c-6.95,22.17-5,35.79-5,35.92a1,1,0,0,1-.83,1.14Z"/><path class="cls-4" d="M201.57,113.76a.52.52,0,0,1-.27-.07.51.51,0,0,1-.16-.69,25.21,25.21,0,0,1,15.55-10.12.5.5,0,1,1,.2,1,24.66,24.66,0,0,0-14.9,9.68A.49.49,0,0,1,201.57,113.76Z"/><path class="cls-4" d="M202.39,104.76a.5.5,0,0,1-.49-.4c0-.1-2-9.81-6.17-14.48a.5.5,0,1,1,.75-.67c4.4,4.88,6.33,14.55,6.41,15a.5.5,0,0,1-.4.58Z"/><path class="cls-4" d="M205.59,89.7a.5.5,0,0,1-.37-.84,21.69,21.69,0,0,1,14.66-6.43h0a.5.5,0,1,1,0,1c-8.28.09-13.88,6-13.93,6.11A.5.5,0,0,1,205.59,89.7Z"/><path class="cls-4" d="M208.22,81.36a.49.49,0,0,1-.5-.47c-.17-3-1.21-11.27-4-12.8a.51.51,0,0,1-.2-.68.5.5,0,0,1,.68-.2c3.88,2.11,4.52,13.16,4.55,13.62a.5.5,0,0,1-.47.53Z"/><path class="cls-4" d="M211.34,68a.52.52,0,0,1-.35-.14.48.48,0,0,1,0-.7c.16-.18,4.08-4.27,8.43-5.34a.51.51,0,0,1,.61.37.5.5,0,0,1-.37.6c-4.06,1-7.91,5-8,5A.48.48,0,0,1,211.34,68Z"/><path class="cls-4" d="M212.89,59.31a.5.5,0,0,1-.48-.37s-1-3.59-2.89-5.06a.5.5,0,1,1,.61-.79c2.14,1.68,3.2,5.42,3.24,5.58a.5.5,0,0,1-.34.62Z"/><path class="cls-4" d="M203.52,127.75a1,1,0,0,1-.83-.46c-.1-.15-2.42-3.76-2.07-10.41a1,1,0,0,1,1.06-.94,1,1,0,0,1,.94,1c-.31,5.94,1.72,9.18,1.74,9.21a1,1,0,0,1-.29,1.38A1,1,0,0,1,203.52,127.75Z"/><path class="cls-5" d="M186.63,164s28.51-22.15,65.17-2.72c25.35,16.13,37.58,17,37.58,17S216.09,211.41,186.63,164Z"/><path class="cls-4" d="M281.83,179.6h0a204.73,204.73,0,0,1-49.6-8.75c-26.72-8.12-43.06-5.61-43.22-5.58a1,1,0,1,1-.32-2c.67-.11,16.9-2.63,44.12,5.63a202.54,202.54,0,0,0,49.06,8.67,1,1,0,0,1,1,1A1,1,0,0,1,281.83,179.6Z"/><path class="cls-4" d="M210.68,182.56a.5.5,0,0,1-.49-.4,29.72,29.72,0,0,0-11.81-17.83.49.49,0,0,1-.16-.68.5.5,0,0,1,.69-.17A30.75,30.75,0,0,1,211.17,182a.5.5,0,0,1-.39.59Z"/><path class="cls-4" d="M209.44,165.31a.51.51,0,0,1-.49-.4.5.5,0,0,1,.4-.59c.11,0,11.76-2.45,17.34-7.59a.5.5,0,1,1,.68.74c-5.78,5.32-17.34,7.73-17.83,7.83Z"/><path class="cls-4" d="M235.22,186.05a.5.5,0,0,1-.5-.49c-.2-10-7.44-16.65-7.51-16.72a.49.49,0,0,1,0-.7.5.5,0,0,1,.71,0c.31.28,7.63,7,7.84,17.44a.52.52,0,0,1-.49.51Z"/><path class="cls-4" d="M237.57,172a.5.5,0,0,1-.5-.46.49.49,0,0,1,.47-.53c.13,0,13.19-.89,15.39-5a.49.49,0,0,1,.67-.21.5.5,0,0,1,.21.68c-2.46,4.62-15.65,5.51-16.21,5.54Z"/><path class="cls-4" d="M260,185.4a.49.49,0,0,1-.48-.37c-1.25-4.89-6.12-9.49-6.17-9.53a.5.5,0,0,1,0-.71.51.51,0,0,1,.71,0c.21.2,5.14,4.84,6.46,10a.51.51,0,0,1-.37.61Z"/><path class="cls-4" d="M264.06,177.4a.5.5,0,0,1-.13-1s4.32-1.27,6.09-3.56a.5.5,0,1,1,.79.61c-2,2.55-6.42,3.86-6.61,3.91A.32.32,0,0,1,264.06,177.4Z"/><path class="cls-4" d="M182.5,167.4a1,1,0,0,1-.83-.45,1,1,0,0,1,.27-1.38c.18-.12,4.43-2.91,12.35-2.55a1,1,0,1,1-.09,2c-7.21-.31-11.11,2.2-11.15,2.22A1,1,0,0,1,182.5,167.4Z"/><path class="cls-4" d="M222.07,103.68a1,1,0,0,1-.44-1.9c6.88-3.36,20.59-10.42,23.22-13.08a1,1,0,0,1,1.42,1.41c-3.52,3.56-22.94,13.07-23.77,13.47A1,1,0,0,1,222.07,103.68Z"/><path class="cls-6" d="M229.73,98.94s3.54-26.55,50.44-29.57c9.69-.09,16.24.46,16.24.46S237.55,102.25,229.73,98.94Z"/><path class="cls-3" d="M229.73,98.94h0c7.82,3.31,66.68-29.11,66.68-29.11s-1.27-.1-3.52-.22C274.37,83,251.41,92.18,229.73,98.94Z"/><path class="cls-4" d="M238.52,96.58h0a.5.5,0,0,1-.49-.5,22.46,22.46,0,0,1,5.74-13.84.5.5,0,1,1,.73.68A21.84,21.84,0,0,0,239,96.08.5.5,0,0,1,238.52,96.58Z"/><path class="cls-4" d="M254.53,91h0a.49.49,0,0,1-.45-.54c0-.39.84-9.62,4.8-13.5a.5.5,0,0,1,.7.72c-3.69,3.62-4.5,12.77-4.51,12.87A.49.49,0,0,1,254.53,91Z"/><path class="cls-4" d="M271.62,82.9l-.1,0a.49.49,0,0,1-.38-.59c.05-.25,1.4-6.15,5.88-9.17a.5.5,0,1,1,.55.83c-4.14,2.8-5.44,8.5-5.46,8.55A.5.5,0,0,1,271.62,82.9Z"/></g></g></svg>