<svg xmlns="http://www.w3.org/2000/svg" xmlns:xlink="http://www.w3.org/1999/xlink" width="126.498" height="299.486" viewBox="0 0 126.498 299.486">
  <defs>
    <clipPath id="clip-path">
      <path id="Path_180" data-name="Path 180" d="M10.64,105.69v24.1a19.32,19.32,0,0,0,19.27,19.27H51.16a19.32,19.32,0,0,0,19.27-19.27v-24.1Z" fill="none"/>
    </clipPath>
  </defs>
  <g id="Layer_2" data-name="Layer 2" transform="translate(0 90.576)">
    <g id="OBJECTS">
      <path id="Path_176" data-name="Path 176" d="M105.62,204.41c0,2.48-23.64,4.5-52.81,4.5S0,206.89,0,204.41s23.64-4.5,52.81-4.5S105.62,201.93,105.62,204.41Z" fill="#f4f2ed"/>
      <path id="Path_177" data-name="Path 177" d="M10.64,105.69v24.1a19.32,19.32,0,0,0,19.27,19.27H51.16a19.32,19.32,0,0,0,19.27-19.27v-24.1Z" fill="#ecc742"/>
      <g id="Group_112" data-name="Group 112" clip-path="url(#clip-path)">
        <path id="Path_178" data-name="Path 178" d="M68.16,120.79a6.77,6.77,0,0,1-4-1.22,5.06,5.06,0,0,0-5.79,0,7.2,7.2,0,0,1-8,0,5,5,0,0,0-5.77,0,7.2,7.2,0,0,1-8,0,5,5,0,0,0-5.78,0,7.2,7.2,0,0,1-8,0,4.67,4.67,0,0,0-2.89-.91,4.62,4.62,0,0,0-2.88.91,6.79,6.79,0,0,1-4,1.22,6.77,6.77,0,0,1-4-1.22,4.67,4.67,0,0,0-2.89-.91v-2.14a6.76,6.76,0,0,1,4,1.23,4.67,4.67,0,0,0,2.89.91,4.64,4.64,0,0,0,2.88-.91,6.76,6.76,0,0,1,4-1.23,6.76,6.76,0,0,1,4,1.23,5,5,0,0,0,5.78,0,7.15,7.15,0,0,1,8,0,5,5,0,0,0,5.77,0,6.8,6.8,0,0,1,4-1.23,6.73,6.73,0,0,1,4,1.23,5,5,0,0,0,5.78,0,7.17,7.17,0,0,1,8,0,5,5,0,0,0,5.78,0,6.8,6.8,0,0,1,4-1.23v2.14a4.7,4.7,0,0,0-2.9.91,6.77,6.77,0,0,1-3.98,1.22Z" fill="#fff"/>
        <path id="Path_179" data-name="Path 179" d="M68.16,131.46a6.69,6.69,0,0,1-4-1.23,5.11,5.11,0,0,0-5.79,0,7.15,7.15,0,0,1-8,0,5.07,5.07,0,0,0-5.77,0,7.15,7.15,0,0,1-8,0,5.09,5.09,0,0,0-5.78,0,7.119,7.119,0,0,1-8,0,4.73,4.73,0,0,0-2.89-.9,4.68,4.68,0,0,0-2.88.9,6.72,6.72,0,0,1-4,1.23,6.69,6.69,0,0,1-4-1.23,4.73,4.73,0,0,0-2.89-.9v-2.14a6.76,6.76,0,0,1,4,1.23,4.67,4.67,0,0,0,2.89.91,4.64,4.64,0,0,0,2.88-.91,6.69,6.69,0,0,1,4-1.23,6.69,6.69,0,0,1,4,1.23,5,5,0,0,0,5.78,0,7.15,7.15,0,0,1,8,0,5,5,0,0,0,5.77,0,6.73,6.73,0,0,1,4-1.23,6.66,6.66,0,0,1,4,1.23,5,5,0,0,0,5.78,0,7.17,7.17,0,0,1,8,0,5,5,0,0,0,5.78,0,6.73,6.73,0,0,1,4-1.23v2.14a4.76,4.76,0,0,0-2.9.9,6.69,6.69,0,0,1-3.98,1.23Z" fill="#fff"/>
      </g>
      <path id="Path_181" data-name="Path 181" d="M56.77,105.69v24.1a19.33,19.33,0,0,1-19.28,19.27H51.16a19.32,19.32,0,0,0,19.27-19.27v-24.1Z" fill="#482c80" opacity="0.1"/>
      <rect id="Rectangle_1580" data-name="Rectangle 1580" width="69.06" height="7.23" transform="translate(6 102.07)" fill="#d4a000"/>
      <path id="Path_182" data-name="Path 182" d="M71.41,117.4c-1-3.28-1.92-6.18-2.87-9.47l-6.9-23.7L53.26,55.42Q49.65,43,46,30.61q-1.2-4.08-2.38-8.18c-.37-1.27-.66-2.66-1.14-3.89a.216.216,0,0,0-.05-.17c-.05-.05,0,0,0-.05a.41.41,0,0,0-.07-.15v-.05l-.1-.12a.61.61,0,0,0-1,.32l-3.21,9.86L30.35,51.9q-4.63,14.25-9.28,28.5-4,12.39-8.06,24.77c-.89,2.73-1.77,5.45-2.66,8.17a31,31,0,0,0-1.26,3.89,1.771,1.771,0,0,1-.06.17H9a.58.58,0,0,0,0,.26.15.15,0,0,0,0,.07.62.62,0,0,0,.13.34h0l15.58,27.2,2.18,3.79a.63.63,0,0,0,1.08,0l12.66-27.31c.4-.86.8-1.71,1.19-2.56l10.49,25.86c.52,1.29,1,2.57,1.57,3.86a.63.63,0,0,0,1.14.15L69.11,121.9,71,118.23a.65.65,0,0,0,.41-.83ZM44.14,28.61,51,52.3l8.39,28.82q3.61,12.39,7.22,24.8c.79,2.73,1.58,5.45,2.38,8.18.2.69.66,2,1,2.92H42.5V23Q43.31,25.78,44.14,28.61Zm-30.69,79.3q3.86-11.84,7.7-23.67Q25.8,70,30.43,55.74q4-12.39,8.06-24.77,1.34-4.09,2.66-8.17l.1-.29v91c0,1.14-.11,2.36,0,3.51H10.48Zm15.21,36.73c-.43.93-.85,1.85-1.28,2.77l-15-26.16-1.71-3h30.2Q34.78,131.46,28.66,144.64Zm27.26,0-1.36,2.64q-5.27-13-10.52-25.93l-1.25-3.08h26.8Q62.77,131.46,55.92,144.64Z" fill="#6d3e1d"/>
      <path id="Path_183" data-name="Path 183" d="M11.69,117.56a1.84,1.84,0,1,1-.535-1.308,1.84,1.84,0,0,1,.535,1.308Z" fill="#6d3e1d"/>
      <path id="Path_184" data-name="Path 184" d="M43.68,117.56a1.84,1.84,0,1,1-.539-1.311,1.85,1.85,0,0,1,.539,1.311Z" fill="#6d3e1d"/>
      <path id="Path_185" data-name="Path 185" d="M72.48,117.56a1.84,1.84,0,1,1-.539-1.311A1.85,1.85,0,0,1,72.48,117.56Z" fill="#6d3e1d"/>
      <path id="Path_186" data-name="Path 186" d="M29.28,148.77a1.85,1.85,0,1,1-1.84-1.85,1.85,1.85,0,0,1,1.84,1.85Z" fill="#6d3e1d"/>
      <path id="Path_187" data-name="Path 187" d="M56.23,148.77a1.84,1.84,0,1,1-.535-1.308A1.84,1.84,0,0,1,56.23,148.77Z" fill="#6d3e1d"/>
      <circle id="Ellipse_63" data-name="Ellipse 63" cx="3.09" cy="3.09" r="3.09" transform="translate(38.92 14.66)" fill="#6d3e1d"/>
      <path id="Path_188" data-name="Path 188" d="M42.64,108.1V3.412C42.6,1.49,42.332.049,42.015.049S41.43,1.49,41.39,3.412V108.1c.04,1.922.308,3.362.625,3.362S42.6,110.024,42.64,108.1Z" transform="translate(0 -90.625)" fill="#6d3e1d"/>
      <path id="Path_231" data-name="Path 231" d="M42.64,18.679V.629a.627.627,0,0,0-1.25,0v18.05a.627.627,0,0,0,1.25,0Z" transform="translate(51.669 -131.966) rotate(90)" fill="#6d3e1d"/>
      <ellipse id="Ellipse_64" data-name="Ellipse 64" cx="14.73" cy="8.89" rx="14.73" ry="8.89" transform="matrix(0.797, -0.604, 0.604, 0.797, 57.273, 183.688)" fill="#8ac27c"/>
      <path id="Path_189" data-name="Path 189" d="M83.46,197.29c-.34-5.08,3.17-9.45,4.93-9.57s5.82,3.75,6.16,8.83-1.87,9.36-4.93,9.57S83.8,202.37,83.46,197.29Z" fill="#8ac27c"/>
      <path id="Path_190" data-name="Path 190" d="M96.76,178.07c-2.06-5.81.61-12,2.62-12.77,2.17-.76,8,2.47,10.07,8.28s.88,11.53-2.63,12.77S98.81,183.88,96.76,178.07Z" fill="#8ac27c"/>
      <ellipse id="Ellipse_65" data-name="Ellipse 65" cx="6.73" cy="11.16" rx="6.73" ry="11.16" transform="matrix(0.735, -0.678, 0.678, 0.735, 101.47, 151.731)" fill="#8ac27c"/>
      <path id="Path_191" data-name="Path 191" d="M86.39,151.4c3.33-3.07,8.31-3.08,9.37-1.93s.66,6.13-2.66,9.19-7.53,3.94-9.38,1.93S83.06,154.47,86.39,151.4Z" fill="#8ac27c"/>
      <path id="Path_192" data-name="Path 192" d="M97.74,65.32c-5,.58-9.45-2.66-9.65-4.39s3.4-5.91,8.38-6.49,9.3,1.38,9.65,4.39S102.72,64.74,97.74,65.32Z" fill="#8ac27c"/>
      <path id="Path_193" data-name="Path 193" d="M82.12,80.82c.43-3.22,3.19-5.52,4.31-5.37s3.17,3.09,2.74,6.32-2.36,5.63-4.31,5.37S81.69,84.05,82.12,80.82Z" fill="#8ac27c"/>
      <ellipse id="Ellipse_66" data-name="Ellipse 66" cx="5.22" cy="8.65" rx="5.22" ry="8.65" transform="translate(99.465 86.805) rotate(-68.05)" fill="#8ac27c"/>
      <path id="Path_194" data-name="Path 194" d="M104,104.08c-2.21-2.39-2.22-6-1.39-6.74s4.41-.47,6.61,1.92,2.83,5.41,1.39,6.74S106.22,106.48,104,104.08Z" fill="#8ac27c"/>
      <path id="Path_195" data-name="Path 195" d="M81.42,102.64c1.73-2.76,5.19-3.7,6.14-3.1s1.61,4.12-.12,6.88-4.48,4.15-6.14,3.1S79.69,105.4,81.42,102.64Z" fill="#8ac27c"/>
      <path id="Path_196" data-name="Path 196" d="M105.6,126.14c-4.43-1.78-6.7-6.53-6.08-8.07s5.54-3.39,10-1.6,7.15,5.4,6.08,8.07S110,127.93,105.6,126.14Z" fill="#8ac27c"/>
      <path id="Path_197" data-name="Path 197" d="M84.51,133.8c1.35-4.64,5.9-7.4,7.51-6.93s4,5.23,2.64,9.87-4.71,7.75-7.51,6.94S83.17,138.45,84.51,133.8Z" fill="#8ac27c"/>
      <path id="Path_198" data-name="Path 198" d="M69.62,143.08c1.72-5.93,7.52-9.45,9.57-8.85,2.21.64,5.08,6.67,3.37,12.59s-6,9.88-9.58,8.85S67.91,149,69.62,143.08Z" fill="#8ac27c"/>
      <ellipse id="Ellipse_67" data-name="Ellipse 67" cx="4.64" cy="7.7" rx="4.64" ry="7.7" transform="translate(73.652 119.436) rotate(-37.7)" fill="#8ac27c"/>
      <path id="Path_199" data-name="Path 199" d="M81.44,96.18c-3.18-.71-5.23-3.65-5-4.76s3.35-2.89,6.53-2.18,5.4,2.84,5,4.75S84.62,96.89,81.44,96.18Z" fill="#8ac27c"/>
      <path id="Path_200" data-name="Path 200" d="M77.4,78.7c-2.76,2.55-6.91,2.56-7.8,1.6s-.55-5.09,2.22-7.65,6.27-3.27,7.81-1.6S80.17,76.14,77.4,78.7Z" fill="#8ac27c"/>
      <path id="Path_201" data-name="Path 201" d="M62.31,93.6c-3.58-.33-6.25-3.27-6.13-4.51s3.26-3.65,6.84-3.32,6.33,2.34,6.13,4.5S65.89,93.92,62.31,93.6Z" fill="#8ac27c"/>
      <path id="Path_202" data-name="Path 202" d="M59.19,76.57c-3.21,1.62-7,.54-7.58-.58s.83-4.82,4-6.44,6.6-1.36,7.58.58S62.4,75,59.19,76.57Z" fill="#8ac27c"/>
      <path id="Path_203" data-name="Path 203" d="M26.59,79.6c3.41,2,4.71,6.12,4,7.3s-4.92,2.13-8.33.16-5.22-5.24-4-7.3S23.17,77.63,26.59,79.6Z" fill="#8ac27c"/>
      <path id="Path_204" data-name="Path 204" d="M75.78,50.85c-3.3,3.78-8.79,4.38-10.1,3.23s-1.44-6.66,1.86-10.44,7.82-5.22,10.09-3.23S79.08,47.08,75.78,50.85Z" fill="#8ac27c"/>
      <path id="Path_205" data-name="Path 205" d="M21.61,60c3.71,2.14,5.12,6.64,4.38,7.93s-5.35,2.31-9.06.17-5.67-5.69-4.38-7.93S17.9,57.85,21.61,60Z" fill="#8ac27c"/>
      <path id="Path_206" data-name="Path 206" d="M47.3,63c-3.44,2.56-8.13,2.06-9,.87s0-5.83,3.44-8.38,7.47-2.94,9-.87S50.74,60.4,47.3,63Z" fill="#8ac27c"/>
      <path id="Path_207" data-name="Path 207" d="M41.28,50.14c-3.09,4.34-8.83,5.56-10.34,4.49s-2.24-6.9.85-11.24S39.51,37,42.13,38.9,44.37,45.79,41.28,50.14Z" fill="#8ac27c"/>
      <path id="Path_208" data-name="Path 208" d="M43.63,58.53c-4.32,2.41-7.58,7.13-9.06,11.74a24,24,0,0,0-1.06,8,.67.67,0,0,0,1.34,0A21.13,21.13,0,0,1,43.1,60.49a10.2,10.2,0,0,1,1.21-.81c.75-.42.07-1.57-.68-1.15Z" fill="#72a265"/>
      <path id="Path_209" data-name="Path 209" d="M19.51,64.62A29,29,0,0,1,31.27,76a28.29,28.29,0,0,1,3.13,8c.19.83,1.48.48,1.29-.36A31.21,31.21,0,0,0,21.8,64.4a16.18,16.18,0,0,0-1.62-.93c-.77-.37-1.45.78-.67,1.15Z" fill="#72a265"/>
      <path id="Path_210" data-name="Path 210" d="M24,83.44c3.88.93,7.22,4.39,8.82,8a20.08,20.08,0,0,1,1.53,7.18c0,.85,1.37.86,1.33,0a19.18,19.18,0,0,0-4-11.55,15.31,15.31,0,0,0-5.92-4.43,10.28,10.28,0,0,0-1.41-.5c-.83-.2-1.19,1.09-.35,1.29Z" fill="#72a265"/>
      <path id="Path_211" data-name="Path 211" d="M75.12,183.07A104.66,104.66,0,0,0,92,168.76a35,35,0,0,0,4.7-6.09.67.67,0,0,0-1.15-.68c-2.38,4.08-5.91,7.47-9.39,10.61-3.07,2.77-6.3,5.37-9.63,7.83-.68.5-1.36,1-2,1.49s0,1.64.68,1.15Z" fill="#72a265"/>
      <path id="Path_212" data-name="Path 212" d="M104.71,179.39a51.29,51.29,0,0,1-3.45-9c-1.58-5.46-2.57-11.6-.55-17.08.3-.8-1-1.15-1.29-.35-2.06,5.58-1.12,11.89.47,17.47a53.469,53.469,0,0,0,3.67,9.61c.39.76,1.54.09,1.15-.68Z" fill="#72a265"/>
      <path id="Path_213" data-name="Path 213" d="M89.21,155.89a30.24,30.24,0,0,0,11.41-13.65,18.46,18.46,0,0,0,1.26-7.6c0-.86-1.38-.86-1.34,0,.28,5.5-2.28,10.55-5.85,14.59a31,31,0,0,1-6.15,5.51c-.71.47-.05,1.62.67,1.15Z" fill="#72a265"/>
      <path id="Path_214" data-name="Path 214" d="M116.1,158.37a23.38,23.38,0,0,1-5.08-4.75,43.47,43.47,0,0,1-8.43-16.56.67.67,0,0,0-1.29.36c2.21,7.9,6.29,15.87,12.78,21.11a14.137,14.137,0,0,0,1.35,1c.73.46,1.4-.69.67-1.15Z" fill="#72a265"/>
      <path id="Path_215" data-name="Path 215" d="M89.45,138.94c3.53-6.75,5-15.34,3.12-22.75a.663.663,0,1,0-1.28.35c1.81,7.06.37,15.29-3,21.72-.4.76.75,1.44,1.15.68Z" fill="#72a265"/>
      <path id="Path_216" data-name="Path 216" d="M111.14,122.41a37,37,0,0,1-6.15-2.54c-3.87-2-7.68-4.59-10.16-8.23a13.81,13.81,0,0,1-2.48-7.52.67.67,0,1,0-1.34,0c.21,9.54,9.31,15.55,17.31,18.7.81.32,1.63.63,2.47.87a.663.663,0,0,0,.35-1.28Z" fill="#72a265"/>
      <path id="Path_217" data-name="Path 217" d="M83.39,105.79a28.16,28.16,0,0,0,4.34-5.09,47.73,47.73,0,0,0,7-15.25.67.67,0,0,0-1.28-.36A46.69,46.69,0,0,1,86.58,100a26.38,26.38,0,0,1-4.13,4.82c-.65.56.29,1.5.94.94Z" fill="#72a265"/>
      <path id="Path_218" data-name="Path 218" d="M108,102.67a33.61,33.61,0,0,1-5.69-6.28,52.18,52.18,0,0,1-8.67-19c-.2-.84-1.48-.49-1.29.35a52.93,52.93,0,0,0,8.81,19.32,35,35,0,0,0,5.9,6.55C107.72,104.15,108.67,103.21,108,102.67Z" fill="#72a265"/>
      <path id="Path_219" data-name="Path 219" d="M86.49,81.92A32.37,32.37,0,0,0,86.38,74c-.63-5-2.33-9.85-5.77-13.58-.58-.64-1.52.31-.94.94,4.87,5.28,6.38,13.58,5.49,20.57-.11.85,1.22.84,1.33,0Z" fill="#72a265"/>
      <path id="Path_220" data-name="Path 220" d="M109.69,84.63a45.18,45.18,0,0,1-15-9.08A24.26,24.26,0,0,1,90,69.73a.67.67,0,0,0-1.16.67c3.95,6.93,11.38,11.59,18.53,14.69.66.29,1.33.57,2,.82s1.15-1,.35-1.28Z" fill="#72a265"/>
      <path id="Path_221" data-name="Path 221" d="M73.85,58.66A65.111,65.111,0,0,0,84.3,61.51c4.84.91,11.11,1.81,15.48-1.1.71-.48,0-1.63-.68-1.15-4.27,2.84-10.6,1.75-15.3.79a66.65,66.65,0,0,1-9.6-2.67c-.8-.3-1.15,1-.35,1.28Z" fill="#72a265"/>
      <path id="Path_222" data-name="Path 222" d="M70.67,46.58a6.13,6.13,0,0,1-1,2.27,19.4,19.4,0,0,1-5.38,5.6,40.76,40.76,0,0,1-6.4,3.78c-.77.37-.1,1.52.67,1.15a34,34,0,0,0,9.84-6.74,14.49,14.49,0,0,0,3.25-4.83,4.48,4.48,0,0,0,.27-.88c.12-.84-1.16-1.2-1.29-.35Z" fill="#72a265"/>
      <path id="Path_223" data-name="Path 223" d="M57.93,71.75A34,34,0,0,0,52.37,75a34.25,34.25,0,0,0-9.5,9.58,23.52,23.52,0,0,0-3.28,8.21c-.16.84,1.12,1.2,1.28.36,1.63-8.6,8.4-15.17,15.81-19.26.63-.35,1.27-.69,1.92-1s.11-1.5-.67-1.16Z" fill="#72a265"/>
      <path id="Path_224" data-name="Path 224" d="M83.54,123.74a42.58,42.58,0,0,1-4.85-5.54c-2.64-3.54-5.13-7.68-5.55-12.16-.08-.85-1.41-.86-1.34,0,.44,4.67,2.86,8.94,5.6,12.65a45.67,45.67,0,0,0,5.2,6c.62.59,1.56-.36.94-1Z" fill="#72a265"/>
      <path id="Path_225" data-name="Path 225" d="M49,94.87a12,12,0,0,1,3.21-3.43,12.35,12.35,0,0,1,10.22-2c.84.18,1.2-1.11.36-1.29a14,14,0,0,0-9.35,1,14.55,14.55,0,0,0-4.79,4,10,10,0,0,0-.8,1.13.67.67,0,0,0,1.15.67Z" fill="#72a265"/>
      <path id="Path_226" data-name="Path 226" d="M61.41,82.89a31.471,31.471,0,0,0,3.87-.61A20.12,20.12,0,0,0,72,79.75,7.48,7.48,0,0,0,74.6,77c.4-.76-.75-1.44-1.15-.68-1,1.9-3.12,3-5,3.65a29.281,29.281,0,0,1-5.84,1.42c-.35,0-.73.1-1.16.14-.85.07-.85,1.41,0,1.33Z" fill="#72a265"/>
      <path id="Path_227" data-name="Path 227" d="M70.74,86.29a18.231,18.231,0,0,0,2,2.63,15.11,15.11,0,0,0,5.05,3.93,8.54,8.54,0,0,0,3.82.79.67.67,0,0,0,0-1.34c-3.82.16-7-3-9.13-5.81-.2-.29-.41-.57-.59-.87-.45-.73-1.6-.06-1.15.67Z" fill="#72a265"/>
      <path id="Path_228" data-name="Path 228" d="M33.34,77.62a59.68,59.68,0,0,1,1.39,15.77,57.43,57.43,0,0,1-.82,8.68h1.34a65.39,65.39,0,0,0,.09-21.17c-1.06-6.9-4.88-13.63-4.41-20.76.35-5.32,3.31-10,6.68-13.93.55-.65-.39-1.6-.94-1-3,3.51-5.68,7.48-6.68,12.05a22.26,22.26,0,0,0,.38,10.07C31.22,70.83,32.51,74.16,33.34,77.62Z" fill="#72a265"/>
      <path id="Path_229" data-name="Path 229" d="M103.17,141.27a30.55,30.55,0,0,0-3.49-12c-1.8-3.64-4.05-7-5.93-10.64a16.38,16.38,0,0,1-1.84-4.75,21.14,21.14,0,0,1-.12-5.33c.71-8.72,3.64-17.24,2.78-26.07A30.35,30.35,0,0,0,83.21,62.26c-6.67-5.36-15.35-7.42-23.58-4.67a25.51,25.51,0,0,0-15,13.46c-4.4,9-5.64,20.85-5.16,30.79v.23h1.34a70.58,70.58,0,0,1,3.08-25.75c2-6,5.45-11.78,11-15.12a23.43,23.43,0,0,1,25,.29c6.72,4.3,12,11.68,13.2,19.63,1.32,8.62-1.43,17.22-2.44,25.72-.37,3.15-.59,6.57.61,9.58,1.36,3.43,3.45,6.56,5.27,9.76a41.43,41.43,0,0,1,4.83,11.41,23.19,23.19,0,0,1-.78,12.3c-2.42,7.36-6.22,14.22-9,21.44-3,7.79-5.25,16.25-4,24.65a28.53,28.53,0,0,0,1.57,6c.29.79,1.58.45,1.28-.36-6.39-17,4.8-33.76,10.66-49.17a27.46,27.46,0,0,0,2.08-11.18Z" fill="#72a265"/>
      <path id="Path_230" data-name="Path 230" d="M79.26,132.2c-1-3.64-3-6.78-4.8-10-1.56-2.83-1.69-6.12-1.69-9.3a112,112,0,0,1,.69-11.43C74,95.58,75.3,88.8,70.67,84.12c-5.33-5.4-14.06-2.24-18.38,2.79-3.14,3.64-6.23,10.11-7.61,15.16h1.4a52,52,0,0,1,5.31-11.74,16.92,16.92,0,0,1,7-6.52c3.37-1.49,7.69-1.79,10.67.68,4.88,4,3.63,10.86,3.07,16.35-.35,3.51-.66,7-.73,10.56a29.37,29.37,0,0,0,.83,9.16c1,3.35,3.5,6.17,4.82,9.42a17.28,17.28,0,0,1-.72,14.66c-.37.77.78,1.44,1.16.67a18.68,18.68,0,0,0,1.77-13.11Z" fill="#72a265"/>
    </g>
  </g>
</svg>
