<svg id="undraw_fireworks_re_2xi7" xmlns="http://www.w3.org/2000/svg" width="244.939" height="209.875" viewBox="0 0 244.939 209.875">
  <path id="Path_247" data-name="Path 247" d="M64.944,483.793a.536.536,0,0,1-.388-.928l.037-.146-.015-.035a1.438,1.438,0,0,0-2.653.01,12.77,12.77,0,0,0-1.122,3.2,4.255,4.255,0,0,0,.075,1.463,17.056,17.056,0,0,1-1.552-7.084,16.464,16.464,0,0,1,.1-1.837q.085-.75.235-1.489a17.254,17.254,0,0,1,3.422-7.313,4.592,4.592,0,0,0,1.91-1.981,3.5,3.5,0,0,0,.319-.957,4.322,4.322,0,0,1-.28-1.491c-.13-.2-.361-.294-.5-.486-.7-.954-1.673-.788-2.179.509-1.081.546-1.092,1.451-.428,2.321.422.554.48,1.3.85,1.9-.038.049-.078.1-.116.145a17.365,17.365,0,0,0-1.812,2.871,7.219,7.219,0,0,0-.431-3.353,12.092,12.092,0,0,0-1.867-2.694,1.482,1.482,0,0,0-2.639.728l0,.038q.152.086.3.182a.726.726,0,0,1-.293,1.322l-.015,0a7.227,7.227,0,0,0,.191,1.081c-.874,3.378,1.012,4.608,3.705,4.664.059.03.117.061.177.09a17.724,17.724,0,0,0-.954,4.49,16.811,16.811,0,0,0,.012,2.714l0-.032a4.442,4.442,0,0,0-1.516-2.565c-1.167-.959-2.816-1.312-4.075-2.082a.834.834,0,0,0-1.277.811l.005.034a4.874,4.874,0,0,1,.547.264q.152.086.3.182a.726.726,0,0,1-.293,1.322l-.015,0-.03,0a7.233,7.233,0,0,0,1.331,2.083c.546,2.949,2.892,3.229,5.4,2.37h0a17.719,17.719,0,0,0,1.19,3.475h4.252c.015-.047.029-.1.043-.143a4.832,4.832,0,0,1-1.177-.07c.315-.387.631-.777.946-1.164a.265.265,0,0,0,.02-.023c.16-.2.322-.395.482-.593h0a7.077,7.077,0,0,0-.207-1.8h0Z" transform="translate(-31.255 -278.204)" fill="#f2f2f2"/>
  <path id="Path_248" data-name="Path 248" d="M535.395,483.793a.536.536,0,0,0,.388-.928l-.037-.146.015-.035a1.438,1.438,0,0,1,2.653.01,12.768,12.768,0,0,1,1.122,3.2,4.254,4.254,0,0,1-.075,1.463,17.056,17.056,0,0,0,1.552-7.084,16.457,16.457,0,0,0-.1-1.837q-.085-.75-.235-1.489a17.255,17.255,0,0,0-3.422-7.313,4.592,4.592,0,0,1-1.91-1.981,3.5,3.5,0,0,1-.319-.957,4.323,4.323,0,0,0,.28-1.491c.13-.2.361-.294.5-.486.7-.954,1.673-.788,2.18.509,1.081.546,1.092,1.451.428,2.321-.422.554-.48,1.3-.85,1.9.038.049.078.1.116.145a17.366,17.366,0,0,1,1.813,2.871,7.218,7.218,0,0,1,.431-3.353,12.09,12.09,0,0,1,1.867-2.694,1.482,1.482,0,0,1,2.639.728l0,.038q-.152.086-.3.182a.726.726,0,0,0,.293,1.322l.015,0a7.234,7.234,0,0,1-.191,1.081c.874,3.378-1.012,4.608-3.705,4.664-.059.03-.117.061-.177.09a17.729,17.729,0,0,1,.954,4.49,16.8,16.8,0,0,1-.012,2.714l0-.032a4.442,4.442,0,0,1,1.516-2.565c1.167-.959,2.816-1.312,4.075-2.082a.834.834,0,0,1,1.277.811l-.005.034a4.873,4.873,0,0,0-.547.264q-.152.086-.3.182a.726.726,0,0,0,.293,1.322l.015,0,.03,0a7.233,7.233,0,0,1-1.331,2.083c-.546,2.949-2.892,3.229-5.4,2.37h0a17.721,17.721,0,0,1-1.19,3.475H535.5c-.015-.047-.029-.1-.043-.143a4.832,4.832,0,0,0,1.177-.07l-.946-1.164a.265.265,0,0,1-.02-.023c-.16-.2-.322-.395-.482-.593h0a7.072,7.072,0,0,1,.207-1.8h0Z" transform="translate(-320.716 -278.204)" fill="#f2f2f2"/>
  <g id="Group_113" data-name="Group 113" transform="translate(131.511 193.31)">
    <path id="Path_249" data-name="Path 249" d="M330.424,496.679h3.65L335.81,482.6h-5.387Z" transform="translate(-329.579 -482.6)" fill="#ffb6b6"/>
    <path id="Path_250" data-name="Path 250" d="M341.667,511.379h0a3.133,3.133,0,0,1,.174,1.032h0a1.239,1.239,0,0,1-1.239,1.239H329.3a.845.845,0,0,1-.845-.845v-.471a3.613,3.613,0,0,1,.592-3.158s1.431,1.365,3.569-.773l.63-1.142,4.564,3.338,2.53.311c.553.068,1.044-.011,1.329.469h0Z" transform="translate(-328.317 -497.383)" fill="#2f2e41"/>
  </g>
  <g id="Group_114" data-name="Group 114" transform="translate(106.303 193.31)">
    <path id="Path_251" data-name="Path 251" d="M267.492,496.679h3.65l1.736-14.079h-5.387Z" transform="translate(-266.647 -482.6)" fill="#ffb6b6"/>
    <path id="Path_252" data-name="Path 252" d="M278.735,511.379h0a3.134,3.134,0,0,1,.174,1.032h0a1.239,1.239,0,0,1-1.239,1.239h-11.3a.845.845,0,0,1-.845-.845v-.471a3.613,3.613,0,0,1,.592-3.158s1.431,1.365,3.569-.773l.63-1.142,4.564,3.338,2.53.311c.553.068,1.044-.011,1.329.469Z" transform="translate(-265.385 -497.383)" fill="#2f2e41"/>
  </g>
  <path id="b-397" d="M.408,522.732H244.531a.408.408,0,0,0,0-.816H.408a.408.408,0,0,0,0,.816Z" transform="translate(0 -312.857)" fill="#e6e6e6"/>
  <path id="c-398" d="M293.29,351.71l1.353,1.779s.123.831,2.174,7.6l1.126,50.88h-6.81l-9.1-40.71-9.446,41.526-5.9.348.277-47.2a6.3,6.3,0,0,1-.093-3.567c2.023-7.367,1.907-5.425,1.99-7.946C268.964,351.224,293.29,351.71,293.29,351.71Z" transform="translate(-159.844 -210.813)" fill="#2f2e41"/>
  <circle id="d" cx="7.145" cy="7.145" r="7.145" transform="translate(115.568 83.851)" fill="#feb8b8"/>
  <path id="e-399" d="M279.225,248.152l-3.954,2.185a19.568,19.568,0,0,0-7.766,2.175l2.318,20.324-.422,20.019s13.146,9.006,25.752-1.512v-27.2l-.592-10.817a2.189,2.189,0,0,0-2.437-2.074,5.3,5.3,0,0,1-2.38-.2l-2.617-3.037-7.9.143Z" transform="translate(-160.353 -148.666)" fill="#087750"/>
  <g id="Group_115" data-name="Group 115" transform="translate(129.391 79.903)">
    <path id="Path_253" data-name="Path 253" d="M344.707,202.294a5.625,5.625,0,0,1,.508,2.607l4.339,8.326-4.022,1.949-3.968-8.656a5.624,5.624,0,0,1-1.591-2.127c-.911-2.054-.589-4.189.718-4.769s3.105.616,4.016,2.67h0Z" transform="translate(-332.874 -199.478)" fill="#ffb6b6"/>
    <path id="f-400" d="M323.026,237.749l1.2.547c1.1-1.18,4.406-.995,6.011-.842l7.053.673-3.294-10.3,4.959-2,5.925,11.4a5.022,5.022,0,0,1-2.057,5.029L327.7,250.844l-1.757-11.759-2.92-1.336h0Z" transform="translate(-323.026 -215.273)" fill="#087750"/>
  </g>
  <g id="Group_116" data-name="Group 116" transform="translate(92.816 103.296)">
    <path id="Path_254" data-name="Path 254" d="M231.735,358.41a5.625,5.625,0,0,1,.788-2.536l.127-9.388,4.465.191-.61,9.5a5.624,5.624,0,0,1,.392,2.627c-.172,2.24-1.467,3.968-2.893,3.859s-2.442-2.014-2.27-4.255h0Z" transform="translate(-231.716 -310.994)" fill="#ffb6b6"/>
    <path id="g-401" d="M250.374,261l-2.052-3.117a9.005,9.005,0,0,0-5.125,3.162c-1.778,2.523-8.5,18-8.5,18l-1.291,17.47,5-1.03,2.412-13.249,7.757-10.6,1.8-10.636h0Z" transform="translate(-232.729 -257.879)" fill="#087750"/>
  </g>
  <path id="Path_255" data-name="Path 255" d="M301.657,214.3c.268-1.362-3.873-3.344-3.866-3.342.643.205-.368,1.383-1.029,1.244,0,0-.97.494-.442.918-1.823-.156-4.258-1.888-6.08-2.044-.733-.064-1.017,1.7-1.478,2.276-.7.877-1.4-.867-1.138,1.457h-.1a11.152,11.152,0,0,1-.885-2.836,3.736,3.736,0,0,1,.677-2.816c.208-.26-.61-1.117-.39-1.366.7-.805,2.06-1.246,2.685-2.107.827-1.141,1.768-.336,3.49-1.3a2.714,2.714,0,0,1,1.733-.211l1.166.3h0a.476.476,0,0,0,.46.735l1.519-.206a2.146,2.146,0,0,1,1.374.981,9.406,9.406,0,0,1,.3,1.005,5.457,5.457,0,0,0,1.158,1.53c1.12.326,1.18,1.163,1.18,2.567,1.044.585-.045,1.895-.335,3.2Z" transform="translate(-171.799 -122.358)" fill="#2f2e41"/>
  <g id="Group_117" data-name="Group 117" transform="translate(12.828)">
    <path id="Path_256" data-name="Path 256" d="M32.138,62.367h0a2.049,2.049,0,0,1,2.156-1.349,6.785,6.785,0,0,0,1.156.055c9.641-.567,21.583,4.953,34.3,12.513h0C58.107,64.17,47.456,55.84,34.929,64.4a1.859,1.859,0,0,1-2.683-.555,1.763,1.763,0,0,1-.16-1.312q.022-.084.052-.167h0Z" transform="translate(-32.026 -36.463)" fill="#e6e6e6"/>
    <path id="Path_257" data-name="Path 257" d="M163.893,8.092h0a2.049,2.049,0,0,1,.857,2.329l-.03.1a3.733,3.733,0,0,1-1.61,2.064c-10.963,6.825,1.73,15.559-18.56,29.657h0c9.825-10.513,17.906-34.86,19.134-34.264a2.071,2.071,0,0,1,.208.117h0Z" transform="translate(-99.478 -4.774)" fill="#e6e6e6"/>
    <path id="Path_258" data-name="Path 258" d="M180.614,118.844h0a2.049,2.049,0,0,1-2.211,1.127l-.1-.018a3.733,3.733,0,0,1-2.24-1.353c-8.078-10.075-15.244,3.565-31.651-14.908h0c11.605,8.508,36.739,13.642,36.293,14.932a2.077,2.077,0,0,1-.091.221h0Z" transform="translate(-99.395 -62.157)" fill="#e6e6e6"/>
    <path id="Path_259" data-name="Path 259" d="M166.7,119.573h0a1.959,1.959,0,0,1-1.647-.052l-.062-.029a2.785,2.785,0,0,1-1.216-1c-3.443-5.578-10.592-1.958-17.946-12.533h0c6.029,5.75,21.5,13.158,20.971,13.55a.875.875,0,0,1-.1.064h0Z" transform="translate(-100.241 -63.516)" fill="#e6e6e6"/>
    <path id="Path_260" data-name="Path 260" d="M170.253,84.156h0a1.959,1.959,0,0,1-1.131,1.2l-.062.027a2.785,2.785,0,0,1-1.555.248c-6.459-1.12-8.488,6.633-21.28,5.129h0c8.3-.7,24.1-7.373,24.046-6.719a.874.874,0,0,1-.018.117h0Z" transform="translate(-100.482 -50.35)" fill="#e6e6e6"/>
    <path id="Path_261" data-name="Path 261" d="M44.435,125.62h0a2.049,2.049,0,0,1,.337-2.459l.072-.072a3.733,3.733,0,0,1,2.39-1.066c12.884-.878,5.779-14.549,30.313-17.469h0c-13.611,4.668-32.179,22.369-32.983,21.266a2.073,2.073,0,0,1-.129-.2h0Z" transform="translate(-39.305 -62.674)" fill="#e6e6e6"/>
    <path id="Path_262" data-name="Path 262" d="M153.261,127.3h0a1.213,1.213,0,0,1-1.5-.116l-.046-.042a2.343,2.343,0,0,1-.735-1.439c-1.029-7.939-8.994-3.026-11.705-18.1h0c3.342,8.246,14.731,19.068,14.1,19.607a1.248,1.248,0,0,1-.116.087h0Z" transform="translate(-96.318 -64.506)" fill="#e6e6e6"/>
    <path id="Path_263" data-name="Path 263" d="M132.11,143.721h0a1.571,1.571,0,0,1-1.529-1.158l-.021-.076a2.928,2.928,0,0,1,.193-2.031c4.325-9.107-7.6-9.43-.209-27.244h0c-2.047,11.034,2.8,30.366,1.749,30.5a1.6,1.6,0,0,1-.184.012h0Z" transform="translate(-89.597 -67.864)" fill="#087750"/>
    <path id="Path_264" data-name="Path 264" d="M71.643,127.378h0a1.571,1.571,0,0,1-.083-1.916l.045-.064a2.929,2.929,0,0,1,1.687-1.146c9.772-2.479,2.413-11.87,20.847-17.54h0c-9.8,5.463-21.6,21.527-22.369,20.8a1.6,1.6,0,0,1-.127-.134h0Z" transform="translate(-55.552 -63.966)" fill="#087750"/>
    <path id="Path_265" data-name="Path 265" d="M86.649,120.092h0a.728.728,0,0,1-.051-1.017l.029-.036a2.07,2.07,0,0,1,1.071-.68c6.2-1.724,1.543-6.421,13.233-10.2h0c-6.22,3.314-13.714,12.355-14.2,12a.846.846,0,0,1-.08-.066h0Z" transform="translate(-64.63 -64.834)" fill="#087750"/>
    <path id="Path_266" data-name="Path 266" d="M107.962,128.553h0a.728.728,0,0,1-.4-.934l.014-.044a2.07,2.07,0,0,1,.763-1.013c5.2-3.792-.812-6.553,8.8-14.2h0c-4.658,5.288-8.5,16.387-9.078,16.226a.847.847,0,0,1-.1-.034h0Z" transform="translate(-77.277 -67.354)" fill="#e6e6e6"/>
    <path id="Path_267" data-name="Path 267" d="M39.35,87.024l.945,2.908h3.058l-2.474,1.8.945,2.908-2.474-1.8-2.474,1.8.945-2.908-2.474-1.8H38.4Z" transform="translate(-34.016 -52.166)" fill="#087750"/>
    <path id="Path_268" data-name="Path 268" d="M144.557,0l.945,2.908h3.058l-2.474,1.8.945,2.908-2.474-1.8-2.474,1.8.945-2.908-2.474-1.8h3.058Z" transform="translate(-97.082)" fill="#e6e6e6"/>
    <path id="Path_269" data-name="Path 269" d="M200.409,77.932l.945,2.908h3.058l-2.474,1.8.945,2.908-2.474-1.8-2.474,1.8.945-2.908-2.474-1.8h3.058Z" transform="translate(-130.562 -46.715)" fill="#087750"/>
    <path id="Path_270" data-name="Path 270" d="M87.407,157.162l.945,2.908h3.058l-2.474,1.8.945,2.908-2.474-1.8-2.474,1.8.945-2.908-2.474-1.8h3.058Z" transform="translate(-62.824 -94.209)" fill="#087750"/>
    <path id="Path_271" data-name="Path 271" d="M130.27,77.932l.945,2.908h3.058l-2.474,1.8.945,2.908-2.474-1.8-2.474,1.8.945-2.908-2.474-1.8h3.058Z" transform="translate(-88.518 -46.715)" fill="#087750"/>
    <path id="Path_272" data-name="Path 272" d="M189.213,0l.945,2.908h3.058l-2.474,1.8.945,2.908-2.474-1.8-2.474,1.8.945-2.908-2.474-1.8h3.058Z" transform="translate(-123.851)" fill="#e6e6e6"/>
    <path id="Path_273" data-name="Path 273" d="M35.756,143.5l1.2,2.814,3.046-.27L37.7,148.054l1.2,2.814L36.27,149.3l-2.305,2.009.684-2.981-2.623-1.572,3.046-.27Z" transform="translate(-32.026 -86.021)" fill="#e6e6e6"/>
    <path id="Path_274" data-name="Path 274" d="M106.384,9.166h0a1.2,1.2,0,0,1,1.523.4l.04.056a2.8,2.8,0,0,1,.491,1.757c-.421,9.143,8.724,5.056,8.709,22.549h0c-1.911-9.911-11.653-24.2-10.9-24.688a1.3,1.3,0,0,1,.136-.077h0Z" transform="translate(-76.493 -5.419)" fill="#087750"/>
    <path id="Path_275" data-name="Path 275" d="M86.644,42.786h0a.709.709,0,0,1,.973-.132l.037.024a1.953,1.953,0,0,1,.735.96c2.127,5.74,6.287.935,10.807,11.72h0c-3.656-5.63-12.914-12-12.61-12.491a.818.818,0,0,1,.058-.082h0Z" transform="translate(-64.727 -25.488)" fill="#e6e6e6"/>
    <path id="Path_276" data-name="Path 276" d="M69.164,83.861h0a.709.709,0,0,1,.736-.651h.044a1.953,1.953,0,0,1,1.145.39c4.959,3.588,5.746-2.719,15.5,3.733h0c-6.169-2.647-17.4-2.793-17.426-3.371a.817.817,0,0,1,0-.1h0Z" transform="translate(-54.286 -49.879)" fill="#e6e6e6"/>
  </g>
  <g id="Group_118" data-name="Group 118" transform="translate(166.111 33.121)">
    <path id="Path_277" data-name="Path 277" d="M414.769,123.265h0a1.333,1.333,0,0,1,1.4-.877,4.414,4.414,0,0,0,.752.036c6.273-.369,14.043,3.223,22.314,8.142h0c-7.572-6.127-14.5-11.547-22.652-5.977a1.21,1.21,0,0,1-1.746-.361,1.147,1.147,0,0,1-.1-.853q.014-.054.034-.108h0Z" transform="translate(-414.696 -106.411)" fill="#e6e6e6"/>
    <path id="Path_278" data-name="Path 278" d="M500.494,87.952h0a1.333,1.333,0,0,1,.557,1.515l-.019.063a2.429,2.429,0,0,1-1.047,1.343c-7.133,4.441,1.125,10.123-12.076,19.3h0c6.393-6.84,11.651-22.681,12.449-22.293a1.348,1.348,0,0,1,.135.076h0Z" transform="translate(-458.583 -85.793)" fill="#e6e6e6"/>
    <path id="Path_279" data-name="Path 279" d="M511.373,160.011h0a1.333,1.333,0,0,1-1.439.733l-.065-.012a2.429,2.429,0,0,1-1.458-.881c-5.256-6.555-9.918,2.319-20.593-9.7h0c7.551,5.535,23.9,8.876,23.613,9.715a1.352,1.352,0,0,1-.059.143Z" transform="translate(-458.529 -123.128)" fill="#e6e6e6"/>
    <path id="Path_280" data-name="Path 280" d="M502.317,160.486h0a1.275,1.275,0,0,1-1.072-.034l-.04-.019a1.812,1.812,0,0,1-.791-.651c-2.24-3.63-6.892-1.274-11.677-8.154h0c3.922,3.741,13.986,8.561,13.644,8.816a.563.563,0,0,1-.065.042h0Z" transform="translate(-459.079 -124.013)" fill="#e6e6e6"/>
    <path id="Path_281" data-name="Path 281" d="M504.632,137.443h0a1.275,1.275,0,0,1-.736.78l-.041.018a1.812,1.812,0,0,1-1.012.161c-4.2-.729-5.522,4.315-13.846,3.337h0c5.4-.457,15.681-4.8,15.645-4.372a.565.565,0,0,1-.012.076Z" transform="translate(-459.236 -115.446)" fill="#e6e6e6"/>
    <path id="Path_282" data-name="Path 282" d="M422.77,164.42h0a1.333,1.333,0,0,1,.219-1.6l.047-.047a2.429,2.429,0,0,1,1.555-.694c8.383-.571,3.76-9.466,19.723-11.366h0c-8.856,3.037-20.937,14.554-21.46,13.836a1.349,1.349,0,0,1-.084-.131h0Z" transform="translate(-419.432 -123.465)" fill="#e6e6e6"/>
    <path id="Path_283" data-name="Path 283" d="M493.576,165.515h0a.79.79,0,0,1-.973-.075l-.03-.027a1.525,1.525,0,0,1-.478-.936c-.669-5.166-5.852-1.969-7.616-11.775h0c2.174,5.365,9.585,12.406,9.172,12.757a.8.8,0,0,1-.075.057h0Z" transform="translate(-456.527 -124.656)" fill="#e6e6e6"/>
    <path id="Path_284" data-name="Path 284" d="M479.814,176.2h0a1.022,1.022,0,0,1-.995-.754l-.013-.049a1.905,1.905,0,0,1,.126-1.321c2.814-5.926-4.946-6.136-.136-17.726h0c-1.332,7.179,1.821,19.757,1.138,19.842a1.039,1.039,0,0,1-.12.008h0Z" transform="translate(-452.154 -126.842)" fill="#087750"/>
    <path id="Path_285" data-name="Path 285" d="M440.472,165.564h0a1.022,1.022,0,0,1-.054-1.247l.029-.042a1.905,1.905,0,0,1,1.1-.746c6.358-1.613,1.57-7.723,13.564-11.412h0c-6.378,3.554-14.053,14.006-14.554,13.534a1.039,1.039,0,0,1-.083-.087Z" transform="translate(-430.003 -124.306)" fill="#087750"/>
    <path id="Path_286" data-name="Path 286" d="M450.236,160.824h0a.474.474,0,0,1-.033-.662l.019-.024a1.347,1.347,0,0,1,.7-.443c4.032-1.122,1-4.177,8.61-6.637h0c-4.047,2.156-8.923,8.039-9.24,7.808a.555.555,0,0,1-.052-.043h0Z" transform="translate(-435.909 -124.87)" fill="#087750"/>
    <path id="Path_287" data-name="Path 287" d="M464.1,166.329h0a.474.474,0,0,1-.263-.608l.009-.029a1.347,1.347,0,0,1,.5-.659c3.38-2.467-.528-4.264,5.728-9.24h0c-3.031,3.441-5.529,10.662-5.907,10.557a.557.557,0,0,1-.064-.022Z" transform="translate(-444.138 -126.51)" fill="#e6e6e6"/>
    <path id="Path_288" data-name="Path 288" d="M419.461,139.308l.615,1.892h1.99l-1.61,1.17.615,1.892-1.609-1.17-1.61,1.17.615-1.892-1.61-1.17h1.99Z" transform="translate(-415.991 -116.628)" fill="#087750"/>
    <path id="Path_289" data-name="Path 289" d="M487.913,82.687l.615,1.892h1.99l-1.609,1.17.615,1.892-1.609-1.17-1.61,1.17.615-1.892-1.609-1.17h1.99Z" transform="translate(-457.024 -82.687)" fill="#e6e6e6"/>
    <path id="Path_290" data-name="Path 290" d="M524.252,133.392l.615,1.892h1.99l-1.61,1.17.615,1.892-1.609-1.169-1.61,1.169.615-1.892-1.61-1.17h1.99Z" transform="translate(-478.807 -113.082)" fill="#087750"/>
    <path id="Path_291" data-name="Path 291" d="M450.729,184.943l.615,1.892h1.99L451.724,188l.615,1.892-1.61-1.17-1.61,1.17.615-1.892-1.609-1.17h1.99Z" transform="translate(-434.735 -143.983)" fill="#087750"/>
    <path id="Path_292" data-name="Path 292" d="M478.617,133.392l.615,1.892h1.99l-1.609,1.17.615,1.892-1.61-1.169-1.61,1.169.615-1.892-1.609-1.17H478Z" transform="translate(-451.452 -113.082)" fill="#087750"/>
    <path id="Path_293" data-name="Path 293" d="M516.967,82.687l.615,1.892h1.99l-1.61,1.17.615,1.892-1.61-1.17-1.609,1.17.615-1.892-1.61-1.17h1.99Z" transform="translate(-474.44 -82.687)" fill="#e6e6e6"/>
    <path id="Path_294" data-name="Path 294" d="M417.123,176.055l.78,1.831,1.982-.176-1.5,1.307.78,1.831-1.707-1.023-1.5,1.307.445-1.939L414.7,178.17l1.982-.176Z" transform="translate(-414.696 -138.655)" fill="#e6e6e6"/>
    <path id="Path_295" data-name="Path 295" d="M463.076,88.65h0a.778.778,0,0,1,.991.263l.026.036a1.823,1.823,0,0,1,.319,1.143c-.274,5.949,5.676,3.29,5.666,14.672h0c-1.243-6.449-7.582-15.743-7.09-16.063a.852.852,0,0,1,.089-.05h0Z" transform="translate(-443.628 -86.212)" fill="#087750"/>
    <path id="Path_296" data-name="Path 296" d="M450.232,110.525h0a.461.461,0,0,1,.633-.086l.024.016a1.271,1.271,0,0,1,.478.625c1.384,3.734,4.091.608,7.032,7.625h0c-2.379-3.663-8.4-7.807-8.2-8.127a.531.531,0,0,1,.038-.053h0Z" transform="translate(-435.972 -99.27)" fill="#e6e6e6"/>
    <path id="Path_297" data-name="Path 297" d="M438.859,137.25h0a.461.461,0,0,1,.479-.423h.029a1.271,1.271,0,0,1,.745.253c3.226,2.335,3.738-1.769,10.084,2.429h0c-4.014-1.722-11.324-1.817-11.338-2.193a.533.533,0,0,1,0-.065h0Z" transform="translate(-429.179 -115.14)" fill="#e6e6e6"/>
  </g>
</svg>
