<svg xmlns="http://www.w3.org/2000/svg" width="157.905" height="171.815" viewBox="0 0 157.905 171.815">
  <g id="undraw_woman_ffrd" transform="translate(0 0)">
    <path id="Path_113" data-name="Path 113" d="M518.186,317.606a60.572,60.572,0,0,1,13.752,12.573v7.957c-2.092-.712-10.078-3.664-13.232-8.332-3.644-5.4-4.293-13.585-1.257-15.636a3.279,3.279,0,0,1,2.8-.307,60.023,60.023,0,0,1,9.536,8.664,16.693,16.693,0,0,1,2.149,5.884v.1A29.135,29.135,0,0,0,518.186,317.606Z" transform="translate(-388.922 -236.654)" fill="#087750"/>
    <path id="Path_114" data-name="Path 114" d="M517.63,105.224A60.57,60.57,0,0,1,531.383,117.8v1.817c-.41-.14-1.044-.363-1.825-.67a28.018,28.018,0,0,0-11.928-8.563,54.937,54.937,0,0,1,8.917,7.249c-3.016-1.451-6.542-3.6-8.4-6.348q-.295-.435-.56-.877c-3.119-5.177-3.325-10.854-.452-12.795,3.035-2.051,8.357.855,12,6.247,2.107,3.121,2.7,7.964,2.819,11.488-.194.255-.386.516-.577.781a29.135,29.135,0,0,0-13.752-10.9Z" transform="translate(-388.612 -73.142)" fill="#087750"/>
    <path id="Path_115" data-name="Path 115" d="M596.19,216.932v0a21.266,21.266,0,0,1-1.307,2.9,14.942,14.942,0,0,1-3.308,3.941,31.721,31.721,0,0,1-4.563,3.283,44.807,44.807,0,0,1-4.644,2.439v-.774a59.91,59.91,0,0,1,13.261-11.989,28.8,28.8,0,0,0-13.261,10.243v-3.411a59.911,59.911,0,0,1,13.261-11.989,28.8,28.8,0,0,0-13.261,10.243V218.41a60.1,60.1,0,0,1,13.075-11.866c2.171,1.746,2.36,5.958.747,10.388h0Z" transform="translate(-439.353 -155.822)" fill="#087750"/>
    <circle id="Ellipse_47" data-name="Ellipse 47" cx="35.286" cy="35.286" r="35.286" transform="translate(0 25.015)" fill="#ff7d00"/>
    <path id="uuid-9ac3c440-2c29-483e-b5ea-f157a67fda2d-131" d="M529.46,435.03c2.968,2.5,4.083,6.058,2.492,7.946s-5.287,1.392-8.255-1.109a9.712,9.712,0,0,1-2.761-3.663l-12.441-10.752,5.17-5.731,11.716,11.208a9.712,9.712,0,0,1,4.079,2.1Z" transform="translate(-383.621 -318.157)" fill="#fcb4b4"/>
    <path id="Path_116" data-name="Path 116" d="M460.835,302.532,445.627,283l-14.405-26.364-.374,36.564,21.592,17.734Z" transform="translate(-325.042 -193.614)" fill="#2f2e41"/>
    <path id="Path_117" data-name="Path 117" d="M283.556,175.959l3.484-15.841,11.645.56,2.989,11.492Z" transform="translate(-213.921 -120.797)" fill="#fcb4b4"/>
    <path id="Path_118" data-name="Path 118" d="M283.556,175.959l3.484-15.841,11.645.56,2.989,11.492Z" transform="translate(-213.921 -120.797)" opacity="0.1" style="mix-blend-mode: normal;isolation: isolate"/>
    <circle id="Ellipse_48" data-name="Ellipse 48" cx="13.037" cy="13.037" r="13.037" transform="translate(65.616 17.497)" fill="#fcb4b4"/>
    <path id="Path_119" data-name="Path 119" d="M236.563,35.57h0a26.541,26.541,0,0,1-4.051-.521c-2.736-.509,2.014,5.884,2.014,5.884-12.874-5.376-8.754-19.011-8.754-19.011-13.066-2.5-7.592-14.114-7.592-14.114S222.487-.5,235.727.025s6.985,13.587,6.985,13.587a9.2,9.2,0,0,1,9.6,7.79,80.351,80.351,0,0,0-8.761,1.822c-5.651,1.434-6.984,12.345-6.984,12.345h0Z" transform="translate(-163.742 0)" fill="#2f2e41"/>
    <path id="Path_120" data-name="Path 120" d="M237.8,200.785l-.589-1.147s-10.477,1.214-12.2,2.817-5.648,8.725-5.648,8.725l8.6,7.367,9.838-17.763Z" transform="translate(-165.497 -150.612)" fill="#ffb6b6"/>
    <path id="Path_121" data-name="Path 121" d="M347.369,201.648s7.858-2.1,12.279,2.324,9.578,12.524,9.578,12.524l-.246,6.385L356.7,216.963l-9.332-15.315h0Z" transform="translate(-262.063 -151.753)" fill="#ffb6b6"/>
    <path id="Path_122" data-name="Path 122" d="M353.9,196.99s10.276-3.684,16.906,4.175,8.6,32.662,8.6,32.662,14.98,45.923,11.3,46.414-26.164,1.849-26.164,1.849l-7.726-49.982-3.438-35.117h.53Z" transform="translate(-266.59 -147.963)" fill="#2f2e41"/>
    <path id="Path_123" data-name="Path 123" d="M251.825,379.639l-2.456,8.841,33.4,2.456s-1.228-7.391,0-10.08Z" transform="translate(-188.13 -286.408)" fill="#fcb4b4"/>
    <path id="Path_124" data-name="Path 124" d="M336.369,611.376l1.473,21.12L356.388,632l-.619-21.365Z" transform="translate(-253.765 -460.68)" fill="#fcb4b4"/>
    <path id="Path_125" data-name="Path 125" d="M201.815,605.132,196.369,628.1l19.415-.131,4.946-18.77Z" transform="translate(-148.145 -456.526)" fill="#fcb4b4"/>
    <path id="Path_126" data-name="Path 126" d="M269.628,199.639H254.565l-12.2,16.208L245.07,249a60.2,60.2,0,0,1,14.735-1.719h18.418s-2.7-8.6.737-12.033.982-19.4.982-19.4l-10.314-16.208Z" transform="translate(-182.849 -150.612)" fill="#087750"/>
    <path id="Path_127" data-name="Path 127" d="M202.121,404.639l-13.752,49.852s20.25,8.137,32.473,5.787,28.921-3.086,28.921-3.086L237.975,406.6l-35.854-1.965Z" transform="translate(-142.11 -305.269)" fill="#2f2e41"/>
    <path id="uuid-73c6c48b-3ad6-4bf4-ae9b-2aead64e96c3-132" d="M309.46,438.03c2.968,2.5,4.083,6.058,2.492,7.946s-5.287,1.392-8.255-1.109a9.711,9.711,0,0,1-2.761-3.663l-12.441-10.752,5.17-5.731,11.716,11.208a9.712,9.712,0,0,1,4.079,2.1Z" transform="translate(-217.647 -320.42)" fill="#fcb4b4"/>
    <path id="Path_128" data-name="Path 128" d="M250.835,302.532,235.627,283l-14.405-26.364-.374,36.564,21.593,17.734Z" transform="translate(-166.613 -193.614)" fill="#2f2e41"/>
    <path id="Path_129" data-name="Path 129" d="M181.377,196.99s-10.276-3.684-16.906,4.175-8.6,32.662-8.6,32.662-14.98,45.923-11.3,46.414,26.164,1.849,26.164,1.849l7.726-49.982,3.438-35.117h-.53Z" transform="translate(-108.634 -147.963)" fill="#2f2e41"/>
    <rect id="Rectangle_1572" data-name="Rectangle 1572" width="0.491" height="85.46" transform="translate(142.77 39.695)" fill="#3f3d56"/>
    <path id="Path_130" data-name="Path 130" d="M19.186,506.606a60.57,60.57,0,0,1,13.752,12.574v7.957c-2.092-.712-10.078-3.664-13.232-8.332-3.644-5.4-4.293-13.585-1.257-15.636a3.279,3.279,0,0,1,2.8-.307,60.024,60.024,0,0,1,9.536,8.664,16.693,16.693,0,0,1,2.149,5.884v.1a29.135,29.135,0,0,0-13.752-10.9Z" transform="translate(-12.465 -379.24)" fill="#087750"/>
    <path id="Path_131" data-name="Path 131" d="M18.631,294.224A60.571,60.571,0,0,1,32.383,306.8v1.817c-.41-.14-1.044-.363-1.825-.67a28.018,28.018,0,0,0-11.928-8.563,54.937,54.937,0,0,1,8.917,7.249c-3.016-1.451-6.542-3.6-8.4-6.348q-.295-.435-.56-.877c-3.119-5.177-3.325-10.854-.452-12.795,3.035-2.051,8.357.855,12,6.247,2.107,3.121,2.7,7.964,2.819,11.488-.194.255-.386.516-.577.781a29.135,29.135,0,0,0-13.752-10.9Z" transform="translate(-12.155 -215.728)" fill="#087750"/>
    <path id="Path_132" data-name="Path 132" d="M97.19,405.932v0a21.27,21.27,0,0,1-1.306,2.9,14.945,14.945,0,0,1-3.308,3.941,31.718,31.718,0,0,1-4.563,3.283,44.8,44.8,0,0,1-4.644,2.439v-.774A59.911,59.911,0,0,1,96.63,405.736a28.8,28.8,0,0,0-13.261,10.243v-3.411A59.91,59.91,0,0,1,96.63,400.578a28.8,28.8,0,0,0-13.261,10.243V407.41a60.106,60.106,0,0,1,13.074-11.866c2.171,1.746,2.36,5.958.747,10.388Z" transform="translate(-62.895 -298.408)" fill="#087750"/>
    <rect id="Rectangle_1573" data-name="Rectangle 1573" width="0.491" height="85.46" transform="translate(20.228 86.109)" fill="#3f3d56"/>
  </g>
</svg>
