<svg xmlns="http://www.w3.org/2000/svg" viewBox="0 0 329.51 626.01"><defs><style>.cls-1{fill:#788e3c;}.cls-2{fill:#869e47;}.cls-3{fill:#59752b;}.cls-4{fill:#b9c82d;}.cls-5{fill:#cede23;}.cls-6{fill:#4e522b;}.cls-7{fill:#9eb134;}.cls-8{fill:#b8e30d;}</style></defs><title>Left</title><g id="Layer_2" data-name="Layer 2"><g id="BACKGROUND_2" data-name="BACKGROUND 2"><path class="cls-1" d="M43.21,374.27s-6,42.15,35.3,68.34c31.36,16.55,39.36,28.59,39.36,28.59S109,376.72,43.21,374.27Z"/><path class="cls-2" d="M44.31,374.34c5.07,7,7.51,15.08,12.5,22.15C75,421.87,106,441.88,117.3,470.44a8.7,8.7,0,0,1,.57.76S109.1,377.8,44.31,374.34Z"/><path class="cls-3" d="M113.84,464.24a1,1,0,0,1-.86-.49,239.33,239.33,0,0,0-37.59-45.22c-24.34-23-31.24-41.08-31.52-41.84a1,1,0,0,1,1.88-.7c.06.18,7,18.42,31,41.08,24.27,23,37.8,45.43,37.93,45.66a1,1,0,0,1-.35,1.37A1,1,0,0,1,113.84,464.24Z"/><path class="cls-3" d="M65.27,390.44a35.5,35.5,0,0,1-15.35-3.38.5.5,0,1,1,.48-.88,35.11,35.11,0,0,0,25.24,1.68.5.5,0,0,1,.3.95A35.28,35.28,0,0,1,65.27,390.44Z"/><path class="cls-3" d="M59.78,420.17h-.11a.49.49,0,0,1-.37-.6c2-8.74-2.34-22.11-2.38-22.25a.5.5,0,0,1,.95-.31c.18.56,4.47,13.77,2.4,22.78A.49.49,0,0,1,59.78,420.17Z"/><path class="cls-3" d="M80.26,415.2A31.14,31.14,0,0,1,71.57,414a.51.51,0,0,1-.32-.63.5.5,0,0,1,.63-.32c.11,0,11.22,3.57,21.59-2.09a.51.51,0,0,1,.68.2.5.5,0,0,1-.2.68A28.52,28.52,0,0,1,80.26,415.2Z"/><path class="cls-3" d="M84.55,441.81a.56.56,0,0,1-.27-.08.5.5,0,0,1-.15-.69c3-4.71-3.78-18.65-3.85-18.79a.5.5,0,0,1,.9-.44c.29.59,7.06,14.58,3.79,19.76A.47.47,0,0,1,84.55,441.81Z"/><path class="cls-3" d="M102.71,438.23a34.29,34.29,0,0,1-9.06-1.36.49.49,0,0,1-.32-.63.5.5,0,0,1,.62-.33c.08,0,7.66,2.35,13.42.75a.5.5,0,0,1,.27,1A18.6,18.6,0,0,1,102.71,438.23Z"/><path class="cls-3" d="M101.6,455.23a.71.71,0,0,1-.2,0,.5.5,0,0,1-.26-.66c1.32-3.17.1-8.32.09-8.37a.51.51,0,0,1,.36-.61.51.51,0,0,1,.61.37c0,.23,1.31,5.52-.14,9A.51.51,0,0,1,101.6,455.23Z"/><path class="cls-3" d="M47.7,383.05a1,1,0,0,1-.85-.47c-5-7.86-4.59-13.78-4.57-14a1,1,0,1,1,2,.14c0,.07-.29,5.57,4.28,12.82a1,1,0,0,1-.32,1.38A.94.94,0,0,1,47.7,383.05Z"/><path class="cls-4" d="M107,366s14.1-25.13,50.07-7C157,359,139.38,386.14,107,366Z"/><path class="cls-5" d="M107,366c31.27,19.44,48.8-5.15,50-6.92-16.67,1.87-33,4.78-49.54,6.19C107.12,365.71,107,366,107,366Z"/><path class="cls-6" d="M152.46,360.32S113.85,361.49,107,366Z"/><path class="cls-3" d="M67.63,370.11c-22.85,0-44.15-1.84-45.76-2a1.5,1.5,0,0,1-1.36-1.63,1.48,1.48,0,0,1,1.62-1.36c.73.06,72.75,6.29,94.84-4a1.51,1.51,0,0,1,1.27,2.73C107.74,368.77,87.11,370.11,67.63,370.11Z"/><path class="cls-7" d="M69.54,363.57s35.6-4,48.18-43.23c6.83-29,14.94-38.11,14.94-38.11S57.6,309.46,69.54,363.57Z"/><path class="cls-4" d="M109,310.54c-12.88,16.63-21.91,35.27-35.6,51.66a4,4,0,0,1-1.44.94c8.25-1.73,35.14-9.8,45.73-42.8,6.83-29,14.94-38.11,14.94-38.11l-1.54.6a85.88,85.88,0,0,0-15.61,20.74C114,305.78,110.56,308.33,109,310.54Z"/><path class="cls-3" d="M70.89,362.83a1,1,0,0,1-.82-.43,1,1,0,0,1,.24-1.39c.13-.09,13.48-9.63,26.84-33.91a203.42,203.42,0,0,1,29.18-40.6,1,1,0,0,1,1.41,0,1,1,0,0,1,0,1.42A201.37,201.37,0,0,0,98.9,328.06C85.29,352.8,72,362.26,71.46,362.65A1,1,0,0,1,70.89,362.83Z"/><path class="cls-3" d="M78.12,355.79H78a.51.51,0,0,1-.37-.61,29.43,29.43,0,0,0-4-20.85.48.48,0,0,1,.16-.68.49.49,0,0,1,.69.16,30.48,30.48,0,0,1,4.08,21.62A.49.49,0,0,1,78.12,355.79Z"/><path class="cls-3" d="M85.17,347.67a.51.51,0,0,1-.42-.23.5.5,0,0,1,.15-.69c.42-.27,10.29-6.56,18.09-6.79a.5.5,0,0,1,0,1c-7.52.22-17.48,6.57-17.58,6.63A.43.43,0,0,1,85.17,347.67Z"/><path class="cls-3" d="M95.49,332.52h0A.49.49,0,0,1,95,332c0-.09.53-9.85-6.25-17.07a.5.5,0,0,1,.73-.69c7.08,7.55,6.55,17.41,6.52,17.83A.5.5,0,0,1,95.49,332.52Z"/><path class="cls-3" d="M100.49,323.4a.52.52,0,0,1-.38-.17.51.51,0,0,1,0-.71c.43-.36,10.42-8.86,15.37-7.29a.5.5,0,0,1-.3.95c-4.43-1.41-14.32,7-14.42,7.1A.49.49,0,0,1,100.49,323.4Z"/><path class="cls-3" d="M109.41,309.71h0a.5.5,0,0,1-.48-.52c0-.07.29-6.72-2.21-11.05a.5.5,0,1,1,.86-.5c2.65,4.59,2.37,11.31,2.35,11.59A.5.5,0,0,1,109.41,309.71Z"/><path class="cls-3" d="M115.6,301.23a.5.5,0,0,1-.44-.27.51.51,0,0,1,.2-.68c.17-.09,4.24-2.24,7.41-1.8a.51.51,0,0,1,.42.57.49.49,0,0,1-.56.42c-2.85-.4-6.76,1.68-6.8,1.7A.46.46,0,0,1,115.6,301.23Z"/><path class="cls-3" d="M60.15,370a1,1,0,0,1-.45-1.89c.13-.07,12.23-6.08,15.31-11.38a1,1,0,0,1,1.36-.37,1,1,0,0,1,.37,1.37c-3.38,5.83-15.63,11.91-16.15,12.17A1,1,0,0,1,60.15,370Z"/><path class="cls-4" d="M74.36,373.56s11.29,27.91,45.86,29.25c25-1,34.21,3.5,34.21,3.5S115.47,351.7,74.36,373.56Z"/><path class="cls-3" d="M149.14,403.88a.94.94,0,0,1-.48-.13,169.69,169.69,0,0,0-39-14.27C86.56,384,75.88,375.4,75.44,375a1,1,0,1,1,1.27-1.54c.11.08,10.81,8.71,33.44,14A171.14,171.14,0,0,1,149.63,402a1,1,0,0,1,.39,1.36A1,1,0,0,1,149.14,403.88Z"/><path class="cls-3" d="M83,379.14a.5.5,0,0,1,0-1,24.68,24.68,0,0,0,15.93-7.88.48.48,0,0,1,.7,0,.49.49,0,0,1,0,.7A25.24,25.24,0,0,1,83,379.14Z"/><path class="cls-3" d="M100.62,395.94a.5.5,0,0,1-.48-.35c-1.87-6-9.23-12.63-9.31-12.7a.5.5,0,0,1,0-.7.5.5,0,0,1,.71,0c.31.27,7.65,6.86,9.6,13.14a.5.5,0,0,1-.33.62Z"/><path class="cls-3" d="M105.75,388a.5.5,0,0,1-.49-.39.51.51,0,0,1,.39-.6c.08,0,8.06-1.79,12.36-8.87a.5.5,0,0,1,.69-.16.49.49,0,0,1,.16.68,21.68,21.68,0,0,1-13,9.33Z"/><path class="cls-3" d="M123.45,400.37h0a.5.5,0,0,1-.48-.52c.11-3.2-6.43-8.3-9-10a.51.51,0,0,1-.13-.7.5.5,0,0,1,.69-.13c.39.26,9.57,6.45,9.4,10.86A.5.5,0,0,1,123.45,400.37Z"/><path class="cls-3" d="M127.36,394.08a.5.5,0,0,1-.11-1s5.47-1.28,8.39-4.26a.5.5,0,0,1,.71,0,.49.49,0,0,1,0,.7c-3.13,3.2-8.66,4.49-8.89,4.55Z"/><path class="cls-3" d="M138.63,402.52a.49.49,0,0,1-.49-.43c-.32-2.37-2.86-5-2.88-5.08a.49.49,0,0,1,0-.7.5.5,0,0,1,.71,0c.11.12,2.79,2.95,3.15,5.64a.5.5,0,0,1-.43.56Z"/><path class="cls-3" d="M79.87,377.72a.92.92,0,0,1-.46-.11c-5.91-3.09-7.83-6.92-7.91-7.09a1,1,0,0,1,1.79-.88c0,.05,1.78,3.44,7,6.2a1,1,0,0,1-.46,1.88Z"/><path class="cls-1" d="M31.76,365.63S65.34,352.4,67.33,311c-1-30,4.56-41,4.56-41S6,316.1,31.76,365.63Z"/><path class="cls-3" d="M32.62,364.58a1,1,0,0,1-.65-.23,1,1,0,0,1-.12-1.41c.1-.13,10.59-12.9,17.24-40a205,205,0,0,1,17.76-47.13,1,1,0,1,1,1.74,1A202.89,202.89,0,0,0,51,323.4C44.26,351,33.82,363.7,33.38,364.23A1,1,0,0,1,32.62,364.58Z"/><path class="cls-3" d="M37.94,355.83a.51.51,0,0,1-.5-.49,29.63,29.63,0,0,0-9.31-19.25.51.51,0,0,1,0-.71.5.5,0,0,1,.71,0,30.67,30.67,0,0,1,9.63,20,.5.5,0,0,1-.49.51Z"/><path class="cls-3" d="M42.68,346.08a.5.5,0,0,1-.34-.13.49.49,0,0,1,0-.7c.34-.37,8.29-9.09,15.82-11.34a.5.5,0,1,1,.29.95c-7.27,2.18-15.29,11-15.37,11.06A.49.49,0,0,1,42.68,346.08Z"/><path class="cls-3" d="M48.75,328.64a.48.48,0,0,1-.48-.4c0-.09-2.07-9.72-10.55-15a.5.5,0,1,1,.52-.85c8.86,5.49,10.92,15.22,11,15.63a.5.5,0,0,1-.4.59Z"/><path class="cls-3" d="M51.23,318.46a.5.5,0,0,1-.41-.78c.32-.47,7.84-11.34,13-11.12a.51.51,0,0,1,.48.52.5.5,0,0,1-.53.48h-.14c-4.68,0-12,10.57-12,10.68A.52.52,0,0,1,51.23,318.46Z"/><path class="cls-3" d="M56.33,302.8a.51.51,0,0,1-.49-.39c0-.07-1.47-6.61-5.05-10.17a.5.5,0,0,1,.71-.71c3.78,3.77,5.26,10.39,5.32,10.66a.5.5,0,0,1-.38.6Z"/><path class="cls-3" d="M60.13,292.93a.5.5,0,0,1-.34-.87c.14-.13,3.53-3.29,6.73-3.68a.5.5,0,0,1,.56.43.51.51,0,0,1-.44.56c-2.87.35-6.14,3.39-6.17,3.42A.51.51,0,0,1,60.13,292.93Z"/><path class="cls-3" d="M27.57,369a1,1,0,0,1-.44-1.9h0c.05,0,4.19-2.1,7.6-8.46a1,1,0,1,1,1.76.94c-3.74,7-8.3,9.23-8.49,9.32A1,1,0,0,1,27.57,369Z"/><path class="cls-3" d="M102.56,367.4a1,1,0,0,1-.84-.45,1,1,0,0,1,.29-1.38c.76-.51,18.85-12.36,23.7-13.57a1,1,0,0,1,.48,1.94c-3.62.9-16.68,9.09-23.09,13.3A1,1,0,0,1,102.56,367.4Z"/><path class="cls-1" d="M109.68,361.71s24.65,10.5,51.16-28.3c5-8.29,7.88-14.21,7.88-14.21S110.83,353.31,109.68,361.71Z"/><path class="cls-6" d="M109.68,361.71h0c1.15-8.4,59-42.51,59-42.51s-.55,1.15-1.61,3.14C146.2,331.48,126.56,346.52,109.68,361.71Z"/><path class="cls-3" d="M126.83,358.62a22.47,22.47,0,0,1-10.46-2.57.5.5,0,0,1,.5-.86,22,22,0,0,0,14.13,2,.51.51,0,0,1,.59.39.51.51,0,0,1-.39.59A21.2,21.2,0,0,1,126.83,358.62Z"/><path class="cls-3" d="M140.83,348.18c-5.1,0-11.17-2.9-11.47-3.05a.5.5,0,0,1,.44-.9c.08,0,8.37,4,13.37,2.68a.5.5,0,0,1,.25,1A10.28,10.28,0,0,1,140.83,348.18Z"/><path class="cls-3" d="M150.39,335.37a18.31,18.31,0,0,1-5.27-.78.5.5,0,0,1-.32-.63.51.51,0,0,1,.63-.32c.06,0,5.64,1.8,10.14-.33a.5.5,0,1,1,.43.9A13.14,13.14,0,0,1,150.39,335.37Z"/><path class="cls-1" d="M209.05,579.84s34.58,24.82,76.92.29c29.16-20.16,43.54-21.69,43.54-21.69S241.64,522.62,209.05,579.84Z"/><path class="cls-2" d="M209.61,578.9c8.58-1.25,16.85.32,25.42-.84,30.92-4.42,63-22.61,93.54-19.47.62-.12.94-.15.94-.15S242.64,523,209.61,578.9Z"/><path class="cls-3" d="M217,580.63a47.14,47.14,0,0,1-5.54-.26,1,1,0,0,1-.87-1.11,1,1,0,0,1,1.12-.87c.19,0,19.58,2.26,50.76-8.52,31.58-10.91,57.76-12.52,58-12.53a1,1,0,0,1,1.05.94,1,1,0,0,1-.94,1.05,239.76,239.76,0,0,0-57.48,12.43C241,579.42,225,580.63,217,580.63Z"/><path class="cls-3" d="M223.21,579.88a.48.48,0,0,1-.42-.22.5.5,0,0,1,.14-.69,35.11,35.11,0,0,0,13.15-21.6.5.5,0,0,1,.58-.4.5.5,0,0,1,.41.58,36.1,36.1,0,0,1-13.59,22.25A.45.45,0,0,1,223.21,579.88Z"/><path class="cls-3" d="M257,586.63a.49.49,0,0,1-.32-.12c-6.82-5.81-20.69-8.15-20.83-8.17a.51.51,0,0,1-.41-.58.51.51,0,0,1,.58-.41c.58.1,14.28,2.41,21.31,8.4a.52.52,0,0,1,.06.71A.52.52,0,0,1,257,586.63Z"/><path class="cls-3" d="M257.06,573.21a.5.5,0,0,1-.35-.86c.08-.08,8.35-8.29,8.13-20.1a.5.5,0,0,1,.49-.51.48.48,0,0,1,.51.49c.22,12.25-8.34,20.75-8.43,20.84A.52.52,0,0,1,257.06,573.21Z"/><path class="cls-3" d="M287.6,574.67a.5.5,0,0,1-.43-.25c-2.81-4.81-18.29-5.27-18.44-5.27a.5.5,0,0,1-.49-.51.55.55,0,0,1,.51-.49c.66,0,16.2.47,19.28,5.77a.49.49,0,0,1-.18.68A.47.47,0,0,1,287.6,574.67Z"/><path class="cls-3" d="M287.52,564.19a.54.54,0,0,1-.36-.14.51.51,0,0,1,0-.71c.06-.06,5.62-5.71,6.87-11.55a.5.5,0,1,1,1,.21c-1.31,6.13-6.9,11.81-7.14,12A.54.54,0,0,1,287.52,564.19Z"/><path class="cls-3" d="M307.38,565.76a.51.51,0,0,1-.39-.18c-2.2-2.65-7.33-3.94-7.38-4a.49.49,0,0,1-.37-.6.51.51,0,0,1,.61-.37c.22.06,5.5,1.39,7.91,4.29a.49.49,0,0,1-.06.7A.51.51,0,0,1,307.38,565.76Z"/><path class="cls-3" d="M215.19,580.57c-7.41,0-11.46-2.43-11.65-2.55a1,1,0,1,1,1.05-1.7c.08,0,4.83,2.84,13.34,2.14a1,1,0,1,1,.17,2C217.08,580.54,216.1,580.57,215.19,580.57Z"/><path class="cls-4" d="M231.16,519.47s-15.77-24.12,16.92-47.64C248.08,471.83,264,500,231.16,519.47Z"/><path class="cls-5" d="M231.16,519.47c31.7-18.74,18-45.65,17-47.53-6,15.64-11,31.46-17.41,46.79C231,519.21,231.16,519.47,231.16,519.47Z"/><path class="cls-6" d="M247.17,476.52s-16.8,34.77-16,43Z"/><path class="cls-3" d="M192.47,596.62a1.49,1.49,0,0,1-.81-.23,1.51,1.51,0,0,1-.46-2.08c.39-.61,39.21-61.6,40.33-85.93a1.5,1.5,0,1,1,3,.14c-1.15,25.12-39.17,84.88-40.79,87.41A1.49,1.49,0,0,1,192.47,596.62Z"/><path class="cls-7" d="M211.72,551.55s12.89-33.43-16.05-62.71C173.08,469.36,168.78,458,168.78,458S158.22,537.13,211.72,551.55Z"/><path class="cls-4" d="M183,492c8.8,19.1,21.16,35.73,29.36,55.44a4.25,4.25,0,0,1,.17,1.72c2.28-8.12,7.55-35.69-16.81-60.34C173.08,469.36,168.78,458,168.78,458s-.08.58-.19,1.64a86,86,0,0,0,11.18,23.43C181,485.43,181.7,489.64,183,492Z"/><path class="cls-3" d="M210.8,550.55a1,1,0,0,1-1-.87c0-.16-2.31-16.4-17.66-39.47a203.48,203.48,0,0,1-22.52-44.64,1,1,0,1,1,1.91-.61,201.25,201.25,0,0,0,22.27,44.14c15.64,23.5,17.9,39.65,18,40.32a1,1,0,0,1-.87,1.12Z"/><path class="cls-3" d="M208.35,540.62a.48.48,0,0,1-.33-.13,29.49,29.49,0,0,0-20.32-6.12.48.48,0,0,1-.53-.46.5.5,0,0,1,.45-.54,30.43,30.43,0,0,1,21.06,6.37.51.51,0,0,1,0,.71A.52.52,0,0,1,208.35,540.62Z"/><path class="cls-3" d="M204.41,530.61a.51.51,0,0,1-.5-.46c0-.49-1.06-12.16,2.34-19.17a.5.5,0,1,1,.9.43c-3.28,6.77-2.25,18.53-2.24,18.65a.51.51,0,0,1-.45.55Z"/><path class="cls-3" d="M195.75,514.46a.5.5,0,0,1-.26-.08c-.08,0-8.5-5-18-2.35a.51.51,0,0,1-.62-.35.5.5,0,0,1,.35-.61c10-2.79,18.46,2.24,18.82,2.46a.5.5,0,0,1,.17.68A.51.51,0,0,1,195.75,514.46Z"/><path class="cls-3" d="M190,505.81a.5.5,0,0,1-.49-.39c-.13-.54-3.06-13.33.64-17a.5.5,0,0,1,.7,0,.5.5,0,0,1,0,.71c-3.3,3.27-.4,15.93-.36,16.06a.5.5,0,0,1-.38.6Z"/><path class="cls-3" d="M182,491.56a.57.57,0,0,1-.25-.06c-.06,0-5.84-3.39-10.82-3.14a.51.51,0,0,1-.52-.48.5.5,0,0,1,.48-.52c5.3-.2,11.12,3.13,11.37,3.27a.51.51,0,0,1,.17.69A.47.47,0,0,1,182,491.56Z"/><path class="cls-3" d="M177.29,482.16a.49.49,0,0,1-.5-.49c0-.2,0-4.8,1.82-7.41a.51.51,0,0,1,.7-.11.5.5,0,0,1,.12.7c-1.67,2.33-1.64,6.76-1.64,6.8a.5.5,0,0,1-.5.51Z"/><path class="cls-3" d="M212.23,563.4h0a1,1,0,0,1-1-1c0-.13.26-13.65-3-18.83a1,1,0,0,1,1.69-1.07c3.61,5.69,3.34,19.37,3.33,19.95A1,1,0,0,1,212.23,563.4Z"/><path class="cls-4" d="M222.82,551.89s30,2.89,47.13-27.14C280.62,502.07,288.87,496,288.87,496S222.43,505.33,222.82,551.89Z"/><path class="cls-3" d="M224.23,551.69a1,1,0,0,1-.92-.6,1,1,0,0,1,.53-1.32c.12,0,12.72-5.56,27.9-23.15a170.63,170.63,0,0,1,31.09-28.32,1,1,0,0,1,1.38.28,1,1,0,0,1-.28,1.39,168.85,168.85,0,0,0-30.67,27.95c-15.52,18-28.11,23.47-28.64,23.69A.91.91,0,0,1,224.23,551.69Z"/><path class="cls-3" d="M231.31,547.08a.59.59,0,0,1-.22-.05.5.5,0,0,1-.23-.67,24.64,24.64,0,0,0,.37-17.76.5.5,0,0,1,.3-.64.49.49,0,0,1,.64.3,25.18,25.18,0,0,1-.41,18.54A.49.49,0,0,1,231.31,547.08Z"/><path class="cls-3" d="M238.52,541.63a.48.48,0,0,1-.46-.32.5.5,0,0,1,.29-.65c.39-.14,9.62-3.61,16.09-2.43a.5.5,0,0,1,.4.58.5.5,0,0,1-.58.4c-6.2-1.13-15.47,2.35-15.56,2.39Z"/><path class="cls-3" d="M249.64,531l-.13,0a.5.5,0,0,1-.35-.61c0-.08,2.14-8-2.15-15.07a.5.5,0,0,1,.85-.52,21.69,21.69,0,0,1,2.26,15.85A.5.5,0,0,1,249.64,531Z"/><path class="cls-3" d="M255.34,524.35a.49.49,0,0,1-.44-.26.51.51,0,0,1,.2-.68c.41-.23,10.15-5.5,14-3.32a.51.51,0,0,1,.19.68.49.49,0,0,1-.68.19c-2.79-1.58-10.34,1.86-13,3.33A.53.53,0,0,1,255.34,524.35Z"/><path class="cls-3" d="M265.06,514.65a.32.32,0,0,1-.13,0,.5.5,0,0,1-.35-.61s1.39-5.44.1-9.42A.49.49,0,0,1,265,504a.51.51,0,0,1,.63.32c1.39,4.26,0,9.76-.09,10A.49.49,0,0,1,265.06,514.65Z"/><path class="cls-3" d="M271.62,508.75a.49.49,0,0,1-.48-.36.5.5,0,0,1,.34-.62c.16,0,3.9-1.11,6.45-.19a.5.5,0,0,1-.34.94c-2.24-.81-5.79.2-5.83.21A.34.34,0,0,1,271.62,508.75Z"/><path class="cls-3" d="M218.86,553h-.06a1,1,0,0,1-1-1,1.05,1.05,0,0,1,1-1c.07,0,3.89,0,8.74-3.38a1,1,0,1,1,1.14,1.64C223.56,552.89,219.43,553,218.86,553Z"/><path class="cls-1" d="M196.09,586s3.79-35.89-32-56.81c-27.08-13-34.24-23-34.24-23S140.26,586,196.09,586Z"/><path class="cls-3" d="M194.67,585.3a1,1,0,0,1-.92-.62c-.07-.15-6.54-15.35-27.52-33.79a205.14,205.14,0,0,1-33.59-37.53,1,1,0,1,1,1.68-1.09,202.67,202.67,0,0,0,33.23,37.12c21.36,18.77,27.78,33.89,28,34.53a1,1,0,0,1-.92,1.38Z"/><path class="cls-3" d="M189.81,576.26a.59.59,0,0,1-.22,0,29.62,29.62,0,0,0-21.37-.64.51.51,0,0,1-.64-.31.49.49,0,0,1,.3-.63,30.77,30.77,0,0,1,22.16.68.49.49,0,0,1,.22.67A.48.48,0,0,1,189.81,576.26Z"/><path class="cls-3" d="M183.36,567.55a.5.5,0,0,1-.47-.32c-.17-.47-4.22-11.56-2.74-19.27a.49.49,0,0,1,.58-.4.5.5,0,0,1,.4.58c-1.42,7.45,2.66,18.63,2.7,18.74a.5.5,0,0,1-.3.64A.47.47,0,0,1,183.36,567.55Z"/><path class="cls-3" d="M152.15,556.58a.49.49,0,0,1-.43-.24.51.51,0,0,1,.17-.69c9-5.31,18.55-2.64,19-2.53a.5.5,0,1,1-.27,1c-.1,0-9.58-2.67-18.17,2.42A.45.45,0,0,1,152.15,556.58Z"/><path class="cls-3" d="M162.82,547.2a.49.49,0,0,1-.44-.26c-.27-.5-6.46-12.18-3.83-16.7a.5.5,0,0,1,.68-.19.51.51,0,0,1,.18.69c-2.35,4,3.79,15.61,3.85,15.72a.5.5,0,0,1-.21.68A.46.46,0,0,1,162.82,547.2Z"/><path class="cls-3" d="M151.29,535.44l-.13,0c-.06,0-6.54-1.74-11.35-.22a.5.5,0,1,1-.3-1c5.09-1.61,11.64.13,11.91.21a.48.48,0,0,1,.35.61A.5.5,0,0,1,151.29,535.44Z"/><path class="cls-3" d="M144.29,527.51a.49.49,0,0,1-.48-.36c-.05-.19-1.29-4.66-.16-7.68a.5.5,0,0,1,.64-.29.5.5,0,0,1,.3.64c-1,2.71.17,7,.18,7.06a.49.49,0,0,1-.34.61A.36.36,0,0,1,144.29,527.51Z"/><path class="cls-3" d="M196.21,591.79h0a1,1,0,0,1-1-1c0-.07.07-4.7-4-10.64a1,1,0,1,1,1.65-1.13c4.47,6.54,4.34,11.62,4.34,11.84A1,1,0,0,1,196.21,591.79Z"/><path class="cls-3" d="M229.5,524.58a1,1,0,0,1-1-.9c-.1-.91-2.25-22.43-1.08-27.29a1,1,0,1,1,1.94.47c-.87,3.63.36,19,1.13,26.62a1,1,0,0,1-.9,1.1Z"/><path class="cls-1" d="M228.64,515.1s20.7-17-1.46-58.45c-5-8.29-9-13.56-9-13.56S221.71,510.19,228.64,515.1Z"/><path class="cls-6" d="M228.64,515.1h0c-6.93-4.91-10.41-72-10.41-72s.76,1,2,2.88C218.7,468.73,223,493.1,228.64,515.1Z"/><path class="cls-3" d="M226.44,506.62a.48.48,0,0,1-.42-.23.5.5,0,0,1,.15-.69,21.91,21.91,0,0,0,8.31-11.59.49.49,0,0,1,.61-.35.5.5,0,0,1,.35.61,22.45,22.45,0,0,1-8.73,12.17A.47.47,0,0,1,226.44,506.62Z"/><path class="cls-3" d="M222.73,490.08a.5.5,0,0,1-.3-.9c.07-.06,7.43-5.57,8.56-10.62a.5.5,0,1,1,1,.22c-1.21,5.41-8.62,11-8.93,11.2A.49.49,0,0,1,222.73,490.08Z"/><path class="cls-3" d="M220.62,471.27a.51.51,0,0,1-.36-.15.49.49,0,0,1,0-.7s4.2-4.17,4.39-9.15a.51.51,0,0,1,.51-.48.5.5,0,0,1,.49.52c-.21,5.39-4.51,9.64-4.69,9.82A.49.49,0,0,1,220.62,471.27Z"/><path class="cls-1" d="M172.66,100.37S139.94,127.61,153,174.75c12.17,33.29,10,47.59,10,47.59S219.84,146.31,172.66,100.37Z"/><path class="cls-2" d="M173.43,101.16c-1,8.62-4.54,16.22-5.58,24.81-3.5,31,6.05,66.63-4.68,95.43,0,.63-.09.94-.09.94S219.19,147.17,173.43,101.16Z"/><path class="cls-3" d="M165.42,214.74l-.19,0a1,1,0,0,1-.79-1.18,239.26,239.26,0,0,0,2.43-58.76c-2.63-33.4,4.36-51.42,4.66-52.17a1,1,0,1,1,1.86.74c-.07.18-7.11,18.39-4.53,51.28a241,241,0,0,1-2.46,59.3A1,1,0,0,1,165.42,214.74Z"/><path class="cls-3" d="M187.4,133.15a.54.54,0,0,1-.21-.05,36.09,36.09,0,0,1-18.12-18.74.51.51,0,0,1,.31-.64.5.5,0,0,1,.63.31,35.14,35.14,0,0,0,17.6,18.16.5.5,0,0,1-.21,1Z"/><path class="cls-3" d="M154.52,145.67a.5.5,0,0,1-.41-.22.5.5,0,0,1,.12-.69c7.35-5.14,13.1-18,13.15-18.1a.51.51,0,0,1,.66-.26.5.5,0,0,1,.26.66c-.24.54-5.92,13.22-13.49,18.52A.52.52,0,0,1,154.52,145.67Z"/><path class="cls-3" d="M185.21,162.3l-.11,0c-11.92-2.86-18-13.29-18-13.4a.5.5,0,0,1,.19-.68.51.51,0,0,1,.68.19c.06.1,5.93,10.16,17.41,12.92a.5.5,0,0,1-.12,1Z"/><path class="cls-3" d="M158.39,178.33a.5.5,0,0,1-.48-.37.51.51,0,0,1,.35-.62c5.37-1.5,9.69-16.37,9.74-16.52a.5.5,0,0,1,.62-.34.51.51,0,0,1,.34.62c-.18.63-4.53,15.56-10.43,17.21Z"/><path class="cls-3" d="M178.21,190.63a.46.46,0,0,1-.22-.06c-5.61-2.81-9.7-9.65-9.87-9.94a.5.5,0,0,1,.86-.5c0,.06,4.12,6.87,9.46,9.55a.5.5,0,0,1,.22.67A.51.51,0,0,1,178.21,190.63Z"/><path class="cls-3" d="M162,199.71a.5.5,0,0,1-.21-1c3.11-1.47,5.66-6.11,5.68-6.16a.51.51,0,0,1,.68-.2.49.49,0,0,1,.2.68c-.11.2-2.72,5-6.13,6.58A.42.42,0,0,1,162,199.71Z"/><path class="cls-3" d="M170.78,110.15h-.17a1,1,0,0,1-.82-1.16c1.59-9.15,5.83-13.31,6-13.48a1,1,0,0,1,1.42,0,1,1,0,0,1,0,1.41c-.06.06-4,4-5.43,12.38A1,1,0,0,1,170.78,110.15Z"/><path class="cls-4" d="M225.53,137s27.31-9.2,41.85,28.36C267.38,165.32,236.07,173.65,225.53,137Z"/><path class="cls-5" d="M225.53,137c10.16,35.39,39.66,28.9,41.73,28.39-13.61-9.79-27.68-18.58-40.9-28.62C225.82,136.86,225.53,137,225.53,137Z"/><path class="cls-6" d="M263.08,163.26s-29.44-25-37.55-26.3Z"/><path class="cls-3" d="M235.73,143a1.41,1.41,0,0,1-.45-.07c-24-7.44-72.29-59.26-74.34-61.47a1.5,1.5,0,0,1,2.2-2c.5.54,49.77,53.44,73,60.64a1.5,1.5,0,0,1-.44,2.94Z"/><path class="cls-7" d="M199.37,110.08s29.11,20.88,64.73.23c24.54-17,36.64-18.26,36.64-18.26S226.79,61.93,199.37,110.08Z"/><path class="cls-4" d="M264.22,97.2c-20.7,3.71-39.9,11.49-61,14.48a4.18,4.18,0,0,1-1.71-.28c7.29,4.25,32.65,16.29,62.63-1.09,24.54-17,36.64-18.26,36.64-18.26s-.55-.22-1.55-.59a85.59,85.59,0,0,0-25.48,4.92C271.08,97,266.84,96.59,264.22,97.2Z"/><path class="cls-3" d="M206.07,110.9a42.48,42.48,0,0,1-4.66-.21,1,1,0,1,1,.25-2c.16,0,16.45,1.89,42.65-7.17A203.4,203.4,0,0,1,293.17,91a1,1,0,1,1,.12,2A201.77,201.77,0,0,0,245,103.42C226.29,109.88,212.75,110.9,206.07,110.9Z"/><path class="cls-3" d="M211.28,110.19a.49.49,0,0,1-.41-.22.5.5,0,0,1,.13-.69,29.45,29.45,0,0,0,11-18.13.49.49,0,0,1,.58-.4.49.49,0,0,1,.4.58,30.46,30.46,0,0,1-11.46,18.78A.46.46,0,0,1,211.28,110.19Z"/><path class="cls-3" d="M239.69,115.87a.49.49,0,0,1-.32-.12c-5.72-4.88-17.37-6.84-17.49-6.86a.5.5,0,0,1-.41-.58.49.49,0,0,1,.57-.41c.49.08,12,2,18,7.09a.5.5,0,0,1-.33.88Z"/><path class="cls-3" d="M239.77,104.57a.47.47,0,0,1-.35-.15.49.49,0,0,1,0-.7c.07-.07,7-7,6.82-16.86a.49.49,0,0,1,.49-.51.51.51,0,0,1,.51.49c.19,10.34-6.82,17.3-7.12,17.59A.47.47,0,0,1,239.77,104.57Z"/><path class="cls-3" d="M265.47,105.8a.5.5,0,0,1-.43-.25c-2.34-4-15.32-4.39-15.45-4.4a.49.49,0,0,1-.49-.51.51.51,0,0,1,.5-.49h0c.56,0,13.68.4,16.29,4.89a.51.51,0,0,1-.18.69A.55.55,0,0,1,265.47,105.8Z"/><path class="cls-3" d="M265.4,97a.47.47,0,0,1-.35-.15.49.49,0,0,1,0-.7s4.72-4.79,5.76-9.69a.5.5,0,0,1,1,.21c-1.11,5.19-5.83,10-6,10.18A.47.47,0,0,1,265.4,97Z"/><path class="cls-3" d="M282.11,98.29a.49.49,0,0,1-.38-.18c-1.84-2.2-6.13-3.29-6.18-3.3a.49.49,0,0,1-.36-.6.51.51,0,0,1,.6-.37c.19,0,4.66,1.18,6.71,3.63a.51.51,0,0,1-.07.71A.52.52,0,0,1,282.11,98.29Z"/><path class="cls-3" d="M203.68,111.22c-6.61,0-14.78-2.3-15.22-2.42a1,1,0,0,1,.55-1.92c.13,0,13.15,3.69,19,1.81a1,1,0,0,1,.62,1.9A16.53,16.53,0,0,1,203.68,111.22Z"/><path class="cls-4" d="M196.25,120.73S185.91,149,210.66,173.18c19.27,16,23.05,25.53,23.05,25.53S241.41,132.06,196.25,120.73Z"/><path class="cls-3" d="M232.08,193.62a1,1,0,0,1-1-.68,168.33,168.33,0,0,0-19.34-36.72c-13.5-19.54-15.64-33.11-15.73-33.68a1,1,0,0,1,.85-1.13,1,1,0,0,1,1.13.84c0,.13,2.18,13.71,15.4,32.84A171.2,171.2,0,0,1,233,192.29a1,1,0,0,1-.63,1.27A.87.87,0,0,1,232.08,193.62Z"/><path class="cls-3" d="M214.3,135.85a25,25,0,0,1-15.37-5.18.5.5,0,1,1,.65-.76,24.72,24.72,0,0,0,17.1,4.82.5.5,0,0,1,.09,1C215.93,135.81,215.1,135.85,214.3,135.85Z"/><path class="cls-3" d="M201.07,155.06a.49.49,0,0,1-.21,0,.52.52,0,0,1-.25-.67c2.65-5.71,1.61-15.56,1.6-15.66a.5.5,0,0,1,.45-.55.51.51,0,0,1,.55.44c0,.42,1.08,10.23-1.69,16.19A.5.5,0,0,1,201.07,155.06Z"/><path class="cls-3" d="M220.33,155.11a22.34,22.34,0,0,1-10.36-2.6.5.5,0,1,1,.51-.86c.07,0,7.18,4.07,15.12,1.7a.5.5,0,0,1,.28,1A19.24,19.24,0,0,1,220.33,155.11Z"/><path class="cls-3" d="M215,173.66a.5.5,0,0,1-.35-.15.49.49,0,0,1,0-.7c2.24-2.3.8-10.47.05-13.43a.5.5,0,0,1,.37-.6.48.48,0,0,1,.6.36c.12.46,2.78,11.2-.3,14.36A.52.52,0,0,1,215,173.66Z"/><path class="cls-3" d="M230.91,174.16c-4.29,0-8.8-2.5-9-2.62a.5.5,0,0,1-.2-.68.52.52,0,0,1,.69-.19s4.93,2.73,9.09,2.47a.5.5,0,1,1,.06,1Z"/><path class="cls-3" d="M224.86,185.43a.46.46,0,0,1-.28-.08.5.5,0,0,1-.13-.7c1.35-2,1.26-5.66,1.26-5.69a.5.5,0,1,1,1,0c0,.16.1,4-1.44,6.29A.49.49,0,0,1,224.86,185.43Z"/><path class="cls-3" d="M198.22,127.77a1,1,0,0,1-.94-.66c-2.31-6.25-1.17-10.38-1.12-10.55a1,1,0,0,1,1.24-.69,1,1,0,0,1,.68,1.23h0s-1,3.73,1.08,9.32a1,1,0,0,1-.6,1.28A.83.83,0,0,1,198.22,127.77Z"/><path class="cls-1" d="M170,86.28S203.75,99,233,69.56c19.43-22.92,30.87-27.35,30.87-27.35S184,32.25,170,86.28Z"/><path class="cls-3" d="M172,86.34a1,1,0,0,1-.14-2c.17,0,16.51-2.47,39.63-18.14a204.7,204.7,0,0,1,44.78-23.07,1,1,0,0,1,.63,1.9,202.51,202.51,0,0,0-44.29,22.83C189,83.82,172.78,86.23,172.1,86.33Z"/><path class="cls-3" d="M181.45,83.29a.46.46,0,0,1-.33-.13.49.49,0,0,1-.05-.7,29.67,29.67,0,0,0,6-20.53.49.49,0,0,1,.45-.54.49.49,0,0,1,.54.45,30.71,30.71,0,0,1-6.23,21.27A.49.49,0,0,1,181.45,83.29Z"/><path class="cls-3" d="M210.58,81.37a.42.42,0,0,1-.22-.05c-6.84-3.24-18.69-2.11-18.81-2.09a.51.51,0,0,1-.55-.45.5.5,0,0,1,.45-.55c.5,0,12.24-1.18,19.34,2.19a.5.5,0,0,1-.21,1Z"/><path class="cls-3" d="M207.7,70.36a.48.48,0,0,1-.26-.07.5.5,0,0,1-.17-.68c0-.09,5-8.61,2.21-18.19a.51.51,0,0,1,.35-.62.5.5,0,0,1,.62.34c2.89,10-2.11,18.62-2.32,19A.52.52,0,0,1,207.7,70.36Z"/><path class="cls-3" d="M233,64.83a.49.49,0,0,1-.35-.15c-2.76-2.73-12.62-1.09-16.19-.23a.5.5,0,1,1-.23-1c.54-.13,13.4-3.2,17.12.49a.5.5,0,0,1-.35.86Z"/><path class="cls-3" d="M230.64,56.27a.42.42,0,0,1-.24-.07.5.5,0,0,1-.19-.68c0-.06,3.33-5.89,3.07-10.93a.5.5,0,0,1,.47-.53.51.51,0,0,1,.53.48c.28,5.33-3.06,11.23-3.2,11.48A.5.5,0,0,1,230.64,56.27Z"/><path class="cls-3" d="M247.25,53.17a.52.52,0,0,1-.29-.09c-2.36-1.66-6.82-1.59-6.87-1.59a.55.55,0,0,1-.51-.49.5.5,0,0,1,.49-.51c.2,0,4.83-.08,7.47,1.77a.5.5,0,0,1-.29.91Z"/><path class="cls-3" d="M168.76,86.57a14.1,14.1,0,0,1-3.75-.42,1,1,0,1,1,.56-1.92h0c.05,0,4.52,1.26,11.31-1.18a1,1,0,1,1,.67,1.88A26,26,0,0,1,168.76,86.57Z"/><path class="cls-3" d="M248.33,141a1,1,0,0,1-.46-.11c-3.3-1.76-18.49-4.44-26.06-5.61a1,1,0,0,1,.31-2c.91.14,22.27,3.47,26.69,5.82a1,1,0,0,1-.48,1.88Z"/><path class="cls-1" d="M230.4,135.62s11.25,24.31,56.94,13.29c9.28-2.79,15.37-5.26,15.37-5.26S236.88,130.14,230.4,135.62Z"/><path class="cls-6" d="M230.4,135.62h0c6.48-5.48,72.31,8,72.31,8s-1.19.48-3.3,1.26C277.77,137.66,253.11,135.65,230.4,135.62Z"/><path class="cls-3" d="M249,147.48a.47.47,0,0,1-.25-.07,22.48,22.48,0,0,1-9.58-11.51.51.51,0,0,1,.32-.63.5.5,0,0,1,.63.32,21.86,21.86,0,0,0,9.13,11,.51.51,0,0,1,.19.68A.51.51,0,0,1,249,147.48Z"/><path class="cls-3" d="M264.94,148a.46.46,0,0,1-.23-.06c-4.93-2.53-8.44-11.1-8.59-11.47a.5.5,0,0,1,.27-.65.51.51,0,0,1,.66.28c0,.08,3.52,8.59,8.12,11a.5.5,0,0,1,.21.67A.48.48,0,0,1,264.94,148Z"/><path class="cls-3" d="M283.35,146.28a.34.34,0,0,1-.14,0c-5.17-1.55-8.21-6.79-8.33-7a.49.49,0,0,1,.18-.68.52.52,0,0,1,.69.19c0,.05,3,5.11,7.75,6.54a.51.51,0,0,1,.33.63A.5.5,0,0,1,283.35,146.28Z"/><path class="cls-5" d="M148.73,262.52s28.44-3.14,44.65,18.81C193.38,281.33,167.17,284.36,148.73,262.52Z"/><path class="cls-8" d="M193.09,281.36c-14.21-6.1-23.45-10.78-39.7-17.15-1.29.05-4.66-1.69-4.66-1.69C166,283,190.16,281.61,193.09,281.36Z"/><path class="cls-6" d="M148.73,262.52s33.85,12,44.65,18.81Z"/><path class="cls-3" d="M162,264.64c-56.38,0-117.08-22.24-117.75-22.48a1.5,1.5,0,0,1,1-2.82c.73.27,73.06,26.76,132.64,21.64a1.51,1.51,0,0,1,1.62,1.37,1.49,1.49,0,0,1-1.36,1.62C172.83,264.43,167.41,264.64,162,264.64Z"/><path class="cls-1" d="M77,236.83s11.46-40.27,59.06-47.25c34.78-2.31,46.8-9.92,46.8-9.92S137.1,261,77,236.83Z"/><path class="cls-2" d="M77.05,236.84c54.4,21.82,97.06-42.78,104.63-55.16-24.7,18-56.74,26.3-84.95,41.53C90.07,226.74,83.41,232,77.05,236.84Z"/><path class="cls-3" d="M78.67,236.3A1,1,0,0,1,78,236a1,1,0,0,1,0-1.41c.14-.14,14.59-13.71,45.65-24.63,30.72-10.81,51.66-25.43,51.86-25.58a1,1,0,0,1,1.4.25,1,1,0,0,1-.24,1.39,237.37,237.37,0,0,1-52.36,25.82C93.68,222.6,79.5,235.89,79.36,236A1,1,0,0,1,78.67,236.3Z"/><path class="cls-3" d="M111.9,237.74a.55.55,0,0,1-.33-.13A34.44,34.44,0,0,0,88.24,229a.5.5,0,1,1-.08-1,35.53,35.53,0,0,1,24.08,8.83.5.5,0,0,1-.34.88Z"/><path class="cls-3" d="M98.92,222.45a.5.5,0,0,1-.37-.84c.09-.1,9.34-10.38,11-19a.51.51,0,0,1,.59-.4.5.5,0,0,1,.39.59c-1.75,8.92-10.88,19.08-11.27,19.51A.5.5,0,0,1,98.92,222.45Z"/><path class="cls-3" d="M137.25,224.16a.5.5,0,0,1-.4-.19c-7.06-9.24-18.43-10.5-18.55-10.51a.5.5,0,0,1-.44-.55.52.52,0,0,1,.55-.45c.11,0,11.91,1.33,19.23,10.9a.49.49,0,0,1-.39.8Z"/><path class="cls-3" d="M129.83,209.45a.49.49,0,0,1-.38-.18.51.51,0,0,1,.06-.71c.12-.09,11.76-9.9,11-15.32a.5.5,0,0,1,.42-.57.52.52,0,0,1,.57.42c.86,6-10.83,15.83-11.33,16.24A.49.49,0,0,1,129.83,209.45Z"/><path class="cls-3" d="M159.93,206.59a.56.56,0,0,1-.32-.11c-4.53-3.74-12.27-4.69-12.35-4.7a.5.5,0,0,1,.12-1c.33,0,8.11,1,12.87,4.92a.5.5,0,0,1,.07.7A.5.5,0,0,1,159.93,206.59Z"/><path class="cls-3" d="M158.29,196.29a.53.53,0,0,1-.31-.11.51.51,0,0,1-.09-.7s3.19-4.18,3.27-7.55a.5.5,0,0,1,.5-.49h0a.49.49,0,0,1,.48.51c-.09,3.71-3.34,8-3.47,8.14A.51.51,0,0,1,158.29,196.29Z"/><path class="cls-3" d="M60,247a1,1,0,0,1-.92-.6,1,1,0,0,1,.52-1.32c.14-.06,13.71-5.93,24.1-15A1,1,0,1,1,85,231.54c-10.63,9.28-24.48,15.28-24.62,15.34A.91.91,0,0,1,60,247Z"/><path class="cls-4" d="M94.09,260.24s29.88,4.05,39.74,37.28c5.2,24.56,11.86,32.35,11.86,32.35S83,305.55,94.09,260.24Z"/><path class="cls-7" d="M145.69,329.87a16.51,16.51,0,0,1-1.24-1.78c-4.38-2.71-9.48-9.23-12.78-14.1C118.09,293.89,111,276,94,260.78,83.54,305.74,145.69,329.87,145.69,329.87Z"/><path class="cls-3" d="M141,326.58a1,1,0,0,1-.72-.31,171.63,171.63,0,0,1-23.82-34.75c-10.79-20.69-21.79-28.9-21.9-29a1,1,0,0,1,1.19-1.62c.46.34,11.48,8.58,22.49,29.68a169,169,0,0,0,23.49,34.29,1,1,0,0,1-.73,1.69Z"/><path class="cls-3" d="M97.37,285.66a.46.46,0,0,1-.27-.09.49.49,0,0,1-.14-.69,24.68,24.68,0,0,0,3.71-17.4.5.5,0,1,1,1-.22,25.3,25.3,0,0,1-3.86,18.17A.48.48,0,0,1,97.37,285.66Z"/><path class="cls-3" d="M121.82,280.82h0c-6.57-.34-14.78-5.84-15.13-6.07a.5.5,0,0,1-.13-.7.49.49,0,0,1,.69-.13c.08.05,8.33,5.57,14.63,5.9a.5.5,0,0,1,0,1Z"/><path class="cls-3" d="M109.64,302.34a.5.5,0,0,1-.35-.15.48.48,0,0,1,0-.7c5.8-5.93,5.55-14.12,5.55-14.2a.5.5,0,0,1,.48-.52.52.52,0,0,1,.52.48A21.8,21.8,0,0,1,110,302.19.51.51,0,0,1,109.64,302.34Z"/><path class="cls-3" d="M130.85,302c-4.42,0-11.49-6.29-11.81-6.58a.51.51,0,0,1,0-.71.51.51,0,0,1,.71,0c2.27,2,8.84,7.13,11.92,6.23a.49.49,0,0,1,.62.34.51.51,0,0,1-.34.62A4.05,4.05,0,0,1,130.85,302Z"/><path class="cls-3" d="M124.49,316.71a.48.48,0,0,1-.26-.07.51.51,0,0,1-.17-.69c2.18-3.58,2.07-9.15,2.07-9.21a.5.5,0,0,1,.49-.51.48.48,0,0,1,.51.49c0,.24.12,5.92-2.21,9.75A.49.49,0,0,1,124.49,316.71Z"/><path class="cls-3" d="M137,316.12a13.5,13.5,0,0,1-5.61-1.7.49.49,0,0,1-.19-.68.5.5,0,0,1,.68-.19s3.27,1.81,5.63,1.54a.5.5,0,0,1,.12,1Q137.36,316.12,137,316.12Z"/><path class="cls-3" d="M100.06,267.54a1,1,0,0,1-.83-.44c-3.61-5.41-18.72-13.7-18.87-13.79a1,1,0,1,1,1-1.75c.64.35,15.69,8.62,19.57,14.42a1,1,0,0,1-.27,1.39A1,1,0,0,1,100.06,267.54Z"/><path class="cls-4" d="M114.49,253.42s27,3.35,43.25-23.35c10.21-20.22,17.81-25.48,17.81-25.48S115.29,211.35,114.49,253.42Z"/><path class="cls-7" d="M175.55,204.59a15.35,15.35,0,0,0-1.49,1.27c-4.45,1.35-10.4,5.85-14.4,9.35-16.48,14.4-26.82,28.39-45.15,37.71C115.78,211.3,175.55,204.59,175.55,204.59Z"/><path class="cls-3" d="M115.79,253.37a1,1,0,0,1-.93-.63,1,1,0,0,1,.57-1.3c.11,0,11.62-4.7,25.75-20.2A155.12,155.12,0,0,1,170,206.41a1,1,0,1,1,1.06,1.7,152.63,152.63,0,0,0-28.38,24.48c-14.48,15.88-26,20.52-26.5,20.71A.94.94,0,0,1,115.79,253.37Z"/><path class="cls-3" d="M122.3,249.33a.59.59,0,0,1-.23-.05.51.51,0,0,1-.22-.68,22.2,22.2,0,0,0,.77-16,.5.5,0,0,1,.32-.63.5.5,0,0,1,.63.31,22.81,22.81,0,0,1-.83,16.78A.5.5,0,0,1,122.3,249.33Z"/><path class="cls-3" d="M129,244.59a.51.51,0,0,1-.48-.34.5.5,0,0,1,.31-.63c.36-.13,8.8-3,14.63-1.81a.49.49,0,0,1,.38.59.49.49,0,0,1-.59.39c-5.56-1.17-14,1.74-14.09,1.77A.45.45,0,0,1,129,244.59Z"/><path class="cls-3" d="M139.26,235.24l-.15,0a.5.5,0,0,1-.33-.63c0-.07,2.12-7.13-1.57-13.62a.5.5,0,0,1,.87-.49,19.62,19.62,0,0,1,1.65,14.41A.49.49,0,0,1,139.26,235.24Z"/><path class="cls-3" d="M144.57,229.39a.51.51,0,0,1-.45-.27.5.5,0,0,1,.22-.67c.38-.2,9.33-4.73,12.76-2.65a.51.51,0,0,1,.17.69.5.5,0,0,1-.69.16c-2.46-1.48-9.34,1.44-11.78,2.69A.48.48,0,0,1,144.57,229.39Z"/><path class="cls-3" d="M153.59,220.87a.34.34,0,0,1-.14,0,.49.49,0,0,1-.34-.62s1.39-4.87.32-8.48a.51.51,0,0,1,.34-.62.49.49,0,0,1,.62.34c1.16,3.89-.26,8.83-.32,9A.49.49,0,0,1,153.59,220.87Z"/><path class="cls-3" d="M159.66,215.71a.5.5,0,0,1-.12-1c.14,0,3.56-.91,5.86,0a.5.5,0,0,1-.37.93c-2-.79-5.21,0-5.24,0Z"/><path class="cls-3" d="M101.13,258.17a1,1,0,0,1-.24-2c.15,0,15.22-3.79,19.6-7.65a1,1,0,0,1,1.32,1.5c-4.75,4.18-19.8,7.93-20.44,8.09A1,1,0,0,1,101.13,258.17Z"/><path class="cls-4" d="M57,248.55s33.63,16.2,32.52,59.08c-3.27,30.91,1.59,42.62,1.59,42.62S26.62,297.66,57,248.55Z"/><path class="cls-3" d="M87.26,344.43a1,1,0,0,1-.91-.57,212.18,212.18,0,0,1-14.73-49.95c-4.79-28.49-14.64-42.46-14.74-42.6a1,1,0,0,1,1.63-1.17c.41.58,10.21,14.44,15.09,43.44A208.92,208.92,0,0,0,88.16,343a1,1,0,0,1-.48,1.33A.9.9,0,0,1,87.26,344.43Z"/><path class="cls-3" d="M51.3,279.64a.48.48,0,0,1-.39-.19.5.5,0,0,1,.08-.7A30.68,30.68,0,0,0,62.06,259.6a.51.51,0,0,1,.55-.46.5.5,0,0,1,.45.55,31.72,31.72,0,0,1-11.45,19.84A.51.51,0,0,1,51.3,279.64Z"/><path class="cls-3" d="M81.93,283.29l-.18,0c-7.58-2.9-15.12-12.49-15.44-12.9a.5.5,0,0,1,.79-.61c.08.1,7.69,9.77,15,12.57a.5.5,0,0,1-.18,1Z"/><path class="cls-3" d="M59.37,304a.51.51,0,0,1-.45-.27.52.52,0,0,1,.21-.68c9.16-4.77,12-14.56,12-14.66a.5.5,0,0,1,.62-.34.51.51,0,0,1,.35.62c-.12.41-3,10.29-12.53,15.27A.53.53,0,0,1,59.37,304Z"/><path class="cls-3" d="M85.59,311.89h0C80.17,311.74,73.28,300,73,299.44a.5.5,0,1,1,.86-.5c.07.12,6.9,11.82,11.75,11.95a.5.5,0,0,1,0,1Z"/><path class="cls-3" d="M71.35,326.57a.5.5,0,0,1-.33-.88c4-3.4,6-10,6-10.11a.5.5,0,0,1,1,.29c-.08.28-2.11,7-6.29,10.58A.52.52,0,0,1,71.35,326.57Z"/><path class="cls-3" d="M87,330.86h-.1c-3.26-.65-6.52-4.16-6.65-4.31a.5.5,0,1,1,.73-.68s3.18,3.42,6.11,4a.5.5,0,0,1,.4.58A.51.51,0,0,1,87,330.86Z"/><path class="cls-3" d="M61.59,259.25a1,1,0,0,1-1-.73c-2.18-7.7-12.4-15.37-12.5-15.45a1,1,0,1,1,1.19-1.6c.44.33,10.87,8.15,13.23,16.51a1,1,0,0,1-.69,1.23A.84.84,0,0,1,61.59,259.25Z"/><path class="cls-3" d="M139.44,274.81a.9.9,0,0,1-.28,0c-5.07-1.45-23.74-14.63-24.53-15.19a1,1,0,1,1,1.16-1.64c6.61,4.68,20.12,13.82,23.92,14.91a1,1,0,0,1,.69,1.23A1,1,0,0,1,139.44,274.81Z"/><path class="cls-1" d="M122.57,264s26.42-10.2,53,31.76c5,8.94,7.81,15.29,7.81,15.29S123.47,272.9,122.57,264Z"/><path class="cls-6" d="M122.57,264h0c.9,8.92,60.82,47,60.82,47s-.55-1.23-1.58-3.38C160.05,297.25,139.84,280.64,122.57,264Z"/><path class="cls-3" d="M129.68,271.17a.5.5,0,0,1-.24-.94,23.71,23.71,0,0,1,15.73-1.7.5.5,0,0,1-.25,1,23,23,0,0,0-15,1.61A.53.53,0,0,1,129.68,271.17Z"/><path class="cls-3" d="M143,283.19a.51.51,0,0,1-.46-.29.49.49,0,0,1,.26-.66c.37-.17,9.34-4.09,14.93-2.39a.5.5,0,0,1,.33.62.48.48,0,0,1-.62.33c-5.24-1.59-14.15,2.31-14.24,2.35A.48.48,0,0,1,143,283.19Z"/><path class="cls-3" d="M170.26,295.69a.46.46,0,0,1-.23-.06c-4.71-2.43-10.66-.74-10.72-.73a.49.49,0,0,1-.62-.34.5.5,0,0,1,.34-.62c.26-.07,6.4-1.81,11.46.8a.51.51,0,0,1,.21.68A.5.5,0,0,1,170.26,295.69Z"/><path class="cls-3" d="M137.61,262a1,1,0,0,1-1-.78,1,1,0,0,1,.76-1.19c.94-.21,23.26-5.15,28.49-4.54a1,1,0,1,1-.23,2c-3.94-.46-19.92,2.74-27.83,4.5Z"/><path class="cls-4" d="M146.41,259s20.43,19.61,61.17-8.82c8.07-6.31,13.11-11.09,13.11-11.09S150.69,251.1,146.41,259Z"/><path class="cls-6" d="M146.41,259h0c4.28-7.89,74.28-19.91,74.28-19.91s-1,.93-2.76,2.51C193.84,242.78,168.79,250.29,146.41,259Z"/><path class="cls-3" d="M169.09,263.52H169a23.76,23.76,0,0,1-13.85-7.64.52.52,0,0,1,.07-.71.51.51,0,0,1,.71.08,23.15,23.15,0,0,0,13.22,7.28.51.51,0,0,1,.42.57A.5.5,0,0,1,169.09,263.52Z"/><path class="cls-3" d="M185,257.92H185c-5.82-.59-12.57-7.67-12.85-8a.5.5,0,0,1,0-.71.49.49,0,0,1,.7,0c.07.07,6.78,7.11,12.23,7.67a.49.49,0,0,1,.45.54A.51.51,0,0,1,185,257.92Z"/><path class="cls-3" d="M201.58,249.16c-5.28,0-9.76-3.57-10-3.73a.5.5,0,0,1,.63-.77c.05,0,4.9,3.89,10.17,3.47a.51.51,0,0,1,.54.46.5.5,0,0,1-.46.53C202.19,249.15,201.89,249.16,201.58,249.16Z"/><path class="cls-5" d="M147.19,442.26s22.5-17.67,18.7-44.7C165.89,397.56,145.06,413.75,147.19,442.26Z"/><path class="cls-8" d="M165.66,397.75c-5.87,14.3-9.19,24.11-16.33,40-1,.87-2.14,4.47-2.14,4.47C145.19,415.52,163.39,399.62,165.66,397.75Z"/><path class="cls-6" d="M147.19,442.26S163,410,165.89,397.56Z"/><path class="cls-3" d="M88.19,532.13A1.51,1.51,0,0,1,86.84,530c.33-.71,33.69-70.87,80.33-109.37a1.5,1.5,0,1,1,1.91,2.31C123,461,89.88,530.57,89.55,531.27A1.49,1.49,0,0,1,88.19,532.13Z"/><path class="cls-1" d="M114,510.82s36.38,20.72,75.25-7.63c26.45-22.71,40.35-25.69,40.35-25.69S140,451.51,114,510.82Z"/><path class="cls-2" d="M114,510.79c23.55-53.68,99.25-37.44,113.33-33.89-30.26,4.42-58.93,21-89.74,29.84C130.37,508.88,121.94,509.8,114,510.79Z"/><path class="cls-3" d="M116.23,511.75a1,1,0,0,1,0-2c.19,0,19.62-.44,49-14.2a237.18,237.18,0,0,1,55.46-18.22,1,1,0,0,1,.32,2,235.35,235.35,0,0,0-54.93,18.07c-29.83,13.95-49.65,14.38-49.84,14.38Z"/><path class="cls-3" d="M127.79,509.42a.5.5,0,0,1-.39-.18.51.51,0,0,1,.07-.71,34.54,34.54,0,0,0,10.64-22.47.49.49,0,0,1,.53-.46.5.5,0,0,1,.47.53,35.57,35.57,0,0,1-11,23.17A.51.51,0,0,1,127.79,509.42Z"/><path class="cls-3" d="M161.5,512.54a.51.51,0,0,1-.29-.08c-7.27-5-21.06-5.85-21.2-5.86a.49.49,0,0,1-.47-.53.5.5,0,0,1,.53-.47c.58,0,14.21.89,21.71,6a.51.51,0,0,1,.13.7A.49.49,0,0,1,161.5,512.54Z"/><path class="cls-3" d="M160.21,499.41a.5.5,0,0,1-.38-.82c.07-.09,7.3-9,5.88-20.49a.5.5,0,1,1,1-.12c1.48,12-6,21.16-6.11,21.25A.48.48,0,0,1,160.21,499.41Z"/><path class="cls-3" d="M190.22,497.69a.51.51,0,0,1-.4-.2c-3.23-4.42-18.41-3.27-18.57-3.26a.5.5,0,1,1-.08-1c.65-.05,15.9-1.21,19.46,3.66a.51.51,0,0,1-.11.7A.53.53,0,0,1,190.22,497.69Z"/><path class="cls-3" d="M189.07,487.46a.54.54,0,0,1-.32-.11.51.51,0,0,1-.07-.71c0-.06,4.9-6.16,5.52-12a.5.5,0,0,1,1,.11c-.65,6.14-5.54,12.26-5.74,12.52A.52.52,0,0,1,189.07,487.46Z"/><path class="cls-3" d="M208.65,486.94a.49.49,0,0,1-.35-.14c-2.43-2.35-7.57-3.1-7.62-3.1a.5.5,0,0,1-.43-.57.51.51,0,0,1,.56-.42c.23,0,5.53.79,8.19,3.38a.49.49,0,0,1,0,.7A.51.51,0,0,1,208.65,486.94Z"/><path class="cls-3" d="M95.43,517.23a1,1,0,0,1-.94-.64,1,1,0,0,1,.57-1.29c.15,0,14.23-5.48,28.32-6.29a1,1,0,0,1,.12,2c-13.77.79-27.57,6.1-27.71,6.15A.92.92,0,0,1,95.43,517.23Z"/><path class="cls-4" d="M109.78,482.15s18.49-23.82,2.26-54.44c-13.48-21.18-14.19-31.39-14.19-31.39S70.16,457.55,109.78,482.15Z"/><path class="cls-7" d="M97.85,396.32a16.1,16.1,0,0,0,.37,2.13c-1.24,5-.31,13.23.75,19,4.38,23.85,11.86,41.63,10.35,64.38C70.39,457.06,97.85,396.32,97.85,396.32Z"/><path class="cls-3" d="M109.53,481.31h-.17a1,1,0,0,1-.82-1.15c0-.13,2.11-13.75-4.66-36a171.46,171.46,0,0,1-7.34-41.47,1,1,0,1,1,2,0,169.52,169.52,0,0,0,7.25,40.93c6.92,22.77,4.81,36.37,4.72,36.93A1,1,0,0,1,109.53,481.31Z"/><path class="cls-3" d="M109.84,472.61a.51.51,0,0,1-.43-.23,24.73,24.73,0,0,0-14.84-9.83.5.5,0,0,1,.21-1,25.22,25.22,0,0,1,15.48,10.27.5.5,0,0,1-.16.69A.48.48,0,0,1,109.84,472.61Z"/><path class="cls-3" d="M109.09,463.59H109a.49.49,0,0,1-.39-.59c.08-.41,2.09-10.08,6.55-14.93a.5.5,0,0,1,.7,0,.5.5,0,0,1,0,.71c-4.27,4.64-6.28,14.35-6.3,14.45A.5.5,0,0,1,109.09,463.59Z"/><path class="cls-3" d="M106,448.47a.49.49,0,0,1-.37-.16c-.06-.06-5.61-6.08-13.91-6.25a.5.5,0,0,1-.49-.5.51.51,0,0,1,.5-.5h0a21.77,21.77,0,0,1,14.63,6.58.49.49,0,0,1,0,.7A.5.5,0,0,1,106,448.47Z"/><path class="cls-3" d="M103.46,440.1h0a.5.5,0,0,1-.47-.53c0-.47.77-11.54,4.67-13.61a.5.5,0,0,1,.68.2.5.5,0,0,1-.21.68c-2.83,1.51-3.95,9.74-4.14,12.79A.5.5,0,0,1,103.46,440.1Z"/><path class="cls-3" d="M100.45,426.68a.5.5,0,0,1-.36-.16s-3.87-4.1-7.93-5.13a.51.51,0,0,1-.36-.61.5.5,0,0,1,.61-.36c4.35,1.1,8.24,5.24,8.41,5.42a.51.51,0,0,1-.37.84Z"/><path class="cls-3" d="M99,418l-.14,0a.51.51,0,0,1-.34-.62c.05-.16,1.15-3.9,3.29-5.57a.51.51,0,0,1,.62.8c-1.89,1.46-2.94,5-3,5A.5.5,0,0,1,99,418Z"/><path class="cls-3" d="M105.79,498a.92.92,0,0,1-.29,0,1,1,0,0,1-.67-1.25c0-.17,5-16.67,3.82-23.06a1,1,0,0,1,.8-1.16,1,1,0,0,1,1.17.8c1.29,6.86-3.66,23.3-3.88,24A1,1,0,0,1,105.79,498Z"/><path class="cls-4" d="M129.12,472.74s16.92-21.31,47.23-13.63c21.45,7.29,30.55,5.72,30.55,5.72S159.16,502.21,129.12,472.74Z"/><path class="cls-7" d="M206.9,464.83a14.69,14.69,0,0,1-2,.14c-4.12,2.15-11.52,3.1-16.82,3.41-21.85,1.26-39-1.49-58.65,4.7C159.54,501.9,206.9,464.83,206.9,464.83Z"/><path class="cls-3" d="M130.78,473.57a1,1,0,0,1-.92-.61,1,1,0,0,1,.53-1.31c.48-.2,12-5,33.43-3.77a153.15,153.15,0,0,0,37.4-2.4,1,1,0,0,1,.43,1.95,154.35,154.35,0,0,1-37.94,2.45c-21-1.17-32.42,3.56-32.54,3.61A1,1,0,0,1,130.78,473.57Z"/><path class="cls-3" d="M150,482.18a.48.48,0,0,1-.45-.28A22.18,22.18,0,0,0,137.75,471a.5.5,0,1,1,.31-.95,22.76,22.76,0,0,1,12.34,11.39.49.49,0,0,1-.23.67A.54.54,0,0,1,150,482.18Z"/><path class="cls-3" d="M146,469.77a.51.51,0,0,1-.45-.29.49.49,0,0,1,.24-.66c.08,0,8.15-3.88,11.3-8.6a.49.49,0,0,1,.69-.14.5.5,0,0,1,.14.69c-3.3,5-11.36,8.79-11.7,9A.59.59,0,0,1,146,469.77Z"/><path class="cls-3" d="M168.55,480.36a.5.5,0,0,1-.49-.37c-1.91-7.23-8.35-10.79-8.42-10.83a.5.5,0,0,1,.48-.88A19.73,19.73,0,0,1,169,479.73a.5.5,0,0,1-.36.61Z"/><path class="cls-3" d="M167.77,469.68a.5.5,0,0,1-.48-.35.5.5,0,0,1,.33-.63c2.62-.82,9.58-3.55,10.29-6.34a.5.5,0,0,1,1,.25c-1,3.89-10.56,6.92-11,7.05Z"/><path class="cls-3" d="M186.54,475.47a.51.51,0,0,1-.44-.26c-1.77-3.33-6.13-5.81-6.17-5.83a.5.5,0,0,1,.49-.87c.19.1,4.66,2.64,6.56,6.23a.49.49,0,0,1-.21.67A.46.46,0,0,1,186.54,475.47Z"/><path class="cls-3" d="M188.13,468.88a.5.5,0,0,1-.44-.25.51.51,0,0,1,.19-.69s2.9-1.68,3.77-3.63a.5.5,0,0,1,.66-.26.51.51,0,0,1,.26.66c-1,2.26-4.07,4-4.2,4.1A.44.44,0,0,1,188.13,468.88Z"/><path class="cls-3" d="M117,480.41a1,1,0,0,1-.86-.49,1,1,0,0,1,.35-1.37c.57-.33,13.94-8.2,20.26-8.54a1,1,0,0,1,1,.95,1,1,0,0,1-.95,1.05c-5.83.31-19.21,8.18-19.34,8.26A1,1,0,0,1,117,480.41Z"/><path class="cls-4" d="M91.46,516.49s12.67-35.11-18.15-64.95C49.33,431.76,44.6,420,44.6,420S35.41,502.68,91.46,516.49Z"/><path class="cls-3" d="M90.46,515.43a1,1,0,0,1-1-.85c0-.17-2.78-17-19.3-40.73a212.41,212.41,0,0,1-24.47-46,1,1,0,0,1,.62-1.27,1,1,0,0,1,1.27.61A209.39,209.39,0,0,0,71.81,472.7c16.82,24.12,19.53,40.87,19.64,41.58a1,1,0,0,1-.84,1.14Z"/><path class="cls-3" d="M87.69,505.16a.49.49,0,0,1-.32-.12,30.69,30.69,0,0,0-21.32-5.92.5.5,0,0,1-.55-.45.49.49,0,0,1,.45-.54A31.78,31.78,0,0,1,88,504.27a.51.51,0,0,1,0,.71A.48.48,0,0,1,87.69,505.16Z"/><path class="cls-3" d="M83.36,494.82a.51.51,0,0,1-.5-.44c-.06-.52-1.39-12.64,2-20a.5.5,0,0,1,.66-.25.49.49,0,0,1,.24.66c-3.26,7.13-1.92,19.37-1.91,19.49a.49.49,0,0,1-.44.56Z"/><path class="cls-3" d="M74,478.19a.54.54,0,0,1-.25-.06c-.09-.05-9-5-18.86-2a.5.5,0,0,1-.29-1c10.31-3.13,19.27,1.92,19.65,2.13a.5.5,0,0,1,.18.68A.48.48,0,0,1,74,478.19Z"/><path class="cls-3" d="M67.75,469.32a.5.5,0,0,1-.49-.38c-.14-.56-3.48-13.81.27-17.7a.5.5,0,0,1,.71,0,.49.49,0,0,1,0,.7c-3.37,3.5,0,16.63,0,16.76a.5.5,0,0,1-.36.61Z"/><path class="cls-3" d="M59.07,454.66a.53.53,0,0,1-.24-.06c-.06,0-6.15-3.36-11.35-3a.5.5,0,0,1-.07-1c5.51-.37,11.65,3,11.91,3.15a.49.49,0,0,1,.19.68A.5.5,0,0,1,59.07,454.66Z"/><path class="cls-3" d="M54,445a.51.51,0,0,1-.5-.49c0-.2-.14-5,1.73-7.74a.5.5,0,0,1,.83.57c-1.69,2.48-1.56,7.09-1.56,7.14A.51.51,0,0,1,54,445Z"/><path class="cls-3" d="M90,527.75h-.16a1,1,0,0,1-.83-1.15c0-.12,1.94-12.76-1.9-19.78a1,1,0,0,1,1.76-1c4.17,7.63,2.2,20.51,2.12,21A1,1,0,0,1,90,527.75Z"/><path class="cls-3" d="M125.89,469.42l-.18,0a1,1,0,0,1-.8-1.16c.17-1,4.27-23.44,6.87-28a1,1,0,1,1,1.74,1c-2,3.44-5.2,19.42-6.64,27.4A1,1,0,0,1,125.89,469.42Z"/><path class="cls-1" d="M127.49,459.54s26-11.22,15.6-59.8c-2.69-9.88-5.13-16.38-5.13-16.38S121.89,452.54,127.49,459.54Z"/><path class="cls-6" d="M127.49,459.54h0c-5.6-7,10.47-76.18,10.47-76.18s.47,1.26,1.23,3.52C131,409.54,128.15,435.54,127.49,459.54Z"/><path class="cls-3" d="M127.88,450.28a.5.5,0,0,1-.14-1,23.07,23.07,0,0,0,11.84-9.36.51.51,0,0,1,.86.53A23.73,23.73,0,0,1,128,450.26.32.32,0,0,1,127.88,450.28Z"/><path class="cls-3" d="M129,432.39a.51.51,0,0,1-.47-.32.49.49,0,0,1,.29-.64c.09,0,9.19-3.5,11.81-8.3a.5.5,0,0,1,.88.48c-2.81,5.13-12,8.61-12.34,8.75A.47.47,0,0,1,129,432.39Z"/><path class="cls-3" d="M132.3,412.68a.5.5,0,0,1-.24-.94c.06,0,5.49-3,7.15-8a.49.49,0,0,1,.63-.32.51.51,0,0,1,.32.63c-1.78,5.41-7.39,8.47-7.62,8.6A.53.53,0,0,1,132.3,412.68Z"/><path class="cls-3" d="M140.35,452.16a1,1,0,0,1-.85-.47,1,1,0,0,1,.32-1.38c6.88-4.28,20.54-13.19,23-16.27a1,1,0,0,1,1.4-.15,1,1,0,0,1,.16,1.41c-3.31,4.11-22.7,16.2-23.52,16.71A1,1,0,0,1,140.35,452.16Z"/><path class="cls-4" d="M148,446.4s.85-28.3,49.84-36.54C208,408.72,215,408.59,215,408.59S156.59,449,148,446.4Z"/><path class="cls-6" d="M148,446.4h0c8.58,2.63,67-37.81,67-37.81s-1.35,0-3.72.15C193.21,424.76,170.07,437,148,446.4Z"/><path class="cls-3" d="M156.94,442.94a.49.49,0,0,1-.5-.45A23.75,23.75,0,0,1,161,427.34a.51.51,0,0,1,.7-.1.5.5,0,0,1,.1.7,23.08,23.08,0,0,0-4.33,14.46.5.5,0,0,1-.46.54Z"/><path class="cls-3" d="M173.17,435.36a.51.51,0,0,1-.5-.49c0-.41-.14-10.19,3.6-14.69a.5.5,0,0,1,.7-.07.52.52,0,0,1,.07.71c-3.5,4.21-3.37,13.93-3.37,14a.49.49,0,0,1-.49.51Z"/><path class="cls-3" d="M190.27,425h-.06a.51.51,0,0,1-.44-.56c0-.27.81-6.6,5.18-10.25a.5.5,0,1,1,.64.77c-4.05,3.38-4.82,9.54-4.82,9.6A.51.51,0,0,1,190.27,425Z"/><path class="cls-5" d="M97,74.74s-27.56,7.69-34.42,34.1C62.59,108.84,88,101.88,97,74.74Z"/><path class="cls-8" d="M62.87,108.76C73.79,97.8,80.61,90,93.31,78c1.22-.43,3.7-3.3,3.7-3.3C88.6,100.2,65.69,107.9,62.87,108.76Z"/><path class="cls-6" d="M97,74.74s-26.93,23.75-34.42,34.1Z"/><path class="cls-3" d="M69.81,87.12a1.5,1.5,0,0,1-.43-2.93c57.2-17.47,114.43-69,115-69.54a1.5,1.5,0,0,1,2,2.22c-.58.53-58.31,52.52-116.15,70.19A1.61,1.61,0,0,1,69.81,87.12Z"/><path class="cls-1" d="M154,24.16S128.32-8.93,81.54,2.34c-33.13,10.83-47.11,8.25-47.11,8.25S107.22,69,154,24.16Z"/><path class="cls-2" d="M154,24.19C111.6,64.72,47.93,20.68,36.29,12c29.64,7.52,62.45,3.25,94.32,6.87C138.1,19.67,146.23,22.05,154,24.19Z"/><path class="cls-3" d="M151.87,24.36a.94.94,0,0,1-.37-.07c-.18-.07-18.29-7.11-50.72-5.69a237.15,237.15,0,0,1-58.2-4.45A1,1,0,1,1,43,12.21a235.68,235.68,0,0,0,57.65,4.39c32.9-1.45,51.37,5.76,51.55,5.83a1,1,0,0,1-.37,1.93Z"/><path class="cls-3" d="M121.75,38.05a.49.49,0,0,1-.23-.06.5.5,0,0,1-.22-.67,35.55,35.55,0,0,1,19-17.17.48.48,0,0,1,.62.33.49.49,0,0,1-.32.62A34.5,34.5,0,0,0,122.2,37.77.5.5,0,0,1,121.75,38.05Z"/><path class="cls-3" d="M128.1,19a.59.59,0,0,1-.22-.05c-.52-.25-12.78-6.27-17.73-13.89a.51.51,0,0,1,.14-.7.5.5,0,0,1,.69.15c4.81,7.39,17.22,13.48,17.34,13.54a.5.5,0,0,1,.23.67A.49.49,0,0,1,128.1,19Z"/><path class="cls-3" d="M93.18,34.9H93a.51.51,0,0,1-.35-.62C95.91,22.66,106.38,17,106.48,17a.5.5,0,1,1,.47.88c-.1.05-10.19,5.48-13.29,16.67A.5.5,0,0,1,93.18,34.9Z"/><path class="cls-3" d="M94.57,18.48a.47.47,0,0,1-.16,0c-.61-.2-15.13-5-16.56-10.85a.51.51,0,0,1,.37-.6.49.49,0,0,1,.6.37c1.3,5.32,15.76,10.08,15.9,10.13a.49.49,0,0,1,.32.63A.48.48,0,0,1,94.57,18.48Z"/><path class="cls-3" d="M65.57,27.06a.53.53,0,0,1-.24-.06.51.51,0,0,1-.2-.68c3-5.42,9.82-9.2,10.11-9.36a.49.49,0,0,1,.68.2.51.51,0,0,1-.2.68c-.07,0-6.89,3.8-9.71,9A.51.51,0,0,1,65.57,27.06Z"/><path class="cls-3" d="M63.25,16.88a.47.47,0,0,1-.25-.07c-.19-.11-4.8-2.85-6.26-6.26a.5.5,0,0,1,.92-.39c1.33,3.1,5.8,5.76,5.85,5.79a.51.51,0,0,1,.18.69A.52.52,0,0,1,63.25,16.88Z"/><path class="cls-3" d="M173.19,27.28h0c-.15,0-15.24-.4-28.56-5.05a1,1,0,1,1,.66-1.89c13,4.55,27.8,4.94,28,4.94a1,1,0,0,1,0,2Z"/><path class="cls-4" d="M146.86,52.25s-26.22,14.9-23,49.41c4.32,24.73,1,34.43,1,34.43S174,90.17,146.86,52.25Z"/><path class="cls-7" d="M124.94,136.09a15.38,15.38,0,0,0,.48-2.11c3.07-4.14,5.37-12.09,6.61-17.85,5.1-23.71,5-43,15.14-63.43C173.61,90.53,124.94,136.09,124.94,136.09Z"/><path class="cls-3" d="M127.65,131.38a.92.92,0,0,1-.36-.07,1,1,0,0,1-.57-1.29,168.82,168.82,0,0,0,9-40.59c2.35-23.68,9.5-35.43,9.81-35.91a1,1,0,1,1,1.7,1c-.07.12-7.22,11.89-9.52,35.06a170.89,170.89,0,0,1-9.14,41.12A1,1,0,0,1,127.65,131.38Z"/><path class="cls-3" d="M153.1,77.09a.47.47,0,0,1-.28-.09,25.26,25.26,0,0,1-10.36-15.42.5.5,0,1,1,1-.16,24.68,24.68,0,0,0,9.94,14.76.51.51,0,0,1,.12.7A.48.48,0,0,1,153.1,77.09Z"/><path class="cls-3" d="M128.61,81.72a.49.49,0,0,1-.45-.29.5.5,0,0,1,.24-.67c5.73-2.65,11.32-10.84,11.37-10.92a.51.51,0,0,1,.7-.14.5.5,0,0,1,.13.7c-.23.34-5.8,8.5-11.78,11.27A.54.54,0,0,1,128.61,81.72Z"/><path class="cls-3" d="M147.94,97.14a.45.45,0,0,1-.2,0,21.76,21.76,0,0,1-11-11.68.5.5,0,1,1,.94-.33c0,.07,2.85,7.77,10.45,11.1a.5.5,0,0,1,.25.66A.49.49,0,0,1,147.94,97.14Z"/><path class="cls-3" d="M127.23,105a.49.49,0,0,1-.49-.45.5.5,0,0,1,.45-.55c3.19-.3,7.39-7.48,8.73-10.22a.5.5,0,0,1,.9.44c-.21.42-5.14,10.35-9.54,10.78Z"/><path class="cls-3" d="M139.52,116a.47.47,0,0,1-.3-.1c-3.59-2.69-5.6-8-5.69-8.23a.51.51,0,0,1,.3-.64.5.5,0,0,1,.64.29c0,.06,2,5.27,5.35,7.78a.5.5,0,0,1-.3.9Z"/><path class="cls-3" d="M127.11,120.34a.5.5,0,0,1-.13-1c2.3-.62,4.63-3.5,4.66-3.53a.5.5,0,0,1,.7-.08.5.5,0,0,1,.08.7c-.11.13-2.56,3.17-5.18,3.88Z"/><path class="cls-3" d="M143.67,61.32l-.21,0a1,1,0,0,1-.77-1.18C144.13,53.28,155,40,155.47,39.43A1,1,0,0,1,157,40.7c-.11.14-11,13.47-12.37,19.83A1,1,0,0,1,143.67,61.32Z"/><path class="cls-4" d="M125.38,53.52S101.59,66.71,76.54,48c-17-15-26-17-26-17S109,14.79,125.38,53.52Z"/><path class="cls-1" d="M50.52,31a15.59,15.59,0,0,1,1.85.63c4.64-.41,11.84,1.55,16.85,3.3,20.66,7.22,35.48,16.35,56,18.16C108.48,14.92,50.52,31,50.52,31Z"/><path class="cls-3" d="M123.75,54c-1,0-13.29-.19-32.27-9.34A152.26,152.26,0,0,0,56,32.57a1,1,0,0,1,.34-2,154.42,154.42,0,0,1,36,12.3C111.26,52,123.67,52,123.78,52h0a1,1,0,0,1,0,2Z"/><path class="cls-3" d="M116.43,52.68a.49.49,0,0,1-.32-.12,22.8,22.8,0,0,1-7-15.26.5.5,0,1,1,1-.06,22.21,22.21,0,0,0,6.69,14.56.51.51,0,0,1,0,.71A.52.52,0,0,1,116.43,52.68Z"/><path class="cls-3" d="M94.5,54.46a.49.49,0,0,1-.41-.23.5.5,0,0,1,.14-.69c5-3.31,13.86-3.76,14.24-3.78a.49.49,0,0,1,.52.48.5.5,0,0,1-.47.52c-.09,0-9,.46-13.74,3.61A.47.47,0,0,1,94.5,54.46Z"/><path class="cls-3" d="M95.44,45.93a.49.49,0,0,1-.39-.19,19.67,19.67,0,0,1-3.84-14,.5.5,0,0,1,.57-.43.49.49,0,0,1,.42.56,18.94,18.94,0,0,0,3.63,13.22.52.52,0,0,1-.07.71A.56.56,0,0,1,95.44,45.93Z"/><path class="cls-3" d="M76,44.59a.57.57,0,0,1-.3-.1.51.51,0,0,1-.1-.7C78,40.57,88,41.45,88.38,41.49a.5.5,0,0,1,.45.54.49.49,0,0,1-.54.45c-2.74-.25-10.22-.39-11.94,1.91A.51.51,0,0,1,76,44.59Z"/><path class="cls-3" d="M76.78,37.94a.48.48,0,0,1-.39-.19c-.13-.17-3.29-4.23-3.67-8.27a.49.49,0,0,1,.45-.54.48.48,0,0,1,.54.45c.36,3.75,3.44,7.7,3.47,7.74a.51.51,0,0,1-.09.71A.5.5,0,0,1,76.78,37.94Z"/><path class="cls-3" d="M64.06,37.46a.48.48,0,0,1-.36-.16.49.49,0,0,1,0-.7c1.79-1.7,5.29-2.16,5.44-2.18a.5.5,0,1,1,.13,1s-3.33.44-4.89,1.91A.49.49,0,0,1,64.06,37.46Z"/><path class="cls-3" d="M125.4,54.06a26.66,26.66,0,0,1-8.06-.93,1,1,0,0,1,.66-1.89c5.51,1.95,20.88-.18,21-.21a1,1,0,1,1,.28,2A114.73,114.73,0,0,1,125.4,54.06Z"/><path class="cls-4" d="M176.94,27.56s-25.16,27.57-8.14,67c14.55,27.46,14.41,40.14,14.41,40.14S223.42,61.82,176.94,27.56Z"/><path class="cls-3" d="M184.22,127.89h-.06a1,1,0,0,1-.94-1.06,210.21,210.21,0,0,0-4.92-51.29c-6.28-28.72-2.36-45.24-2.19-45.93a1,1,0,0,1,1.94.48c0,.17-4,16.8,2.21,45a212.37,212.37,0,0,1,5,51.84A1,1,0,0,1,184.22,127.89Z"/><path class="cls-3" d="M193.61,54.33l-.15,0a31.8,31.8,0,0,1-18-14.14.52.52,0,0,1,.22-.68.5.5,0,0,1,.67.22,30.69,30.69,0,0,0,17.42,13.64.5.5,0,0,1,.34.63A.51.51,0,0,1,193.61,54.33Z"/><path class="cls-3" d="M166.55,69.14a.49.49,0,0,1-.37-.16.5.5,0,0,1,0-.71c5.75-5.33,9.2-17.14,9.24-17.26a.49.49,0,0,1,.62-.34.5.5,0,0,1,.34.62c-.15.49-3.57,12.2-9.52,17.72A.5.5,0,0,1,166.55,69.14Z"/><path class="cls-3" d="M195.2,79.91h0c-10.72-1.07-17.06-9.16-17.32-9.5a.5.5,0,0,1,.79-.61c.06.08,6.35,8.09,16.63,9.11a.5.5,0,0,1,.44.55A.49.49,0,0,1,195.2,79.91Z"/><path class="cls-3" d="M173.82,97a.49.49,0,0,1-.46-.3.5.5,0,0,1,.26-.66c4.45-1.93,6.42-15.33,6.44-15.46a.51.51,0,0,1,.57-.43.5.5,0,0,1,.42.57C181,81.33,179,94.85,174,97A.51.51,0,0,1,173.82,97Z"/><path class="cls-3" d="M192.5,105.35a.47.47,0,0,1-.16,0c-5.22-1.78-9.6-7.24-9.78-7.47a.5.5,0,0,1,.08-.71.5.5,0,0,1,.7.08c0,.06,4.38,5.47,9.32,7.15a.5.5,0,0,1,.32.64A.51.51,0,0,1,192.5,105.35Z"/><path class="cls-3" d="M179.55,115.18a.48.48,0,0,1-.42-.23.5.5,0,0,1,.14-.69c2.52-1.64,4.16-6,4.18-6a.5.5,0,0,1,.64-.29.52.52,0,0,1,.3.65c-.08.19-1.79,4.66-4.57,6.48A.53.53,0,0,1,179.55,115.18Z"/><path class="cls-3" d="M176.27,39.28a1,1,0,0,1-1-.89c-.92-8.64,5.83-19.78,6.12-20.25a1,1,0,0,1,1.37-.33,1,1,0,0,1,.33,1.37c-.06.11-6.68,11-5.83,19a1,1,0,0,1-.89,1.1Z"/><path class="cls-3" d="M109.84,82.75a1,1,0,0,1-.79-.39,1,1,0,0,1,.17-1.4c3.12-2.43,12.26-15.94,16.65-22.75a1,1,0,1,1,1.68,1.08c-.53.82-12.93,20-17.1,23.25A1,1,0,0,1,109.84,82.75Z"/><path class="cls-1" d="M121.83,66.33s-28.32.4-37.35,49.25c-1.31,10.16-1.54,17.1-1.54,17.1S124.32,75,121.83,66.33Z"/><path class="cls-6" d="M121.83,66.33h0c2.49,8.62-38.89,66.35-38.89,66.35s0-1.35.21-3.73C99.45,111.18,112,88.24,121.83,66.33Z"/><path class="cls-3" d="M102.85,79.89a.49.49,0,0,1-.41-.21.49.49,0,0,1,.12-.69,23.7,23.7,0,0,1,15.22-4.29.5.5,0,0,1,.44.55.49.49,0,0,1-.55.44,23.23,23.23,0,0,0-14.53,4.11A.52.52,0,0,1,102.85,79.89Z"/><path class="cls-3" d="M95.46,95.05a.48.48,0,0,1-.39-.19.5.5,0,0,1,.08-.7c4.55-3.66,14.33-3.37,14.74-3.35a.5.5,0,0,1,.49.52.49.49,0,0,1-.52.48c-.1,0-9.82-.3-14.09,3.13A.51.51,0,0,1,95.46,95.05Z"/><path class="cls-3" d="M89.21,113.58a.45.45,0,0,1-.32-.13.49.49,0,0,1-.06-.7c3.72-4.31,10.07-5,10.34-5a.5.5,0,1,1,.1,1c-.06,0-6.23.67-9.68,4.67A.49.49,0,0,1,89.21,113.58Z"/><path class="cls-3" d="M78.93,76.45a1,1,0,0,1-.48-1.88c4.63-2.53,27.17-6.26,28.13-6.42a1,1,0,1,1,.32,2c-8,1.31-24,4.3-27.5,6.19A.9.9,0,0,1,78.93,76.45Z"/><path class="cls-4" d="M97.84,70.6s-11.64,25.81-60,14.62c-9.84-2.85-16.3-5.39-16.3-5.39S90.93,64.88,97.84,70.6Z"/><path class="cls-6" d="M97.84,70.6h0c-6.91-5.72-76.35,9.23-76.35,9.23s1.26.49,3.5,1.29C47.79,73.24,73.83,70.87,97.84,70.6Z"/><path class="cls-3" d="M78.3,83.3a.5.5,0,0,1-.25-.93A23.1,23.1,0,0,0,87.6,70.68a.5.5,0,0,1,.62-.33.49.49,0,0,1,.33.63,23.69,23.69,0,0,1-10,12.25A.59.59,0,0,1,78.3,83.3Z"/><path class="cls-3" d="M61.45,84a.49.49,0,0,1-.44-.26.51.51,0,0,1,.21-.68c4.85-2.55,8.45-11.58,8.49-11.67a.49.49,0,0,1,.64-.28.5.5,0,0,1,.29.65c-.15.38-3.78,9.47-9,12.19A.52.52,0,0,1,61.45,84Z"/><path class="cls-3" d="M42,82.38a.5.5,0,0,1-.14-1c5-1.57,8.11-7,8.14-7a.49.49,0,0,1,.68-.19.5.5,0,0,1,.19.68c-.13.23-3.28,5.79-8.72,7.48Z"/><path class="cls-5" d="M103.46,165.42s23.59,16.19,48.24,4.49C151.7,169.91,130,154.87,103.46,165.42Z"/><path class="cls-8" d="M151.46,169.75c-15.41-1.34-25.76-1.57-43.09-3.62-1.12-.65-4.91-.71-4.91-.71C128.38,155.52,149,168.14,151.46,169.75Z"/><path class="cls-6" d="M103.46,165.42s35.5,5.4,48.24,4.49Z"/><path class="cls-3" d="M129.26,180.78a1.5,1.5,0,0,1-.81-.24C78.32,147.9,2.06,137.12,1.3,137a1.5,1.5,0,0,1,.4-3c.78.11,77.7,11,128.38,44a1.5,1.5,0,0,1-.82,2.76Z"/><path class="cls-1" d="M28.11,154.22s-8.9,40.91,29.77,69.54c29.58,18.45,36.58,30.83,36.58,30.83S92.48,161.3,28.11,154.22Z"/><path class="cls-2" d="M28.15,154.23c58.26,6.43,65.38,83.53,66.21,98-13.27-27.56-37.61-50-55.3-76.72C34.86,169.28,31.46,161.51,28.15,154.23Z"/><path class="cls-3" d="M91.07,247.5a1,1,0,0,1-.9-.55c-.11-.23-11.67-23-33.65-47C34.29,175.63,28,156.85,27.9,156.66a1,1,0,1,1,1.9-.62c.06.18,6.29,18.59,28.2,42.53a237.42,237.42,0,0,1,34,47.48,1,1,0,0,1-.44,1.34A1.06,1.06,0,0,1,91.07,247.5Z"/><path class="cls-3" d="M51.15,171.75a35.28,35.28,0,0,1-17.37-4.5.51.51,0,0,1-.15-.7.5.5,0,0,1,.69-.15A34.47,34.47,0,0,0,59,169.84a.51.51,0,0,1,.6.38.51.51,0,0,1-.37.6A35.27,35.27,0,0,1,51.15,171.75Z"/><path class="cls-3" d="M41.14,200.43l-.15,0a.51.51,0,0,1-.33-.63c2.59-8.42-.71-21.85-.75-22a.5.5,0,0,1,.37-.61.5.5,0,0,1,.6.37c.14.56,3.4,13.82.74,22.51A.51.51,0,0,1,41.14,200.43Z"/><path class="cls-3" d="M63.84,197.08a31.52,31.52,0,0,1-10.74-1.84.5.5,0,0,1,.38-.93c.11.05,10.74,4.29,21.31-.51a.5.5,0,0,1,.66.25.49.49,0,0,1-.24.66A27.35,27.35,0,0,1,63.84,197.08Z"/><path class="cls-3" d="M63.9,223.41a.54.54,0,0,1-.3-.1.51.51,0,0,1-.11-.7c3.25-4.41-2.38-18.55-2.44-18.69a.5.5,0,0,1,.93-.38c.24.61,5.9,14.81,2.32,19.66A.49.49,0,0,1,63.9,223.41Z"/><path class="cls-3" d="M83.54,221.25a32.15,32.15,0,0,1-10.4-2,.49.49,0,0,1-.28-.65.48.48,0,0,1,.64-.28c.08,0,7.35,2.84,13.11,1.68a.5.5,0,0,1,.58.4.48.48,0,0,1-.39.58A16.09,16.09,0,0,1,83.54,221.25Z"/><path class="cls-3" d="M79.66,237.78a.46.46,0,0,1-.22-.06.49.49,0,0,1-.22-.67c1.52-3,.69-8.15.68-8.2a.5.5,0,0,1,.41-.58.51.51,0,0,1,.58.41c0,.23.89,5.51-.78,8.82A.49.49,0,0,1,79.66,237.78Z"/><path class="cls-3" d="M31.71,164a1,1,0,0,1-.94-.64c-4.87-12.91-14.06-24.49-14.15-24.61a1,1,0,0,1,1.56-1.24c.09.11,9.48,11.94,14.47,25.14a1,1,0,0,1-.59,1.29A1,1,0,0,1,31.71,164Z"/><path class="cls-4" d="M54.21,141.64s28.26,10.53,52.63-14.11c16.18-19.2,25.72-22.92,25.72-22.92S65.85,96.48,54.21,141.64Z"/><path class="cls-7" d="M132.56,104.61a16.26,16.26,0,0,0-1.92,1c-5.15.31-12.72,3.65-17.93,6.4-21.45,11.31-36.19,23.75-58.35,29.11C66.38,96.55,132.56,104.61,132.56,104.61Z"/><path class="cls-3" d="M55.89,141.85a1,1,0,0,1-.14-2c.13,0,13.75-2.1,33-15.22a171.4,171.4,0,0,1,37.39-19.39,1,1,0,0,1,.63,1.9,169.46,169.46,0,0,0-36.9,19.15C70.2,139.7,56.6,141.76,56,141.84Z"/><path class="cls-3" d="M63.81,139.2a.46.46,0,0,1-.33-.13.49.49,0,0,1,0-.7,24.71,24.71,0,0,0,4.94-17.1.5.5,0,1,1,1-.09A25.26,25.26,0,0,1,64.19,139,.49.49,0,0,1,63.81,139.2Z"/><path class="cls-3" d="M88.13,137.53a.41.41,0,0,1-.21-.05c-5.71-2.69-15.58-1.71-15.67-1.7a.5.5,0,0,1-.55-.45.49.49,0,0,1,.44-.54c.42,0,10.25-1,16.21,1.79a.5.5,0,0,1,.24.66A.52.52,0,0,1,88.13,137.53Z"/><path class="cls-3" d="M85.7,128.34a.47.47,0,0,1-.25-.07.5.5,0,0,1-.18-.68c0-.07,4.13-7.17,1.81-15.14a.5.5,0,1,1,1-.28,21.77,21.77,0,0,1-1.91,15.92A.48.48,0,0,1,85.7,128.34Z"/><path class="cls-3" d="M106.85,123.66a.47.47,0,0,1-.35-.15c-2.29-2.25-10.49-.86-13.45-.13a.51.51,0,0,1-.61-.37.5.5,0,0,1,.37-.6c.46-.11,11.24-2.71,14.39.39a.5.5,0,0,1,0,.71A.49.49,0,0,1,106.85,123.66Z"/><path class="cls-3" d="M104.84,116.51a.57.57,0,0,1-.25-.06.49.49,0,0,1-.18-.68s2.75-4.92,2.52-9.1a.5.5,0,0,1,.47-.52.48.48,0,0,1,.53.47c.25,4.48-2.54,9.43-2.65,9.64A.52.52,0,0,1,104.84,116.51Z"/><path class="cls-3" d="M118.71,113.89a.52.52,0,0,1-.29-.09c-2-1.37-5.66-1.3-5.7-1.3a.52.52,0,0,1-.51-.49.5.5,0,0,1,.49-.51c.17,0,4.07-.08,6.29,1.48a.5.5,0,0,1,.13.69A.52.52,0,0,1,118.71,113.89Z"/><path class="cls-3" d="M38.85,143.27a1,1,0,0,1,0-2c.17,0,17.4-.19,23.14-3.25a1,1,0,0,1,.94,1.77c-6.17,3.29-23.33,3.47-24.06,3.48Z"/><path class="cls-4" d="M69,157.29s25.38,9.78,27.11,41c-.55,22.65,3.67,30.87,3.67,30.87S49.83,194.75,69,157.29Z"/><path class="cls-1" d="M99.76,229.15a15,15,0,0,1-.71-1.82c-3.29-3.29-6.41-10.07-8.28-15-7.73-20.47-10.25-37.69-22-54.56C50.24,195,99.76,229.15,99.76,229.15Z"/><path class="cls-3" d="M96.58,225.42a1,1,0,0,1-.86-.5A154.49,154.49,0,0,1,82,189.44c-5.16-20.39-13.09-29.88-13.17-30a1,1,0,0,1,1.53-1.29c.33.39,8.31,9.93,13.58,30.76a152.49,152.49,0,0,0,13.47,35,1,1,0,0,1-.87,1.5Z"/><path class="cls-3" d="M66.67,180.34a.49.49,0,0,1-.37-.16.49.49,0,0,1,0-.7A22.35,22.35,0,0,0,73.2,165a.5.5,0,0,1,.5-.5h0a.51.51,0,0,1,.5.51A22.89,22.89,0,0,1,67,180.2.47.47,0,0,1,66.67,180.34Z"/><path class="cls-3" d="M89.13,181.18a.36.36,0,0,1-.14,0c-5.71-1.67-11.78-8.21-12-8.49a.5.5,0,1,1,.74-.68c.06.07,6.14,6.62,11.58,8.21a.5.5,0,0,1,.34.62A.49.49,0,0,1,89.13,181.18Z"/><path class="cls-3" d="M74,197.54a.48.48,0,0,1-.42-.24.49.49,0,0,1,.16-.69c6.31-4,7.79-11.19,7.81-11.27a.48.48,0,0,1,.58-.39.5.5,0,0,1,.4.58,19.65,19.65,0,0,1-8.26,11.93A.53.53,0,0,1,74,197.54Z"/><path class="cls-3" d="M93.35,201.75c-4,0-9.6-8-9.84-8.36a.5.5,0,0,1,.13-.7.49.49,0,0,1,.69.13c1.57,2.25,6.24,8.11,9.12,7.92a.51.51,0,0,1,.53.48.5.5,0,0,1-.47.52Z"/><path class="cls-3" d="M84,213.25a.5.5,0,0,1-.35-.15.49.49,0,0,1,0-.7c2.65-2.68,3.7-7.58,3.71-7.63a.51.51,0,0,1,.6-.39.49.49,0,0,1,.38.59c0,.22-1.13,5.24-4,8.13A.51.51,0,0,1,84,213.25Z"/><path class="cls-3" d="M95.65,215.44h-.06c-2.45-.28-5-2.67-5.16-2.77a.5.5,0,0,1,0-.71.51.51,0,0,1,.71,0s2.47,2.27,4.6,2.52a.5.5,0,0,1-.06,1Z"/><path class="cls-3" d="M72.91,165.06a1,1,0,0,1-.94-.65c-2-5.47-13.55-15.89-13.67-16a1,1,0,0,1,1.34-1.49c.49.44,12,10.85,14.2,16.78a1,1,0,0,1-.59,1.29A1,1,0,0,1,72.91,165.06Z"/><path class="cls-4" d="M16,134.43S53.26,136,72.53,97.69C84.23,68.9,94,60.86,94,60.86S12.39,76.81,16,134.43Z"/><path class="cls-3" d="M17.64,133.85A1,1,0,0,1,17.2,132c.15-.08,15.43-7.75,33.1-30.6A211.94,211.94,0,0,1,86.85,64.27,1,1,0,1,1,88,65.88a209.92,209.92,0,0,0-36.16,36.7c-18,23.26-33.17,30.86-33.8,31.17A1,1,0,0,1,17.64,133.85Z"/><path class="cls-3" d="M26.13,127.79a.43.43,0,0,1-.19,0,.51.51,0,0,1-.27-.65A30.67,30.67,0,0,0,25,105a.49.49,0,0,1,.26-.65.5.5,0,0,1,.66.26,31.78,31.78,0,0,1,.73,22.89A.51.51,0,0,1,26.13,127.79Z"/><path class="cls-3" d="M34.7,120.56a.5.5,0,0,1-.2-1c.47-.21,11.64-5.1,19.7-4.08a.5.5,0,0,1-.13,1c-7.77-1-19,4-19.17,4A.45.45,0,0,1,34.7,120.56Z"/><path class="cls-3" d="M47.76,106.63h-.11a.49.49,0,0,1-.38-.59c0-.1,2.13-10.07-3.68-18.61a.5.5,0,1,1,.82-.56c6.07,8.9,3.93,19,3.84,19.38A.49.49,0,0,1,47.76,106.63Z"/><path class="cls-3" d="M54.38,98.05a.52.52,0,0,1-.43-.24.51.51,0,0,1,.16-.69c.5-.31,12.14-7.45,17-5a.5.5,0,1,1-.44.89c-4.34-2.17-15.89,4.92-16,5A.5.5,0,0,1,54.38,98.05Z"/><path class="cls-3" d="M65.77,85.39h-.1a.5.5,0,0,1-.39-.59c0-.07,1.37-6.87-.51-11.74a.49.49,0,0,1,.28-.64.5.5,0,0,1,.65.28c2,5.15.62,12,.56,12.3A.5.5,0,0,1,65.77,85.39Z"/><path class="cls-3" d="M73.5,77.65a.52.52,0,0,1-.48-.33.51.51,0,0,1,.31-.64c.19-.07,4.72-1.63,7.9-.66a.5.5,0,0,1-.29,1c-2.87-.88-7.23.63-7.28.64A.45.45,0,0,1,73.5,77.65Z"/><path class="cls-3" d="M5.73,137.07a1,1,0,0,1-.14-2c.12,0,12.75-2,18.31-7.72a1,1,0,0,1,1.44,1.39c-6,6.25-18.91,8.23-19.46,8.31Z"/><path class="cls-3" d="M72.13,153.91a1,1,0,0,1-.12-2c1-.12,23.64-2.93,28.8-1.81a1,1,0,0,1,.76,1.18,1,1,0,0,1-1.19.77c-3.86-.83-20.08.84-28.12,1.85Z"/><path class="cls-1" d="M81.08,151.79s18.48,21.46,61.73-3c8.63-5.52,14.1-9.79,14.1-9.79S86.09,144.35,81.08,151.79Z"/><path class="cls-6" d="M81.08,151.79h0c5-7.44,75.83-12.78,75.83-12.78s-1.06.83-3,2.23C129.83,140.15,104.18,145.25,81.08,151.79Z"/><path class="cls-3" d="M103.28,158.45h-.13a23.76,23.76,0,0,1-13.06-8.92.5.5,0,0,1,.14-.69.51.51,0,0,1,.7.14,23.13,23.13,0,0,0,12.47,8.5.5.5,0,0,1-.12,1Z"/><path class="cls-3" d="M119.65,154.39h-.1c-5.74-1.15-11.79-8.83-12-9.16a.5.5,0,0,1,.08-.7.5.5,0,0,1,.7.09c.07.07,6.08,7.72,11.45,8.79a.48.48,0,0,1,.39.58A.49.49,0,0,1,119.65,154.39Z"/><path class="cls-3" d="M137.86,147.28h0c-5.69-.08-10.29-4.51-10.48-4.7a.5.5,0,1,1,.7-.72s4.51,4.34,9.79,4.42a.5.5,0,1,1,0,1Z"/><path class="cls-3" d="M115.61,179.83a.92.92,0,0,1-.36-.07c-4.91-1.93-22.25-16.81-23-17.45a1,1,0,1,1,1.3-1.51c6.14,5.28,18.73,15.65,22.41,17.1a1,1,0,0,1-.37,1.93Z"/><path class="cls-4" d="M99.75,167.44s27.27-7.64,49.77,36.64c4.13,9.38,6.32,16,6.32,16S99.8,176.41,99.75,167.44Z"/><path class="cls-6" d="M99.75,167.44h0c0,9,56.09,52.61,56.09,52.61s-.42-1.29-1.25-3.52C133.91,204.11,115.37,185.67,99.75,167.44Z"/><path class="cls-3" d="M106.2,175.28a.52.52,0,0,1-.47-.31.51.51,0,0,1,.27-.65,23.67,23.67,0,0,1,15.81-.2.49.49,0,0,1,.31.63.51.51,0,0,1-.64.31,23.15,23.15,0,0,0-15.09.18A.43.43,0,0,1,106.2,175.28Z"/><path class="cls-3" d="M118.29,188.51a.5.5,0,0,1-.16-1c.39-.13,9.68-3.18,15.09-1a.5.5,0,1,1-.38.92c-5.07-2.08-14.3,1-14.4,1A.4.4,0,0,1,118.29,188.51Z"/><path class="cls-3" d="M144.27,203.53a.53.53,0,0,1-.27-.08c-4.45-2.87-10.54-1.75-10.6-1.74a.5.5,0,1,1-.19-1c.26-.06,6.55-1.2,11.33,1.88a.5.5,0,0,1,.15.69A.49.49,0,0,1,144.27,203.53Z"/><path class="cls-1" d="M38.31,574.05s-35.19-24-26.68-72.14c8.91-34.31,5.42-48.34,5.42-48.34S80.85,523.79,38.31,574.05Z"/><path class="cls-2" d="M39,573.2c-1.77-8.49-6.08-15.72-7.94-24.17-6.47-30.55-.39-66.9-13.84-94.53-.1-.62-.17-.93-.17-.93S80.12,523,39,573.2Z"/><path class="cls-3" d="M37.86,572.48a1,1,0,0,1-.89-.55c-.37-.72-9.06-18-9.66-51.48a239.1,239.1,0,0,0-8.06-58.25,1,1,0,0,1,.66-1.25,1,1,0,0,1,1.25.67,241.65,241.65,0,0,1,8.15,58.79c.59,33,9.35,50.44,9.44,50.61a1,1,0,0,1-.44,1.34A.92.92,0,0,1,37.86,572.48Z"/><path class="cls-3" d="M33.88,561.1l-.12,0a.5.5,0,0,1-.37-.6,36.09,36.09,0,0,1,16.24-20.4.5.5,0,0,1,.5.86,35,35,0,0,0-15.77,19.78A.5.5,0,0,1,33.88,561.1Z"/><path class="cls-3" d="M31,548.65a.49.49,0,0,1-.44-.26c-.07-.12-7-12.34-14.83-16.75a.49.49,0,0,1-.19-.68.51.51,0,0,1,.68-.19c8,4.55,14.92,16.62,15.21,17.13a.49.49,0,0,1-.19.68A.44.44,0,0,1,31,548.65Z"/><path class="cls-3" d="M28.52,527a.54.54,0,0,1-.21,0,.5.5,0,0,1-.25-.66c.05-.11,5.09-11.07,16.68-15.07a.5.5,0,0,1,.63.31.51.51,0,0,1-.31.64C33.88,516,29,526.61,29,526.71A.49.49,0,0,1,28.52,527Z"/><path class="cls-3" d="M28.32,514.65a.48.48,0,0,1-.46-.32c-.06-.15-5.8-14.53-11.29-15.51a.5.5,0,0,1-.4-.58.49.49,0,0,1,.58-.4c6,1.07,11.79,15.51,12,16.12a.5.5,0,0,1-.29.65A.39.39,0,0,1,28.32,514.65Z"/><path class="cls-3" d="M26.53,495.31a.5.5,0,0,1-.21-.05.49.49,0,0,1-.24-.66c.14-.31,3.55-7.51,8.86-10.84a.5.5,0,0,1,.69.15.49.49,0,0,1-.16.69C30.41,487.78,27,495,27,495A.49.49,0,0,1,26.53,495.31Z"/><path class="cls-3" d="M24.73,483a.48.48,0,0,1-.41-.22s-3-4.41-6.25-5.58a.49.49,0,0,1-.3-.64.5.5,0,0,1,.64-.3c3.54,1.28,6.61,5.77,6.74,6a.51.51,0,0,1-.14.7A.46.46,0,0,1,24.73,483Z"/><path class="cls-3" d="M42.53,578.81a1,1,0,0,1-.62-.21c-.2-.16-4.82-3.89-7.28-12.84a1,1,0,1,1,1.93-.53c2.27,8.27,6.55,11.76,6.59,11.8a1,1,0,0,1-.62,1.78Z"/><path class="cls-4" d="M87.41,532.55s28.07,6.53,38.94-32.26C126.35,500.29,94.37,495,87.41,532.55Z"/><path class="cls-5" d="M87.41,532.55c6.72-36.21,36.7-32.58,38.82-32.28-12.61,11.06-25.77,21.16-38,32.43C87.72,532.62,87.41,532.55,87.41,532.55Z"/><path class="cls-6" d="M122.26,502.76s-26.89,27.72-34.85,29.79Z"/><path class="cls-3" d="M29.65,596.37a1.47,1.47,0,0,1-.9-.31,1.5,1.5,0,0,1-.29-2.1c1.82-2.39,44.89-58.62,68.09-68.33a1.5,1.5,0,0,1,1.16,2.77c-22.47,9.4-66.42,66.8-66.86,67.38A1.5,1.5,0,0,1,29.65,596.37Z"/><path class="cls-1" d="M64,561.82s27-23.59,64.41-6.45c26,14.52,38.22,14.65,38.22,14.65S95.88,607.11,64,561.82Z"/><path class="cls-4" d="M129.75,568.4c-21-1.7-40.82-7.6-62.15-8.54a4.32,4.32,0,0,0-1.67.44c6.84-4.93,30.93-19.35,62.44-4.93,26,14.52,38.22,14.65,38.22,14.65l-1.48.74a85.82,85.82,0,0,1-25.84-2.45C136.6,568,132.42,568.75,129.75,568.4Z"/><path class="cls-3" d="M156.71,571.85a210.21,210.21,0,0,1-47.2-5.84c-26.94-6.5-43-3.07-43.14-3a1,1,0,0,1-1.19-.75,1,1,0,0,1,.76-1.2c.66-.15,16.6-3.58,44,3a201.08,201.08,0,0,0,49.11,5.76,1,1,0,0,1,1,1,1,1,0,0,1-1,1S158.27,571.85,156.71,571.85Z"/><path class="cls-3" d="M88.83,578.85a.5.5,0,0,1-.48-.37,29.42,29.42,0,0,0-12.73-17,.5.5,0,1,1,.48-.88,30.49,30.49,0,0,1,13.21,17.59.5.5,0,0,1-.35.62Z"/><path class="cls-3" d="M86.61,561.82a.49.49,0,0,1-.48-.37.5.5,0,0,1,.35-.61c.12,0,11.52-3.1,16.75-8.51a.5.5,0,1,1,.72.7c-5.42,5.6-16.73,8.65-17.21,8.78Z"/><path class="cls-3" d="M113.34,580.89a.5.5,0,0,1-.49-.46c-.77-9.87-8.33-16.07-8.41-16.13a.49.49,0,0,1-.07-.7.5.5,0,0,1,.7-.08c.32.26,8,6.52,8.77,16.83a.5.5,0,0,1-.46.54Z"/><path class="cls-3" d="M114.87,566.87a.5.5,0,0,1-.06-1c.13,0,13-1.64,14.95-5.86a.5.5,0,0,1,.67-.25.49.49,0,0,1,.24.66c-2.17,4.73-15.19,6.37-15.74,6.44Z"/><path class="cls-3" d="M137.81,578.82a.48.48,0,0,1-.47-.34c-1.51-4.77-6.61-9-6.67-9.09a.49.49,0,0,1-.06-.7.5.5,0,0,1,.7-.07c.22.18,5.38,4.5,7,9.55a.5.5,0,0,1-.33.63A.39.39,0,0,1,137.81,578.82Z"/><path class="cls-3" d="M141.43,570.66a.5.5,0,0,1-.17-1s4.21-1.51,5.83-3.88a.5.5,0,0,1,.83.56c-1.81,2.64-6.14,4.2-6.33,4.26A.45.45,0,0,1,141.43,570.66Z"/><path class="cls-3" d="M53.6,566.07a1,1,0,0,1-.37-1.93c.54-.21,13.3-5.16,19.88-3.72a1,1,0,1,1-.43,2c-6-1.3-18.59,3.59-18.72,3.64A1.13,1.13,0,0,1,53.6,566.07Z"/><path class="cls-2" d="M59.84,551.52s-13-27.15,9.3-53.59c17.63-17.81,20.48-27.63,20.48-27.63S103.69,535.9,59.84,551.52Z"/><path class="cls-3" d="M60.47,550.78h0a1,1,0,0,1-1-1c0-.57.85-14.28,12.42-35a168.77,168.77,0,0,0,15.72-38.41,1,1,0,0,1,2,.46,171.87,171.87,0,0,1-15.92,38.92C62.3,536,61.48,549.7,61.47,549.83A1,1,0,0,1,60.47,550.78Z"/><path class="cls-3" d="M61.9,542.22a.54.54,0,0,1-.35-.14.51.51,0,0,1,0-.71,25.28,25.28,0,0,1,17.28-6.75h0a.5.5,0,1,1,0,1,24.65,24.65,0,0,0-16.56,6.44A.48.48,0,0,1,61.9,542.22Z"/><path class="cls-3" d="M64.54,533.57h0a.5.5,0,0,1-.5-.5c0-.1.09-10-3.1-15.44a.5.5,0,0,1,.86-.5c3.33,5.67,3.25,15.53,3.24,16A.49.49,0,0,1,64.54,533.57Z"/><path class="cls-3" d="M70.73,519.47a.49.49,0,0,1-.41-.21.5.5,0,0,1,.12-.7,21.71,21.71,0,0,1,15.66-3.31.48.48,0,0,1,.39.58.5.5,0,0,1-.58.4c-8.13-1.6-14.82,3.1-14.89,3.15A.52.52,0,0,1,70.73,519.47Z"/><path class="cls-3" d="M75,511.84h-.08a.51.51,0,0,1-.42-.57c.46-3,1.11-11.29-1.34-13.36a.49.49,0,0,1-.06-.7.51.51,0,0,1,.71-.06c3.37,2.85,1.75,13.8,1.68,14.27A.5.5,0,0,1,75,511.84Z"/><path class="cls-3" d="M80.77,499.38a.49.49,0,0,1-.41-.21.51.51,0,0,1,.12-.7c.2-.14,4.88-3.35,9.35-3.5a.5.5,0,0,1,.52.48.51.51,0,0,1-.48.52c-4.19.14-8.77,3.29-8.82,3.32A.47.47,0,0,1,80.77,499.38Z"/><path class="cls-3" d="M84.06,491.2a.5.5,0,0,1-.5-.47s-.27-3.72-1.81-5.55a.49.49,0,0,1,.06-.7.51.51,0,0,1,.71.06c1.74,2.07,2,6,2,6.12a.51.51,0,0,1-.47.54Z"/><path class="cls-3" d="M61.08,556.31a1,1,0,0,1-.93-.63c-.07-.16-1.6-4.17.09-10.61a1,1,0,0,1,1.94.51c-1.52,5.76-.18,9.34-.17,9.37a1,1,0,0,1-.57,1.29A.92.92,0,0,1,61.08,556.31Z"/><path class="cls-1" d="M37,588.34s32.42-15.89,64.36,10.57c21.55,21,33.36,24.26,33.36,24.26S56.18,640.76,37,588.34Z"/><path class="cls-3" d="M127.22,623l-.23,0A205.13,205.13,0,0,1,80.2,604.32C55.69,591,39.18,590.09,39,590.08a1,1,0,1,1,.08-2c.69,0,17.09.87,42.06,14.49A203.13,203.13,0,0,0,127.44,621a1,1,0,0,1-.22,2Z"/><path class="cls-3" d="M56.85,611.42a.49.49,0,0,1-.5-.49,29.74,29.74,0,0,0-7.94-19.86.5.5,0,1,1,.68-.72,30.7,30.7,0,0,1,8.26,20.57.5.5,0,0,1-.5.5Z"/><path class="cls-3" d="M59.18,594.28h0a.5.5,0,0,1-.5-.5.51.51,0,0,1,.5-.5h0c.31,0,12.07,0,18.52-3.89a.5.5,0,1,1,.51.85C71.57,594.2,60.08,594.28,59.18,594.28Z"/><path class="cls-3" d="M80.16,619.83h-.09a.5.5,0,0,1-.4-.58c1.84-9.83-3.9-17.81-4-17.89a.5.5,0,0,1,.1-.7.49.49,0,0,1,.7.11c.25.33,6,8.42,4.14,18.66A.51.51,0,0,1,80.16,619.83Z"/><path class="cls-3" d="M92.23,607.06a53.77,53.77,0,0,1-7-.48.5.5,0,0,1-.42-.56.5.5,0,0,1,.56-.43c.13,0,13.1,1.82,16.09-1.79a.51.51,0,0,1,.71-.06.49.49,0,0,1,.06.7C100.5,606.54,96.11,607.06,92.23,607.06Z"/><path class="cls-3" d="M104.51,624.22a.5.5,0,0,1-.5-.47c-.22-5-4.06-10.53-4.1-10.59a.5.5,0,0,1,.12-.7.51.51,0,0,1,.69.12c.17.24,4.06,5.79,4.29,11.12a.5.5,0,0,1-.48.52Z"/><path class="cls-3" d="M110.17,617.23a.5.5,0,0,1-.5-.47.49.49,0,0,1,.46-.53s4.49-.37,6.69-2.25a.49.49,0,0,1,.7,0,.51.51,0,0,1,0,.71c-2.45,2.09-7.07,2.47-7.26,2.48Z"/><path class="cls-3" d="M44.42,590.92l-.25,0c-7-1.78-11.32-.11-11.36-.09a1,1,0,0,1-.75-1.86c.2-.08,4.92-1.94,12.61,0a1,1,0,0,1-.25,2Z"/><path class="cls-3" d="M84.12,536.52a1,1,0,0,1-.24-2c7.42-1.89,22.28-6,25.39-8.09a1,1,0,0,1,1.1,1.67c-4.16,2.77-25.11,8.13-26,8.36A1.07,1.07,0,0,1,84.12,536.52Z"/><path class="cls-2" d="M92.39,533.42s8.86-25.29,55.4-18.71c9.5,1.88,15.8,3.75,15.8,3.75S99.37,538.24,92.39,533.42Z"/><path class="cls-6" d="M92.39,533.42h0c7,4.82,71.2-15,71.2-15s-1.22-.36-3.4-.93C139.35,526.82,115,531.2,92.39,533.42Z"/><path class="cls-3" d="M101.57,532.9h-.1a.5.5,0,0,1-.38-.6,22.41,22.41,0,0,1,8.43-12.38.5.5,0,0,1,.58.81,21.9,21.9,0,0,0-8,11.79A.5.5,0,0,1,101.57,532.9Z"/><path class="cls-3" d="M118.39,530.7l-.15,0a.5.5,0,0,1-.33-.62c.11-.38,2.78-9.25,7.45-12.24a.5.5,0,1,1,.54.84c-4.35,2.8-7,11.6-7,11.68A.51.51,0,0,1,118.39,530.7Z"/><path class="cls-3" d="M136.77,526.23a.46.46,0,0,1-.2-.05.5.5,0,0,1-.26-.66c.11-.23,2.63-5.73,7.62-7.78a.5.5,0,0,1,.65.28.49.49,0,0,1-.27.65c-4.63,1.89-7.06,7.21-7.08,7.26A.51.51,0,0,1,136.77,526.23Z"/></g></g></svg>