<svg xmlns="http://www.w3.org/2000/svg" viewBox="0 0 329.51 626.01"><defs><style>.cls-1{fill:#788e3c;}.cls-2{fill:#869e47;}.cls-3{fill:#59752b;}.cls-4{fill:#b9c82d;}.cls-5{fill:#cede23;}.cls-6{fill:#4e522b;}.cls-7{fill:#9eb134;}.cls-8{fill:#b8e30d;}</style></defs><title>Right</title><g id="Layer_2" data-name="Layer 2"><g id="BACKGROUND_2" data-name="BACKGROUND 2"><path class="cls-1" d="M286.29,251.74s6-42.15-35.3-68.35c-31.35-16.54-39.36-28.58-39.36-28.58S220.49,249.28,286.29,251.74Z"/><path class="cls-2" d="M285.2,251.67c-5.08-7-7.51-15.09-12.5-22.15-18.2-25.38-49.16-45.39-60.5-74-.39-.49-.57-.76-.57-.76S220.4,248.21,285.2,251.67Z"/><path class="cls-3" d="M284.7,250.67a1,1,0,0,1-.94-.65c-.07-.19-7.05-18.42-31-41.08a241.61,241.61,0,0,1-37.93-45.66,1,1,0,1,1,1.71-1,239.81,239.81,0,0,0,37.59,45.22c24.35,23,31.24,41.08,31.52,41.84a1,1,0,0,1-.58,1.28A.91.91,0,0,1,284.7,250.67Z"/><path class="cls-3" d="M279.34,239.89a.53.53,0,0,1-.24-.06,35.09,35.09,0,0,0-25.23-1.68.5.5,0,1,1-.3-1,36.11,36.11,0,0,1,26,1.75.51.51,0,0,1,.2.68A.49.49,0,0,1,279.34,239.89Z"/><path class="cls-3" d="M272.11,229.35a.48.48,0,0,1-.47-.34c-.19-.56-4.47-13.78-2.4-22.78a.49.49,0,0,1,.6-.38.5.5,0,0,1,.37.6c-2,8.73,2.33,22.11,2.38,22.25a.51.51,0,0,1-.32.63Z"/><path class="cls-3" d="M235.8,215.08a.5.5,0,0,1-.24-.94c10.76-5.86,22.26-2.2,22.37-2.16a.5.5,0,0,1-.31,1c-.11,0-11.21-3.56-21.58,2.08A.44.44,0,0,1,235.8,215.08Z"/><path class="cls-3" d="M248.78,204.48a.51.51,0,0,1-.45-.28c-.29-.6-7.07-14.58-3.8-19.77a.5.5,0,0,1,.69-.15.49.49,0,0,1,.16.69c-3,4.71,3.78,18.65,3.85,18.79a.5.5,0,0,1-.23.67A.59.59,0,0,1,248.78,204.48Z"/><path class="cls-3" d="M235.7,190.12l-.14,0c-.08,0-7.66-2.35-13.42-.75a.5.5,0,0,1-.27-1c6-1.67,13.66.66,14,.76a.5.5,0,0,1,.33.63A.5.5,0,0,1,235.7,190.12Z"/><path class="cls-3" d="M227.79,180.47a.49.49,0,0,1-.48-.38c-.06-.23-1.31-5.52.14-9a.49.49,0,0,1,.65-.27.5.5,0,0,1,.27.66c-1.32,3.17-.1,8.32-.09,8.37a.5.5,0,0,1-.37.61Z"/><path class="cls-3" d="M286.23,258.39h-.07a1,1,0,0,1-.93-1.06c0-.07.3-5.58-4.27-12.82a1,1,0,1,1,1.69-1.07c5,7.86,4.59,13.78,4.58,14A1,1,0,0,1,286.23,258.39Z"/><path class="cls-4" d="M222.54,260s-14.1,25.13-50.07,7C172.47,267.05,190.12,239.87,222.54,260Z"/><path class="cls-5" d="M222.54,260c-31.27-19.44-48.8,5.15-50,6.92,16.66-1.87,33-4.78,49.54-6.19C222.39,260.3,222.54,260,222.54,260Z"/><path class="cls-6" d="M177.05,265.69s38.6-1.18,45.49-5.66Z"/><path class="cls-3" d="M211.9,265a1.52,1.52,0,0,1-1.36-.87,1.51,1.51,0,0,1,.73-2c22.82-10.59,93.38-4.49,96.37-4.23a1.5,1.5,0,0,1-.26,3c-.73-.06-72.76-6.29-94.85,4A1.42,1.42,0,0,1,211.9,265Z"/><path class="cls-7" d="M260,262.44s-35.6,4-48.18,43.22c-6.84,29-14.95,38.11-14.95,38.11S271.91,316.55,260,262.44Z"/><path class="cls-4" d="M220.48,315.47c12.87-16.63,21.9-35.27,35.59-51.66a4.09,4.09,0,0,1,1.45-.94c-8.26,1.73-35.14,9.8-45.73,42.79-6.84,29-14.95,38.11-14.95,38.11s.56-.2,1.54-.59A85.37,85.37,0,0,0,214,322.44C215.53,320.23,218.94,317.68,220.48,315.47Z"/><path class="cls-3" d="M202.47,339.8a1,1,0,0,1-.7-.28,1,1,0,0,1,0-1.42,201,201,0,0,0,28.84-40.16c13.61-24.73,26.89-34.19,27.45-34.58A1,1,0,0,1,259.2,265c-.14.09-13.48,9.63-26.84,33.91a203.88,203.88,0,0,1-29.18,40.6A1,1,0,0,1,202.47,339.8Z"/><path class="cls-3" d="M255.41,292.45a.5.5,0,0,1-.42-.24,30.58,30.58,0,0,1-4.09-21.62.51.51,0,0,1,.61-.36.5.5,0,0,1,.36.61,29.5,29.5,0,0,0,4,20.84.51.51,0,0,1-.16.69A.53.53,0,0,1,255.41,292.45Z"/><path class="cls-3" d="M226.5,286.05a.5.5,0,0,1-.5-.49.51.51,0,0,1,.49-.51c7.52-.22,17.47-6.57,17.57-6.63a.5.5,0,1,1,.55.84c-.42.27-10.3,6.56-18.09,6.79Z"/><path class="cls-3" d="M240.4,311.94a.54.54,0,0,1-.37-.16c-7.07-7.55-6.54-17.41-6.51-17.83a.5.5,0,0,1,.53-.47.52.52,0,0,1,.47.54c0,.09-.53,9.85,6.24,17.07a.5.5,0,0,1,0,.71A.51.51,0,0,1,240.4,311.94Z"/><path class="cls-3" d="M215.34,311a4.56,4.56,0,0,1-1.36-.2.5.5,0,0,1-.33-.63.5.5,0,0,1,.63-.32c3.67,1.17,11.65-4.73,14.41-7.1a.5.5,0,1,1,.65.76C229,303.82,220.56,311,215.34,311Z"/><path class="cls-3" d="M222.38,328.62a.5.5,0,0,1-.43-.25c-2.66-4.59-2.37-11.31-2.36-11.6a.48.48,0,0,1,.53-.47.49.49,0,0,1,.47.52c0,.07-.28,6.71,2.22,11.05a.49.49,0,0,1-.18.68A.47.47,0,0,1,222.38,328.62Z"/><path class="cls-3" d="M207.65,327.59a5.49,5.49,0,0,1-.91-.07.5.5,0,0,1-.43-.56.53.53,0,0,1,.57-.43c2.84.4,6.76-1.67,6.79-1.69a.5.5,0,0,1,.48.88A16.24,16.24,0,0,1,207.65,327.59Z"/><path class="cls-3" d="M253.63,269.75a1,1,0,0,1-.86-1.5c3.38-5.83,15.63-11.91,16.15-12.17a1,1,0,1,1,.88,1.79c-.12.06-12.23,6.08-15.3,11.38A1,1,0,0,1,253.63,269.75Z"/><path class="cls-4" d="M255.14,252.45s-11.28-27.91-45.85-29.25c-25,1-34.22-3.5-34.22-3.5S214,274.31,255.14,252.45Z"/><path class="cls-3" d="M253.43,252.75a1,1,0,0,1-.64-.23c-.1-.09-10.81-8.71-33.43-14A171.14,171.14,0,0,1,179.88,224a1,1,0,0,1-.39-1.36,1,1,0,0,1,1.36-.39,168.87,168.87,0,0,0,39,14.28c23.12,5.45,33.8,14.08,34.24,14.45a1,1,0,0,1,.14,1.4A1,1,0,0,1,253.43,252.75Z"/><path class="cls-3" d="M230.23,255.91a.5.5,0,0,1-.34-.13.49.49,0,0,1,0-.7,25.22,25.22,0,0,1,16.63-8.21.5.5,0,1,1,0,1,24.67,24.67,0,0,0-15.92,7.88A.49.49,0,0,1,230.23,255.91Z"/><path class="cls-3" d="M238.34,244a.5.5,0,0,1-.33-.13c-.31-.27-7.65-6.86-9.6-13.14a.5.5,0,1,1,1-.3c1.86,6,9.23,12.63,9.31,12.7a.5.5,0,0,1,0,.7A.52.52,0,0,1,238.34,244Z"/><path class="cls-3" d="M211.07,248.16a.5.5,0,0,1-.26-.08.5.5,0,0,1-.17-.68,21.71,21.71,0,0,1,13-9.33.5.5,0,1,1,.21,1c-.08,0-8.06,1.8-12.36,8.88A.52.52,0,0,1,211.07,248.16Z"/><path class="cls-3" d="M215.24,237.07A.46.46,0,0,1,215,237c-.4-.26-9.57-6.45-9.41-10.86a.47.47,0,0,1,.52-.48.5.5,0,0,1,.48.52c-.12,3.2,6.43,8.3,9,10a.5.5,0,0,1,.14.69A.51.51,0,0,1,215.24,237.07Z"/><path class="cls-3" d="M193.5,237.33a.49.49,0,0,1-.35-.14.5.5,0,0,1,0-.71c3.13-3.2,8.66-4.48,8.89-4.54a.5.5,0,1,1,.22,1s-5.47,1.28-8.4,4.26A.51.51,0,0,1,193.5,237.33Z"/><path class="cls-3" d="M193.89,229.84a.51.51,0,0,1-.36-.15c-.12-.12-2.8-2.95-3.15-5.64a.5.5,0,0,1,.43-.56.51.51,0,0,1,.56.43c.31,2.36,2.85,5.05,2.88,5.07a.5.5,0,0,1,0,.71A.49.49,0,0,1,193.89,229.84Z"/><path class="cls-3" d="M257.11,256.92a1,1,0,0,1-.9-.55c0-.08-1.79-3.45-7-6.2a1,1,0,0,1-.42-1.35,1,1,0,0,1,1.35-.42c5.9,3.09,7.83,6.92,7.91,7.08a1,1,0,0,1-.46,1.34A1,1,0,0,1,257.11,256.92Z"/><path class="cls-1" d="M297.75,260.38s-33.59,13.23-35.57,54.67c.95,30-4.57,41-4.57,41S323.52,309.91,297.75,260.38Z"/><path class="cls-3" d="M261.78,350.73a1,1,0,0,1-.87-1.49,202.34,202.34,0,0,0,17.56-46.63c6.77-27.62,17.21-40.3,17.65-40.83a1,1,0,0,1,1.54,1.29c-.11.12-10.6,12.9-17.24,40a204.69,204.69,0,0,1-17.77,47.13A1,1,0,0,1,261.78,350.73Z"/><path class="cls-3" d="M301,290.78a.47.47,0,0,1-.34-.13,30.71,30.71,0,0,1-9.64-20,.5.5,0,0,1,.49-.51.47.47,0,0,1,.51.49,29.67,29.67,0,0,0,9.32,19.25.49.49,0,0,1,0,.7A.48.48,0,0,1,301,290.78Z"/><path class="cls-3" d="M271.23,292.12a.48.48,0,0,1-.47-.35.5.5,0,0,1,.33-.62c7.26-2.18,15.28-11,15.37-11.06a.5.5,0,0,1,.74.67c-.34.37-8.3,9.08-15.82,11.34A.39.39,0,0,1,271.23,292.12Z"/><path class="cls-3" d="M291.53,313.67a.54.54,0,0,1-.27-.07c-8.86-5.49-10.92-15.23-11-15.64a.51.51,0,0,1,.39-.59.5.5,0,0,1,.59.39c0,.1,2.07,9.73,10.55,15a.5.5,0,0,1,.16.69A.49.49,0,0,1,291.53,313.67Z"/><path class="cls-3" d="M265.82,319.45h-.17a.5.5,0,0,1-.48-.52.47.47,0,0,1,.52-.48c4.71.18,12.1-10.57,12.17-10.68a.5.5,0,0,1,.83.56C278.37,308.79,271,319.45,265.82,319.45Z"/><path class="cls-3" d="M278.36,334.62a.52.52,0,0,1-.35-.14c-3.79-3.77-5.26-10.39-5.32-10.67a.5.5,0,1,1,1-.21c0,.07,1.48,6.61,5,10.17a.48.48,0,0,1,0,.7A.47.47,0,0,1,278.36,334.62Z"/><path class="cls-3" d="M262.93,337.64a.51.51,0,0,1-.5-.44.5.5,0,0,1,.43-.56c2.87-.35,6.14-3.39,6.18-3.42a.5.5,0,1,1,.68.72c-.14.14-3.54,3.3-6.73,3.69Z"/><path class="cls-3" d="M293.9,268a1,1,0,0,1-.88-1.47c3.73-7,8.29-9.23,8.49-9.32a1,1,0,1,1,.86,1.8h0s-4.19,2.1-7.59,8.46A1,1,0,0,1,293.9,268Z"/><path class="cls-3" d="M203.55,274a1,1,0,0,1-.24-2c3.62-.9,16.69-9.1,23.09-13.3a1,1,0,1,1,1.1,1.67c-.77.5-18.85,12.36-23.7,13.57Z"/><path class="cls-1" d="M219.82,264.29s-24.64-10.49-51.15,28.31c-5,8.29-7.89,14.21-7.89,14.21S218.68,272.7,219.82,264.29Z"/><path class="cls-6" d="M219.82,264.29h0c-1.14,8.41-59,42.52-59,42.52s.56-1.15,1.61-3.15C183.3,294.53,203,279.49,219.82,264.29Z"/><path class="cls-3" d="M212.88,270.89a.47.47,0,0,1-.25-.07,21.92,21.92,0,0,0-14.12-2,.51.51,0,0,1-.59-.39.49.49,0,0,1,.38-.59A22.46,22.46,0,0,1,213.13,270a.5.5,0,0,1-.25.93Z"/><path class="cls-3" d="M199.93,281.83a.54.54,0,0,1-.22-.05c-.08,0-8.37-4-13.37-2.68a.5.5,0,0,1-.61-.36.5.5,0,0,1,.35-.61c5.36-1.43,13.71,2.58,14.07,2.75a.51.51,0,0,1,.23.67A.52.52,0,0,1,199.93,281.83Z"/><path class="cls-3" d="M173.72,292.75a.48.48,0,0,1-.45-.28.5.5,0,0,1,.23-.67c4.88-2.31,10.64-.46,10.88-.38a.49.49,0,0,1,.32.63.5.5,0,0,1-.63.32s-5.63-1.8-10.14.33A.41.41,0,0,1,173.72,292.75Z"/><path class="cls-1" d="M120.46,46.17s-34.59-24.82-76.92-.29C14.38,66,0,67.57,0,67.57S87.87,103.38,120.46,46.17Z"/><path class="cls-2" d="M119.9,47.11c-8.59,1.25-16.85-.32-25.43.84C63.56,52.36,31.51,70.56.94,67.42c-.62.12-.94.15-.94.15S86.87,103,119.9,47.11Z"/><path class="cls-3" d="M8.92,68.67a1,1,0,0,1-1-.94,1,1,0,0,1,.94-1.06c.26,0,26.18-1.6,57.48-12.42C98,43.3,117.21,45.53,118,45.63a1,1,0,1,1-.25,2c-.19,0-19.59-2.26-50.76,8.52C35.42,67.05,9.24,68.66,9,68.67Z"/><path class="cls-3" d="M92.93,69.05h-.09a.49.49,0,0,1-.4-.58A36.11,36.11,0,0,1,106,46.21a.5.5,0,1,1,.56.83,35.15,35.15,0,0,0-13.16,21.6A.49.49,0,0,1,92.93,69.05Z"/><path class="cls-3" d="M93.61,48.67h-.08c-.58-.1-14.28-2.41-21.31-8.4a.51.51,0,0,1-.06-.71.5.5,0,0,1,.71,0c6.82,5.81,20.68,8.15,20.82,8.17a.5.5,0,0,1-.08,1Z"/><path class="cls-3" d="M64.17,74.27a.49.49,0,0,1-.5-.49C63.44,61.52,72,53,72.1,52.94a.5.5,0,0,1,.7.71c-.09.09-8.35,8.3-8.13,20.11a.52.52,0,0,1-.49.51Z"/><path class="cls-3" d="M60.77,57.86h0c-.66,0-16.19-.47-19.27-5.77a.5.5,0,1,1,.86-.5c2.81,4.82,18.28,5.26,18.44,5.27a.5.5,0,0,1,.49.51A.51.51,0,0,1,60.77,57.86Z"/><path class="cls-3" d="M35,74.62l-.11,0A.49.49,0,0,1,34.5,74C35.81,67.88,41.4,62.2,41.64,62a.5.5,0,0,1,.71.71c-.06,0-5.62,5.71-6.87,11.55A.51.51,0,0,1,35,74.62Z"/><path class="cls-3" d="M29.78,65.37l-.12,0c-.22,0-5.5-1.39-7.92-4.28a.5.5,0,0,1,.07-.7.49.49,0,0,1,.7.06c2.21,2.64,7.34,3.94,7.39,3.95a.5.5,0,0,1-.12,1Z"/><path class="cls-3" d="M125.44,49.84a1,1,0,0,1-.52-.15h0s-4.8-2.85-13.35-2.14a1,1,0,1,1-.16-2c9.25-.77,14.34,2.29,14.55,2.42a1,1,0,0,1-.52,1.86Z"/><path class="cls-4" d="M98.35,106.54s15.76,24.11-16.93,47.64C81.42,154.18,65.48,126,98.35,106.54Z"/><path class="cls-5" d="M98.35,106.54c-31.7,18.74-18,45.65-17,47.53,6.06-15.64,11-31.46,17.42-46.79C98.52,106.8,98.35,106.54,98.35,106.54Z"/><path class="cls-6" d="M82.34,149.49s16.8-34.77,16-42.95Z"/><path class="cls-3" d="M96.48,119.06h-.07A1.51,1.51,0,0,1,95,117.49c1.16-25.12,39.18-84.88,40.8-87.41a1.5,1.5,0,1,1,2.52,1.62c-.39.61-39.2,61.6-40.32,85.93A1.5,1.5,0,0,1,96.48,119.06Z"/><path class="cls-7" d="M117.78,74.46s-12.89,33.42,16.06,62.71C156.43,156.65,160.73,168,160.73,168S171.28,88.88,117.78,74.46Z"/><path class="cls-4" d="M146.56,134c-8.8-19.1-21.16-35.73-29.37-55.44a4.25,4.25,0,0,1-.16-1.72c-2.28,8.12-7.55,35.69,16.81,60.34C156.43,156.65,160.73,168,160.73,168s.08-.58.18-1.64A85.54,85.54,0,0,0,149.74,143C148.49,140.58,147.81,136.37,146.56,134Z"/><path class="cls-3" d="M158.92,161.75a1,1,0,0,1-.95-.7,201.59,201.59,0,0,0-22.28-44.14c-15.64-23.5-17.89-39.65-18-40.32a1,1,0,1,1,2-.26c0,.16,2.31,16.4,17.67,39.47a202.61,202.61,0,0,1,22.51,44.64,1,1,0,0,1-.64,1.26A1.12,1.12,0,0,1,158.92,161.75Z"/><path class="cls-3" d="M139.54,92.73a30.47,30.47,0,0,1-18.72-6.46.51.51,0,0,1,0-.71.49.49,0,0,1,.7,0,29.46,29.46,0,0,0,20.32,6.12.5.5,0,0,1,.54.46.51.51,0,0,1-.46.54Q140.7,92.73,139.54,92.73Z"/><path class="cls-3" d="M122.81,115.32a.54.54,0,0,1-.22,0,.5.5,0,0,1-.23-.67c3.28-6.77,2.25-18.54,2.24-18.65a.5.5,0,0,1,.45-.55.5.5,0,0,1,.54.46c0,.49,1.07,12.16-2.33,19.17A.51.51,0,0,1,122.81,115.32Z"/><path class="cls-3" d="M146.14,115.78a26.43,26.43,0,0,1-12.64-3.3.5.5,0,0,1-.17-.69.51.51,0,0,1,.69-.17c.08,0,8.49,5,18,2.36a.49.49,0,0,1,.61.34.5.5,0,0,1-.34.62A23,23,0,0,1,146.14,115.78Z"/><path class="cls-3" d="M139,137.73a.51.51,0,0,1-.36-.15.49.49,0,0,1,0-.7c2.73-2.72,1.19-12.52.36-16.06a.5.5,0,0,1,.38-.6.49.49,0,0,1,.6.37c.12.54,3.05,13.33-.64,17A.54.54,0,0,1,139,137.73Z"/><path class="cls-3" d="M158.14,138.66c-5.15,0-10.6-3.14-10.84-3.28a.51.51,0,0,1-.18-.69.51.51,0,0,1,.69-.18c.05,0,5.8,3.34,10.81,3.14a.5.5,0,1,1,0,1Z"/><path class="cls-3" d="M150.49,152a.55.55,0,0,1-.3-.09.51.51,0,0,1-.11-.7c1.67-2.34,1.64-6.76,1.64-6.8a.5.5,0,0,1,.49-.51h0a.5.5,0,0,1,.5.49c0,.2,0,4.8-1.83,7.4A.48.48,0,0,1,150.49,152Z"/><path class="cls-3" d="M120.45,84a1,1,0,0,1-.84-.46c-3.61-5.69-3.34-19.37-3.33-20a1,1,0,0,1,1-1,1,1,0,0,1,1,1c0,.13-.27,13.65,3,18.83a1,1,0,0,1-.31,1.38A1,1,0,0,1,120.45,84Z"/><path class="cls-4" d="M106.69,74.12s-30-2.89-47.13,27.14C48.88,123.94,40.64,130,40.64,130S107.08,120.68,106.69,74.12Z"/><path class="cls-3" d="M46.13,127.88a1,1,0,0,1-.55-1.84A169.23,169.23,0,0,0,76.25,98.09c15.52-18,28.11-23.47,28.64-23.7a1,1,0,0,1,1.31.53,1,1,0,0,1-.53,1.31c-.12.06-12.73,5.57-27.91,23.16a170.78,170.78,0,0,1-31.08,28.32A1,1,0,0,1,46.13,127.88Z"/><path class="cls-3" d="M97.81,98.08a.48.48,0,0,1-.47-.33,25.18,25.18,0,0,1,.41-18.54.49.49,0,0,1,.66-.23.5.5,0,0,1,.24.67,24.64,24.64,0,0,0-.37,17.76.5.5,0,0,1-.3.64Z"/><path class="cls-3" d="M78,88a16.51,16.51,0,0,1-2.94-.24.5.5,0,1,1,.18-1c6.19,1.12,15.46-2.36,15.56-2.39a.5.5,0,0,1,.64.29.49.49,0,0,1-.29.64C90.83,85.47,84,88,78,88Z"/><path class="cls-3" d="M82.07,111.49a.51.51,0,0,1-.43-.25A21.72,21.72,0,0,1,79.38,95.4a.5.5,0,0,1,.62-.35.5.5,0,0,1,.35.61c0,.08-2.14,8,2.15,15.07a.51.51,0,0,1-.43.76Z"/><path class="cls-3" d="M62.83,106.44a4.86,4.86,0,0,1-2.4-.52.51.51,0,0,1-.19-.69.49.49,0,0,1,.68-.18c2.78,1.58,10.33-1.87,13-3.33a.5.5,0,0,1,.48.88C74.06,102.78,67.32,106.44,62.83,106.44Z"/><path class="cls-3" d="M64.35,122.06a.49.49,0,0,1-.47-.34c-1.39-4.26,0-9.76.08-10a.5.5,0,0,1,1,.25c0,.06-1.4,5.45-.1,9.42a.52.52,0,0,1-.32.64Z"/><path class="cls-3" d="M54.06,118.8a7.63,7.63,0,0,1-2.49-.37.5.5,0,0,1-.29-.65.5.5,0,0,1,.64-.29c2.24.81,5.79-.2,5.83-.21a.5.5,0,0,1,.62.34.51.51,0,0,1-.34.62A16.19,16.19,0,0,1,54.06,118.8Z"/><path class="cls-3" d="M101.34,78.54a1,1,0,0,1-.57-1.82c5.47-3.81,9.77-3.74,9.94-3.74a1,1,0,0,1,1,1,1,1,0,0,1-1,1h0s-3.85,0-8.75,3.38A1,1,0,0,1,101.34,78.54Z"/><path class="cls-1" d="M133.42,40s-3.8,35.9,32,56.82c27.08,13,34.24,23,34.24,23S189.25,40,133.42,40Z"/><path class="cls-3" d="M196,114.2a1,1,0,0,1-.84-.46A202.67,202.67,0,0,0,162,76.62c-21.37-18.77-27.78-33.89-28.05-34.53a1,1,0,0,1,.54-1.3,1,1,0,0,1,1.31.54c.06.15,6.54,15.35,27.52,33.79a205.14,205.14,0,0,1,33.59,37.53,1,1,0,0,1-.3,1.39A1.09,1.09,0,0,1,196,114.2Z"/><path class="cls-3" d="M151.48,53.12a29.8,29.8,0,0,1-12-2.42.5.5,0,1,1,.44-.9,29.71,29.71,0,0,0,21.38.64.5.5,0,1,1,.33.94A30.15,30.15,0,0,1,151.48,53.12Z"/><path class="cls-3" d="M148.87,78.46h-.09a.49.49,0,0,1-.4-.58c1.42-7.45-2.66-18.63-2.7-18.74a.49.49,0,0,1,.29-.64.5.5,0,0,1,.65.29c.17.47,4.21,11.55,2.74,19.27A.5.5,0,0,1,148.87,78.46Z"/><path class="cls-3" d="M165.07,73.66a24.88,24.88,0,0,1-6.41-.78.49.49,0,0,1-.34-.61.51.51,0,0,1,.62-.35c.09,0,9.58,2.67,18.16-2.43a.51.51,0,0,1,.69.18.49.49,0,0,1-.18.68A24.44,24.44,0,0,1,165.07,73.66Z"/><path class="cls-3" d="M170.53,96a.45.45,0,0,1-.25-.07.5.5,0,0,1-.19-.68c2-3.36-2.11-12.49-3.84-15.73a.49.49,0,0,1,.2-.67.51.51,0,0,1,.68.2c.27.5,6.46,12.17,3.83,16.7A.5.5,0,0,1,170.53,96Z"/><path class="cls-3" d="M185,92.44a29.43,29.43,0,0,1-6.93-.89.5.5,0,0,1-.35-.61.49.49,0,0,1,.62-.35c.06,0,6.54,1.74,11.35.22a.49.49,0,0,1,.62.32.5.5,0,0,1-.32.63A16.61,16.61,0,0,1,185,92.44Z"/><path class="cls-3" d="M185.39,106.86l-.18,0a.49.49,0,0,1-.29-.64c1-2.72-.17-7-.19-7.06a.5.5,0,0,1,1-.27c.05.19,1.28,4.66.16,7.68A.51.51,0,0,1,185.39,106.86Z"/><path class="cls-3" d="M137.46,47.45a1,1,0,0,1-.82-.43c-4.47-6.55-4.35-11.62-4.34-11.84a1,1,0,0,1,1-1h0a1,1,0,0,1,1,1c0,.07-.07,4.7,4,10.64a1,1,0,0,1-.26,1.39A1,1,0,0,1,137.46,47.45Z"/><path class="cls-3" d="M101.11,130.39l-.24,0a1,1,0,0,1-.74-1.21c.88-3.63-.35-19-1.12-26.62a1,1,0,1,1,2-.21c.09.92,2.25,22.44,1.08,27.3A1,1,0,0,1,101.11,130.39Z"/><path class="cls-1" d="M100.87,110.91s-20.7,17,1.46,58.45c5,8.29,9,13.56,9,13.56S107.8,115.81,100.87,110.91Z"/><path class="cls-6" d="M100.87,110.91h0c6.93,4.9,10.41,72,10.41,72s-.76-1-2-2.88C110.8,157.28,106.55,132.9,100.87,110.91Z"/><path class="cls-3" d="M94.55,132.27l-.14,0a.5.5,0,0,1-.34-.62,22.49,22.49,0,0,1,8.73-12.17.51.51,0,0,1,.69.16.5.5,0,0,1-.15.69A21.8,21.8,0,0,0,95,131.9.5.5,0,0,1,94.55,132.27Z"/><path class="cls-3" d="M98,147.84h-.11a.5.5,0,0,1-.38-.6c1.22-5.41,8.63-11,8.94-11.2a.51.51,0,0,1,.7.1.5.5,0,0,1-.1.7c-.08.06-7.43,5.57-8.56,10.62A.5.5,0,0,1,98,147.84Z"/><path class="cls-3" d="M104.35,165.22h0a.5.5,0,0,1-.48-.52c.21-5.39,4.51-9.64,4.69-9.82a.5.5,0,0,1,.71,0,.49.49,0,0,1,0,.7s-4.2,4.16-4.39,9.15A.5.5,0,0,1,104.35,165.22Z"/><path class="cls-1" d="M156.84,525.64s32.73-27.24,19.63-74.38c-12.17-33.29-10-47.6-10-47.6S109.67,479.7,156.84,525.64Z"/><path class="cls-2" d="M156.07,524.85c1-8.62,4.55-16.23,5.58-24.81,3.51-31-6-66.63,4.69-95.43,0-.63.09-.95.09-.95S110.32,478.84,156.07,524.85Z"/><path class="cls-3" d="M157.05,524a1,1,0,0,1-.37-.07,1,1,0,0,1-.56-1.3c.07-.18,7.11-18.39,4.52-51.28-2.62-33.3,2.41-59.05,2.47-59.3a1,1,0,0,1,1.17-.79,1,1,0,0,1,.79,1.18,239.26,239.26,0,0,0-2.43,58.76c2.63,33.4-4.36,51.42-4.66,52.17A1,1,0,0,1,157.05,524Z"/><path class="cls-3" d="M160,512.32a.5.5,0,0,1-.47-.34,35,35,0,0,0-17.59-18.16.52.52,0,0,1-.25-.67.5.5,0,0,1,.66-.24,36.19,36.19,0,0,1,18.13,18.74.51.51,0,0,1-.31.64A.47.47,0,0,1,160,512.32Z"/><path class="cls-3" d="M161.66,499.65a.53.53,0,0,1-.2,0,.5.5,0,0,1-.25-.66c.24-.53,5.92-13.21,13.49-18.51a.51.51,0,0,1,.7.12.5.5,0,0,1-.13.7c-7.34,5.14-13.09,18-13.15,18.1A.49.49,0,0,1,161.66,499.65Z"/><path class="cls-3" d="M162,477.87a.5.5,0,0,1-.43-.25c-.06-.1-5.93-10.16-17.41-12.92a.5.5,0,0,1,.23-1c11.91,2.87,18,13.3,18.05,13.4a.52.52,0,0,1-.19.69A.54.54,0,0,1,162,477.87Z"/><path class="cls-3" d="M161,465.55l-.14,0a.5.5,0,0,1-.34-.62c.18-.63,4.53-15.56,10.43-17.21a.5.5,0,1,1,.27,1c-5.37,1.51-9.7,16.38-9.74,16.53A.49.49,0,0,1,161,465.55Z"/><path class="cls-3" d="M161,446.13a.51.51,0,0,1-.43-.25c0-.07-4.11-6.87-9.45-9.55a.5.5,0,1,1,.45-.89c5.6,2.81,9.69,9.64,9.86,9.93a.51.51,0,0,1-.17.69A.48.48,0,0,1,161,446.13Z"/><path class="cls-3" d="M161.55,433.67a.53.53,0,0,1-.24-.06.51.51,0,0,1-.2-.68c.11-.2,2.73-5,6.14-6.58a.49.49,0,0,1,.66.23.5.5,0,0,1-.23.67c-3.12,1.47-5.66,6.11-5.69,6.16A.51.51,0,0,1,161.55,433.67Z"/><path class="cls-3" d="M153,530.78a1,1,0,0,1-.72-.3,1,1,0,0,1,0-1.42c.06,0,4-3.94,5.42-12.37a1,1,0,1,1,2,.34c-1.59,9.15-5.83,13.3-6,13.48A1,1,0,0,1,153,530.78Z"/><path class="cls-4" d="M104,489.05s-27.31,9.19-41.86-28.36C62.12,460.69,93.44,452.36,104,489.05Z"/><path class="cls-5" d="M104,489.05c-10.17-35.39-39.66-28.9-41.74-28.39,13.62,9.79,27.69,18.58,40.91,28.62C103.68,489.15,104,489.05,104,489.05Z"/><path class="cls-6" d="M66.43,462.75s29.43,25,37.55,26.3Z"/><path class="cls-3" d="M167.46,547a1.54,1.54,0,0,1-1.1-.48c-.49-.54-49.76-53.45-73-60.65a1.5,1.5,0,0,1,.88-2.86c24,7.44,72.3,59.26,74.34,61.47a1.5,1.5,0,0,1-1.1,2.52Z"/><path class="cls-7" d="M130.14,515.93S101,495.05,65.41,515.7C40.87,532.66,28.77,534,28.77,534S102.72,564.08,130.14,515.93Z"/><path class="cls-4" d="M65.28,528.8c20.7-3.7,39.9-11.49,61.05-14.47a4.29,4.29,0,0,1,1.7.27c-7.28-4.25-32.65-16.28-62.62,1.1C40.87,532.66,28.77,534,28.77,534l1.54.59a86,86,0,0,0,25.49-4.92C58.42,529,62.66,529.41,65.28,528.8Z"/><path class="cls-3" d="M36.28,535a1,1,0,0,1-1-.94,1,1,0,0,1,.94-1.06,200.94,200.94,0,0,0,48.33-10.45c26.67-9.23,42.87-7.35,43.55-7.27a1,1,0,0,1-.25,2c-.16,0-16.46-1.89-42.65,7.17A203.43,203.43,0,0,1,36.33,535Z"/><path class="cls-3" d="M107,535.27h-.09a.51.51,0,0,1-.41-.58,30.51,30.51,0,0,1,11.46-18.78.51.51,0,0,1,.7.14.5.5,0,0,1-.14.69,29.46,29.46,0,0,0-11,18.13A.51.51,0,0,1,107,535.27Z"/><path class="cls-3" d="M107.55,518.11h-.09c-.49-.08-12-2-18-7.09a.49.49,0,0,1-.06-.7.51.51,0,0,1,.71-.06c5.72,4.88,17.37,6.84,17.49,6.86a.51.51,0,0,1,.41.58A.49.49,0,0,1,107.55,518.11Z"/><path class="cls-3" d="M82.77,539.66a.5.5,0,0,1-.5-.49c-.19-10.34,6.82-17.3,7.11-17.59a.5.5,0,0,1,.71,0,.49.49,0,0,1,0,.7c-.07.07-7,7-6.81,16.86a.5.5,0,0,1-.49.51Z"/><path class="cls-3" d="M79.91,525.85h0c-.55,0-13.67-.39-16.29-4.89a.5.5,0,0,1,.87-.5c1.94,3.33,11.81,4.3,15.45,4.39a.51.51,0,0,1,.49.52A.5.5,0,0,1,79.91,525.85Z"/><path class="cls-3" d="M58.22,540h-.11a.49.49,0,0,1-.38-.59c1.1-5.19,5.82-10,6-10.18a.5.5,0,0,1,.71.7s-4.71,4.79-5.75,9.68A.51.51,0,0,1,58.22,540Z"/><path class="cls-3" d="M53.83,532.18h-.12c-.19,0-4.65-1.18-6.7-3.63a.51.51,0,0,1,.06-.71.5.5,0,0,1,.71.07c1.83,2.2,6.13,3.28,6.17,3.29a.51.51,0,0,1,.37.61A.5.5,0,0,1,53.83,532.18Z"/><path class="cls-3" d="M140.77,519.17a1,1,0,0,1-.28,0c-.13,0-13.14-3.69-19-1.81a1,1,0,0,1-.61-1.91c6.41-2.06,19.58,1.64,20.14,1.8a1,1,0,0,1-.27,2Z"/><path class="cls-4" d="M133.25,505.28s10.34-28.27-14.41-52.45c-19.26-16-23-25.53-23-25.53S88.1,494,133.25,505.28Z"/><path class="cls-3" d="M132.45,504.61a1,1,0,0,1-1-.85c0-.14-2.18-13.72-15.39-32.84a171.2,171.2,0,0,1-19.59-37.2,1,1,0,0,1,1.89-.65,169.41,169.41,0,0,0,19.34,36.72c13.51,19.54,15.65,33.11,15.73,33.68a1,1,0,0,1-.84,1.13Z"/><path class="cls-3" d="M130.25,496.22a.49.49,0,0,1-.32-.12,24.64,24.64,0,0,0-17.1-4.82.53.53,0,0,1-.55-.45.51.51,0,0,1,.45-.55,25.23,25.23,0,0,1,17.85,5.06.51.51,0,0,1,0,.71A.49.49,0,0,1,130.25,496.22Z"/><path class="cls-3" d="M126.79,487.87a.5.5,0,0,1-.49-.44c0-.42-1.08-10.23,1.69-16.19a.5.5,0,1,1,.9.42c-2.65,5.71-1.61,15.56-1.6,15.66a.5.5,0,0,1-.44.55Z"/><path class="cls-3" d="M119.28,474.43a.45.45,0,0,1-.25-.07c-.07,0-7.19-4.08-15.12-1.7a.5.5,0,0,1-.29-1,21.67,21.67,0,0,1,15.91,1.8.5.5,0,0,1-.25.93Z"/><path class="cls-3" d="M114.3,467.25a.5.5,0,0,1-.49-.38c-.11-.46-2.77-11.2.31-14.36a.5.5,0,1,1,.71.69c-2.23,2.3-.79,10.47,0,13.42a.5.5,0,0,1-.36.61Z"/><path class="cls-3" d="M107.35,455.4a.53.53,0,0,1-.24-.06s-4.92-2.72-9.09-2.47a.51.51,0,0,1-.53-.47.5.5,0,0,1,.47-.53c4.46-.26,9.43,2.48,9.64,2.59a.5.5,0,0,1,.19.68A.49.49,0,0,1,107.35,455.4Z"/><path class="cls-3" d="M103.3,447.57a.5.5,0,0,1-.5-.49c0-.16-.1-4.06,1.44-6.29a.5.5,0,1,1,.82.57c-1.35,2-1.26,5.66-1.26,5.69a.51.51,0,0,1-.49.52Z"/><path class="cls-3" d="M132.38,510.18a1.26,1.26,0,0,1-.27,0,1,1,0,0,1-.69-1.24c0-.07,1-3.75-1.07-9.31a1,1,0,0,1,1.88-.69c2.31,6.25,1.16,10.38,1.11,10.55A1,1,0,0,1,132.38,510.18Z"/><path class="cls-1" d="M159.55,539.73s-33.79-12.7-63,16.71C77.07,579.37,65.64,583.8,65.64,583.8S145.47,593.76,159.55,539.73Z"/><path class="cls-3" d="M73,582.92a1,1,0,0,1-1-.69,1,1,0,0,1,.63-1.26,203.3,203.3,0,0,0,44.29-22.83c23.54-15.95,39.79-18.36,40.47-18.46a1,1,0,0,1,.27,2c-.16,0-16.51,2.47-39.62,18.14a204.61,204.61,0,0,1-44.78,23.06A.85.85,0,0,1,73,582.92Z"/><path class="cls-3" d="M141.94,564.62a.51.51,0,0,1-.5-.46,30.8,30.8,0,0,1,6.24-21.27.5.5,0,0,1,.76.66,29.61,29.61,0,0,0-6,20.53.5.5,0,0,1-.45.54Z"/><path class="cls-3" d="M132.9,548c-4.17,0-10-.42-14.18-2.41a.5.5,0,0,1,.42-.91c6.85,3.25,18.7,2.12,18.82,2.1a.5.5,0,0,1,.1,1C137.85,547.8,135.77,548,132.9,548Z"/><path class="cls-3" d="M119.54,575.23a.49.49,0,0,1-.48-.36c-2.89-10,2.1-18.62,2.32-19a.5.5,0,0,1,.86.51c0,.09-5,8.61-2.22,18.19a.49.49,0,0,1-.34.62Z"/><path class="cls-3" d="M103,563.85c-2.82,0-5.48-.44-6.87-1.81a.51.51,0,0,1,0-.71.5.5,0,0,1,.71,0c3.33,3.29,16.06.26,16.18.23a.51.51,0,0,1,.61.37.5.5,0,0,1-.37.6A50.39,50.39,0,0,1,103,563.85Z"/><path class="cls-3" d="M95.73,581.94a.49.49,0,0,1-.5-.47c-.28-5.33,3.06-11.23,3.2-11.48a.49.49,0,0,1,.68-.18.5.5,0,0,1,.19.68c0,.06-3.34,5.89-3.07,10.93a.5.5,0,0,1-.48.52Z"/><path class="cls-3" d="M89.28,575.52c-.84,0-4.91-.09-7.31-1.77a.5.5,0,0,1-.12-.7.49.49,0,0,1,.69-.12c2.37,1.66,6.83,1.59,6.88,1.59a.51.51,0,0,1,.51.49.5.5,0,0,1-.49.51Z"/><path class="cls-3" d="M152.29,543a1,1,0,0,1-.34-1.94c7.46-2.68,12.35-1.28,12.55-1.22a1,1,0,0,1-.57,1.92h0s-4.51-1.26-11.3,1.18A1,1,0,0,1,152.29,543Z"/><path class="cls-3" d="M107.54,492.69h-.15c-.91-.14-22.28-3.47-26.69-5.82a1,1,0,0,1,.94-1.77c3.3,1.76,18.48,4.44,26.05,5.61a1,1,0,0,1-.15,2Z"/><path class="cls-1" d="M99.11,490.39S87.86,466.08,42.17,477.1c-9.28,2.79-15.37,5.26-15.37,5.26S92.62,495.86,99.11,490.39Z"/><path class="cls-6" d="M99.11,490.39h0c-6.49,5.47-72.31-8-72.31-8s1.18-.48,3.3-1.26C51.74,488.34,76.4,490.35,99.11,490.39Z"/><path class="cls-3" d="M89.87,490.76a.5.5,0,0,1-.48-.35,21.89,21.89,0,0,0-9.13-11,.5.5,0,0,1,.5-.87,22.51,22.51,0,0,1,9.59,11.52.51.51,0,0,1-.33.63Z"/><path class="cls-3" d="M72.92,490.19a.51.51,0,0,1-.46-.31c0-.09-3.52-8.59-8.12-10.95a.5.5,0,1,1,.46-.89c4.93,2.53,8.44,11.1,8.59,11.46a.5.5,0,0,1-.28.65A.41.41,0,0,1,72.92,490.19Z"/><path class="cls-3" d="M54.19,487.5a.5.5,0,0,1-.43-.25c0-.05-3-5.11-7.75-6.55a.5.5,0,0,1,.29-.95c5.16,1.55,8.2,6.78,8.33,7a.5.5,0,0,1-.19.68A.54.54,0,0,1,54.19,487.5Z"/><path class="cls-5" d="M180.78,363.49s-28.44,3.14-44.66-18.81C136.12,344.68,162.33,341.65,180.78,363.49Z"/><path class="cls-8" d="M136.42,344.65c14.21,6.1,23.45,10.78,39.7,17.15,1.28-.05,4.66,1.69,4.66,1.69C163.48,343,139.35,344.4,136.42,344.65Z"/><path class="cls-6" d="M180.78,363.49s-33.85-12-44.66-18.81Z"/><path class="cls-3" d="M284.77,386.76a1.37,1.37,0,0,1-.52-.1c-.72-.26-73.06-26.75-132.64-21.64a1.5,1.5,0,1,1-.25-3c60.25-5.18,133.2,21.55,133.94,21.82a1.5,1.5,0,0,1-.53,2.91Z"/><path class="cls-1" d="M252.49,389.18S241,429.44,193.42,436.43c-34.78,2.31-46.79,9.92-46.79,9.92S192.4,365,252.49,389.18Z"/><path class="cls-2" d="M252.46,389.17c-54.4-21.83-97.07,42.78-104.63,55.16,24.7-18,56.73-26.3,84.95-41.53C239.44,399.27,246.1,394,252.46,389.17Z"/><path class="cls-3" d="M153.44,441.82a1,1,0,0,1-.82-.43,1,1,0,0,1,.24-1.39,237.43,237.43,0,0,1,52.35-25.82c30.62-10.77,44.8-24.07,44.94-24.2a1,1,0,0,1,1.38,1.45c-.14.13-14.59,13.71-45.65,24.63-30.74,10.81-51.66,25.43-51.87,25.58A1,1,0,0,1,153.44,441.82Z"/><path class="cls-3" d="M240.36,398a35.86,35.86,0,0,1-23.09-8.86.5.5,0,0,1,0-.71.5.5,0,0,1,.7,0A34.52,34.52,0,0,0,241.27,397a.5.5,0,0,1,.08,1S241,398,240.36,398Z"/><path class="cls-3" d="M219.43,423.82h-.09a.49.49,0,0,1-.4-.58c1.75-8.92,10.89-19.08,11.28-19.51a.5.5,0,0,1,.71,0,.49.49,0,0,1,0,.7c-.09.11-9.34,10.38-11,19A.49.49,0,0,1,219.43,423.82Z"/><path class="cls-3" d="M211.15,413.55h-.05c-.12,0-11.92-1.32-19.24-10.89a.5.5,0,0,1,.8-.61c7.06,9.24,18.43,10.5,18.54,10.51a.5.5,0,0,1,.45.55A.51.51,0,0,1,211.15,413.55Z"/><path class="cls-3" d="M188.52,433.34a.5.5,0,0,1-.49-.43c-.86-6,10.83-15.82,11.33-16.23a.49.49,0,0,1,.7.06.49.49,0,0,1-.06.7c-.12.1-11.77,9.91-11,15.33a.51.51,0,0,1-.42.57Z"/><path class="cls-3" d="M182.18,425.22h-.06c-.32,0-8.1-1-12.86-4.92a.49.49,0,0,1-.07-.7.49.49,0,0,1,.7-.07c4.54,3.74,12.27,4.69,12.35,4.7a.5.5,0,0,1,.44.55A.51.51,0,0,1,182.18,425.22Z"/><path class="cls-3" d="M167.84,438.57h0a.5.5,0,0,1-.49-.51c.09-3.71,3.34-8,3.48-8.14a.5.5,0,1,1,.79.61s-3.18,4.17-3.27,7.55A.49.49,0,0,1,167.84,438.57Z"/><path class="cls-3" d="M245.17,396.22a1,1,0,0,1-.75-.34,1,1,0,0,1,.09-1.41c10.63-9.28,24.49-15.28,24.63-15.34a1,1,0,1,1,.78,1.84c-.13,0-13.7,5.93-24.09,15A1,1,0,0,1,245.17,396.22Z"/><path class="cls-4" d="M235.41,365.77s-29.88-4-39.73-37.28c-5.21-24.56-11.86-32.35-11.86-32.35S246.47,320.46,235.41,365.77Z"/><path class="cls-7" d="M183.82,296.14a17.76,17.76,0,0,1,1.23,1.78c4.39,2.71,9.49,9.23,12.78,14.1,13.58,20.1,20.7,38,37.7,53.21C246,320.27,183.82,296.14,183.82,296.14Z"/><path class="cls-3" d="M234.31,365.28a1,1,0,0,1-.59-.19c-.46-.35-11.49-8.58-22.49-29.68a168.78,168.78,0,0,0-23.5-34.29,1,1,0,0,1,1.46-1.38A171.37,171.37,0,0,1,213,334.49c10.77,20.64,21.79,28.9,21.9,29a1,1,0,0,1-.59,1.81Z"/><path class="cls-3" d="M228.35,359.14a.49.49,0,0,1-.49-.39,25.19,25.19,0,0,1,3.86-18.17.5.5,0,0,1,.69-.15.51.51,0,0,1,.14.7,24.62,24.62,0,0,0-3.71,17.4.5.5,0,0,1-.38.6Z"/><path class="cls-3" d="M222.56,352.18a.46.46,0,0,1-.27-.09c-.09-.06-8.33-5.57-14.63-5.9a.49.49,0,0,1-.47-.52.47.47,0,0,1,.52-.48c6.58.34,14.79,5.84,15.14,6.07a.52.52,0,0,1,.13.7A.51.51,0,0,1,222.56,352.18Z"/><path class="cls-3" d="M214.17,339.24a.5.5,0,0,1-.5-.48,21.73,21.73,0,0,1,5.84-14.94.5.5,0,1,1,.71.7c-5.82,5.94-5.56,14.12-5.55,14.2a.51.51,0,0,1-.48.52Z"/><path class="cls-3" d="M210.13,331.47a.51.51,0,0,1-.33-.13c-2.27-2-8.84-7.14-11.92-6.23a.5.5,0,0,1-.28-1c4.26-1.25,12.51,6.13,12.87,6.44a.5.5,0,0,1,0,.71A.5.5,0,0,1,210.13,331.47Z"/><path class="cls-3" d="M202.88,319.78a.51.51,0,0,1-.5-.49c0-.24-.12-5.92,2.21-9.75a.49.49,0,0,1,.68-.17.5.5,0,0,1,.17.69c-2.17,3.57-2.06,9.15-2.06,9.21a.5.5,0,0,1-.49.51Z"/><path class="cls-3" d="M197.83,312.52a.53.53,0,0,1-.24-.06s-3.26-1.83-5.64-1.54a.5.5,0,0,1-.55-.44.5.5,0,0,1,.43-.56c2.69-.31,6.11,1.59,6.25,1.67a.49.49,0,0,1,.19.68A.5.5,0,0,1,197.83,312.52Z"/><path class="cls-3" d="M248.66,374.57a1,1,0,0,1-.47-.12c-.64-.35-15.69-8.62-19.58-14.43a1,1,0,0,1,.28-1.38,1,1,0,0,1,1.38.27c3.62,5.41,18.72,13.7,18.88,13.78a1,1,0,0,1-.49,1.88Z"/><path class="cls-4" d="M215,372.59s-27-3.36-43.26,23.35c-10.2,20.22-17.8,25.48-17.8,25.48S214.21,414.66,215,372.59Z"/><path class="cls-7" d="M154,421.42a14.74,14.74,0,0,0,1.48-1.27c4.45-1.35,10.41-5.86,14.4-9.35,16.48-14.4,26.83-28.39,45.16-37.71C213.73,414.71,154,421.42,154,421.42Z"/><path class="cls-3" d="M159,419.75a1,1,0,0,1-.53-1.85,152.63,152.63,0,0,0,28.38-24.48c14.48-15.88,26-20.52,26.5-20.71a1,1,0,0,1,1.29.56,1,1,0,0,1-.56,1.3c-.12,0-11.62,4.7-25.75,20.2a155,155,0,0,1-28.81,24.83A1,1,0,0,1,159,419.75Z"/><path class="cls-3" d="M206.41,394.07a.5.5,0,0,1-.48-.34,22.84,22.84,0,0,1,.84-16.78.5.5,0,1,1,.88.46,22.32,22.32,0,0,0-.77,16,.5.5,0,0,1-.31.63Z"/><path class="cls-3" d="M189.31,384.5a15.9,15.9,0,0,1-3.21-.3.52.52,0,0,1-.39-.6.5.5,0,0,1,.6-.38c5.55,1.17,14-1.74,14.09-1.77a.48.48,0,0,1,.63.31.5.5,0,0,1-.31.63A39.84,39.84,0,0,1,189.31,384.5Z"/><path class="cls-3" d="M191.86,405.79a.51.51,0,0,1-.43-.26,19.71,19.71,0,0,1-1.66-14.41.5.5,0,0,1,.63-.33.51.51,0,0,1,.33.63c0,.07-2.12,7.13,1.57,13.62a.51.51,0,0,1-.19.68A.59.59,0,0,1,191.86,405.79Z"/><path class="cls-3" d="M174.8,400.75a4.6,4.6,0,0,1-2.39-.54.5.5,0,0,1-.17-.69.51.51,0,0,1,.69-.17c2.46,1.49,9.34-1.43,11.78-2.68a.5.5,0,0,1,.46.89C184.86,397.72,178.87,400.75,174.8,400.75Z"/><path class="cls-3" d="M175.59,414.9a.51.51,0,0,1-.48-.36c-1.15-3.89.27-8.84.33-9a.49.49,0,0,1,.62-.34.5.5,0,0,1,.34.62s-1.4,4.87-.33,8.48a.5.5,0,0,1-.34.62Z"/><path class="cls-3" d="M166.65,411.7a7,7,0,0,1-2.54-.41.5.5,0,0,1-.28-.65.51.51,0,0,1,.65-.28c2,.79,5.21,0,5.24,0a.5.5,0,1,1,.25,1A14.31,14.31,0,0,1,166.65,411.7Z"/><path class="cls-3" d="M208.36,377.71a1,1,0,0,1-.75-.34,1,1,0,0,1,.09-1.41c4.74-4.19,19.8-7.93,20.44-8.09a1,1,0,1,1,.47,1.94c-.15,0-15.21,3.79-19.59,7.65A1,1,0,0,1,208.36,377.71Z"/><path class="cls-4" d="M272.54,377.46s-33.63-16.2-32.52-59.09c3.26-30.9-1.59-42.61-1.59-42.61S302.89,328.35,272.54,377.46Z"/><path class="cls-3" d="M271.81,376.28a1,1,0,0,1-.81-.41c-.42-.58-10.21-14.44-15.09-43.44A209.87,209.87,0,0,0,241.35,283a1,1,0,1,1,1.8-.86,211.62,211.62,0,0,1,14.73,50c4.79,28.49,14.64,42.46,14.74,42.6a1,1,0,0,1-.23,1.39A1,1,0,0,1,271.81,376.28Z"/><path class="cls-3" d="M266.94,366.87h0a.48.48,0,0,1-.45-.54,31.74,31.74,0,0,1,11.44-19.84.5.5,0,1,1,.63.78,30.64,30.64,0,0,0-11.08,19.15A.5.5,0,0,1,266.94,366.87Z"/><path class="cls-3" d="M262.8,356.45a.47.47,0,0,1-.39-.19c-.08-.1-7.69-9.77-15-12.57a.5.5,0,0,1-.29-.65.5.5,0,0,1,.64-.29c7.59,2.9,15.13,12.49,15.44,12.89a.51.51,0,0,1-.08.71A.5.5,0,0,1,262.8,356.45Z"/><path class="cls-3" d="M257.86,338l-.13,0a.51.51,0,0,1-.35-.62c.12-.41,3-10.29,12.53-15.27a.5.5,0,0,1,.46.88c-9.15,4.78-12,14.57-12,14.66A.5.5,0,0,1,257.86,338Z"/><path class="cls-3" d="M256.08,327.31a.49.49,0,0,1-.43-.24c-.07-.12-6.9-11.82-11.75-11.95a.5.5,0,0,1-.48-.52.49.49,0,0,1,.5-.48h0c5.4.15,12.3,11.94,12.59,12.44a.5.5,0,0,1-.44.75Z"/><path class="cls-3" d="M252,310.78a.39.39,0,0,1-.15,0,.5.5,0,0,1-.33-.62c.08-.28,2.11-7,6.29-10.58a.5.5,0,0,1,.65.76c-4,3.4-6,10-6,10.1A.49.49,0,0,1,252,310.78Z"/><path class="cls-3" d="M248.85,300.31a.5.5,0,0,1-.37-.16s-3.17-3.42-6.11-4a.5.5,0,0,1-.39-.59.5.5,0,0,1,.59-.39c3.26.65,6.51,4.16,6.65,4.31a.5.5,0,0,1,0,.71A.48.48,0,0,1,248.85,300.31Z"/><path class="cls-3" d="M280.78,384.74a1,1,0,0,1-.59-.2c-.45-.33-10.87-8.15-13.23-16.51a1,1,0,0,1,1.92-.55c2.18,7.71,12.4,15.38,12.5,15.46a1,1,0,0,1,.21,1.4A1,1,0,0,1,280.78,384.74Z"/><path class="cls-3" d="M214.3,368.25a1,1,0,0,1-.58-.19c-6.61-4.67-20.13-13.81-23.93-14.9a1,1,0,0,1,.55-1.92c5.08,1.45,23.74,14.63,24.53,15.19a1,1,0,0,1,.24,1.4A1,1,0,0,1,214.3,368.25Z"/><path class="cls-1" d="M206.94,362s-26.42,10.2-53-31.76c-5-8.94-7.81-15.29-7.81-15.29S206,353.11,206.94,362Z"/><path class="cls-6" d="M206.94,362h0c-.9-8.92-60.82-47-60.82-47s.54,1.23,1.58,3.37C169.46,328.76,189.66,345.36,206.94,362Z"/><path class="cls-3" d="M189.72,358.13a22.23,22.23,0,0,1-5.38-.65.5.5,0,0,1-.36-.61.49.49,0,0,1,.6-.36,23.15,23.15,0,0,0,15-1.61.5.5,0,0,1,.68.21.49.49,0,0,1-.21.67A23.6,23.6,0,0,1,189.72,358.13Z"/><path class="cls-3" d="M175,346.59a11.19,11.19,0,0,1-3.22-.43.5.5,0,0,1-.34-.62.5.5,0,0,1,.63-.34c5.24,1.6,14.15-2.3,14.24-2.34a.5.5,0,1,1,.4.91C186.43,343.91,180.31,346.59,175,346.59Z"/><path class="cls-3" d="M165.52,332.7a14.21,14.21,0,0,1-6.5-1.43.5.5,0,0,1,.46-.89c4.71,2.43,10.66.74,10.72.73a.49.49,0,0,1,.62.34.51.51,0,0,1-.34.62A19.68,19.68,0,0,1,165.52,332.7Z"/><path class="cls-3" d="M164.71,370.62c-.42,0-.78,0-1.09-.05a1,1,0,0,1-.88-1.11,1,1,0,0,1,1.11-.88c3.93.47,19.92-2.74,27.83-4.5a1,1,0,0,1,1.19.76,1,1,0,0,1-.76,1.19C191.22,366.23,171.41,370.62,164.71,370.62Z"/><path class="cls-4" d="M183.09,367s-20.43-19.61-61.17,8.82c-8.06,6.31-13.11,11.08-13.11,11.08S178.81,374.9,183.09,367Z"/><path class="cls-6" d="M183.09,367h0c-4.28,7.88-74.28,19.9-74.28,19.9s1-.92,2.77-2.5C135.67,383.23,160.72,375.72,183.09,367Z"/><path class="cls-3" d="M174,371a.51.51,0,0,1-.39-.19,23.15,23.15,0,0,0-13.22-7.28.5.5,0,0,1-.42-.57.51.51,0,0,1,.57-.42,23.8,23.8,0,0,1,13.85,7.64.5.5,0,0,1-.39.82Z"/><path class="cls-3" d="M157.05,376.9a.51.51,0,0,1-.37-.15c-.07-.07-6.78-7.11-12.23-7.67a.49.49,0,0,1-.44-.55.5.5,0,0,1,.55-.44c5.81.59,12.56,7.67,12.85,8a.49.49,0,0,1-.36.84Z"/><path class="cls-3" d="M137.57,381.46a.45.45,0,0,1-.31-.11s-4.9-3.88-10.17-3.47a.5.5,0,1,1-.08-1c5.66-.47,10.67,3.52,10.88,3.69a.5.5,0,0,1-.32.88Z"/><path class="cls-5" d="M182.32,183.75s-22.51,17.67-18.71,44.69C163.61,228.44,184.45,212.26,182.32,183.75Z"/><path class="cls-8" d="M163.84,228.26c5.88-14.3,9.19-24.11,16.33-40,1-.87,2.15-4.47,2.15-4.47C184.32,210.49,166.11,226.39,163.84,228.26Z"/><path class="cls-6" d="M182.32,183.75S166.56,216,163.61,228.44Z"/><path class="cls-3" d="M161.38,205.73a1.49,1.49,0,0,1-.95-2.65C206.54,165,239.63,95.44,240,94.74A1.5,1.5,0,1,1,242.67,96c-.33.7-33.7,70.87-80.33,109.37A1.5,1.5,0,0,1,161.38,205.73Z"/><path class="cls-1" d="M215.52,115.19s-36.38-20.72-75.26,7.63c-26.44,22.71-40.34,25.69-40.34,25.69S189.53,174.5,215.52,115.19Z"/><path class="cls-2" d="M215.51,115.22C192,168.9,116.25,152.66,102.18,149.11c30.26-4.42,58.92-21,89.74-29.84C199.14,117.13,207.57,116.21,215.51,115.22Z"/><path class="cls-3" d="M108.65,148.69a1,1,0,0,1-1-.84,1,1,0,0,1,.83-1.14,235.93,235.93,0,0,0,54.93-18.07c29.83-13.95,49.64-14.38,49.84-14.38h0a1,1,0,0,1,0,2c-.2,0-19.63.44-49,14.19a237.11,237.11,0,0,1-55.46,18.23Z"/><path class="cls-3" d="M190.9,140.41h0a.5.5,0,0,1-.46-.53,35.53,35.53,0,0,1,11-23.17.49.49,0,0,1,.7.06.51.51,0,0,1-.06.71A34.43,34.43,0,0,0,191.4,140,.5.5,0,0,1,190.9,140.41Z"/><path class="cls-3" d="M189.47,120.41h0c-.58,0-14.21-.88-21.71-6a.5.5,0,0,1,.56-.83c7.27,5,21.07,5.85,21.21,5.86a.5.5,0,0,1,.47.52A.51.51,0,0,1,189.47,120.41Z"/><path class="cls-3" d="M163.3,148.47a.5.5,0,0,1-.49-.44c-1.48-12,6-21.16,6.1-21.25a.51.51,0,0,1,.71-.06.49.49,0,0,1,.06.7c-.07.09-7.3,9-5.88,20.49a.5.5,0,0,1-.43.56Z"/><path class="cls-3" d="M153.84,132.93c-5,0-12.58-.57-15-3.82a.5.5,0,0,1,.11-.7.51.51,0,0,1,.7.11c3.23,4.42,18.41,3.27,18.56,3.25a.51.51,0,0,1,.54.46.5.5,0,0,1-.46.54C158.12,132.79,156.3,132.93,153.84,132.93Z"/><path class="cls-3" d="M134.81,151.81h-.06a.5.5,0,0,1-.44-.55c.65-6.14,5.53-12.26,5.74-12.52a.5.5,0,0,1,.7-.08.51.51,0,0,1,.08.71c-.05.06-4.91,6.16-5.53,12A.5.5,0,0,1,134.81,151.81Z"/><path class="cls-3" d="M128.76,143.31h-.07c-.22,0-5.52-.79-8.18-3.38a.5.5,0,1,1,.69-.71c2.43,2.35,7.58,3.09,7.63,3.1a.5.5,0,0,1-.07,1Z"/><path class="cls-3" d="M206.06,117a1,1,0,0,1-.05-2c13.78-.79,27.57-6.1,27.71-6.15a1,1,0,0,1,1.29.56,1,1,0,0,1-.57,1.3c-.14.05-14.23,5.47-28.32,6.29Z"/><path class="cls-4" d="M219.73,143.86s-18.5,23.82-2.27,54.44c13.49,21.18,14.19,31.39,14.19,31.39S259.35,168.46,219.73,143.86Z"/><path class="cls-7" d="M231.65,229.69a16.83,16.83,0,0,0-.36-2.13c1.23-5,.31-13.23-.75-19-4.39-23.85-11.86-41.63-10.35-64.38C259.12,169,231.65,229.69,231.65,229.69Z"/><path class="cls-3" d="M232,224.38a1,1,0,0,1-1-1,169.18,169.18,0,0,0-7.24-40.93c-6.92-22.77-4.82-36.37-4.73-36.94a1,1,0,0,1,2,.33c0,.13-2.11,13.75,4.66,36A171.23,171.23,0,0,1,233,223.36a1,1,0,0,1-1,1Z"/><path class="cls-3" d="M234.83,164.44h-.1a25.34,25.34,0,0,1-15.49-10.27.5.5,0,0,1,.17-.69.49.49,0,0,1,.68.16,24.73,24.73,0,0,0,14.85,9.83.5.5,0,0,1-.11,1Z"/><path class="cls-3" d="M214,178.11a.55.55,0,0,1-.34-.13.51.51,0,0,1,0-.71c4.27-4.64,6.29-14.35,6.31-14.45a.51.51,0,0,1,.59-.39.49.49,0,0,1,.39.59c-.08.41-2.09,10.08-6.55,14.93A.54.54,0,0,1,214,178.11Z"/><path class="cls-3" d="M237.75,184.94h0a21.71,21.71,0,0,1-14.62-6.57.5.5,0,0,1,0-.71.51.51,0,0,1,.71,0c0,.06,5.61,6.08,13.9,6.24a.5.5,0,0,1,.49.51A.49.49,0,0,1,237.75,184.94Z"/><path class="cls-3" d="M221.64,200.11a.52.52,0,0,1-.45-.26.51.51,0,0,1,.21-.68c2.84-1.51,4-9.75,4.15-12.79a.5.5,0,1,1,1,.06c0,.47-.78,11.53-4.68,13.61A.46.46,0,0,1,221.64,200.11Z"/><path class="cls-3" d="M237.22,205.6h-.12c-4.35-1.1-8.25-5.24-8.41-5.42a.49.49,0,0,1,0-.7.5.5,0,0,1,.71,0s3.86,4.1,7.92,5.13a.5.5,0,0,1,.36.61A.49.49,0,0,1,237.22,205.6Z"/><path class="cls-3" d="M227.42,214.35a.51.51,0,0,1-.4-.2.5.5,0,0,1,.09-.7c1.89-1.46,2.94-5,2.95-5a.5.5,0,0,1,.61-.34.51.51,0,0,1,.35.62c-.05.16-1.15,3.9-3.3,5.56A.5.5,0,0,1,227.42,214.35Z"/><path class="cls-3" d="M219.87,153.54a1,1,0,0,1-1-.82c-1.29-6.87,3.66-23.31,3.87-24a1,1,0,0,1,1.92.58c-.05.17-5,16.66-3.82,23a1,1,0,0,1-.8,1.17Z"/><path class="cls-4" d="M200.38,153.27s-16.92,21.3-47.22,13.63c-21.45-7.29-30.56-5.73-30.56-5.73S170.35,123.8,200.38,153.27Z"/><path class="cls-7" d="M122.6,161.17a16.66,16.66,0,0,1,2-.13c4.12-2.15,11.53-3.1,16.83-3.41,21.85-1.26,39,1.49,58.64-4.7C170,124.11,122.6,161.17,122.6,161.17Z"/><path class="cls-3" d="M128.07,160.55a1,1,0,0,1-.22-2,154.46,154.46,0,0,1,38-2.45c20.94,1.17,32.42-3.56,32.53-3.61a1,1,0,0,1,.78,1.84c-.47.2-12,5-33.42,3.77a152.11,152.11,0,0,0-37.4,2.4A.86.86,0,0,1,128.07,160.55Z"/><path class="cls-3" d="M191.6,156a.4.4,0,0,1-.15,0,22.84,22.84,0,0,1-12.35-11.39.5.5,0,0,1,.9-.44A22.24,22.24,0,0,0,191.76,155a.5.5,0,0,1-.16,1Z"/><path class="cls-3" d="M172,166a.46.46,0,0,1-.27-.09.49.49,0,0,1-.14-.69c3.3-5,11.36-8.79,11.7-9a.49.49,0,0,1,.66.23.5.5,0,0,1-.23.67c-.09,0-8.15,3.88-11.3,8.6A.51.51,0,0,1,172,166Z"/><path class="cls-3" d="M169.63,157.78a.53.53,0,0,1-.24-.06,19.65,19.65,0,0,1-8.91-11.44.5.5,0,0,1,1-.26c1.91,7.22,8.36,10.79,8.43,10.82a.51.51,0,0,1,.2.68A.5.5,0,0,1,169.63,157.78Z"/><path class="cls-3" d="M151.11,164l-.12,0a.49.49,0,0,1-.36-.6c1-3.9,10.55-6.92,11-7.05a.5.5,0,1,1,.3,1c-2.62.82-9.58,3.55-10.29,6.33A.5.5,0,0,1,151.11,164Z"/><path class="cls-3" d="M149.33,157.57a.55.55,0,0,1-.24-.07c-.19-.11-4.66-2.64-6.57-6.23a.5.5,0,0,1,.89-.47c1.76,3.33,6.12,5.8,6.17,5.83a.5.5,0,0,1,.19.68A.51.51,0,0,1,149.33,157.57Z"/><path class="cls-3" d="M137.4,162a.52.52,0,0,1-.21,0,.51.51,0,0,1-.25-.66c1-2.26,4.06-4,4.19-4.1a.5.5,0,0,1,.5.86s-2.91,1.69-3.77,3.64A.51.51,0,0,1,137.4,162Z"/><path class="cls-3" d="M192.75,156a1,1,0,0,1-1-.95,1,1,0,0,1,.94-1.05c5.84-.31,19.21-8.19,19.35-8.27a1,1,0,0,1,1,1.73c-.57.33-13.94,8.2-20.26,8.54Z"/><path class="cls-4" d="M238,109.52s-12.66,35.11,18.16,65c24,19.78,28.71,31.54,28.71,31.54S294.1,123.32,238,109.52Z"/><path class="cls-3" d="M282.86,199.46a1,1,0,0,1-.94-.67,209.93,209.93,0,0,0-24.22-45.48c-16.82-24.12-19.54-40.88-19.64-41.58a1,1,0,0,1,.83-1.14,1,1,0,0,1,1.14.84c0,.17,2.78,17,19.31,40.73a212.15,212.15,0,0,1,24.47,46,1,1,0,0,1-.62,1.27A1,1,0,0,1,282.86,199.46Z"/><path class="cls-3" d="M260.44,128a31.67,31.67,0,0,1-18.95-6.31.49.49,0,0,1-.06-.7.51.51,0,0,1,.71-.06,30.64,30.64,0,0,0,21.32,5.92.5.5,0,0,1,.1,1A30.48,30.48,0,0,1,260.44,128Z"/><path class="cls-3" d="M244.2,151.94a.52.52,0,0,1-.21,0,.51.51,0,0,1-.25-.67c3.27-7.13,1.93-19.36,1.91-19.48a.51.51,0,0,1,.44-.56.52.52,0,0,1,.56.44c0,.51,1.38,12.64-2,20A.49.49,0,0,1,244.2,151.94Z"/><path class="cls-3" d="M268,151.9a27.65,27.65,0,0,1-12.68-3.15.51.51,0,0,1-.18-.69.5.5,0,0,1,.68-.18c.09.05,9,5,18.85,2a.5.5,0,0,1,.63.34.5.5,0,0,1-.34.62A23.75,23.75,0,0,1,268,151.9Z"/><path class="cls-3" d="M261.61,174.92a.49.49,0,0,1-.34-.14.5.5,0,0,1,0-.71c3.37-3.49.06-16.62,0-16.75a.51.51,0,0,1,.36-.61.5.5,0,0,1,.61.36c.15.56,3.49,13.81-.27,17.7A.49.49,0,0,1,261.61,174.92Z"/><path class="cls-3" d="M281.25,175.46c-5.27,0-10.81-3-11.06-3.18a.51.51,0,0,1-.2-.68.5.5,0,0,1,.68-.19c.06,0,6.13,3.37,11.36,3a.52.52,0,0,1,.53.47.5.5,0,0,1-.47.53Z"/><path class="cls-3" d="M273.86,189.47a.6.6,0,0,1-.28-.08.51.51,0,0,1-.13-.7c1.69-2.48,1.56-7.09,1.56-7.14a.5.5,0,0,1,.48-.52.47.47,0,0,1,.52.49c0,.2.14,5-1.73,7.73A.5.5,0,0,1,273.86,189.47Z"/><path class="cls-3" d="M241.54,120.68a1,1,0,0,1-.88-.52c-4.17-7.63-2.21-20.51-2.12-21a1,1,0,1,1,2,.31c0,.12-2,12.75,1.89,19.78a1,1,0,0,1-.39,1.36A1.07,1.07,0,0,1,241.54,120.68Z"/><path class="cls-3" d="M196.85,186.3a1,1,0,0,1-.87-1.49c2-3.44,5.2-19.42,6.65-27.4a1,1,0,0,1,1.16-.8,1,1,0,0,1,.81,1.16c-.18,1-4.27,23.43-6.87,28A1,1,0,0,1,196.85,186.3Z"/><path class="cls-1" d="M202,166.47s-26,11.22-15.6,59.8c2.69,9.88,5.14,16.38,5.14,16.38S207.62,173.47,202,166.47Z"/><path class="cls-6" d="M202,166.47h0c5.61,7-10.46,76.18-10.46,76.18s-.48-1.26-1.24-3.52C198.56,216.47,201.35,190.46,202,166.47Z"/><path class="cls-3" d="M189.5,186.31a.53.53,0,0,1-.27-.08.51.51,0,0,1-.16-.69,23.69,23.69,0,0,1,12.41-9.79.5.5,0,0,1,.62.33.5.5,0,0,1-.34.63,23.15,23.15,0,0,0-11.84,9.36A.5.5,0,0,1,189.5,186.31Z"/><path class="cls-3" d="M188.49,203.14a.5.5,0,0,1-.24-.06.5.5,0,0,1-.2-.68c2.8-5.13,11.94-8.61,12.33-8.75a.5.5,0,1,1,.35.93c-.09,0-9.18,3.5-11.8,8.3A.51.51,0,0,1,188.49,203.14Z"/><path class="cls-3" d="M189.83,222.64a.41.41,0,0,1-.16,0,.5.5,0,0,1-.32-.63c1.78-5.41,7.38-8.47,7.62-8.6a.5.5,0,0,1,.68.21.49.49,0,0,1-.21.67c-.05,0-5.49,3-7.14,8A.49.49,0,0,1,189.83,222.64Z"/><path class="cls-3" d="M165.89,192.34a1,1,0,0,1-.78-1.63c3.31-4.11,22.69-16.2,23.52-16.71a1,1,0,1,1,1.05,1.69c-6.87,4.29-20.53,13.2-23,16.28A1,1,0,0,1,165.89,192.34Z"/><path class="cls-4" d="M181.5,179.6s-.85,28.31-49.84,36.55c-10.18,1.14-17.13,1.26-17.13,1.26S172.92,177,181.5,179.6Z"/><path class="cls-6" d="M181.5,179.6h0c-8.58-2.63-67,37.81-67,37.81s1.35,0,3.73-.14C136.29,201.25,159.43,189.06,181.5,179.6Z"/><path class="cls-3" d="M168.13,198.87a.49.49,0,0,1-.3-.1.51.51,0,0,1-.1-.7,23.11,23.11,0,0,0,4.34-14.46.5.5,0,0,1,.45-.54.5.5,0,0,1,.55.45,23.73,23.73,0,0,1-4.54,15.15A.48.48,0,0,1,168.13,198.87Z"/><path class="cls-3" d="M152.86,206a.52.52,0,0,1-.32-.11.5.5,0,0,1-.07-.71c3.5-4.21,3.36-13.94,3.36-14a.5.5,0,0,1,.49-.51.51.51,0,0,1,.51.49c0,.41.15,10.19-3.59,14.69A.49.49,0,0,1,152.86,206Z"/><path class="cls-3" d="M134.23,212a.53.53,0,0,1-.38-.18.51.51,0,0,1,.06-.71c4.07-3.39,4.82-9.54,4.83-9.6a.51.51,0,0,1,.56-.44.5.5,0,0,1,.43.56c0,.27-.81,6.6-5.18,10.25A.47.47,0,0,1,134.23,212Z"/><path class="cls-5" d="M232.49,551.27s27.57-7.69,34.43-34.1C266.92,517.17,241.47,524.13,232.49,551.27Z"/><path class="cls-8" d="M266.63,517.25c-10.91,11-17.74,18.75-30.44,30.71-1.21.44-3.7,3.31-3.7,3.31C240.91,525.81,263.82,518.11,266.63,517.25Z"/><path class="cls-6" d="M232.49,551.27s26.94-23.75,34.43-34.1Z"/><path class="cls-3" d="M144.12,611.75a1.5,1.5,0,0,1-1-2.61c.58-.53,58.3-52.52,116.14-70.19a1.5,1.5,0,1,1,.88,2.87c-57.2,17.47-114.43,69-115,69.54A1.51,1.51,0,0,1,144.12,611.75Z"/><path class="cls-1" d="M175.54,601.85s25.64,33.09,72.42,21.82c33.14-10.83,47.12-8.25,47.12-8.25S222.29,557.05,175.54,601.85Z"/><path class="cls-2" d="M175.56,601.82c42.34-40.53,106,3.51,117.66,12.18-29.65-7.52-62.46-3.26-94.32-6.87C191.41,606.34,183.27,604,175.56,601.82Z"/><path class="cls-3" d="M286.7,613.83a.91.91,0,0,1-.23,0,235.22,235.22,0,0,0-57.66-4.39c-32.9,1.45-51.36-5.76-51.54-5.83a1,1,0,0,1-.56-1.3,1,1,0,0,1,1.3-.56c.18.07,18.29,7.12,50.71,5.69a238.1,238.1,0,0,1,58.21,4.44,1,1,0,0,1-.23,2Z"/><path class="cls-3" d="M189,605.88a.5.5,0,0,1-.15-1,34.5,34.5,0,0,0,18.45-16.67.5.5,0,0,1,.89.45,35.55,35.55,0,0,1-19,17.17A.39.39,0,0,1,189,605.88Z"/><path class="cls-3" d="M218.94,621.7a.52.52,0,0,1-.42-.22c-4.8-7.39-17.21-13.48-17.33-13.54a.5.5,0,1,1,.43-.9c.52.25,12.79,6.27,17.74,13.89a.5.5,0,0,1-.15.69A.45.45,0,0,1,218.94,621.7Z"/><path class="cls-3" d="M222.79,609.08a.5.5,0,0,1-.44-.27.49.49,0,0,1,.21-.67c.1-.06,10.19-5.48,13.29-16.67a.51.51,0,0,1,.62-.35.5.5,0,0,1,.34.62C233.59,603.35,223.13,609,223,609A.46.46,0,0,1,222.79,609.08Z"/><path class="cls-3" d="M251.17,619a.5.5,0,0,1-.49-.38c-1.29-5.32-15.75-10.08-15.9-10.13a.51.51,0,0,1-.32-.63.5.5,0,0,1,.63-.32c.62.2,15.14,5,16.56,10.84a.5.5,0,0,1-.36.61Z"/><path class="cls-3" d="M254,609.11a.5.5,0,0,1-.24-.94c.07,0,6.89-3.8,9.7-9a.5.5,0,1,1,.88.48c-2.95,5.42-9.81,9.2-10.1,9.36A.53.53,0,0,1,254,609.11Z"/><path class="cls-3" d="M272.31,616.15a.5.5,0,0,1-.46-.3c-1.34-3.1-5.81-5.77-5.85-5.79a.51.51,0,0,1-.18-.69.49.49,0,0,1,.69-.17c.19.11,4.79,2.85,6.26,6.25a.5.5,0,0,1-.26.66A.48.48,0,0,1,272.31,616.15Z"/><path class="cls-3" d="M184.58,605.73a1,1,0,0,1-.33-.06c-13-4.54-27.81-4.94-27.95-4.94a1,1,0,0,1-1-1,1,1,0,0,1,1-1c.15,0,15.24.4,28.57,5a1,1,0,0,1,.61,1.28A1,1,0,0,1,184.58,605.73Z"/><path class="cls-4" d="M182.65,573.76s26.22-14.9,23-49.41c-4.33-24.73-1.06-34.43-1.06-34.43S155.49,535.84,182.65,573.76Z"/><path class="cls-7" d="M204.56,489.92a17.63,17.63,0,0,0-.48,2.11c-3.06,4.14-5.36,12.09-6.6,17.85-5.1,23.71-5,43-15.14,63.43C155.89,535.48,204.56,489.92,204.56,489.92Z"/><path class="cls-3" d="M183.12,573a1,1,0,0,1-.53-.16,1,1,0,0,1-.32-1.37c.07-.12,7.22-11.89,9.51-35.06a171.17,171.17,0,0,1,9.15-41.12,1,1,0,0,1,1.29-.57,1,1,0,0,1,.57,1.3,169.08,169.08,0,0,0-9,40.58c-2.34,23.69-9.5,35.43-9.8,35.92A1,1,0,0,1,183.12,573Z"/><path class="cls-3" d="M186.55,565a.49.49,0,0,1-.49-.42,24.71,24.71,0,0,0-9.94-14.76.51.51,0,0,1-.13-.7.5.5,0,0,1,.7-.12A25.2,25.2,0,0,1,187,564.43a.51.51,0,0,1-.41.58Z"/><path class="cls-3" d="M189.32,556.39a.57.57,0,0,1-.28-.08.5.5,0,0,1-.13-.7c.23-.34,5.8-8.51,11.77-11.27a.5.5,0,0,1,.67.24.51.51,0,0,1-.25.67c-5.72,2.65-11.31,10.84-11.37,10.92A.49.49,0,0,1,189.32,556.39Z"/><path class="cls-3" d="M192.29,541.25a.48.48,0,0,1-.47-.33c0-.07-2.85-7.77-10.45-11.1a.5.5,0,1,1,.4-.91,21.76,21.76,0,0,1,11,11.68.51.51,0,0,1-.31.64Z"/><path class="cls-3" d="M193.13,532.54a.59.59,0,0,1-.22,0,.5.5,0,0,1-.22-.67c.2-.43,5.13-10.36,9.53-10.78a.52.52,0,0,1,.55.45.5.5,0,0,1-.45.55c-3.19.3-7.39,7.48-8.74,10.22A.48.48,0,0,1,193.13,532.54Z"/><path class="cls-3" d="M195.51,519a.48.48,0,0,1-.47-.33s-2-5.26-5.35-7.77a.5.5,0,0,1,.6-.8c3.59,2.68,5.6,8,5.69,8.22a.52.52,0,0,1-.3.65Z"/><path class="cls-3" d="M197.48,510.38a.5.5,0,0,1-.39-.82c.1-.12,2.55-3.16,5.18-3.87a.5.5,0,0,1,.61.35.52.52,0,0,1-.35.62c-2.31.62-4.64,3.5-4.66,3.53A.51.51,0,0,1,197.48,510.38Z"/><path class="cls-3" d="M173.26,586.94a1,1,0,0,1-.63-.23,1,1,0,0,1-.14-1.4c.11-.14,11-13.47,12.37-19.83a1,1,0,0,1,1.19-.77,1,1,0,0,1,.77,1.18C185.38,572.73,174.5,586,174,586.58A1,1,0,0,1,173.26,586.94Z"/><path class="cls-4" d="M204.12,572.49S227.92,559.3,253,578c17,15,26,17,26,17S220.55,611.22,204.12,572.49Z"/><path class="cls-1" d="M279,595a14.69,14.69,0,0,1-1.85-.62c-4.63.41-11.83-1.55-16.85-3.31-20.65-7.21-35.47-16.34-55.95-18.15C221,611.09,279,595,279,595Z"/><path class="cls-3" d="M273.32,595.42h-.18a154.6,154.6,0,0,1-36-12.3c-19-9.15-31.35-9.12-31.43-9.14h0a1,1,0,0,1,0-2c.5,0,12.95,0,32.32,9.34a152.5,152.5,0,0,0,35.46,12.13,1,1,0,0,1-.17,2Z"/><path class="cls-3" d="M219.93,589.24a.51.51,0,0,1-.5-.47,22.17,22.17,0,0,0-6.68-14.56.52.52,0,0,1-.06-.71.51.51,0,0,1,.71,0,22.85,22.85,0,0,1,7,15.26.5.5,0,0,1-.47.53Z"/><path class="cls-3" d="M221,576.25a.5.5,0,0,1,0-1c.09,0,9-.46,13.73-3.61a.51.51,0,0,1,.7.14.5.5,0,0,1-.14.69c-4.95,3.31-13.87,3.76-14.24,3.78Z"/><path class="cls-3" d="M237.8,594.69h-.07a.51.51,0,0,1-.43-.56c1-7.41-3.58-13.17-3.62-13.23a.49.49,0,1,1,.77-.62,19.61,19.61,0,0,1,3.84,14A.5.5,0,0,1,237.8,594.69Z"/><path class="cls-3" d="M244.53,584.66c-1.84,0-3.25-.12-3.4-.14a.5.5,0,1,1,.09-1c2.74.25,10.21.39,11.93-1.91a.52.52,0,0,1,.71-.1.51.51,0,0,1,.1.7C252.42,584.27,247.78,584.66,244.53,584.66Z"/><path class="cls-3" d="M256.29,597.08a.51.51,0,0,1-.5-.46c-.35-3.75-3.43-7.71-3.46-7.75a.5.5,0,0,1,.79-.61c.13.17,3.29,4.23,3.67,8.27a.5.5,0,0,1-.45.54Z"/><path class="cls-3" d="M260.28,591.6a.5.5,0,0,1-.06-1s3.33-.44,4.88-1.91a.5.5,0,0,1,.71,0,.49.49,0,0,1,0,.7c-1.79,1.7-5.3,2.16-5.44,2.18Z"/><path class="cls-3" d="M190.33,575a1,1,0,0,1-1-.86,1,1,0,0,1,.85-1.13c.65-.1,16-2.23,22-.12a1,1,0,0,1,.61,1.28,1,1,0,0,1-1.28.6c-5.51-2-20.88.19-21,.22Z"/><path class="cls-4" d="M152.56,598.45s25.17-27.57,8.15-67c-14.56-27.46-14.42-40.14-14.42-40.14S106.09,564.19,152.56,598.45Z"/><path class="cls-3" d="M152.43,597.16l-.24,0a1,1,0,0,1-.73-1.21c0-.17,4-16.8-2.21-45a212.37,212.37,0,0,1-5-51.84,1,1,0,0,1,1.06-.94,1,1,0,0,1,.94,1.06,209.28,209.28,0,0,0,4.91,51.29c6.29,28.72,2.37,45.24,2.2,45.93A1,1,0,0,1,152.43,597.16Z"/><path class="cls-3" d="M153.62,586.57a.51.51,0,0,1-.45-.27,30.65,30.65,0,0,0-17.42-13.64.51.51,0,0,1-.33-.63.5.5,0,0,1,.62-.33,31.71,31.71,0,0,1,18,14.14.51.51,0,0,1-.21.68A.68.68,0,0,1,153.62,586.57Z"/><path class="cls-3" d="M153.58,575.36a.34.34,0,0,1-.14,0,.5.5,0,0,1-.34-.62c.14-.49,3.57-12.2,9.52-17.72a.5.5,0,0,1,.71,0,.49.49,0,0,1,0,.7c-5.75,5.33-9.21,17.15-9.24,17.27A.49.49,0,0,1,153.58,575.36Z"/><path class="cls-3" d="M151.28,556.41a.49.49,0,0,1-.39-.2c-.07-.08-6.35-8.1-16.63-9.12a.5.5,0,0,1-.45-.54.49.49,0,0,1,.55-.45c10.72,1.06,17.06,9.16,17.32,9.5a.5.5,0,0,1-.09.7A.51.51,0,0,1,151.28,556.41Z"/><path class="cls-3" d="M149,545.82h-.07a.51.51,0,0,1-.43-.57c.09-.57,2.08-14.09,7-16.24a.5.5,0,0,1,.4.92c-4.45,1.93-6.43,15.33-6.45,15.46A.5.5,0,0,1,149,545.82Z"/><path class="cls-3" d="M146.56,529a.48.48,0,0,1-.39-.19s-4.39-5.46-9.33-7.14a.5.5,0,0,1,.32-1c5.23,1.78,9.61,7.24,9.79,7.47a.49.49,0,0,1-.08.7A.45.45,0,0,1,146.56,529Z"/><path class="cls-3" d="M145.59,518.07l-.18,0a.5.5,0,0,1-.29-.65c.07-.19,1.78-4.66,4.57-6.48a.5.5,0,1,1,.54.84c-2.51,1.64-4.16,6-4.17,6A.51.51,0,0,1,145.59,518.07Z"/><path class="cls-3" d="M147.25,608.35a1,1,0,0,1-.52-.15,1,1,0,0,1-.33-1.37c.07-.11,6.69-11,5.84-19a1,1,0,1,1,2-.21c.92,8.64-5.83,19.78-6.12,20.25A1,1,0,0,1,147.25,608.35Z"/><path class="cls-3" d="M202.8,568.26a1,1,0,0,1-.54-.16,1,1,0,0,1-.3-1.38c.52-.82,12.93-20,17.09-23.25a1,1,0,0,1,1.41.18,1,1,0,0,1-.18,1.4C217.16,547.48,208,561,203.64,567.8A1,1,0,0,1,202.8,568.26Z"/><path class="cls-1" d="M207.68,559.68s28.32-.4,37.34-49.25c1.31-10.16,1.55-17.1,1.55-17.1S205.19,551.06,207.68,559.68Z"/><path class="cls-6" d="M207.68,559.68h0c-2.49-8.62,38.89-66.35,38.89-66.35s0,1.35-.21,3.73C230.05,514.83,217.5,537.77,207.68,559.68Z"/><path class="cls-3" d="M213.23,551.37c-.88,0-1.42,0-1.5-.06a.5.5,0,0,1-.44-.55.49.49,0,0,1,.55-.44,23.19,23.19,0,0,0,14.52-4.11.51.51,0,0,1,.7.11.5.5,0,0,1-.11.7A23.82,23.82,0,0,1,213.23,551.37Z"/><path class="cls-3" d="M220.42,535.21h-.81a.5.5,0,0,1-.48-.52.52.52,0,0,1,.52-.48c.09,0,9.82.3,14.08-3.13a.51.51,0,0,1,.71.07.51.51,0,0,1-.08.71C230.51,534.94,222.93,535.21,220.42,535.21Z"/><path class="cls-3" d="M230.29,518.28a.51.51,0,0,1-.5-.45.5.5,0,0,1,.45-.55c.06,0,6.22-.67,9.67-4.67a.51.51,0,0,1,.71-.05.49.49,0,0,1,0,.7c-3.72,4.31-10.06,5-10.33,5Z"/><path class="cls-3" d="M222.77,557.87a1,1,0,0,1-.16-2c8-1.31,24-4.3,27.49-6.2a1,1,0,0,1,1.36.4,1,1,0,0,1-.4,1.36c-4.63,2.53-27.17,6.26-28.13,6.42Z"/><path class="cls-4" d="M231.67,555.41s11.64-25.81,60-14.62c9.84,2.85,16.3,5.39,16.3,5.39S238.58,561.13,231.67,555.41Z"/><path class="cls-6" d="M231.67,555.41h0c6.91,5.72,76.34-9.23,76.34-9.23s-1.25-.49-3.5-1.29C281.71,552.77,255.67,555.14,231.67,555.41Z"/><path class="cls-3" d="M241.43,555.68l-.15,0A.51.51,0,0,1,241,555a23.76,23.76,0,0,1,10-12.25.51.51,0,0,1,.69.18.5.5,0,0,1-.18.68,23.1,23.1,0,0,0-9.55,11.69A.51.51,0,0,1,241.43,555.68Z"/><path class="cls-3" d="M259.33,554.91a.39.39,0,0,1-.18,0,.5.5,0,0,1-.28-.65c.15-.38,3.78-9.47,8.95-12.19a.5.5,0,0,1,.47.89c-4.85,2.55-8.45,11.58-8.49,11.67A.51.51,0,0,1,259.33,554.91Z"/><path class="cls-3" d="M279.1,551.88a.55.55,0,0,1-.24-.07.49.49,0,0,1-.19-.68c.13-.23,3.28-5.79,8.71-7.48a.51.51,0,0,1,.63.33.51.51,0,0,1-.33.63c-5.05,1.57-8.11,6.95-8.14,7A.51.51,0,0,1,279.1,551.88Z"/><path class="cls-5" d="M226.05,460.59s-23.59-16.19-48.25-4.49C177.8,456.1,199.48,471.14,226.05,460.59Z"/><path class="cls-8" d="M178.05,456.26c15.4,1.33,25.76,1.57,43.09,3.62,1.11.65,4.91.71,4.91.71C201.13,470.49,180.51,457.87,178.05,456.26Z"/><path class="cls-6" d="M226.05,460.59s-35.51-5.4-48.25-4.49Z"/><path class="cls-3" d="M328,492h-.21c-.77-.11-77.7-11-128.38-44a1.5,1.5,0,0,1,1.64-2.52c50.12,32.64,126.39,43.42,127.15,43.52a1.5,1.5,0,0,1-.2,3Z"/><path class="cls-1" d="M301.39,471.79s8.9-40.91-29.77-69.54c-29.57-18.45-36.57-30.83-36.57-30.83S237,464.71,301.39,471.79Z"/><path class="cls-2" d="M301.36,471.78c-58.26-6.44-65.38-83.53-66.21-98,13.27,27.56,37.61,50,55.3,76.72C294.65,456.73,298.05,464.5,301.36,471.78Z"/><path class="cls-3" d="M300.66,470.66a1,1,0,0,1-1-.69c-.06-.18-6.29-18.59-28.2-42.53-22.18-24.24-33.85-47.25-34-47.48a1,1,0,0,1,1.78-.9,236,236,0,0,0,33.66,47c22.23,24.29,28.56,43.07,28.62,43.26a1,1,0,0,1-.64,1.26A1.12,1.12,0,0,1,300.66,470.66Z"/><path class="cls-3" d="M295.45,459.68a.42.42,0,0,1-.26-.08,34.59,34.59,0,0,0-24.63-3.44.48.48,0,0,1-.6-.37.5.5,0,0,1,.37-.6,35.58,35.58,0,0,1,25.4,3.57.5.5,0,0,1-.28.92Z"/><path class="cls-3" d="M289.11,448.83a.5.5,0,0,1-.49-.38c-.14-.56-3.4-13.82-.73-22.52a.5.5,0,1,1,.95.3c-2.58,8.42.72,21.85.75,22a.5.5,0,0,1-.36.61Z"/><path class="cls-3" d="M254.51,432.25a.52.52,0,0,1-.46-.29.5.5,0,0,1,.25-.66c11-5,22-.57,22.1-.53a.5.5,0,1,1-.37.93c-.11-.05-10.75-4.3-21.31.51A.52.52,0,0,1,254.51,432.25Z"/><path class="cls-3" d="M268,422.78a.5.5,0,0,1-.46-.31c-.25-.61-5.9-14.81-2.32-19.66a.5.5,0,1,1,.8.59c-3.25,4.41,2.39,18.55,2.44,18.69a.49.49,0,0,1-.27.65A.43.43,0,0,1,268,422.78Z"/><path class="cls-3" d="M256.19,407.77a.43.43,0,0,1-.19,0c-.07,0-7.34-2.84-13.1-1.69a.5.5,0,0,1-.59-.39.51.51,0,0,1,.39-.59c6.06-1.21,13.36,1.62,13.67,1.74a.5.5,0,0,1-.18,1Z"/><path class="cls-3" d="M249.11,397.74a.49.49,0,0,1-.49-.41c0-.23-.89-5.51.78-8.82a.5.5,0,0,1,.67-.23.52.52,0,0,1,.22.68c-1.52,3-.69,8.15-.68,8.2a.51.51,0,0,1-.41.58Z"/><path class="cls-3" d="M312.11,488.88a1,1,0,0,1-.78-.38c-.1-.12-9.48-11.94-14.47-25.14a1,1,0,0,1,.58-1.29,1,1,0,0,1,1.29.58c4.88,12.91,14.07,24.49,14.16,24.6a1,1,0,0,1-.16,1.41A1,1,0,0,1,312.11,488.88Z"/><path class="cls-4" d="M275.29,484.37S247,473.84,222.67,498.48C206.49,517.68,197,521.4,197,521.4S263.66,529.53,275.29,484.37Z"/><path class="cls-7" d="M197,521.4a16.26,16.26,0,0,0,1.92-1c5.15-.31,12.72-3.65,17.93-6.4,21.45-11.31,36.19-23.75,58.34-29.12C263.12,529.46,197,521.4,197,521.4Z"/><path class="cls-3" d="M203.06,520.81a1,1,0,0,1-.95-.68,1,1,0,0,1,.63-1.27,169.21,169.21,0,0,0,36.9-19.15c19.66-13.4,33.27-15.46,33.84-15.54a1,1,0,0,1,1.13.85,1,1,0,0,1-.85,1.13c-.14,0-13.75,2.1-33,15.21a171.44,171.44,0,0,1-37.39,19.4A1.19,1.19,0,0,1,203.06,520.81Z"/><path class="cls-3" d="M260.64,505.28a.5.5,0,0,1-.5-.45A25.28,25.28,0,0,1,265.32,487a.5.5,0,0,1,.76.66,24.71,24.71,0,0,0-4.94,17.1.5.5,0,0,1-.45.54Z"/><path class="cls-3" d="M252.9,491.42c-3.47,0-8.26-.35-11.74-2a.5.5,0,1,1,.42-.9c5.71,2.69,15.58,1.71,15.68,1.7a.51.51,0,0,1,.55.44.5.5,0,0,1-.45.55C257.19,491.24,255.38,491.42,252.9,491.42Z"/><path class="cls-3" d="M242,514.2a.49.49,0,0,1-.48-.36,21.73,21.73,0,0,1,1.9-15.92.5.5,0,1,1,.86.5c0,.07-4.12,7.17-1.8,15.14a.5.5,0,0,1-.34.62Z"/><path class="cls-3" d="M228.05,504.73c-2.35,0-4.57-.37-5.74-1.52a.5.5,0,0,1,.7-.72c2.29,2.26,10.48.87,13.45.14a.5.5,0,0,1,.23,1A41.51,41.51,0,0,1,228.05,504.73Z"/><path class="cls-3" d="M222.07,519.86a.49.49,0,0,1-.49-.47c-.25-4.48,2.53-9.43,2.65-9.64a.51.51,0,0,1,.68-.19.5.5,0,0,1,.19.68c0,.05-2.76,4.91-2.53,9.1a.49.49,0,0,1-.47.52Z"/><path class="cls-3" d="M216.65,514.51c-.77,0-4.13-.08-6.14-1.48a.5.5,0,0,1-.12-.69.51.51,0,0,1,.7-.13c2,1.37,5.66,1.3,5.69,1.3a.5.5,0,1,1,0,1Z"/><path class="cls-3" d="M267.06,488.1a1,1,0,0,1-.48-1.88c6.17-3.29,23.34-3.47,24.07-3.48h0a1,1,0,0,1,0,2c-.18,0-17.41.19-23.14,3.24A1,1,0,0,1,267.06,488.1Z"/><path class="cls-4" d="M260.53,468.72s-25.39-9.78-27.11-41c.54-22.64-3.68-30.86-3.68-30.86S279.68,431.25,260.53,468.72Z"/><path class="cls-7" d="M229.74,396.86a13.14,13.14,0,0,1,.71,1.82c3.29,3.29,6.41,10.07,8.29,15,7.73,20.47,10.24,37.69,22,54.56C279.27,431,229.74,396.86,229.74,396.86Z"/><path class="cls-3" d="M259.87,468.19a1,1,0,0,1-.76-.36c-.34-.39-8.31-9.93-13.58-30.77a152.77,152.77,0,0,0-13.47-35,1,1,0,1,1,1.73-1,154.79,154.79,0,0,1,13.68,35.48c5.14,20.34,13.09,29.87,13.16,30a1,1,0,0,1-.76,1.65Z"/><path class="cls-3" d="M255.81,461.5h0a.51.51,0,0,1-.5-.51,22.85,22.85,0,0,1,7.19-15.19.49.49,0,0,1,.7,0,.5.5,0,0,1,0,.71A22.23,22.23,0,0,0,256.31,461,.5.5,0,0,1,255.81,461.5Z"/><path class="cls-3" d="M252.19,454.18a.52.52,0,0,1-.37-.16c-.06-.07-6.14-6.62-11.59-8.21a.51.51,0,0,1-.34-.62.49.49,0,0,1,.62-.34c5.72,1.67,11.79,8.21,12,8.49a.48.48,0,0,1,0,.7A.47.47,0,0,1,252.19,454.18Z"/><path class="cls-3" d="M247.51,441.07h-.1a.5.5,0,0,1-.39-.59,19.67,19.67,0,0,1,8.26-11.92.5.5,0,0,1,.69.15.51.51,0,0,1-.16.69A18.92,18.92,0,0,0,248,440.67.51.51,0,0,1,247.51,441.07Z"/><path class="cls-3" d="M245.59,433.41a.52.52,0,0,1-.42-.22c-1.54-2.23-6.13-7.93-9-7.93h-.12a.5.5,0,0,1-.05-1h.15c4,0,9.61,8,9.85,8.36a.51.51,0,0,1-.41.79Z"/><path class="cls-3" d="M241.65,421.64h-.1a.52.52,0,0,1-.39-.6c.05-.21,1.13-5.23,4-8.12a.5.5,0,0,1,.71,0,.51.51,0,0,1,0,.71c-2.65,2.68-3.71,7.58-3.72,7.63A.5.5,0,0,1,241.65,421.64Z"/><path class="cls-3" d="M238.74,414.22a.49.49,0,0,1-.34-.14s-2.48-2.26-4.6-2.51a.5.5,0,0,1,.11-1c2.45.28,5.06,2.67,5.17,2.77a.51.51,0,0,1,0,.71A.54.54,0,0,1,238.74,414.22Z"/><path class="cls-3" d="M270.54,479.33a1,1,0,0,1-.67-.25c-.49-.44-12-10.85-14.21-16.78a1,1,0,1,1,1.88-.7c2,5.48,13.55,15.89,13.67,16a1,1,0,0,1-.67,1.74Z"/><path class="cls-4" d="M313.54,491.58S276.25,490,257,528.32c-11.71,28.79-21.51,36.82-21.51,36.82S317.12,549.2,313.54,491.58Z"/><path class="cls-3" d="M242.06,561.93a1,1,0,0,1-.6-1.8,209.76,209.76,0,0,0,36.17-36.7c18-23.26,33.16-30.86,33.8-31.17a1,1,0,0,1,1.34.46,1,1,0,0,1-.46,1.33c-.15.08-15.43,7.75-33.1,30.6a211.77,211.77,0,0,1-36.56,37.09A1,1,0,0,1,242.06,561.93Z"/><path class="cls-3" d="M304.1,521.72a.49.49,0,0,1-.46-.3,31.82,31.82,0,0,1-.73-22.9.5.5,0,0,1,.66-.26.5.5,0,0,1,.26.65,30.77,30.77,0,0,0,.73,22.12.49.49,0,0,1-.27.65A.43.43,0,0,1,304.1,521.72Z"/><path class="cls-3" d="M277.66,510.62a18,18,0,0,1-2.35-.14.5.5,0,0,1-.44-.56.51.51,0,0,1,.56-.43c7.79,1,19.06-3.95,19.17-4a.49.49,0,0,1,.66.25.5.5,0,0,1-.25.66C294.58,506.59,285.37,510.62,277.66,510.62Z"/><path class="cls-3" d="M285.51,539.37a.52.52,0,0,1-.42-.22c-6.06-8.9-3.93-19-3.83-19.38a.5.5,0,0,1,1,.21c0,.1-2.13,10.07,3.69,18.6a.51.51,0,0,1-.41.79Z"/><path class="cls-3" d="M260.89,534.42a5.51,5.51,0,0,1-2.47-.5.5.5,0,0,1-.22-.67.49.49,0,0,1,.67-.22c4.34,2.16,15.88-4.92,16-5a.5.5,0,1,1,.52.85C275,529.15,266.39,534.42,260.89,534.42Z"/><path class="cls-3" d="M264.27,553.64a.48.48,0,0,1-.46-.32c-2-5.15-.62-12-.56-12.3a.5.5,0,0,1,1,.2c0,.07-1.37,6.87.51,11.74a.5.5,0,0,1-.29.64A.39.39,0,0,1,264.27,553.64Z"/><path class="cls-3" d="M250.67,550.31a8.28,8.28,0,0,1-2.4-.32.5.5,0,0,1,.3-1c2.87.88,7.23-.63,7.28-.64a.48.48,0,0,1,.63.3.5.5,0,0,1-.3.64A19,19,0,0,1,250.67,550.31Z"/><path class="cls-3" d="M304.89,499a1,1,0,0,1-.7-.28,1,1,0,0,1,0-1.41c6-6.26,18.91-8.23,19.45-8.31a1,1,0,1,1,.3,2c-.13,0-12.76,2-18.31,7.73A1,1,0,0,1,304.89,499Z"/><path class="cls-3" d="M232.5,476.16a19.51,19.51,0,0,1-3.8-.26,1,1,0,1,1,.42-1.95c3.86.83,20.09-.85,28.13-1.85a1,1,0,0,1,.25,2C256.69,474.19,240.74,476.16,232.5,476.16Z"/><path class="cls-1" d="M248.42,474.22s-18.48-21.46-61.72,3c-8.63,5.52-14.11,9.79-14.11,9.79S243.42,481.66,248.42,474.22Z"/><path class="cls-6" d="M248.42,474.22h0c-5,7.44-75.83,12.78-75.83,12.78s1.07-.83,3-2.23C199.68,485.86,225.33,480.76,248.42,474.22Z"/><path class="cls-3" d="M239,477.26a.51.51,0,0,1-.42-.22,23.13,23.13,0,0,0-12.47-8.5.51.51,0,0,1-.37-.61.5.5,0,0,1,.61-.36,23.72,23.72,0,0,1,13.06,8.91.51.51,0,0,1-.14.7A.53.53,0,0,1,239,477.26Z"/><path class="cls-3" d="M221.61,481.59a.5.5,0,0,1-.4-.19c-.06-.08-6.08-7.72-11.45-8.79a.5.5,0,0,1-.39-.59.51.51,0,0,1,.59-.39c5.73,1.14,11.78,8.83,12,9.16a.5.5,0,0,1-.09.7A.49.49,0,0,1,221.61,481.59Z"/><path class="cls-3" d="M201.79,484.29a.52.52,0,0,1-.35-.14c-.05,0-4.51-4.34-9.8-4.42a.51.51,0,0,1-.49-.51.49.49,0,0,1,.51-.49c5.69.08,10.28,4.51,10.48,4.7a.51.51,0,0,1,0,.71A.51.51,0,0,1,201.79,484.29Z"/><path class="cls-3" d="M236.59,465.45a1,1,0,0,1-.65-.24c-6.15-5.28-18.73-15.65-22.41-17.1a1,1,0,1,1,.73-1.86c4.91,1.93,22.24,16.81,23,17.45a1,1,0,0,1-.65,1.75Z"/><path class="cls-4" d="M229.76,458.57s-27.27,7.64-49.77-36.64c-4.13-9.38-6.33-16-6.33-16S229.7,449.6,229.76,458.57Z"/><path class="cls-6" d="M229.76,458.57h0c-.06-9-56.1-52.61-56.1-52.61s.43,1.28,1.26,3.52C195.59,421.9,214.14,440.34,229.76,458.57Z"/><path class="cls-3" d="M215.22,453.16a22.47,22.47,0,0,1-7.53-1.27.48.48,0,0,1-.3-.63A.5.5,0,0,1,208,451a23.08,23.08,0,0,0,15.1-.18.5.5,0,0,1,.65.27.49.49,0,0,1-.27.65A22.92,22.92,0,0,1,215.22,453.16Z"/><path class="cls-3" d="M201.17,440.25a13.08,13.08,0,0,1-4.89-.81.5.5,0,0,1,.38-.93c5.07,2.08,14.31-.95,14.4-1a.49.49,0,0,1,.63.31.51.51,0,0,1-.31.64A37.31,37.31,0,0,1,201.17,440.25Z"/><path class="cls-3" d="M193.16,425.53A15.3,15.3,0,0,1,185,423.4a.5.5,0,0,1-.16-.69.51.51,0,0,1,.7-.15c4.45,2.87,10.54,1.75,10.6,1.74a.5.5,0,0,1,.58.4.48.48,0,0,1-.39.58A18.6,18.6,0,0,1,193.16,425.53Z"/><path class="cls-1" d="M291.19,52s35.2,24,26.69,72.14c-8.91,34.31-5.42,48.34-5.42,48.34S248.65,102.22,291.19,52Z"/><path class="cls-2" d="M290.5,52.81c1.78,8.49,6.09,15.72,7.94,24.17,6.48,30.55.39,66.9,13.85,94.53.1.62.17.93.17.93S249.39,103,290.5,52.81Z"/><path class="cls-3" d="M309.3,165.1a1,1,0,0,1-.95-.71c-.08-.25-7.56-25.39-8.16-58.8-.58-33-9.34-50.43-9.43-50.6a1,1,0,1,1,1.78-.91c.37.71,9.06,18,9.65,51.48a239.7,239.7,0,0,0,8.07,58.25,1,1,0,0,1-.67,1.25A.92.92,0,0,1,309.3,165.1Z"/><path class="cls-3" d="M279.63,86a.5.5,0,0,1-.26-.93,35.07,35.07,0,0,0,15.77-19.78.5.5,0,0,1,.61-.36.48.48,0,0,1,.36.6,36.1,36.1,0,0,1-16.23,20.4A.47.47,0,0,1,279.63,86Z"/><path class="cls-3" d="M313.56,95.3a.57.57,0,0,1-.25-.06c-8-4.55-14.92-16.62-15.21-17.13a.5.5,0,0,1,.88-.49c.06.12,7,12.34,14.83,16.75a.5.5,0,0,1,.19.68A.52.52,0,0,1,313.56,95.3Z"/><path class="cls-3" d="M284.61,114.81a.49.49,0,0,1-.47-.34.5.5,0,0,1,.3-.64c11.17-3.85,16-14.43,16.09-14.53a.5.5,0,1,1,.91.41c0,.11-5.09,11.07-16.67,15.07A.45.45,0,0,1,284.61,114.81Z"/><path class="cls-3" d="M312.85,128.18h-.09c-6-1.07-11.8-15.51-12-16.12a.51.51,0,0,1,.28-.65.5.5,0,0,1,.65.28c.06.14,5.8,14.53,11.29,15.51a.5.5,0,0,1-.09,1Z"/><path class="cls-3" d="M294.3,142.33a.48.48,0,0,1-.42-.23.5.5,0,0,1,.15-.69c5.06-3.18,8.46-10.35,8.49-10.42a.5.5,0,0,1,.67-.24.49.49,0,0,1,.24.66c-.14.31-3.55,7.5-8.86,10.84A.56.56,0,0,1,294.3,142.33Z"/><path class="cls-3" d="M311.27,149.82a.47.47,0,0,1-.17,0c-3.55-1.28-6.61-5.77-6.74-6a.5.5,0,0,1,.13-.7.51.51,0,0,1,.7.14s3,4.41,6.25,5.58a.5.5,0,0,1-.17,1Z"/><path class="cls-3" d="M293.91,61.51a1,1,0,0,1-1-.73C290.66,52.45,286.4,49,286.36,49a1,1,0,0,1-.17-1.4,1,1,0,0,1,1.41-.17c.19.16,4.81,3.88,7.28,12.84a1,1,0,0,1-.7,1.23Z"/><path class="cls-4" d="M242.09,93.46S214,86.93,203.16,125.72C203.16,125.72,235.13,131,242.09,93.46Z"/><path class="cls-5" d="M242.09,93.46c-6.71,36.21-36.7,32.58-38.81,32.27,12.61-11,25.77-21.15,38-32.42C241.79,93.39,242.09,93.46,242.09,93.46Z"/><path class="cls-6" d="M207.25,123.25s26.89-27.72,34.84-29.79Z"/><path class="cls-3" d="M232.38,100.5a1.5,1.5,0,0,1-.58-2.89c22.47-9.4,66.42-66.8,66.86-67.38A1.5,1.5,0,0,1,301,32.05c-1.82,2.39-44.88,58.62-68.08,68.33A1.51,1.51,0,0,1,232.38,100.5Z"/><path class="cls-1" d="M265.55,64.19s-27,23.58-64.41,6.45C175.08,56.12,162.91,56,162.91,56S233.62,18.89,265.55,64.19Z"/><path class="cls-4" d="M199.75,57.61c21,1.7,40.82,7.6,62.16,8.53a4.18,4.18,0,0,0,1.67-.43c-6.85,4.93-30.93,19.35-62.44,4.93C175.08,56.12,162.91,56,162.91,56l1.48-.74a85.79,85.79,0,0,1,25.84,2.45C192.9,58.06,197.08,57.26,199.75,57.61Z"/><path class="cls-3" d="M251,66A135.16,135.16,0,0,1,219.52,62a200.4,200.4,0,0,0-49.1-5.76,1,1,0,0,1-1-1,1,1,0,0,1,1-1A203.41,203.41,0,0,1,220,60c26.95,6.5,43,3.07,43.14,3a1,1,0,0,1,1.2.75,1,1,0,0,1-.76,1.2A63.25,63.25,0,0,1,251,66Z"/><path class="cls-3" d="M253.65,65.45a.53.53,0,0,1-.24-.06A30.45,30.45,0,0,1,240.2,47.8a.5.5,0,1,1,1-.27,29.42,29.42,0,0,0,12.73,17,.5.5,0,0,1,.2.68A.52.52,0,0,1,253.65,65.45Z"/><path class="cls-3" d="M225.92,73.83a.5.5,0,0,1-.36-.85c5.42-5.6,16.73-8.65,17.21-8.78a.5.5,0,1,1,.25,1c-.11,0-11.52,3.1-16.75,8.51A.47.47,0,0,1,225.92,73.83Z"/><path class="cls-3" d="M224.75,62.6a.47.47,0,0,1-.31-.12c-.33-.26-8-6.51-8.78-16.82a.5.5,0,0,1,.46-.54.5.5,0,0,1,.54.46c.77,9.87,8.33,16.06,8.4,16.13a.49.49,0,0,1,.08.7A.51.51,0,0,1,224.75,62.6Z"/><path class="cls-3" d="M199.29,66.29a.54.54,0,0,1-.21-.05.49.49,0,0,1-.24-.66c2.17-4.73,15.19-6.37,15.74-6.44a.5.5,0,0,1,.56.44.5.5,0,0,1-.44.55c-.13,0-13,1.64-15,5.86A.49.49,0,0,1,199.29,66.29Z"/><path class="cls-3" d="M198.51,57.5a.56.56,0,0,1-.32-.11c-.22-.18-5.37-4.5-7-9.56a.49.49,0,0,1,.32-.62.49.49,0,0,1,.63.32c1.51,4.77,6.61,9,6.66,9.09a.5.5,0,0,1,.07.7A.5.5,0,0,1,198.51,57.5Z"/><path class="cls-3" d="M182,60.42a.49.49,0,0,1-.28-.09.5.5,0,0,1-.13-.7c1.8-2.63,6.14-4.19,6.32-4.25a.5.5,0,0,1,.64.3.51.51,0,0,1-.31.64s-4.21,1.51-5.83,3.88A.49.49,0,0,1,182,60.42Z"/><path class="cls-3" d="M259.15,65.85a13.11,13.11,0,0,1-2.75-.26,1,1,0,1,1,.43-2c6,1.3,18.59-3.59,18.72-3.64a1,1,0,0,1,.72,1.87C275.8,62.05,266,65.85,259.15,65.85Z"/><path class="cls-2" d="M269.67,74.49s13,27.15-9.3,53.59c-17.63,17.81-20.48,27.63-20.48,27.63S225.81,90.11,269.67,74.49Z"/><path class="cls-3" d="M240.92,150.49l-.23,0a1,1,0,0,1-.74-1.2,170.74,170.74,0,0,1,15.92-38.92C267.18,90,268,76.31,268,76.17a1,1,0,0,1,2,.11c0,.57-.85,14.28-12.41,35a168.58,168.58,0,0,0-15.72,38.41A1,1,0,0,1,240.92,150.49Z"/><path class="cls-3" d="M250.69,91.39a.5.5,0,0,1-.5-.5.5.5,0,0,1,.5-.5,24.6,24.6,0,0,0,16.55-6.45.51.51,0,0,1,.71,0,.5.5,0,0,1,0,.71,25.21,25.21,0,0,1-17.27,6.75Z"/><path class="cls-3" d="M268.13,109.13a.51.51,0,0,1-.43-.25c-3.32-5.67-3.24-15.53-3.24-15.95a.51.51,0,0,1,.5-.49h0a.49.49,0,0,1,.49.5c0,.1-.08,10,3.1,15.44a.5.5,0,0,1-.17.68A.48.48,0,0,1,268.13,109.13Z"/><path class="cls-3" d="M247.1,111.12a19,19,0,0,1-3.69-.36.5.5,0,1,1,.19-1c8.14,1.6,14.82-3.1,14.89-3.15a.49.49,0,0,1,.69.12.5.5,0,0,1-.11.69A22.2,22.2,0,0,1,247.1,111.12Z"/><path class="cls-3" d="M256,129a.49.49,0,0,1-.32-.12c-3.37-2.85-1.76-13.8-1.69-14.27a.51.51,0,0,1,.57-.42.5.5,0,0,1,.42.57c-.45,3-1.1,11.29,1.34,13.36a.48.48,0,0,1,.06.7A.49.49,0,0,1,256,129Z"/><path class="cls-3" d="M239.66,131a.5.5,0,0,1,0-1c4.18-.14,8.77-3.29,8.81-3.32a.5.5,0,1,1,.57.82c-.2.13-4.87,3.35-9.35,3.5Z"/><path class="cls-3" d="M247.37,141.65a.49.49,0,0,1-.38-.18c-1.75-2.08-2-6-2-6.12a.5.5,0,1,1,1-.07s.27,3.72,1.81,5.55a.5.5,0,0,1-.07.7A.47.47,0,0,1,247.37,141.65Z"/><path class="cls-3" d="M268.3,81.69a.78.78,0,0,1-.26,0,1,1,0,0,1-.71-1.22c1.52-5.76.18-9.34.17-9.37a1,1,0,1,1,1.86-.73c.07.16,1.6,4.17-.1,10.61A1,1,0,0,1,268.3,81.69Z"/><path class="cls-1" d="M292.53,37.67S260.12,53.56,228.17,27.1c-21.54-21-33.35-24.26-33.35-24.26S273.32-14.75,292.53,37.67Z"/><path class="cls-3" d="M290.44,37.93h0c-.69,0-17.09-.86-42.06-14.48A203.17,203.17,0,0,0,202.07,5a1,1,0,0,1,.44-2A205,205,0,0,1,249.3,21.68c24.56,13.4,41,14.24,41.18,14.25a1,1,0,0,1,1,1A1,1,0,0,1,290.44,37.93Z"/><path class="cls-3" d="M280.76,35.8a.52.52,0,0,1-.35-.14,30.75,30.75,0,0,1-8.25-20.57.51.51,0,0,1,.5-.51.48.48,0,0,1,.5.5,29.63,29.63,0,0,0,7.94,19.86.49.49,0,0,1,0,.7A.48.48,0,0,1,280.76,35.8Z"/><path class="cls-3" d="M251.58,36.69a.5.5,0,0,1-.26-.92c6.75-4,18.55-4,19-4a.5.5,0,0,1,.5.5.5.5,0,0,1-.5.5h0c-.31,0-12.07,0-18.52,3.89A.48.48,0,0,1,251.58,36.69Z"/><path class="cls-3" d="M253.39,25.46a.49.49,0,0,1-.41-.21c-.24-.34-6-8.42-4.13-18.66a.5.5,0,0,1,1,.18c-1.83,9.83,3.9,17.81,4,17.89a.51.51,0,0,1-.11.7A.46.46,0,0,1,253.39,25.46Z"/><path class="cls-3" d="M227.65,22.39a.47.47,0,0,1-.32-.12.5.5,0,0,1-.07-.7c3.35-4,16.45-2.22,17-2.14a.5.5,0,0,1,.43.56.51.51,0,0,1-.57.43C244,20.4,231,18.6,228,22.21A.53.53,0,0,1,227.65,22.39Z"/><path class="cls-3" d="M229.19,13.64a.52.52,0,0,1-.41-.21c-.16-.24-4.05-5.79-4.29-11.12a.5.5,0,0,1,.48-.52.47.47,0,0,1,.52.47c.23,5.05,4.07,10.53,4.11,10.59a.5.5,0,0,1-.12.69A.46.46,0,0,1,229.19,13.64Z"/><path class="cls-3" d="M212.36,12.15A.52.52,0,0,1,212,12a.51.51,0,0,1,.06-.71c2.44-2.09,7.07-2.47,7.26-2.48a.51.51,0,0,1,.54.46.5.5,0,0,1-.46.53s-4.5.37-6.69,2.25A.52.52,0,0,1,212.36,12.15Z"/><path class="cls-3" d="M291.61,37.94a27.73,27.73,0,0,1-6.77-.88,1,1,0,0,1-.72-1.22,1,1,0,0,1,1.21-.72c7.05,1.79,11.32.11,11.36.09a1,1,0,1,1,.76,1.86A16.89,16.89,0,0,1,291.61,37.94Z"/><path class="cls-3" d="M219.69,99.71a1,1,0,0,1-.84-.44,1,1,0,0,1,.28-1.39c4.17-2.77,25.12-8.13,26-8.36a1,1,0,0,1,.49,1.94c-7.42,1.89-22.28,6-25.39,8.09A1,1,0,0,1,219.69,99.71Z"/><path class="cls-2" d="M237.11,92.59s-8.86,25.28-55.39,18.71c-9.51-1.88-15.81-3.75-15.81-3.75S230.13,87.77,237.11,92.59Z"/><path class="cls-6" d="M237.11,92.59h0c-7-4.82-71.2,15-71.2,15s1.23.36,3.41.93C190.16,99.19,214.51,94.81,237.11,92.59Z"/><path class="cls-3" d="M219.7,106.19a.49.49,0,0,1-.41-.21.49.49,0,0,1,.12-.69,21.82,21.82,0,0,0,8-11.79.5.5,0,1,1,1,.22A22.54,22.54,0,0,1,220,106.1.52.52,0,0,1,219.7,106.19Z"/><path class="cls-3" d="M203.88,108.27a.48.48,0,0,1-.42-.23.5.5,0,0,1,.15-.69c4.35-2.8,7-11.6,7-11.69a.5.5,0,0,1,.62-.33.49.49,0,0,1,.34.62c-.11.37-2.79,9.24-7.45,12.24A.56.56,0,0,1,203.88,108.27Z"/><path class="cls-3" d="M185.38,108.3a.49.49,0,0,1-.46-.31.51.51,0,0,1,.27-.65c4.63-1.89,7.07-7.21,7.09-7.26a.5.5,0,0,1,.91.41c-.1.23-2.62,5.73-7.62,7.78A.58.58,0,0,1,185.38,108.3Z"/></g></g></svg>