<svg xmlns="http://www.w3.org/2000/svg" viewBox="0 0 395.06 189.51"><defs><style>.cls-1{fill:#cede23;}.cls-2{fill:#b8e30d;}.cls-3{fill:#4e522b;}.cls-4{fill:#59752b;}.cls-5{fill:#788e3c;}.cls-6{fill:#869e47;}.cls-7{fill:#b9c82d;}.cls-8{fill:#9eb134;}</style></defs><title>Top</title><g id="Layer_2" data-name="Layer 2"><g id="BACKGROUND_2" data-name="BACKGROUND 2"><path class="cls-1" d="M305.49,120.24s12.88,25.56-2,48.41C303.47,168.65,291.47,145.15,305.49,120.24Z"/><path class="cls-2" d="M303.34,168.39c.75-15.45,1.91-25.74,2.2-43.19-.49-1.19-.05-5-.05-5C292.34,143.61,302.08,165.73,303.34,168.39Z"/><path class="cls-3" d="M305.49,120.24s.59,35.91-2,48.41Z"/><path class="cls-4" d="M315.77,149.18a1.5,1.5,0,0,1-1.36-.86C288.51,93.67,288.07,16,288.07,15.2a1.51,1.51,0,0,1,1.5-1.51h0a1.5,1.5,0,0,1,1.5,1.5c0,.77.45,77.81,26.05,131.84a1.51,1.51,0,0,1-1.35,2.15Z"/><path class="cls-5" d="M304.52,44.07s41.73-3.32,64.91,38.85c14.31,31.78,25.63,40.38,25.63,40.38S302.89,108.81,304.52,44.07Z"/><path class="cls-6" d="M304.52,44.11c-1.45,58.6,74,76,88.24,78.77-25.53-16.85-44.47-44-68.6-65.09C318.53,52.78,311.29,48.37,304.52,44.11Z"/><path class="cls-4" d="M387.5,119.85a1,1,0,0,1-.56-.17,237.66,237.66,0,0,1-42.48-40C323.67,54.72,306.26,46.07,306.09,46a1,1,0,0,1,.87-1.8c.18.09,17.94,8.88,39,34.17A235.91,235.91,0,0,0,388.07,118a1,1,0,0,1-.57,1.82Z"/><path class="cls-4" d="M316.33,77.41a.39.39,0,0,1-.18,0,.49.49,0,0,1-.29-.64,34.48,34.48,0,0,0-.1-24.87.5.5,0,0,1,.9-.42,35.51,35.51,0,0,1,.13,25.65A.5.5,0,0,1,316.33,77.41Z"/><path class="cls-4" d="M344.55,63.89c-8.43,0-18.16-3.84-18.62-4a.49.49,0,0,1-.28-.65.51.51,0,0,1,.65-.28c.12,0,13,5.13,21.68,3.7a.49.49,0,0,1,.57.41.51.51,0,0,1-.41.58A23.13,23.13,0,0,1,344.55,63.89Z"/><path class="cls-4" d="M337.89,96.41a.48.48,0,0,1-.26-.07.49.49,0,0,1-.16-.69c6.19-9.85,3.4-20.94,3.37-21.05a.5.5,0,0,1,1-.25c0,.11,2.92,11.63-3.49,21.83A.51.51,0,0,1,337.89,96.41Z"/><path class="cls-4" d="M364.92,89.86c-6.15,0-15.6-5.33-16.07-5.6a.5.5,0,1,1,.49-.87c.13.08,13.4,7.55,18.19,4.93a.5.5,0,0,1,.68.2.49.49,0,0,1-.19.68A6.56,6.56,0,0,1,364.92,89.86Z"/><path class="cls-4" d="M362.28,111.53a.45.45,0,0,1-.16,0,.5.5,0,0,1-.31-.63c1.92-5.55.1-13.14.09-13.21a.5.5,0,0,1,.36-.61.51.51,0,0,1,.61.37c.08.32,1.9,7.94-.11,13.77A.51.51,0,0,1,362.28,111.53Z"/><path class="cls-4" d="M376.9,107.24a21.6,21.6,0,0,1-5.68-.87.49.49,0,0,1-.33-.62.48.48,0,0,1,.62-.33c.05,0,5,1.52,8.23.42a.5.5,0,0,1,.63.31.51.51,0,0,1-.31.64A9.94,9.94,0,0,1,376.9,107.24Z"/><path class="cls-4" d="M312.74,49.82a1,1,0,0,1-.48-.12C299.85,43,289.39,32.1,289.29,32a1,1,0,1,1,1.45-1.38c.1.1,10.35,10.77,22.47,17.33a1,1,0,0,1-.47,1.88Z"/><path class="cls-7" d="M288.55,68.25s6.64,29.42-21.05,50.25c-21.2,13.46-26.17,22.41-26.17,22.41S242.23,73.71,288.55,68.25Z"/><path class="cls-8" d="M241.33,140.91a17.44,17.44,0,0,1,1.23-1.77c1-5.06,5.33-12.11,8.75-16.9C265.4,102.49,279.72,89.56,288,68.33,242.23,74.25,241.33,140.91,241.33,140.91Z"/><path class="cls-4" d="M243.72,136.07a1,1,0,0,1-.44-.1,1,1,0,0,1-.45-1.34,170.77,170.77,0,0,1,24.24-34.45c15.62-17.34,19.47-30.52,19.51-30.65a1,1,0,0,1,1.23-.69,1,1,0,0,1,.69,1.24c-.16.55-4,13.75-19.95,31.44a169.61,169.61,0,0,0-23.93,34A1,1,0,0,1,243.72,136.07Z"/><path class="cls-4" d="M272,81.16a25.55,25.55,0,0,1-5.71-.64.51.51,0,0,1-.38-.6.5.5,0,0,1,.6-.38,24.69,24.69,0,0,0,17.61-2.6.5.5,0,0,1,.69.15.49.49,0,0,1-.15.69A24.69,24.69,0,0,1,272,81.16Z"/><path class="cls-4" d="M279.42,101.74a.48.48,0,0,1-.47-.35c-2-6.28.3-15.89.4-16.29a.49.49,0,0,1,.6-.37.5.5,0,0,1,.37.6c0,.1-2.32,9.75-.42,15.76a.5.5,0,0,1-.33.63A.39.39,0,0,1,279.42,101.74Z"/><path class="cls-4" d="M262.93,99.49a19.88,19.88,0,0,1-8.13-1.68.5.5,0,0,1,.41-.92c7.58,3.38,15.16.28,15.24.25a.5.5,0,0,1,.65.27.49.49,0,0,1-.27.65A21.9,21.9,0,0,1,262.93,99.49Z"/><path class="cls-4" d="M263.16,118.42a.51.51,0,0,1-.4-.2c-2.65-3.53,1.37-13.87,1.54-14.31a.51.51,0,0,1,.65-.28.5.5,0,0,1,.28.65c-1.11,2.84-3.59,10.78-1.67,13.34a.5.5,0,0,1-.1.7A.47.47,0,0,1,263.16,118.42Z"/><path class="cls-4" d="M248.89,117a12.1,12.1,0,0,1-2.26-.2.51.51,0,0,1-.4-.59.49.49,0,0,1,.59-.39c4.1.78,9.29-1.27,9.34-1.29a.5.5,0,0,1,.38.93A23.41,23.41,0,0,1,248.89,117Z"/><path class="cls-4" d="M251.89,128.86a.51.51,0,0,1-.45-.27c-1.24-2.41-.65-6.27-.62-6.43a.5.5,0,0,1,.57-.42.51.51,0,0,1,.42.57s-.57,3.7.52,5.82a.49.49,0,0,1-.44.73Z"/><path class="cls-4" d="M284.73,77.05a1,1,0,0,1-.58-.19,1,1,0,0,1-.23-1.4c3.8-5.27,6.3-22.32,6.32-22.49a1,1,0,1,1,2,.28c-.1.72-2.59,17.71-6.68,23.38A1,1,0,0,1,284.73,77.05Z"/><path class="cls-7" d="M302.07,85s6.28,26.47,37,32.38c22.52,2.49,30.1,7.78,30.1,7.78S341.77,71,302.07,85Z"/><path class="cls-8" d="M369.15,125.14a14.44,14.44,0,0,0-1.71-1c-2.82-3.7-9.12-7.7-13.79-10.23-19.25-10.41-36-15.21-51.11-29.13C342,71.48,369.15,125.14,369.15,125.14Z"/><path class="cls-4" d="M364.88,122.35a1,1,0,0,1-.61-.21,152.91,152.91,0,0,0-32.85-18c-19.93-8-28.31-17.21-28.66-17.59a1,1,0,0,1,.07-1.42,1,1,0,0,1,1.42.08c.08.09,8.46,9.24,27.92,17.07a155.32,155.32,0,0,1,33.33,18.32,1,1,0,0,1-.62,1.79Z"/><path class="cls-4" d="M310.6,91.27a13.14,13.14,0,0,1-1.57-.08.5.5,0,0,1-.44-.56.52.52,0,0,1,.56-.43,22.26,22.26,0,0,0,15.26-4.87.51.51,0,0,1,.71.08.5.5,0,0,1-.08.7A23.26,23.26,0,0,1,310.6,91.27Z"/><path class="cls-4" d="M322.54,108.6a.5.5,0,0,1-.49-.43c-.84-5.61-6.52-12.51-6.58-12.58a.52.52,0,0,1,.07-.71.5.5,0,0,1,.7.07c.24.29,5.91,7.18,6.8,13.07a.5.5,0,0,1-.42.57Z"/><path class="cls-4" d="M328.22,102.16a.49.49,0,0,1-.5-.47.5.5,0,0,1,.47-.53c.07,0,7.42-.5,12.22-6.22a.5.5,0,0,1,.76.64,19.69,19.69,0,0,1-12.93,6.58Z"/><path class="cls-4" d="M342.34,115.67h-.1a.51.51,0,0,1-.4-.59c.54-2.82-4.6-8.25-6.63-10.1a.5.5,0,1,1,.68-.74c.31.29,7.69,7.08,6.94,11A.51.51,0,0,1,342.34,115.67Z"/><path class="cls-4" d="M346.69,110.58a.5.5,0,0,1,0-1c.05,0,5.05-.4,8.06-2.66a.5.5,0,0,1,.6.8c-3.24,2.44-8.37,2.84-8.59,2.85Z"/><path class="cls-4" d="M355.61,119.65h0a.5.5,0,0,1-.49-.5c0-2.15-1.85-4.87-1.87-4.9a.5.5,0,0,1,.12-.7.51.51,0,0,1,.7.12c.08.13,2.1,3,2.05,5.49A.49.49,0,0,1,355.61,119.65Z"/><path class="cls-4" d="M308.25,90.78a1,1,0,0,1-.47-.12c-5.58-3-14.35-15.78-14.72-16.32a1,1,0,1,1,1.65-1.13c.09.13,8.86,12.93,14,15.69a1,1,0,0,1-.47,1.88Z"/><path class="cls-7" d="M286.53,29.38s-3.43,37.17-44,51.11c-30.1,7.74-39.38,16.38-39.38,16.38S229.92,18.1,286.53,29.38Z"/><path class="cls-4" d="M208.21,91.9a1,1,0,0,1-.72-1.7A212.24,212.24,0,0,1,249.15,59c25.07-14.47,34.68-28.55,34.77-28.69a1,1,0,0,1,1.39-.28,1,1,0,0,1,.27,1.39c-.39.59-10,14.61-35.43,29.31A209.6,209.6,0,0,0,208.93,91.6,1,1,0,0,1,208.21,91.9Z"/><path class="cls-4" d="M272,39.63a31.85,31.85,0,0,1-16.35-4.44.5.5,0,1,1,.51-.86A30.82,30.82,0,0,0,278,38a.48.48,0,0,1,.61.35.5.5,0,0,1-.35.61A27.12,27.12,0,0,1,272,39.63Z"/><path class="cls-4" d="M263.17,65.23h0a.5.5,0,0,1-.5-.5c.07-8.12,6.42-18.53,6.69-19a.5.5,0,1,1,.85.52c-.06.11-6.47,10.62-6.54,18.46A.49.49,0,0,1,263.17,65.23Z"/><path class="cls-4" d="M253,57.63c-3,0-11-.61-17.46-6.45a.49.49,0,0,1,0-.7.5.5,0,0,1,.71,0c7.67,6.91,17.84,6.16,17.94,6.15a.5.5,0,0,1,.54.46.52.52,0,0,1-.46.54C254.19,57.59,253.75,57.63,253,57.63Z"/><path class="cls-4" d="M237.65,78.65a.49.49,0,0,1-.47-.34c-1.75-5.11,6.89-15.69,7.26-16.14a.52.52,0,0,1,.71-.07.51.51,0,0,1,.06.71c-.08.1-8.66,10.59-7.09,15.18a.5.5,0,0,1-.31.63A.45.45,0,0,1,237.65,78.65Z"/><path class="cls-4" d="M229.35,72.61c-2.35,0-7.1-.27-10.67-2.24a.5.5,0,1,1,.48-.87c4.57,2.52,11.5,2.08,11.56,2.08a.49.49,0,0,1,.54.46.5.5,0,0,1-.47.54C230.72,72.58,230.18,72.61,229.35,72.61Z"/><path class="cls-4" d="M220.38,86.63a.5.5,0,0,1-.49-.42c-.53-3.28,1.62-7.56,1.72-7.74a.49.49,0,0,1,.67-.22.51.51,0,0,1,.22.67s-2.1,4.17-1.62,7.13a.5.5,0,0,1-.42.57Z"/><path class="cls-4" d="M279.06,38.1a1,1,0,0,1-.59-1.81c6.45-4.73,10.07-17,10.11-17.11a1,1,0,1,1,1.92.56c-.15.53-3.84,13-10.85,18.17A1,1,0,0,1,279.06,38.1Z"/><path class="cls-4" d="M291.67,116.48a1,1,0,0,1-1-.92c-.41-5.26,5.42-27.36,5.66-28.29a1,1,0,0,1,1.94.51c-2.08,7.83-5.92,23.68-5.61,27.62a1,1,0,0,1-.92,1.08Z"/><path class="cls-5" d="M295,96.24s18.77,21.19-11.25,60.77c-6.63,7.81-11.6,12.66-11.6,12.66S287,100.2,295,96.24Z"/><path class="cls-3" d="M295,96.24h0c-8.05,4-22.85,73.43-22.85,73.43s1-.95,2.61-2.67C276.91,143,285.41,118.25,295,96.24Z"/><path class="cls-4" d="M298.12,119.56a.5.5,0,0,1-.49-.44,23.14,23.14,0,0,0-6.75-13.51.49.49,0,0,1-.05-.7.51.51,0,0,1,.71,0A23.7,23.7,0,0,1,298.62,119a.51.51,0,0,1-.44.56Z"/><path class="cls-4" d="M291.89,135.23a.49.49,0,0,1-.49-.47c-.34-5.46-7.11-12.45-7.18-12.52a.5.5,0,0,1,.72-.7c.29.3,7.09,7.33,7.45,13.16a.49.49,0,0,1-.46.53Z"/><path class="cls-4" d="M282.41,152.32h-.06a.5.5,0,0,1-.44-.56c.64-5.25-3-10.25-3.06-10.29a.5.5,0,1,1,.8-.6c.16.21,3.94,5.36,3.25,11A.49.49,0,0,1,282.41,152.32Z"/><path class="cls-4" d="M317.15,135.09a1,1,0,0,1-1-.77c-.94-3.83-9.53-17.7-13.94-24.5a1,1,0,0,1,1.68-1.09c.53.82,12.95,20,14.2,25.12a1,1,0,0,1-.73,1.21A1,1,0,0,1,317.15,135.09Z"/><path class="cls-7" d="M308,116.84s-11.24,26,29.62,54.24c8.74,5.35,15,8.41,15,8.41S316.88,118.1,308,116.84Z"/><path class="cls-3" d="M308,116.84h0c8.88,1.26,44.59,62.65,44.59,62.65s-1.21-.6-3.31-1.72C339.75,155.62,324,134.77,308,116.84Z"/><path class="cls-4" d="M312.14,140a.5.5,0,0,1-.49-.4A23.69,23.69,0,0,1,314,124a.49.49,0,0,1,.68-.18.51.51,0,0,1,.18.69,23.12,23.12,0,0,0-2.2,14.93.51.51,0,0,1-.39.59Z"/><path class="cls-4" d="M322.94,153a.5.5,0,0,1-.48-.37c-1.48-5.66,2.8-14.46,3-14.83a.5.5,0,0,1,.9.44c0,.09-4.3,8.84-2.92,14.13a.5.5,0,0,1-.35.61A.3.3,0,0,1,322.94,153Z"/><path class="cls-4" d="M337.28,166.24a.49.49,0,0,1-.45-.29c-2.41-5.16-.43-11.23-.34-11.48a.49.49,0,0,1,.63-.32.51.51,0,0,1,.32.63c0,.06-1.94,5.95.3,10.74a.52.52,0,0,1-.25.67A.5.5,0,0,1,337.28,166.24Z"/><path class="cls-1" d="M74.6,113.85s6.59,27.85,32.71,35.75C107.31,149.6,101.36,123.89,74.6,113.85Z"/><path class="cls-2" d="M107.24,149.31c-10.51-11.34-18-18.47-29.49-31.63-.39-1.23-3.15-3.83-3.15-3.83C99.7,123.27,106.49,146.46,107.24,149.31Z"/><path class="cls-3" d="M74.6,113.85s22.67,27.86,32.71,35.75Z"/><path class="cls-4" d="M84.4,143A1.5,1.5,0,0,1,83,141.84C67.75,84,18.5,24.77,18,24.18a1.5,1.5,0,0,1,2.3-1.92c.5.59,50.18,60.33,65.55,118.82a1.5,1.5,0,0,1-1.07,1.83A1.73,1.73,0,0,1,84.4,143Z"/><path class="cls-5" d="M26.31,54.94S-7.77,79.27,1.64,126.45C11.16,160,8,173.86,8,173.86S69.23,103.43,26.31,54.94Z"/><path class="cls-6" d="M26.33,55c38.83,43.91-7.69,105.8-16.81,117.08,8.69-29.32,5.72-62.27,10.58-94C21.19,70.62,23.89,62.59,26.33,55Z"/><path class="cls-4" d="M11,166.59a.84.84,0,0,1-.27,0,1,1,0,0,1-.7-1.23,235.17,235.17,0,0,0,6.67-57.44C16.5,75,24.43,56.79,24.51,56.61a1,1,0,1,1,1.83.81c-.08.18-7.84,18-7.69,50.45a237.54,237.54,0,0,1-6.74,58A1,1,0,0,1,11,166.59Z"/><path class="cls-4" d="M38.41,88.17a.5.5,0,0,1-.24-.06A35.56,35.56,0,0,1,21.76,68.4a.5.5,0,1,1,1-.26A34.53,34.53,0,0,0,38.65,87.23a.5.5,0,0,1-.24.94Z"/><path class="cls-4" d="M5.25,98.05a.52.52,0,0,1-.43-.24A.51.51,0,0,1,5,97.12c7.57-4.5,14.14-16.66,14.21-16.79a.5.5,0,1,1,.88.48c-.27.51-6.77,12.52-14.58,17.17A.48.48,0,0,1,5.25,98.05Z"/><path class="cls-4" d="M34.14,116.6a.4.4,0,0,1-.15,0c-11.48-3.68-16.68-14.35-16.73-14.46a.49.49,0,0,1,.24-.66.5.5,0,0,1,.67.23c0,.11,5.07,10.4,16.12,13.94a.5.5,0,0,1,.33.63A.51.51,0,0,1,34.14,116.6Z"/><path class="cls-4" d="M6.67,130.36a.5.5,0,0,1-.1-1c5.37-1.08,10.7-15.34,10.75-15.49a.5.5,0,0,1,.64-.29.5.5,0,0,1,.3.64c-.23.61-5.58,14.93-11.49,16.12Z"/><path class="cls-4" d="M25.21,143.87a.55.55,0,0,1-.25-.07c-5.3-3.17-8.81-10.18-9-10.47a.5.5,0,0,1,.9-.45c0,.07,3.53,7,8.57,10.06a.5.5,0,0,1-.26.93Z"/><path class="cls-4" d="M8.7,151.6a.49.49,0,0,1-.47-.32.5.5,0,0,1,.29-.65c3.15-1.21,6-5.57,6-5.62a.5.5,0,0,1,.69-.15.49.49,0,0,1,.15.69c-.12.19-3,4.68-6.5,6A.35.35,0,0,1,8.7,151.6Z"/><path class="cls-4" d="M23.07,64.87a1.15,1.15,0,0,1-.36-.07,1,1,0,0,1-.57-1.3c5.06-12.84,6-27.59,6.05-27.74a1,1,0,1,1,2,.13c0,.15-1,15.21-6.18,28.34A1,1,0,0,1,23.07,64.87Z"/><path class="cls-7" d="M54.09,63.16S68,89.94,102.55,88.06c24.89-3.35,34.46.3,34.46.3S93.05,37.52,54.09,63.16Z"/><path class="cls-8" d="M137,88.36a17.14,17.14,0,0,0-2.09-.56c-4-3.22-11.88-5.84-17.58-7.3-23.49-6-42.77-6.72-62.78-17.63C93.4,37.94,137,88.36,137,88.36Z"/><path class="cls-4" d="M131.41,86.43a.92.92,0,0,1-.4-.08,169.94,169.94,0,0,0-40.2-10.61c-23.57-3.27-35-10.89-35.5-11.21a1,1,0,1,1,1.12-1.66C56.54,63,68,70.56,91.08,73.76a171.29,171.29,0,0,1,40.73,10.76,1,1,0,0,1-.4,1.91Z"/><path class="cls-4" d="M63.18,67.92a.5.5,0,0,1-.06-1,24.73,24.73,0,0,0,15.15-9.35.5.5,0,0,1,.7-.1.5.5,0,0,1,.09.7,25.27,25.27,0,0,1-15.82,9.74Z"/><path class="cls-4" d="M82.32,83a.49.49,0,0,1-.46-.3C79.43,76.9,71.47,71,71.39,70.93a.5.5,0,0,1-.11-.7.51.51,0,0,1,.7-.1c.34.24,8.27,6.13,10.8,12.21a.52.52,0,0,1-.27.66A.63.63,0,0,1,82.32,83Z"/><path class="cls-4" d="M86.69,74.59a.5.5,0,0,1-.15-1c.08,0,7.88-2.54,11.51-10a.51.51,0,0,1,.66-.23.49.49,0,0,1,.23.67,21.72,21.72,0,0,1-12.1,10.52A.39.39,0,0,1,86.69,74.59Z"/><path class="cls-4" d="M105.5,85.33a.5.5,0,0,1-.5-.47c-.18-3.21-7.19-7.68-9.87-9.14a.5.5,0,1,1,.48-.88c.41.23,10.14,5.55,10.39,10a.51.51,0,0,1-.47.53Z"/><path class="cls-4" d="M108.81,78.69a.5.5,0,0,1-.47-.35.49.49,0,0,1,.32-.63s5.34-1.78,8-5a.5.5,0,0,1,.7-.08.51.51,0,0,1,.07.71c-2.82,3.48-8.21,5.28-8.44,5.35A.45.45,0,0,1,108.81,78.69Z"/><path class="cls-4" d="M120.85,86.06a.5.5,0,0,1-.49-.39c-.53-2.33-3.32-4.77-3.35-4.79a.5.5,0,0,1,.66-.76c.12.11,3.06,2.68,3.66,5.33a.49.49,0,0,1-.37.6Z"/><path class="cls-4" d="M62,67.67a1,1,0,0,1-.24,0C55,65.93,42.17,54.53,41.63,54.05A1,1,0,1,1,43,52.56c.13.11,13,11.55,19.32,13.14a1,1,0,0,1-.25,2Z"/><path class="cls-7" d="M54.52,84.67s12.23,24.3-7.46,48.58c-15.62,16.41-18,25.33-18,25.33S15.16,99.56,54.52,84.67Z"/><path class="cls-8" d="M29,158.58a14.82,14.82,0,0,1,.7-1.82c-.23-4.65,2-11.77,4-16.71,8-20.36,17.73-34.8,20.35-55.2C15.28,100,29,158.58,29,158.58Z"/><path class="cls-4" d="M29.87,153.94l-.22,0a1,1,0,0,1-.76-1.19A154.23,154.23,0,0,1,42.6,117.26C52.45,98.74,53,86.34,53,86.21a1,1,0,0,1,1-1h0a1,1,0,0,1,1,1c0,.52-.52,12.94-10.61,31.91a152.75,152.75,0,0,0-13.52,35A1,1,0,0,1,29.87,153.94Z"/><path class="cls-4" d="M37.65,100.32a.51.51,0,0,1-.5-.49.52.52,0,0,1,.49-.51,22.22,22.22,0,0,0,14.82-6.1.5.5,0,1,1,.73.68,22.89,22.89,0,0,1-15.53,6.42Z"/><path class="cls-4" d="M53.73,116a.52.52,0,0,1-.43-.24c-3.11-5.08-3.21-14-3.21-14.38a.5.5,0,0,1,.5-.5h0a.5.5,0,0,1,.5.49c0,.09.1,9,3.07,13.87A.51.51,0,0,1,54,116,.48.48,0,0,1,53.73,116Z"/><path class="cls-4" d="M34.42,118.21a16.52,16.52,0,0,1-3-.26.5.5,0,1,1,.17-1c7.36,1.29,13.3-3.06,13.36-3.1a.5.5,0,0,1,.7.1.51.51,0,0,1-.1.7A20.18,20.18,0,0,1,34.42,118.21Z"/><path class="cls-4" d="M43.14,134.19a.54.54,0,0,1-.32-.11C39.71,131.54,41,121.59,41,121.17a.51.51,0,0,1,.56-.43.5.5,0,0,1,.43.56c-.36,2.72-.79,10.19,1.43,12a.5.5,0,0,1,.08.7A.49.49,0,0,1,43.14,134.19Z"/><path class="cls-4" d="M28.39,136.34a.49.49,0,0,1-.5-.47.5.5,0,0,1,.47-.53c3.76-.2,7.84-3.12,7.88-3.15a.51.51,0,0,1,.7.11.5.5,0,0,1-.12.7c-.17.13-4.35,3.12-8.41,3.34Z"/><path class="cls-4" d="M35.55,145.79a.52.52,0,0,1-.38-.17c-1.62-1.86-2-5.38-2-5.53a.5.5,0,1,1,1-.08s.32,3.34,1.72,5a.5.5,0,0,1,0,.71A.54.54,0,0,1,35.55,145.79Z"/><path class="cls-4" d="M52.88,93.32a.94.94,0,0,1-.37-.07A1,1,0,0,1,52,92c2.16-5.42.63-20.87.62-21a1,1,0,1,1,2-.21c.06.66,1.59,16.1-.75,22A1,1,0,0,1,52.88,93.32Z"/><path class="cls-7" d="M30.61,32.12S57.17,58.35,97.19,42.9c28-13.46,40.67-12.82,40.67-12.82S66.67-13,30.61,32.12Z"/><path class="cls-4" d="M52.53,35.1C40,35.1,33.06,33.17,32.63,33a1,1,0,1,1,.55-1.92c.16,0,16.64,4.62,45.08-.43a212,212,0,0,1,52-2.91,1,1,0,1,1-.2,2,209.83,209.83,0,0,0-51.44,2.89A149.33,149.33,0,0,1,52.53,35.1Z"/><path class="cls-4" d="M42.94,34.17a.5.5,0,0,1-.21-1A30.67,30.67,0,0,0,57,16.34a.5.5,0,0,1,.64-.3.5.5,0,0,1,.31.63A31.81,31.81,0,0,1,43.15,34.12.54.54,0,0,1,42.94,34.17Z"/><path class="cls-4" d="M71.25,44.63a.52.52,0,0,1-.38-.17c-5.1-6-16.77-9.88-16.89-9.92a.5.5,0,1,1,.31-.95c.49.17,12.06,4,17.34,10.22a.5.5,0,0,1-.38.82Z"/><path class="cls-4" d="M73.17,33a.49.49,0,0,1-.41-.21.49.49,0,0,1,.12-.69c.08-.06,8.34-6,9.77-16.26a.5.5,0,0,1,.56-.42.5.5,0,0,1,.43.56c-1.49,10.67-9.83,16.68-10.18,16.93A.52.52,0,0,1,73.17,33Z"/><path class="cls-4" d="M99.41,38.47a.48.48,0,0,1-.46-.32c-1.76-4.52-15.07-7-15.2-7a.5.5,0,0,1-.4-.58.49.49,0,0,1,.58-.41c.57.11,14,2.64,15.95,7.68a.5.5,0,0,1-.29.65A.57.57,0,0,1,99.41,38.47Z"/><path class="cls-4" d="M100.78,29.38a.5.5,0,0,1-.3-.9c.06,0,5.63-4.16,7.51-9a.51.51,0,0,1,.65-.28.5.5,0,0,1,.28.64c-2,5.15-7.61,9.31-7.85,9.49A.52.52,0,0,1,100.78,29.38Z"/><path class="cls-4" d="M117.76,33.46a.52.52,0,0,1-.43-.24c-1.53-2.58-5.78-4.4-5.82-4.41a.5.5,0,0,1,.39-.93c.18.08,4.59,2,6.29,4.82a.5.5,0,0,1-.17.69A.48.48,0,0,1,117.76,33.46Z"/><path class="cls-4" d="M40.35,34.25c-8.48,0-18.54-6.66-19-6.95a1,1,0,0,1-.28-1.39,1,1,0,0,1,1.39-.27c.11.07,10.76,7.1,18.75,6.58a1,1,0,1,1,.14,2C41,34.24,40.69,34.25,40.35,34.25Z"/><path class="cls-4" d="M82.11,102.31a1,1,0,0,1-.82-.41C79,98.68,65.85,89,59.22,84.37A1,1,0,0,1,59,83a1,1,0,0,1,1.39-.24c.79.56,19.48,13.71,22.55,18a1,1,0,0,1-.23,1.4A1,1,0,0,1,82.11,102.31Z"/><path class="cls-5" d="M67.18,88.73S66.45,117,114.91,128c10.1,1.7,17,2.21,17,2.21S75.89,86.58,67.18,88.73Z"/><path class="cls-3" d="M67.18,88.73h0c8.71-2.15,64.75,41.47,64.75,41.47s-1.34-.1-3.71-.35C111.11,112.85,88.68,99.4,67.18,88.73Z"/><path class="cls-4" d="M79.48,108.71a.51.51,0,0,1-.42-.23A23.68,23.68,0,0,1,75.38,93.1a.5.5,0,1,1,1,.15,23.14,23.14,0,0,0,3.53,14.68.49.49,0,0,1-.14.69A.46.46,0,0,1,79.48,108.71Z"/><path class="cls-4" d="M94.33,116.69a.51.51,0,0,1-.4-.2c-3.48-4.7-2.8-14.46-2.77-14.87a.5.5,0,1,1,1,.07c0,.1-.68,9.8,2.57,14.2a.5.5,0,0,1-.1.7A.47.47,0,0,1,94.33,116.69Z"/><path class="cls-4" d="M112.6,123.66a.52.52,0,0,1-.35-.14c-4.15-3.88-4.58-10.25-4.6-10.52a.51.51,0,0,1,.47-.53.5.5,0,0,1,.53.47c0,.06.42,6.25,4.29,9.85a.5.5,0,0,1,0,.71A.48.48,0,0,1,112.6,123.66Z"/><path class="cls-4" d="M74.59,133a1,1,0,0,1-.89-.55c-2.35-4.73-5.19-27.4-5.31-28.36a1,1,0,1,1,2-.25c1,8,3.35,24.18,5.11,27.72a1,1,0,0,1-.45,1.34A1,1,0,0,1,74.59,133Z"/><path class="cls-7" d="M70.49,112.86s25.33,12.66,12.25,60.58c-3.24,9.72-6,16.07-6,16.07S64.5,119.54,70.49,112.86Z"/><path class="cls-3" d="M70.49,112.86h0c-6,6.68,6.21,76.65,6.21,76.65s.54-1.23,1.43-3.44C71.16,163,69.81,136.86,70.49,112.86Z"/><path class="cls-4" d="M81.91,133.37a.51.51,0,0,1-.44-.26,23.07,23.07,0,0,0-11.3-10,.5.5,0,0,1,.33-.94,23.67,23.67,0,0,1,11.85,10.47.51.51,0,0,1-.2.68A.53.53,0,0,1,81.91,133.37Z"/><path class="cls-4" d="M82,150.23a.5.5,0,0,1-.45-.28C79.18,145,70.29,141.05,70.2,141a.5.5,0,0,1,.41-.92c.37.17,9.31,4.15,11.82,9.43a.49.49,0,0,1-.23.66A.44.44,0,0,1,82,150.23Z"/><path class="cls-4" d="M79.56,169.63a.5.5,0,0,1-.48-.37c-1.37-5.1-6.64-8.38-6.69-8.41a.5.5,0,0,1-.16-.69.49.49,0,0,1,.68-.16c.23.14,5.66,3.5,7.13,9a.48.48,0,0,1-.35.61A.3.3,0,0,1,79.56,169.63Z"/><path class="cls-5" d="M210,39.8S249.35,56.11,250.81,105c-1.75,35.41,4.52,48.44,4.52,48.44S178.58,97.65,210,39.8Z"/><path class="cls-6" d="M209.52,40.77c3.47,7.95,9.15,14.15,12.69,22,12.54,28.6,14,65.43,32.76,89.75.22.59.36.88.36.88S179.46,98.28,209.52,40.77Z"/><path class="cls-4" d="M250.54,146.92a1,1,0,0,1-.88-.52,241.92,241.92,0,0,1-19.93-55.91C222.46,58.31,210.34,43,210.22,42.85a1,1,0,1,1,1.55-1.25c.51.63,12.53,15.77,19.92,48.44,7.3,32.32,19.61,55.18,19.73,55.4a1,1,0,0,1-.4,1.36A1,1,0,0,1,250.54,146.92Z"/><path class="cls-4" d="M205.52,75.49a.52.52,0,0,1-.38-.17.5.5,0,0,1,0-.7A35,35,0,0,0,216.6,52.05a.5.5,0,0,1,.5-.48h0a.5.5,0,0,1,.48.52,36.12,36.12,0,0,1-11.75,23.27A.5.5,0,0,1,205.52,75.49Z"/><path class="cls-4" d="M240.63,77.7l-.15,0c-8.8-2.82-18-13.24-18.37-13.68a.5.5,0,0,1,0-.71.51.51,0,0,1,.71.05c.09.1,9.39,10.65,17.92,13.38a.51.51,0,0,1,.33.63A.5.5,0,0,1,240.63,77.7Z"/><path class="cls-4" d="M216.24,102.68a.5.5,0,0,1-.25-.93c10.16-6,12.77-17.39,12.8-17.5a.5.5,0,1,1,1,.21c0,.12-2.73,11.88-13.26,18.15A.48.48,0,0,1,216.24,102.68Z"/><path class="cls-4" d="M246.5,110c-6.11,0-14.58-12.8-14.94-13.34a.51.51,0,0,1,.15-.7.5.5,0,0,1,.69.15c.08.13,8.52,12.89,14.1,12.89h.11a.5.5,0,0,1,0,1Z"/><path class="cls-4" d="M231.33,127.66a.5.5,0,0,1-.35-.86c4.31-4.14,6.18-11.85,6.2-11.92a.5.5,0,0,1,.6-.38.51.51,0,0,1,.37.61c-.08.32-2,8.06-6.48,12.41A.49.49,0,0,1,231.33,127.66Z"/><path class="cls-4" d="M249.46,131.55h-.07c-3.73-.53-7.64-4.31-7.81-4.47a.5.5,0,1,1,.7-.71s3.85,3.71,7.25,4.19a.5.5,0,0,1,.43.57A.51.51,0,0,1,249.46,131.55Z"/><path class="cls-4" d="M214.43,48.62a1,1,0,0,1-.9-.54c-3.9-7.64-8.8-10.19-8.85-10.22a1,1,0,0,1,.9-1.78c.22.11,5.5,2.82,9.74,11.09a1,1,0,0,1-.44,1.34A.91.91,0,0,1,214.43,48.62Z"/><path class="cls-7" d="M170.38,90.41s-28.81-.69-31.57,39.49C138.81,129.9,171.19,128.57,170.38,90.41Z"/><path class="cls-1" d="M170.38,90.41c.78,36.81-29.31,39.35-31.45,39.49C149,116.51,159.87,104,169.52,90.43,170.07,90.4,170.38,90.41,170.38,90.41Z"/><path class="cls-3" d="M142.31,126.65s20.7-32.6,28.07-36.24Z"/><path class="cls-4" d="M162,99.3a1.5,1.5,0,0,1-.85-2.73C181.24,82.79,212.61,17.66,212.92,17a1.5,1.5,0,0,1,2.7,1.3c-1.29,2.71-32,66.52-52.78,80.74A1.46,1.46,0,0,1,162,99.3Z"/><path class="cls-5" d="M187.4,57s-21.61,28.58-61.76,19.41c-28.46-8.93-40.4-6.58-40.4-6.58S146.94,19.12,187.4,57Z"/><path class="cls-6" d="M121.64,63.91c20.87-2.59,41.51-.85,62.59-4.27a4.33,4.33,0,0,0,1.55-.77c-5.7,6.22-26.36,25.23-60.14,17.52-28.46-8.93-40.4-6.58-40.4-6.58s.46-.38,1.3-1a85.88,85.88,0,0,1,25.8-2.86C115,65.74,119,64.1,121.64,63.91Z"/><path class="cls-4" d="M92.38,68.5a1,1,0,0,1-1-.75,1,1,0,0,1,.73-1.22A203.77,203.77,0,0,1,142,62.14c27.68.89,42.7-5.73,42.85-5.8a1,1,0,0,1,.83,1.83c-.62.28-15.54,6.88-43.75,6a200.93,200.93,0,0,0-49.25,4.34A1.06,1.06,0,0,1,92.38,68.5Z"/><path class="cls-4" d="M175.9,60.64a.36.36,0,0,1-.14,0,30.42,30.42,0,0,1-16.51-14.54.5.5,0,1,1,.88-.46,29.44,29.44,0,0,0,15.92,14.05.49.49,0,0,1,.33.62A.48.48,0,0,1,175.9,60.64Z"/><path class="cls-4" d="M150.45,74.49a.56.56,0,0,1-.27-.08.5.5,0,0,1-.15-.69c4.17-6.59,14.62-11.88,15.07-12.1a.5.5,0,1,1,.44.9c-.1,0-10.65,5.38-14.67,11.73A.49.49,0,0,1,150.45,74.49Z"/><path class="cls-4" d="M147,63.72a.59.59,0,0,1-.23,0c-.37-.19-9.13-4.76-12-14.7a.5.5,0,1,1,1-.28c2.76,9.51,11.42,14,11.51,14.09a.49.49,0,0,1,.21.67A.5.5,0,0,1,147,63.72Z"/><path class="cls-4" d="M122.85,72.51h-.11a.51.51,0,0,1-.38-.6c1.17-5.07,13.58-9.33,14.11-9.5a.5.5,0,0,1,.32.94c-.12,0-12.41,4.25-13.46,8.78A.49.49,0,0,1,122.85,72.51Z"/><path class="cls-4" d="M120.3,64.07a.46.46,0,0,1-.23-.06c-.25-.14-6.18-3.31-8.77-7.94a.5.5,0,0,1,.19-.68.51.51,0,0,1,.68.19c2.45,4.37,8.31,7.51,8.37,7.54a.51.51,0,0,1,.2.68A.5.5,0,0,1,120.3,64.07Z"/><path class="cls-4" d="M104.73,70.27a.69.69,0,0,1-.2,0,.5.5,0,0,1-.26-.66c1.23-3,5.15-5.35,5.32-5.45a.5.5,0,1,1,.52.86s-3.82,2.33-4.92,5A.5.5,0,0,1,104.73,70.27Z"/><path class="cls-4" d="M178.82,60.21h-.09a1,1,0,0,1-1-1,1,1,0,0,1,1-1h.07c6.15,0,17.41-7.28,17.52-7.36a1,1,0,0,1,1.09,1.68C197,52.84,185.57,60.21,178.82,60.21Z"/><path class="cls-6" d="M193.53,66.23s18.25,23.94,1.78,54.36c-13.65,21-14.44,31.22-14.44,31.22S153.76,90.44,193.53,66.23Z"/><path class="cls-4" d="M180.62,146.51h0a1,1,0,0,1-1-1,170.46,170.46,0,0,1,7.68-41.34c6.95-22.18,5-35.79,5-35.93a1,1,0,0,1,.84-1.14,1,1,0,0,1,1.14.84c.09.56,2.07,14.16-5,36.82a168.65,168.65,0,0,0-7.59,40.81A1,1,0,0,1,180.62,146.51Z"/><path class="cls-4" d="M178.27,86.65a.48.48,0,0,1-.48-.4.49.49,0,0,1,.38-.59A24.54,24.54,0,0,0,193.07,76a.5.5,0,0,1,.69-.15.48.48,0,0,1,.16.68,25.2,25.2,0,0,1-15.54,10.13Z"/><path class="cls-4" d="M199,100.47a.52.52,0,0,1-.37-.16c-4.41-4.88-6.33-14.56-6.41-15a.5.5,0,0,1,1-.19c0,.1,2,9.81,6.17,14.48a.5.5,0,0,1-.37.84Z"/><path class="cls-4" d="M175.18,107.08a.49.49,0,0,1-.5-.49.51.51,0,0,1,.49-.51c8.3-.08,13.88-6,13.94-6.11a.5.5,0,0,1,.71,0,.49.49,0,0,1,0,.7,21.66,21.66,0,0,1-14.66,6.43Z"/><path class="cls-4" d="M191.13,122.37a.46.46,0,0,1-.23-.06c-3.88-2.11-4.53-13.16-4.55-13.63a.5.5,0,1,1,1-.06c.16,3,1.21,11.28,4,12.81a.49.49,0,0,1,.2.68A.51.51,0,0,1,191.13,122.37Z"/><path class="cls-4" d="M175.53,127.71a.49.49,0,0,1-.48-.38.48.48,0,0,1,.36-.6c4.07-1,7.92-5,8-5a.5.5,0,1,1,.73.69c-.17.17-4.09,4.27-8.44,5.33Z"/><path class="cls-4" d="M185.24,136.53a.51.51,0,0,1-.31-.11c-2.13-1.68-3.19-5.42-3.24-5.58a.51.51,0,0,1,.35-.62.5.5,0,0,1,.61.35s1,3.59,2.9,5.07a.49.49,0,0,1,.08.7A.51.51,0,0,1,185.24,136.53Z"/><path class="cls-4" d="M193.44,73.58h-.05a1,1,0,0,1-.95-1.06c.32-5.94-1.72-9.18-1.74-9.21a1,1,0,0,1,.3-1.38,1,1,0,0,1,1.38.29c.1.15,2.41,3.76,2.06,10.41A1,1,0,0,1,193.44,73.58Z"/><path class="cls-5" d="M208.43,25.53s-28.5,22.15-65.16,2.73c-25.36-16.14-37.59-17-37.59-17S179-21.89,208.43,25.53Z"/><path class="cls-4" d="M198.91,26.66c-7.38,0-19.94-1-36.63-6.08a202.66,202.66,0,0,0-49.07-8.67,1,1,0,0,1,0-2h0a204.52,204.52,0,0,1,49.61,8.76c26.77,8.12,43.06,5.6,43.21,5.57a1,1,0,0,1,.33,2A51.24,51.24,0,0,1,198.91,26.66Z"/><path class="cls-4" d="M196.42,26.1a.48.48,0,0,1-.26-.07A30.71,30.71,0,0,1,183.9,7.56a.5.5,0,1,1,1-.21,29.68,29.68,0,0,0,11.81,17.83.5.5,0,0,1,.17.69A.51.51,0,0,1,196.42,26.1Z"/><path class="cls-4" d="M168,32.91a.49.49,0,0,1-.37-.16.5.5,0,0,1,0-.71c5.78-5.32,17.33-7.72,17.82-7.82a.5.5,0,0,1,.59.39.51.51,0,0,1-.39.59c-.12,0-11.77,2.45-17.35,7.58A.46.46,0,0,1,168,32.91Z"/><path class="cls-4" d="M167.52,21.54a.46.46,0,0,1-.33-.13c-.31-.28-7.64-7-7.84-17.43a.49.49,0,0,1,.49-.51.53.53,0,0,1,.51.49c.19,10,7.43,16.64,7.51,16.71a.5.5,0,0,1,0,.71A.49.49,0,0,1,167.52,21.54Z"/><path class="cls-4" d="M141.7,23.76a.48.48,0,0,1-.24-.06.5.5,0,0,1-.21-.67c2.46-4.63,15.65-5.52,16.21-5.55a.5.5,0,0,1,.07,1c-.13,0-13.19.88-15.39,5A.5.5,0,0,1,141.7,23.76Z"/><path class="cls-4" d="M141.43,14.88a.48.48,0,0,1-.34-.13c-.21-.2-5.15-4.84-6.46-10a.49.49,0,0,1,.36-.6.5.5,0,0,1,.61.36c1.24,4.89,6.12,9.48,6.17,9.53a.49.49,0,0,1,0,.7A.46.46,0,0,1,141.43,14.88Z"/><path class="cls-4" d="M124.65,16.85a.51.51,0,0,1-.31-.11.5.5,0,0,1-.09-.7c2-2.55,6.42-3.85,6.61-3.91a.51.51,0,0,1,.62.34.5.5,0,0,1-.34.62s-4.33,1.28-6.1,3.56A.47.47,0,0,1,124.65,16.85Z"/><path class="cls-4" d="M202.14,26.53l-1.36,0a1,1,0,1,1,.09-2c7.28.32,11.1-2.19,11.14-2.22a1,1,0,0,1,1.39.28,1,1,0,0,1-.28,1.38C213,24.06,209.18,26.53,202.14,26.53Z"/><path class="cls-4" d="M149.51,101.11a1,1,0,0,1-.7-.29,1,1,0,0,1,0-1.42c3.51-3.55,22.94-13.06,23.76-13.47a1,1,0,0,1,1.34.46,1,1,0,0,1-.46,1.34c-6.88,3.36-20.6,10.42-23.22,13.08A1,1,0,0,1,149.51,101.11Z"/><path class="cls-6" d="M165.33,90.57s-3.54,26.56-50.44,29.57c-9.69.09-16.24-.46-16.24-.46S157.51,87.27,165.33,90.57Z"/><path class="cls-3" d="M165.33,90.57h0c-7.82-3.3-66.68,29.11-66.68,29.11s1.28.11,3.53.22C120.7,106.57,143.65,97.34,165.33,90.57Z"/><path class="cls-4" d="M150.94,107.44a.51.51,0,0,1-.34-.14.5.5,0,0,1,0-.7,21.91,21.91,0,0,0,5.48-13.17.5.5,0,0,1,.5-.5h0a.51.51,0,0,1,.5.51,22.53,22.53,0,0,1-5.74,13.83A.51.51,0,0,1,150.94,107.44Z"/><path class="cls-4" d="M135.87,112.68a.5.5,0,0,1-.35-.86C139.22,108.2,140,99.05,140,99a.5.5,0,0,1,1,.08c0,.39-.85,9.62-4.81,13.5A.52.52,0,0,1,135.87,112.68Z"/><path class="cls-4" d="M117.77,116.48a.48.48,0,0,1-.41-.23.49.49,0,0,1,.13-.69c4.14-2.79,5.45-8.49,5.46-8.55a.5.5,0,1,1,1,.22c-.06.25-1.41,6.14-5.88,9.16A.49.49,0,0,1,117.77,116.48Z"/></g></g></svg>